<svg xmlns="http://www.w3.org/2000/svg" width="640" height="360" viewBox="0 0 640 360"><defs/><defs><linearGradient id="b" x1="1572.7" x2="1834.3" y1="949.9" y2="1330.4" gradientUnits="userSpaceOnUse"><stop offset="0" stop-color="#fff"/><stop offset="1" stop-color="#E6E6E6"/></linearGradient></defs><defs><filter id="g" color-interpolation-filters="sRGB"><feFlood flood-color="#CBCCCE" result="flood"/><feComposite in="flood" in2="SourceGraphic" operator="in" result="composite1"/><feGaussianBlur in="composite1" result="blur" stdDeviation="12"/><feOffset dx="24" dy="24" result="offset"/><feComposite in="SourceGraphic" in2="offset" result="composite2"/></filter><filter id="f" width="1.202" height="1.258" color-interpolation-filters="sRGB"><feFlood flood-color="#CBCCCE" flood-opacity=".847" result="flood"/><feComposite in="flood" in2="SourceGraphic" operator="in" result="composite1"/><feGaussianBlur in="composite1" result="blur" stdDeviation="12"/><feOffset dx="20" dy="20" result="offset"/><feComposite in="SourceGraphic" in2="offset" result="composite2"/></filter></defs><style>.st2{fill:#bcbec0}.st3{fill:#808285}.st4{fill:#828487}.st10{font-family:&apos;RobotoCondensed-Bold&apos;}.st12{font-size:58.0621px}.st14{font-size:25.4663px}</style><g stroke-width="1.341"><g stroke-width="3.726" filter="url(#g)" transform="matrix(.36212 0 0 .35747 -88.896 -120.447)"><linearGradient id="d" x1="568.16" x2="1196.6" y1="794.89" y2="1589.9" gradientUnits="userSpaceOnUse"><stop offset="0" stop-color="#fff"/><stop offset="1" stop-color="#E6E6E6"/></linearGradient><path fill="url(#d)" d="M980.7 1238.4h-540c-33.1 0-60-26.9-60-60V771.9c0-33.1 26.9-60 60-60h540c33.1 0 60 26.9 60 60v406.5c0 33.2-26.9 60-60 60z"/><linearGradient id="c" x1="380.21" x2="1041.2" y1="975.18" y2="975.18" gradientUnits="userSpaceOnUse"><stop offset="0" stop-color="#E6E6E6"/><stop offset="1" stop-color="#fff"/></linearGradient><path fill="url(#c)" d="M980.7 1238.9h-540c-33.4 0-60.5-27.1-60.5-60.5V771.9c0-33.4 27.1-60.5 60.5-60.5h540c33.4 0 60.5 27.1 60.5 60.5v406.5c0 33.4-27.2 60.5-60.5 60.5zm-540-526.5c-32.8 0-59.5 26.7-59.5 59.5v406.5c0 32.8 26.7 59.5 59.5 59.5h540c32.8 0 59.5-26.7 59.5-59.5V771.9c0-32.8-26.7-59.5-59.5-59.5z"/></g><g stroke-width="2.779"><path fill="#bcbec0" d="M193.41 177.071h7.243v2.144h-7.242z" class="st2"/><path d="M200.659 172.782h-7.243v-4.325h7.243zm0-8.614h-7.243v-4.326h7.243zm0-8.615h-7.243v-4.326h7.243zm0-8.615h-7.243v-4.326h7.243zm0-8.615h-7.243v-4.326h7.243zm0-8.615h-7.243v-4.326h7.243zm0-8.615h-7.243v-4.325h7.243zm0-8.651h-7.243v-2.68c0-.644.037-1.288.072-1.931l7.207.536c-.036.465-.036.93-.036 1.358zm.688-7.542l-6.953-1.967a24.897 24.897 0 011.883-4.683l6.446 3.29a15.741 15.685 0 00-1.376 3.36zm3.332-6.327l-5.65-4.505a25.93 25.838 0 013.585-3.574l4.636 5.505a19.33 19.26 0 00-2.571 2.574zm5.576-4.54l-3.404-6.292a24.364 24.277 0 014.707-1.895l2.065 6.864c-1.196.286-2.318.75-3.368 1.322zm6.917-2.038l-.616-7.114a23.051 23.051 0 012.245-.107h2.427v7.15H218.8c-.58 0-1.123.035-1.63.07zm187.323-.072h-4.382v-7.149h4.382zm-8.728 0h-4.381v-7.149h4.381zm-8.727 0h-4.381v-7.149h4.381zm-8.727 0h-4.382v-7.149h4.383zm-8.727 0h-4.381v-7.149h4.381zm-8.728 0h-4.38v-7.149h4.381zm-8.726 0h-4.381v-7.149h4.381zm-8.728 0h-4.381v-7.149h4.381zm-8.727 0h-4.381v-7.149h4.381zm-8.727 0h-4.382v-7.149h4.383zm-8.727 0h-4.381v-7.149h4.381zm-8.728 0h-4.38v-7.149h4.381zm-8.726 0h-4.382v-7.149h4.382zm-8.763 0h-4.382v-7.149h4.382zm-8.728 0h-4.345v-7.149h4.381v7.15zm-8.727 0h-4.382v-7.149h4.382zm-8.727 0h-4.382v-7.149h4.382zm-8.728 0h-4.381v-7.149h4.382zm-8.727 0h-4.38v-7.149h4.38zm-8.727 0h-4.381v-7.149h4.382zm-8.727 0h-4.381v-7.149h4.381z" class="st2"/><path fill="#bcbec0" d="M408.88 84.778h2.174v7.149h-2.173z" class="st2"/><path d="M586.46 80.668c5.794-31.172-18.54-59.697-50.335-59.697-18.396 0-34.836 9.615-43.89 24.522-12.348-3.933-25.094-2.252-35.56 4.862s-16.73 18.373-17.237 30.706c-13.978 6.506-23.14 20.268-23.14 35.354 0 2.573.254 5.183.76 7.685 3.694 18.302 20.1 31.6 39.038 31.6h114.142c22.162 0 40.196-17.623 40.196-39.285 0-15.443-9.524-29.42-23.973-35.747zm-16.223 63.843H456.095c-15.534 0-28.427-12.44-28.427-28.061 0-11.69 7.786-22.27 19.374-26.345l4.056-1.395-.254-4.217c-.615-9.903 3.984-19.197 12.276-24.845 8.764-5.97 19.554-6.363 29.405-1.966l5.105 2.288 2.39-5.04c6.52-13.799 20.678-22.7 36.105-22.7 21.944 0 39.797 17.624 39.797 39.286 0 6.4-1.376 10.296-2.898 15.443 4.237 2.18 4.926 2.573 6.374 3.074 11.768 3.968 19.663 14.585 19.663 26.417 0 15.443-12.928 28.061-28.825 28.061z" class="st3"/></g><g fill="#828487"><path stroke-width="2.779" d="M488.077 123.665h6.777c1.736 0 2.894-.326 3.804-1.081.908-.755 1.487-2 1.487-3.203 0-1.469-.785-2.631-2.5-3.611 1.488-.938 2.066-1.794 2.066-3.06 0-1.04-.516-2.101-1.363-2.835-.89-.755-1.943-1.081-3.556-1.081h-6.715zm3.099-12.322h3.37c1.446 0 2.19.572 2.19 1.674 0 1.122-.744 1.693-2.19 1.693h-3.37zm0 5.917h3.7c1.508 0 2.293.653 2.293 1.938 0 1.265-.785 1.917-2.294 1.917h-3.698zm10.698-4.612v11.016h2.893v-5.855c0-1.673.847-2.509 2.541-2.509.31 0 .517.02.91.082v-2.898c-.165-.02-.228-.02-.352-.02-1.322 0-2.459.856-3.1 2.346v-2.162zm12.203-.182c-3.41 0-5.497 2.223-5.497 5.834 0 3.632 2.087 5.835 5.518 5.835 3.41 0 5.517-2.204 5.517-5.753 0-3.733-2.046-5.916-5.538-5.916zm.02 2.305c1.592 0 2.625 1.407 2.625 3.57 0 2.06-1.075 3.488-2.624 3.488-1.57 0-2.625-1.407-2.625-3.529s1.053-3.53 2.625-3.53zm16.492 8.547c-.495-.469-.661-.795-.661-1.346v-6.12c0-2.244-1.55-3.387-4.567-3.387s-4.588 1.266-4.774 3.815h2.79c.145-1.142.62-1.51 2.046-1.51 1.116 0 1.674.368 1.674 1.103a.974.974 0 01-.496.856c-.393.204-.393.204-1.818.429l-1.158.203c-2.211.368-3.286 1.49-3.286 3.468s1.344 3.306 3.39 3.306c1.24 0 2.355-.51 3.389-1.571 0 .571.062.774.33 1.101h3.141zm-3.492-4.08c0 1.653-.827 2.591-2.294 2.591-.971 0-1.57-.51-1.57-1.325 0-.858.454-1.266 1.653-1.51l.992-.184c.765-.143.889-.184 1.219-.347zm11.821 4.427h2.893v-14.871h-2.893v5.283c-.723-1.102-1.673-1.611-3.078-1.611-2.667 0-4.692 2.529-4.692 5.855 0 1.489.455 2.998 1.199 4.059.765 1.082 2.13 1.755 3.492 1.755 1.406 0 2.356-.49 3.08-1.591zm-2.438-8.813c1.467 0 2.438 1.387 2.438 3.509 0 2-.991 3.386-2.438 3.386s-2.439-1.407-2.439-3.427c0-2.06.993-3.468 2.44-3.468zm18.661 8.813l3.163-11.016h-2.997l-1.695 7.711-1.674-7.711h-2.893l-1.695 7.711-1.776-7.711h-2.997l3.14 11.016h2.977l1.777-7.773 1.673 7.773zm13.327-.347c-.496-.469-.661-.795-.661-1.346v-6.12c0-2.244-1.55-3.387-4.567-3.387s-4.588 1.266-4.775 3.815h2.79c.145-1.142.62-1.51 2.046-1.51 1.116 0 1.674.368 1.674 1.103a.972.972 0 01-.496.856c-.393.204-.393.204-1.818.429l-1.158.203c-2.212.368-3.285 1.49-3.285 3.468s1.342 3.306 3.388 3.306c1.24 0 2.356-.51 3.39-1.571 0 .571.062.774.33 1.101h3.142zm-3.493-4.08c0 1.653-.827 2.591-2.294 2.591-.97 0-1.57-.51-1.57-1.325 0-.858.454-1.266 1.653-1.51l.992-.184c.764-.143.89-.184 1.22-.347zm11.17-6.59l-2.315 8.017-2.46-8.017h-3.182l4.155 11.465c0 1.142-.724 1.918-1.799 1.918-.227 0-.413-.041-.764-.123v2.142c.433.061.681.082 1.033.082.744 0 1.57-.143 2.087-.347.806-.326 1.158-.775 1.633-2.101l4.588-13.037zm10.972 11.017h2.893v-14.871h-2.893v5.283c-.723-1.102-1.674-1.611-3.079-1.611-2.666 0-4.691 2.529-4.691 5.855 0 1.489.454 2.998 1.199 4.059.764 1.082 2.128 1.755 3.492 1.755 1.405 0 2.356-.49 3.08-1.591zm-2.439-8.813c1.468 0 2.44 1.387 2.44 3.509 0 2-.993 3.386-2.44 3.386s-2.438-1.407-2.438-3.427c0-2.06.992-3.468 2.438-3.468z" aria-label="Broadwayd" font-size="57.068"/><path stroke-width="2.779" d="M341.797 268.24v11.187c0 1.141-.61 1.764-1.703 1.764-1.198 0-1.703-.58-1.703-1.972v-1.452h-3.153v1.494c0 1.577.378 2.553 1.282 3.383.883.789 2.06 1.204 3.512 1.204 3.132 0 4.92-1.599 4.92-4.421V268.24zm16.666 4.608c-.022-3.135-2.145-4.858-6.014-4.858-3.68 0-5.803 1.702-5.803 4.65 0 2.345 1.198 3.487 4.31 4.068l2.145.415c2.102.395 2.88.975 2.88 2.2 0 1.266-1.177 2.034-3.09 2.034-2.145 0-3.343-.893-3.448-2.511h-3.07c.19 3.237 2.439 5.002 6.35 5.002 3.952 0 6.287-1.806 6.287-4.9 0-2.386-1.22-3.631-4.058-4.17l-2.397-.457c-2.25-.436-2.902-.872-2.902-1.972 0-1.141 1.009-1.868 2.65-1.868 1.996 0 3.111.83 3.216 2.366zm8.65-4.855c-2.144 0-3.91.706-5.214 2.096-1.366 1.454-2.144 3.57-2.144 5.832s.778 4.4 2.144 5.832c1.325 1.412 3.049 2.097 5.236 2.097s3.91-.685 5.235-2.097c1.324-1.39 2.144-3.59 2.144-5.728 0-2.366-.777-4.504-2.144-5.936-1.345-1.432-3.028-2.096-5.257-2.096zm.022 2.657c2.585 0 4.225 2.075 4.225 5.355 0 3.113-1.703 5.19-4.225 5.19-2.565 0-4.226-2.077-4.226-5.273s1.66-5.272 4.226-5.272zm18.172 12.721h3.153v-15.13h-3.153v10.294l-6.077-10.294h-3.238v15.13h3.154v-10.46z" aria-label="JSON"/><path stroke-width="2.779" d="M56.804 24.49l4.752 20.338h5.44l4.68-20.339v20.339h5.44V18.724H68.92l-4.643 20.77-4.788-20.769h-8.126V44.83h5.44zm40.663 12.246c.036-.43.036-.61.036-.86 0-1.933-.29-3.724-.762-5.085-1.306-3.509-4.462-5.621-8.415-5.621-5.623 0-9.069 4.01-9.069 10.491 0 6.195 3.41 9.99 8.96 9.99 4.389 0 7.944-2.434 9.068-6.266h-5.006c-.616 1.54-2.03 2.435-3.88 2.435-1.452 0-2.612-.608-3.337-1.683-.472-.716-.654-1.575-.726-3.401zm-13.06-3.331C84.735 30.433 86.005 29 88.254 29c2.321 0 3.7 1.54 3.954 4.404zm15.783-7.913v19.336h5.078V34.551c0-2.936 1.487-4.404 4.462-4.404.544 0 .907.036 1.596.143v-5.084c-.29-.036-.4-.036-.617-.036-2.321 0-4.316 1.504-5.44 4.117v-3.795zm30.251 11.244c.037-.43.037-.61.037-.86 0-1.933-.29-3.724-.762-5.085-1.306-3.509-4.461-5.621-8.415-5.621-5.623 0-9.069 4.01-9.069 10.491 0 6.195 3.41 9.99 8.96 9.99 4.389 0 7.944-2.434 9.068-6.266h-5.006c-.616 1.54-2.03 2.435-3.88 2.435-1.452 0-2.612-.608-3.338-1.683-.471-.716-.653-1.575-.725-3.401zm-13.058-3.331c.327-2.972 1.596-4.404 3.845-4.404 2.322 0 3.7 1.54 3.953 4.404zm15.781-7.913v19.336h5.079V33.226c0-2.292 1.596-3.796 4.099-3.796 2.176 0 3.265 1.182 3.265 3.473v11.924h5.078V31.865c0-4.296-2.358-6.696-6.566-6.696-2.648 0-4.425.93-5.876 3.115v-2.792zm33.591 0v2.972c-1.414-2.256-2.974-3.294-5.042-3.294-1.74 0-3.663.86-5.005 2.256-1.959 2.005-2.974 4.798-2.974 8.2 0 5.944 3.191 10.025 7.87 10.025 2.104 0 3.374-.68 5.151-2.792v2.613c0 2.328-1.668 3.939-4.062 3.939-1.814 0-2.938-.787-3.337-2.256h-5.223c.036 1.504.58 2.542 1.922 3.617 1.56 1.253 3.7 1.862 6.456 1.862 5.659 0 9.069-2.686 9.069-7.162v-19.98zm-4.099 3.867c2.394 0 4.172 2.614 4.172 6.195 0 3.509-1.705 5.908-4.244 5.908-2.213 0-3.774-2.399-3.774-5.908 0-3.653 1.56-6.195 3.846-6.195zm30.65 15.468V25.49h-5.079v12.103c0 2.292-1.596 3.796-4.098 3.796-2.177 0-3.265-1.147-3.265-3.474V25.492h-5.078v13.462c0 4.297 2.357 6.696 6.565 6.696 2.648 0 4.425-.93 5.876-3.115v2.292zm20.822-8.091c.036-.43.036-.61.036-.86 0-1.933-.29-3.724-.762-5.085-1.305-3.509-4.46-5.621-8.415-5.621-5.622 0-9.068 4.01-9.068 10.491 0 6.195 3.41 9.99 8.959 9.99 4.39 0 7.944-2.434 9.069-6.266h-5.006c-.616 1.54-2.031 2.435-3.88 2.435-1.452 0-2.613-.608-3.338-1.683-.471-.716-.653-1.575-.725-3.401zm-13.058-3.331c.326-2.972 1.596-4.404 3.845-4.404 2.321 0 3.699 1.54 3.953 4.404z" aria-label="Merengue" font-size="100.17"/></g><g stroke-width="2.779"><path d="M253.89 299.615H140.18c-4.78 0-8.69-3.86-8.69-8.58V195.95c0-4.718 3.91-8.58 8.69-8.58h113.71c4.779 0 8.69 3.862 8.69 8.58v95.085c0 4.72-3.911 8.58-8.69 8.58z" class="st4"/><path fill="#fff" stroke-width="2.779" d="M165.353 219.651l4.247-15.13h-3.342l-2.292 11.353-2.48-11.353h-3.113l-2.376 11.332-2.376-11.332h-3.343l4.331 15.13h2.839l2.502-11.81 2.566 11.81zm14.225-4.69c.022-.25.022-.353.022-.498 0-1.121-.169-2.16-.442-2.948-.757-2.033-2.586-3.258-4.878-3.258-3.26 0-5.256 2.324-5.256 6.081 0 3.59 1.976 5.79 5.193 5.79 2.544 0 4.605-1.411 5.256-3.631h-2.901c-.358.892-1.178 1.41-2.25 1.41-.841 0-1.514-.352-1.934-.975-.274-.415-.379-.913-.421-1.971zm-7.57-1.931c.19-1.722.926-2.552 2.23-2.552 1.345 0 2.144.892 2.292 2.552zm8.865-8.51v15.131h2.944v-1.141c.714 1.1 1.703 1.618 3.132 1.618 2.712 0 4.773-2.553 4.773-5.936 0-1.515-.463-3.05-1.22-4.13-.777-1.1-2.165-1.805-3.553-1.805-1.43 0-2.418.519-3.133 1.64v-5.376zm5.424 6.165c1.45 0 2.481 1.452 2.481 3.528 0 2.055-1.009 3.488-2.48 3.488-1.493 0-2.481-1.391-2.481-3.55 0-2.055 1.008-3.466 2.48-3.466zm10.168 3.902l1.577-1.619 5.026 6.683h3.762l-6.77-8.613 6.119-6.517h-3.721l-5.993 6.641v-6.641h-3.154v15.13h3.154zm14.098-6.144h-2.944v11.208h2.944zm0-3.922h-2.944v2.594h2.944zm7.097 4.151h-1.64v-3.01h-2.944v3.01h-1.45v1.93h1.451v6.89c0 1.765.946 2.636 2.88 2.636.673 0 1.156-.061 1.703-.227v-2.034c-.294.041-.441.062-.672.062-.779 0-.968-.228-.968-1.225v-6.102h1.64zm-52.307 35.894l4.247-15.13h-3.342l-2.292 11.354-2.48-11.354h-3.113l-2.376 11.333-2.376-11.332h-3.343l4.331 15.13h2.839l2.502-11.81 2.566 11.81zm14.225-4.69c.022-.249.022-.353.022-.498 0-1.12-.169-2.159-.442-2.947-.757-2.034-2.586-3.259-4.878-3.259-3.26 0-5.256 2.325-5.256 6.081 0 3.591 1.976 5.79 5.193 5.79 2.544 0 4.605-1.41 5.256-3.631h-2.901c-.358.893-1.178 1.412-2.25 1.412-.841 0-1.514-.353-1.934-.976-.274-.415-.379-.913-.421-1.972zm-7.57-1.93c.19-1.723.926-2.553 2.23-2.553 1.345 0 2.144.893 2.292 2.553zm8.865-8.51v15.131h2.944v-1.142c.714 1.1 1.703 1.62 3.132 1.62 2.712 0 4.773-2.554 4.773-5.937 0-1.515-.463-3.05-1.22-4.13-.777-1.1-2.165-1.806-3.553-1.806-1.43 0-2.418.519-3.133 1.64v-5.376zm5.424 6.165c1.45 0 2.481 1.452 2.481 3.528 0 2.055-1.009 3.487-2.48 3.487-1.493 0-2.481-1.391-2.481-3.55 0-2.054 1.008-3.465 2.48-3.465zm13.804 8.965l5.257-15.13h-3.176l-3.343 11.395-3.406-11.395h-3.175l5.173 15.131zm9.201-11.207h-2.944v11.208h2.944zm0-3.923h-2.944v2.595h2.944zm11.784 10.44c.021-.249.021-.353.021-.498 0-1.12-.168-2.159-.441-2.947-.757-2.034-2.586-3.259-4.878-3.259-3.26 0-5.257 2.325-5.257 6.081 0 3.591 1.977 5.79 5.193 5.79 2.545 0 4.605-1.41 5.257-3.631h-2.901c-.358.893-1.178 1.412-2.25 1.412-.842 0-1.514-.353-1.935-.976-.273-.415-.379-.913-.42-1.972zm-7.569-1.93c.19-1.723.925-2.553 2.228-2.553 1.346 0 2.145.893 2.293 2.553zm20.261 6.62l3.217-11.207h-3.049l-1.723 7.845-1.704-7.845h-2.943l-1.724 7.845-1.808-7.845h-3.049l3.196 11.208h3.028l1.808-7.908 1.703 7.908z" aria-label="WebKitWebView"/><g fill="#fff" aria-label="http://localhost:8080" class="st10 st14"><path d="M150.282 275.09v7.644h1.487v-3.397c0-.651.479-1.112 1.147-1.112.33 0 .574.115.744.346.138.188.17.346.17.702v3.46h1.487v-3.796c0-.702-.191-1.206-.584-1.53-.33-.273-.807-.43-1.285-.43-.733 0-1.264.283-1.679.912v-2.8zm8.25 2.108h-.83v-1.52h-1.486v1.52h-.733v.976h.732v3.481c0 .891.478 1.332 1.456 1.332.34 0 .584-.032.86-.115v-1.028c-.148.021-.223.031-.34.031-.393 0-.488-.115-.488-.618v-3.083h.828z"/><path d="M161.49 277.197h-.828v-1.52h-1.487v1.52h-.732v.975h.732v3.482c0 .89.478 1.331 1.455 1.331.34 0 .585-.032.86-.115v-1.027c-.148.02-.222.03-.34.03-.393 0-.488-.115-.488-.618v-3.082h.83zm1.73-.143h-1.486v7.948h1.487v-2.957c.362.63.872.923 1.594.923 1.38 0 2.4-1.279 2.4-2.999 0-.796-.233-1.593-.615-2.118-.383-.534-1.095-.891-1.785-.891-.722 0-1.232.304-1.593.933zm1.255 1.132c.754 0 1.254.713 1.254 1.804 0 1.038-.51 1.751-1.254 1.751-.754 0-1.253-.713-1.253-1.772 0-1.07.499-1.783 1.253-1.783zm5.203 3.015h-1.593v1.53h1.593zm0-3.922h-1.593v1.531h1.593zm2.228-2.048l-2.189 7.634h.712l2.188-7.634zm2.44 0l-2.188 7.634h.711l2.189-7.634zm2.463-.143h-1.487v7.644h1.487zm3.226 1.894c-1.753 0-2.826 1.144-2.826 3 0 1.866 1.073 2.998 2.837 2.998 1.753 0 2.836-1.131 2.836-2.956 0-1.92-1.052-3.042-2.847-3.042zm.01 1.186c.819 0 1.35.723 1.35 1.834 0 1.06-.553 1.794-1.35 1.794-.806 0-1.348-.724-1.348-1.815 0-1.09.542-1.813 1.349-1.813zm8.105 1.03c-.106-1.383-1.03-2.211-2.475-2.211-1.72 0-2.709 1.11-2.709 3.04 0 1.867.988 2.957 2.688 2.957 1.391 0 2.358-.849 2.496-2.202h-1.422c-.181.735-.478 1.017-1.073 1.017-.755 0-1.2-.66-1.2-1.772 0-.545.105-1.038.286-1.373.17-.315.5-.483.924-.483.606 0 .892.283 1.063 1.028z"/><path d="M193.41 282.565c-.255-.241-.34-.409-.34-.693v-3.145c0-1.154-.796-1.74-2.347-1.74s-2.358.65-2.454 1.96h1.435c.074-.587.318-.776 1.051-.776.573 0 .86.19.86.566a.503.501 0 01-.255.44c-.201.106-.201.106-.934.221l-.595.105c-1.137.189-1.689.766-1.689 1.783s.69 1.699 1.741 1.699c.638 0 1.212-.262 1.743-.808 0 .294.032.398.17.566h1.614zm-1.795-2.097c0 .849-.424 1.331-1.179 1.331-.499 0-.807-.262-.807-.68 0-.442.234-.65.85-.777l.51-.094c.392-.074.457-.095.627-.179zm3.614-5.374h-1.487v7.644h1.487zm.738 0v7.644h1.487v-3.397c0-.65.478-1.112 1.148-1.112.328 0 .573.116.743.347.138.188.17.345.17.702v3.46h1.487v-3.796c0-.702-.191-1.206-.584-1.53-.329-.273-.807-.43-1.285-.43-.733 0-1.264.282-1.68.912v-2.8zm8.253 1.894c-1.753 0-2.825 1.144-2.825 3 0 1.866 1.073 2.998 2.835 2.998 1.753 0 2.837-1.131 2.837-2.956 0-1.92-1.052-3.042-2.847-3.042zm.01 1.186c.818 0 1.35.723 1.35 1.834 0 1.06-.553 1.794-1.35 1.794-.807 0-1.348-.724-1.348-1.815 0-1.09.541-1.813 1.348-1.813zm7.924.71c-.021-1.196-.956-1.92-2.496-1.92-1.456 0-2.358.724-2.358 1.888 0 .377.116.702.318.923.202.199.383.293.935.471l1.774.545c.372.116.5.231.5.462 0 .346-.415.555-1.106.555-.393 0-.69-.062-.881-.198-.16-.116-.223-.231-.287-.536h-1.455c.043 1.248.966 1.888 2.709 1.888.796 0 1.401-.168 1.826-.503s.68-.86.68-1.416c0-.734-.372-1.206-1.126-1.426l-1.88-.534c-.414-.127-.52-.21-.52-.441 0-.314.34-.524.86-.524.712 0 1.062.251 1.073.765z"/><path d="M215.154 277.197h-.828v-1.52h-1.487v1.52h-.733v.975h.733v3.482c0 .89.478 1.331 1.455 1.331.34 0 .585-.032.86-.115v-1.027c-.148.02-.222.03-.34.03-.393 0-.488-.115-.488-.618v-3.082h.829zm2.572 4.004h-1.594v1.53h1.593zm0-3.922h-1.594v1.531h1.593zm4.364 1.42c.254-.137.371-.21.488-.316.308-.282.488-.733.488-1.215 0-1.164-1.02-2.014-2.41-2.014-1.403 0-2.423.85-2.423 2.024 0 .713.298 1.164.978 1.52-.871.472-1.233 1.028-1.233 1.909 0 1.405 1.095 2.38 2.677 2.38 1.572 0 2.666-.975 2.666-2.38 0-.881-.36-1.437-1.232-1.909zm-1.424-2.36c.659 0 1.115.398 1.115.975 0 .566-.468.976-1.115.976-.67 0-1.126-.399-1.126-.986 0-.566.457-.965 1.126-.965zm-.021 2.947c.732 0 1.19.482 1.19 1.258 0 .713-.468 1.185-1.19 1.185-.723 0-1.18-.472-1.18-1.206 0-.755.457-1.237 1.18-1.237z"/><path d="M225.824 275.127c-.807 0-1.497.336-1.954.954-.435.577-.637 1.521-.637 2.968 0 1.322.17 2.244.53 2.81.447.713 1.18 1.102 2.062 1.102.817 0 1.487-.325 1.954-.944.425-.577.637-1.532.637-2.926 0-1.363-.17-2.286-.53-2.862-.447-.713-1.18-1.102-2.06-1.102zm0 1.185c.383 0 .691.21.872.598.149.315.233 1.122.233 2.15 0 .839-.074 1.656-.19 1.96-.17.44-.49.682-.914.682-.393 0-.69-.199-.871-.576-.15-.315-.234-1.091-.234-2.087 0-.881.075-1.72.191-2.024.16-.451.489-.703.914-.703z"/><path d="M232.444 278.7c.255-.136.372-.21.49-.314.307-.283.488-.734.488-1.216 0-1.164-1.02-2.013-2.412-2.013-1.402 0-2.421.848-2.421 2.023 0 .714.297 1.164.977 1.52-.872.473-1.233 1.028-1.233 1.909 0 1.405 1.094 2.38 2.677 2.38 1.572 0 2.667-.975 2.667-2.38 0-.88-.362-1.437-1.233-1.908zm-1.423-2.359c.658 0 1.115.399 1.115.976 0 .565-.467.975-1.115.975-.67 0-1.126-.398-1.126-.986 0-.566.457-.965 1.126-.965zm-.022 2.947c.733 0 1.19.483 1.19 1.258 0 .713-.467 1.185-1.19 1.185-.721 0-1.179-.472-1.179-1.206 0-.754.458-1.237 1.18-1.237z"/><path d="M236.188 275.127c-.807 0-1.497.336-1.955.954-.435.577-.637 1.521-.637 2.968 0 1.322.17 2.244.531 2.81.446.713 1.18 1.102 2.061 1.102.818 0 1.487-.325 1.955-.944.425-.577.637-1.532.637-2.926 0-1.363-.17-2.286-.53-2.862-.447-.713-1.18-1.102-2.062-1.102zm0 1.185c.383 0 .69.21.871.598.149.315.234 1.122.234 2.15 0 .839-.075 1.656-.191 1.96-.17.44-.489.682-.914.682-.393 0-.69-.199-.871-.576-.149-.315-.233-1.091-.233-2.087 0-.881.074-1.72.19-2.024.16-.451.489-.703.914-.703z"/></g><g stroke-width="4.996" filter="url(#f)" transform="matrix(.36212 0 0 .35747 -88.896 -120.447)"><path fill="url(#b)" d="M1872.1 1238.4h-417.9c-13.2 0-24-10.8-24-24v-266c0-13.2 10.8-24 24-24h417.9c13.2 0 24 10.8 24 24v266c0 13.2-10.8 24-24 24z"/><linearGradient id="a" x1="1429.7" x2="1896.6" y1="1081.4" y2="1081.4" gradientUnits="userSpaceOnUse"><stop offset="0" stop-color="#E6E6E6"/><stop offset="1" stop-color="#fff"/></linearGradient><path fill="url(#a)" d="M1872.1 1238.9h-417.9c-13.5 0-24.5-11-24.5-24.5v-266c0-13.5 11-24.5 24.5-24.5h417.9c13.5 0 24.5 11 24.5 24.5v266c0 13.5-11 24.5-24.5 24.5zm-417.9-314c-13 0-23.5 10.5-23.5 23.5v266c0 13 10.5 23.5 23.5 23.5h417.9c13 0 23.5-10.5 23.5-23.5v-266c0-13-10.5-23.5-23.5-23.5z"/></g><path fill="#808285" d="M499.083 272.595l2.754 11.789h3.153l2.713-11.79v11.79h3.154v-15.13h-4.752l-2.691 12.038-2.776-12.039h-4.71v15.13h3.154zm23.284 7.1c.021-.25.021-.353.021-.5 0-1.12-.168-2.158-.44-2.946-.759-2.034-2.588-3.259-4.88-3.259-3.258 0-5.256 2.325-5.256 6.081 0 3.591 1.976 5.791 5.193 5.791 2.544 0 4.605-1.411 5.257-3.632h-2.902c-.357.893-1.177 1.412-2.249 1.412-.841 0-1.514-.353-1.935-.976-.273-.415-.378-.913-.42-1.972zm-7.57-1.931c.19-1.723.926-2.553 2.23-2.553 1.345 0 2.144.893 2.291 2.554zm8.837-4.586v11.208h2.944v-5.957c0-1.702.863-2.553 2.586-2.553.316 0 .526.02.925.083v-2.947c-.168-.021-.231-.021-.357-.021-1.345 0-2.502.872-3.154 2.387v-2.2zm17.237 6.517c.021-.25.021-.353.021-.5 0-1.12-.168-2.158-.44-2.946-.758-2.034-2.587-3.259-4.879-3.259-3.258 0-5.256 2.325-5.256 6.081 0 3.591 1.976 5.791 5.193 5.791 2.544 0 4.605-1.411 5.257-3.632h-2.902c-.357.893-1.177 1.412-2.25 1.412-.84 0-1.514-.353-1.935-.976-.272-.415-.378-.913-.42-1.972zm-7.569-1.931c.19-1.723.925-2.553 2.23-2.553 1.344 0 2.144.893 2.29 2.554zm8.837-4.586v11.208h2.944v-6.725c0-1.328.925-2.2 2.376-2.2 1.261 0 1.892.685 1.892 2.013v6.912h2.944v-7.513c0-2.49-1.368-3.881-3.806-3.881-1.535 0-2.565.539-3.406 1.805v-1.619zm19.156 0v1.723c-.82-1.308-1.723-1.91-2.922-1.91-1.01 0-2.123.499-2.902 1.307-1.136 1.163-1.724 2.782-1.724 4.753 0 3.446 1.85 5.811 4.563 5.811 1.22 0 1.955-.394 2.985-1.618v1.515c0 1.35-.966 2.283-2.354 2.283-1.051 0-1.704-.457-1.935-1.308h-3.026c.02.872.336 1.475 1.114 2.097.904.727 2.144 1.08 3.742 1.08 3.28 0 5.257-1.557 5.257-4.152v-11.581zm-2.376 2.24c1.388 0 2.418 1.517 2.418 3.592 0 2.034-.988 3.425-2.46 3.425-1.282 0-2.187-1.391-2.187-3.425 0-2.117.905-3.59 2.23-3.59zm17.477 8.966v-11.208h-2.944v7.016c0 1.328-.925 2.2-2.376 2.2-1.261 0-1.892-.665-1.892-2.014v-7.202h-2.944v7.804c0 2.49 1.368 3.882 3.806 3.882 1.535 0 2.565-.54 3.406-1.807v1.329zm11.769-4.69c.02-.249.02-.352.02-.498 0-1.12-.167-2.159-.44-2.947-.758-2.034-2.587-3.259-4.879-3.259-3.258 0-5.256 2.325-5.256 6.081 0 3.591 1.976 5.791 5.193 5.791 2.544 0 4.605-1.411 5.257-3.632h-2.902c-.357.893-1.177 1.412-2.25 1.412-.84 0-1.514-.353-1.934-.976-.273-.415-.378-.913-.42-1.972zm-7.57-1.93c.19-1.723.926-2.553 2.23-2.553 1.345 0 2.144.893 2.291 2.554z" aria-label="Merengue"/><g fill="#828487"><path d="M441.399 257.742c-.02-1.196-.956-1.92-2.496-1.92-1.455 0-2.359.724-2.359 1.888 0 .377.118.703.32.923.201.199.382.293.933.472l1.775.545c.372.116.5.23.5.462 0 .345-.415.555-1.105.555-.393 0-.69-.063-.882-.2-.16-.115-.223-.23-.287-.534h-1.455c.042 1.248.967 1.887 2.708 1.887.798 0 1.403-.167 1.827-.503.426-.335.68-.86.68-1.415 0-.734-.371-1.206-1.126-1.426l-1.88-.535c-.414-.126-.52-.21-.52-.44 0-.315.34-.525.86-.525.712 0 1.063.252 1.073.766zm3.729-1.71h-.83v-1.52h-1.486v1.52h-.733v.976h.732v3.481c0 .891.478 1.331 1.456 1.331.34 0 .584-.03.86-.115v-1.027c-.149.02-.223.03-.34.03-.392 0-.488-.114-.488-.617v-3.083h.829zm4.567 5.547h1.487v-7.644h-1.487v2.716c-.372-.566-.86-.829-1.582-.829-1.37 0-2.412 1.301-2.412 3.01 0 .765.233 1.541.616 2.087.393.555 1.094.901 1.795.901.722 0 1.211-.24 1.583-.817zm-1.254-4.53c.755 0 1.254.714 1.254 1.804 0 1.028-.51 1.74-1.254 1.74s-1.253-.722-1.253-1.761c0-1.059.51-1.783 1.253-1.783zm5.64-1.131h-1.486v5.661h1.487zm0-1.983h-1.486v1.31h1.487zm1.424 1.983v5.661h1.487v-3.397c0-.67.468-1.112 1.201-1.112.637 0 .956.347.956 1.017v3.492h1.487v-3.795c0-1.259-.69-1.962-1.922-1.962-.776 0-1.297.273-1.721.913v-.818z" aria-label="stdin"/><path d="M441.399 294.507c-.02-1.195-.956-1.918-2.496-1.918-1.455 0-2.359.723-2.359 1.887 0 .377.118.702.32.922.201.2.382.294.933.473l1.775.545c.372.115.5.23.5.461 0 .346-.415.556-1.105.556-.393 0-.69-.063-.882-.2-.16-.115-.223-.23-.287-.535h-1.455c.042 1.248.967 1.888 2.708 1.888.798 0 1.403-.168 1.827-.503.426-.336.68-.86.68-1.415 0-.735-.371-1.206-1.126-1.427l-1.88-.534c-.414-.127-.52-.21-.52-.441 0-.315.34-.524.86-.524.712 0 1.063.252 1.073.765zm3.729-1.71h-.83v-1.52h-1.486v1.52h-.733v.976h.732v3.482c0 .89.478 1.332 1.456 1.332.34 0 .584-.032.86-.116v-1.027c-.149.02-.223.031-.34.031-.392 0-.488-.115-.488-.619v-3.082h.829zm4.567 5.548h1.487V290.7h-1.487v2.716c-.372-.566-.86-.828-1.582-.828-1.37 0-2.412 1.3-2.412 3.009 0 .765.233 1.541.616 2.086.393.556 1.094.902 1.795.902.722 0 1.211-.241 1.583-.818zm-1.254-4.53c.755 0 1.254.713 1.254 1.804 0 1.027-.51 1.74-1.254 1.74s-1.253-.723-1.253-1.761c0-1.06.51-1.783 1.253-1.783zm6.64-1.226c-1.753 0-2.826 1.142-2.826 2.998 0 1.866 1.073 2.999 2.836 2.999 1.753 0 2.836-1.132 2.836-2.957 0-1.918-1.051-3.04-2.847-3.04zm.01 1.184c.818 0 1.35.724 1.35 1.835 0 1.06-.554 1.793-1.35 1.793-.807 0-1.349-.723-1.349-1.814s.542-1.814 1.35-1.814zm9.029 4.572v-5.663h-1.487v3.544c0 .672-.467 1.112-1.2 1.112-.637 0-.957-.335-.957-1.017v-3.639h-1.486v3.943c0 1.258.69 1.96 1.922 1.96.776 0 1.296-.24 1.72-.911v.67zm3.941-5.547h-.83v-1.52h-1.486v1.52h-.732v.975h.732v3.482c0 .89.478 1.332 1.456 1.332.34 0 .584-.032.86-.116v-1.027c-.15.02-.223.031-.34.031-.393 0-.488-.115-.488-.619v-3.082h.828z" aria-label="stdout"/><path d="M75.761 155.033c-.104-1.309-.378-2.139-1.03-2.99-1.177-1.536-3.07-2.386-5.361-2.386-4.332 0-7.023 3.05-7.023 7.949 0 4.878 2.67 7.908 6.938 7.908 3.827 0 6.35-2.18 6.539-5.646h-3.07c-.21 1.931-1.43 3.03-3.384 3.03-2.44 0-3.87-1.95-3.87-5.25 0-3.342 1.493-5.334 3.974-5.334 1.83 0 2.86.87 3.28 2.719zm11.136 9.65c-.505-.476-.673-.808-.673-1.369v-6.226c0-2.284-1.577-3.446-4.647-3.446-3.07 0-4.668 1.287-4.857 3.881h2.84c.146-1.161.629-1.536 2.08-1.536 1.136 0 1.704.374 1.704 1.121a.99.99 0 01-.505.871c-.4.209-.4.209-1.85.437l-1.178.207c-2.25.374-3.343 1.516-3.343 3.529s1.367 3.362 3.448 3.362c1.262 0 2.397-.519 3.448-1.598 0 .581.063.789.336 1.121h3.197zm-3.554-4.15c0 1.681-.84 2.636-2.334 2.636-.988 0-1.598-.519-1.598-1.35 0-.87.463-1.286 1.682-1.535l1.01-.186c.777-.146.904-.188 1.24-.354zm4.763-6.705v11.207h2.944v-6.724c0-1.391.757-2.2 2.018-2.2.988 0 1.598.56 1.598 1.453v7.471h2.944v-6.724c0-1.37.756-2.2 2.017-2.2.989 0 1.6.56 1.6 1.453v7.471h2.943v-7.929c0-2.178-1.346-3.466-3.617-3.466-1.45 0-2.439.5-3.322 1.66-.547-1.057-1.682-1.66-3.09-1.66-1.304 0-2.145.416-3.112 1.579v-1.392zm17.947-3.922v15.131h2.944v-1.141c.715 1.1 1.703 1.618 3.133 1.618 2.712 0 4.772-2.553 4.772-5.936 0-1.515-.463-3.051-1.22-4.13-.777-1.1-2.165-1.806-3.553-1.806-1.43 0-2.418.519-3.132 1.64v-5.376zm5.424 6.164c1.451 0 2.481 1.453 2.481 3.529 0 2.055-1.009 3.487-2.48 3.487-1.494 0-2.481-1.391-2.481-3.55 0-2.055 1.008-3.466 2.48-3.466zm16.477 8.613c-.505-.476-.673-.808-.673-1.369v-6.226c0-2.284-1.576-3.446-4.647-3.446-3.069 0-4.667 1.287-4.856 3.881h2.838c.148-1.161.63-1.536 2.082-1.536 1.136 0 1.703.374 1.703 1.121a.989.989 0 01-.505.871c-.4.209-.4.209-1.85.437l-1.178.207c-2.249.374-3.343 1.516-3.343 3.529s1.368 3.362 3.448 3.362c1.262 0 2.397-.519 3.449-1.598 0 .581.063.789.336 1.121h3.196zm-3.553-4.15c0 1.681-.841 2.636-2.334 2.636-.988 0-1.598-.519-1.598-1.35 0-.87.463-1.286 1.681-1.535l1.01-.186c.778-.146.905-.188 1.24-.354zm7.851-10.627h-2.944v15.131h2.944zm11.788 14.777c-.505-.476-.673-.808-.673-1.369v-6.226c0-2.284-1.577-3.446-4.648-3.446s-4.667 1.287-4.856 3.881h2.839c.146-1.161.63-1.536 2.081-1.536 1.136 0 1.704.374 1.704 1.121a.99.99 0 01-.506.871c-.399.209-.399.209-1.85.437l-1.177.207c-2.25.374-3.343 1.516-3.343 3.529s1.366 3.362 3.448 3.362c1.261 0 2.397-.519 3.449-1.598 0 .581.062.789.336 1.121h3.196zm-3.553-4.15c0 1.681-.842 2.636-2.335 2.636-.987 0-1.598-.519-1.598-1.35 0-.87.463-1.286 1.683-1.535l1.008-.186c.778-.146.905-.188 1.24-.354zm14.478-2.513c-.21-2.74-2.04-4.379-4.9-4.379-3.405 0-5.36 2.2-5.36 6.02 0 3.694 1.955 5.852 5.32 5.852 2.753 0 4.667-1.68 4.94-4.358h-2.817c-.358 1.453-.947 2.013-2.124 2.013-1.492 0-2.376-1.307-2.376-3.507 0-1.08.21-2.055.568-2.72.336-.622.988-.954 1.83-.954 1.197 0 1.765.56 2.101 2.034zm1.336-8.114v15.131h2.944v-6.725c0-1.287.946-2.2 2.27-2.2.652 0 1.136.228 1.472.685.274.373.336.685.336 1.39v6.85h2.944v-7.514c0-1.39-.379-2.386-1.156-3.03-.652-.54-1.598-.851-2.545-.851-1.45 0-2.501.56-3.322 1.806v-5.542zm21.73 10.438c.022-.249.022-.353.022-.498 0-1.12-.168-2.16-.441-2.947-.758-2.034-2.587-3.259-4.878-3.259-3.259 0-5.257 2.325-5.257 6.082 0 3.59 1.976 5.79 5.193 5.79 2.544 0 4.605-1.41 5.257-3.632h-2.902c-.357.892-1.177 1.411-2.249 1.411-.841 0-1.514-.353-1.935-.975-.273-.415-.378-.913-.42-1.972zm-7.568-1.93c.189-1.723.925-2.553 2.229-2.553 1.345 0 2.144.893 2.291 2.553z" aria-label="Cambalache"/><g aria-label="Gtk 3 Application" class="st4 st10 st14"><path d="M69.453 173.683h-3.101v1.31h1.763c-.043.431-.15.693-.383.966a2.073 2.065 0 01-1.582.734c-1.296 0-2.21-1.112-2.21-2.684 0-1.647.807-2.643 2.167-2.643.552 0 1.02.157 1.37.461.223.19.34.367.479.766h1.497c-.191-1.583-1.487-2.568-3.357-2.568-2.23 0-3.75 1.624-3.75 4.005 0 2.317 1.53 4.005 3.623 4.005 1.04 0 1.742-.367 2.337-1.227l.19 1.007h.957zm3.187-1.437h-.83v-1.52h-1.486v1.52h-.732v.976h.732v3.481c0 .891.478 1.331 1.455 1.331.34 0 .585-.03.861-.115v-1.027c-.15.02-.223.03-.34.03-.393 0-.489-.115-.489-.617v-3.083h.83zm1.727 2.088v-4.184H72.88v7.645h1.487v-1.856l.595-.64 1.37 2.496h1.742l-2.092-3.524 1.954-2.139h-1.688zm7.605.136c.573 0 .605 0 .87.073.5.136.819.566.819 1.112 0 .66-.467 1.122-1.116 1.122-.7 0-1.083-.398-1.125-1.164h-1.445c.01 1.49.987 2.422 2.539 2.422 1.603 0 2.633-.934 2.633-2.38 0-.87-.381-1.437-1.232-1.846.69-.43.988-.902.988-1.583 0-1.237-.934-2.023-2.39-2.023-1.093 0-1.933.47-2.262 1.279-.138.356-.18.597-.18 1.216h1.38c.01-.399.043-.598.117-.787.138-.324.479-.524.913-.524.595 0 .935.357.935.975 0 .755-.435 1.123-1.317 1.123h-.127zm10.425 1.783l.51 1.542h1.637l-2.678-7.644h-1.763l-2.751 7.644h1.625l.52-1.54zm-.435-1.31h-2.018l1.008-2.989zm4.161-2.81h-1.487v7.947h1.487v-2.957c.362.63.871.923 1.594.923 1.38 0 2.4-1.279 2.4-2.999 0-.796-.233-1.593-.616-2.118-.382-.534-1.094-.891-1.784-.891-.723 0-1.233.304-1.594.933zm1.254 1.131c.755 0 1.253.713 1.253 1.804 0 1.038-.51 1.751-1.253 1.751-.755 0-1.254-.713-1.254-1.772 0-1.07.5-1.782 1.254-1.782zm4.511-1.132h-1.486v7.948h1.486v-2.957c.361.63.872.923 1.594.923 1.38 0 2.4-1.279 2.4-2.999 0-.796-.234-1.593-.615-2.118-.383-.534-1.095-.891-1.785-.891-.722 0-1.233.304-1.594.933zm1.254 1.132c.754 0 1.253.713 1.253 1.804 0 1.038-.51 1.751-1.253 1.751-.754 0-1.254-.713-1.254-1.772 0-1.07.5-1.782 1.254-1.782zm4.61-3.112h-1.488v7.644h1.487zm2.23 1.98h-1.487v5.663h1.487zm0-1.982h-1.487v1.31h1.487zm5.573 4.102c-.106-1.385-1.03-2.213-2.475-2.213-1.72 0-2.709 1.112-2.709 3.041 0 1.867.988 2.957 2.687 2.957 1.392 0 2.359-.848 2.497-2.202h-1.424c-.18.734-.478 1.017-1.073 1.017-.754 0-1.2-.66-1.2-1.772 0-.545.106-1.038.287-1.374.17-.314.5-.482.925-.482.605 0 .892.283 1.061 1.027z"/><path d="M120.813 177.614c-.254-.24-.34-.409-.34-.692v-3.146c0-1.154-.797-1.74-2.347-1.74s-2.358.65-2.454 1.96h1.434c.075-.587.318-.775 1.051-.775.574 0 .861.188.861.566a.503.501 0 01-.255.44c-.201.105-.201.105-.935.22l-.594.105c-1.138.19-1.689.766-1.689 1.783s.69 1.699 1.741 1.699c.638 0 1.211-.262 1.743-.808 0 .294.032.399.17.566h1.614zm-1.795-2.097c0 .849-.425 1.331-1.179 1.331-.5 0-.807-.262-.807-.68 0-.442.233-.65.85-.777l.51-.094c.392-.074.456-.095.626-.179zm4.576-3.272h-.828v-1.52h-1.487v1.52h-.734v.975h.733v3.482c0 .89.479 1.33 1.456 1.33.34 0 .584-.03.86-.114v-1.028c-.149.02-.223.031-.34.031-.392 0-.488-.115-.488-.618v-3.083h.828zm1.796-.114h-1.487v5.662h1.487zm0-1.982h-1.487v1.31h1.487zm3.227 1.889c-1.753 0-2.826 1.143-2.826 2.999 0 1.866 1.073 2.998 2.837 2.998 1.752 0 2.835-1.132 2.835-2.956 0-1.92-1.05-3.041-2.846-3.041zm.01 1.184c.818 0 1.35.724 1.35 1.836 0 1.058-.553 1.793-1.35 1.793-.806 0-1.349-.724-1.349-1.814s.542-1.815 1.35-1.815zm3.227-1.091v5.662h1.487v-3.397c0-.672.468-1.112 1.2-1.112.638 0 .957.346.957 1.017v3.492h1.487v-3.796c0-1.259-.69-1.96-1.923-1.96-.775 0-1.296.272-1.72.911v-.818z"/></g><g aria-label="Gtk 3 or 4 Application" class="st4 st10 st14"><path d="M503.028 295.505h-3.1v1.31h1.763c-.044.43-.15.693-.384.965a2.073 2.065 0 01-1.582.734c-1.296 0-2.21-1.111-2.21-2.684 0-1.646.807-2.643 2.167-2.643.553 0 1.02.157 1.37.462.224.188.34.367.479.765h1.497c-.191-1.583-1.487-2.568-3.356-2.568-2.23 0-3.75 1.624-3.75 4.005 0 2.317 1.53 4.005 3.622 4.005 1.041 0 1.742-.367 2.337-1.227l.191 1.007h.957zm3.187-1.438h-.829v-1.52H503.9v1.52h-.732v.976h.732v3.481c0 .891.478 1.332 1.456 1.332.34 0 .584-.032.86-.115v-1.028c-.149.021-.223.031-.34.031-.393 0-.489-.115-.489-.618v-3.083h.83zm1.738 2.089v-4.185h-1.487v7.645h1.487v-1.857l.595-.64 1.37 2.497h1.742l-2.092-3.524 1.954-2.139h-1.688zm7.604.135c.575 0 .606 0 .872.073.5.137.818.566.818 1.112 0 .66-.467 1.122-1.115 1.122-.702 0-1.084-.399-1.126-1.164h-1.445c.01 1.49.987 2.422 2.539 2.422 1.604 0 2.634-.933 2.634-2.38 0-.87-.382-1.437-1.233-1.845.691-.43.989-.903.989-1.584 0-1.237-.935-2.024-2.391-2.024-1.093 0-1.932.473-2.262 1.28-.138.356-.18.597-.18 1.216h1.38c.011-.398.043-.598.117-.787.139-.324.479-.524.913-.524.595 0 .935.357.935.975 0 .755-.435 1.122-1.316 1.122h-.128zm8.294-2.434c-1.753 0-2.826 1.142-2.826 2.999 0 1.866 1.073 2.999 2.836 2.999 1.753 0 2.836-1.133 2.836-2.958 0-1.918-1.051-3.04-2.847-3.04zm.01 1.185c.818 0 1.35.723 1.35 1.834 0 1.06-.554 1.794-1.35 1.794-.807 0-1.349-.724-1.349-1.814s.542-1.814 1.349-1.814zm3.248-1.089v5.663h1.487v-3.01c0-.86.436-1.29 1.307-1.29.16 0 .266.011.467.042v-1.489c-.084-.01-.116-.01-.18-.01-.68 0-1.264.44-1.594 1.206v-1.112zm10.502 2.799h-.786v-4.571h-1.753l-2.75 4.55v1.238h3.016v1.646h1.487v-1.646h.786zm-2.273 0h-1.965l1.965-3.177zm9.48 1.32l.509 1.54h1.636l-2.677-7.644h-1.763l-2.751 7.645h1.625l.52-1.542zm-.436-1.311h-2.018l1.008-2.989zm4.129-2.808h-1.487v7.948h1.487v-2.956c.36.629.871.923 1.594.923 1.38 0 2.4-1.28 2.4-3 0-.796-.233-1.593-.616-2.118-.383-.535-1.094-.891-1.784-.891-.723 0-1.233.304-1.594.933zm1.254 1.132c.754 0 1.253.714 1.253 1.804 0 1.038-.51 1.751-1.253 1.751-.755 0-1.254-.713-1.254-1.772 0-1.069.499-1.782 1.254-1.782zm4.54-1.132h-1.487v7.948h1.487v-2.956c.361.629.87.923 1.593.923 1.381 0 2.401-1.28 2.401-3 0-.796-.234-1.593-.616-2.118-.383-.535-1.094-.891-1.785-.891-.722 0-1.232.304-1.593.933zm1.253 1.132c.755 0 1.253.714 1.253 1.804 0 1.038-.51 1.751-1.253 1.751-.754 0-1.253-.713-1.253-1.772 0-1.069.5-1.782 1.253-1.782zm4.614-3.116h-1.487v7.644h1.487zm2.208 1.984h-1.487v5.663h1.487zm0-1.982h-1.487v1.31h1.487zm5.577 4.098c-.106-1.384-1.03-2.212-2.475-2.212-1.72 0-2.709 1.111-2.709 3.041 0 1.867.988 2.957 2.688 2.957 1.391 0 2.357-.85 2.496-2.202h-1.424c-.18.734-.478 1.017-1.072 1.017-.755 0-1.2-.66-1.2-1.772 0-.546.105-1.038.286-1.374.17-.315.5-.482.925-.482.605 0 .892.283 1.061 1.027z"/><path d="M573.213 299.436c-.256-.241-.34-.41-.34-.692v-3.146c0-1.153-.798-1.74-2.348-1.74-1.551 0-2.358.65-2.454 1.96h1.435c.074-.587.318-.775 1.051-.775.573 0 .86.188.86.565a.503.501 0 01-.255.441c-.202.104-.202.104-.935.22l-.594.105c-1.137.189-1.689.766-1.689 1.783s.69 1.698 1.741 1.698c.638 0 1.211-.262 1.742-.807 0 .294.033.399.17.566h1.615zm-1.796-2.097c0 .849-.425 1.332-1.18 1.332-.498 0-.806-.262-.806-.682 0-.44.233-.65.85-.776l.51-.095c.392-.073.456-.093.627-.178zm4.583-3.273h-.828v-1.52h-1.487v1.52h-.732v.976h.732v3.481c0 .892.478 1.332 1.455 1.332.34 0 .585-.032.86-.115v-1.028c-.148.021-.222.032-.34.032-.393 0-.488-.116-.488-.619v-3.082h.83zm1.775-.113h-1.487v5.662h1.487zm0-1.982h-1.487v1.31h1.487zm3.26 1.885c-1.754 0-2.827 1.143-2.827 2.999 0 1.866 1.073 2.999 2.837 2.999 1.753 0 2.836-1.133 2.836-2.958 0-1.918-1.052-3.04-2.847-3.04zm.01 1.185c.818 0 1.348.723 1.348 1.835 0 1.06-.552 1.793-1.348 1.793-.807 0-1.349-.723-1.349-1.814s.542-1.814 1.349-1.814zm3.212-1.088v5.662h1.487v-3.398c0-.67.468-1.111 1.2-1.111.638 0 .957.346.957 1.017v3.492h1.487v-3.796c0-1.258-.691-1.961-1.923-1.961-.775 0-1.296.273-1.721.912v-.817z"/></g></g><path fill="#bcbec0" d="M509.73 201.134h7.243v2.145h-7.243z" class="st2"/><path d="M516.97 197.092h-7.242v-4.075h7.243zm0-8.15h-7.242v-4.076h7.243zm0-8.115h-7.242v-4.075h7.243zm0-8.115h-7.242v-4.074h7.243z" class="st2"/><g fill="#bcbec0"><path d="M509.73 162.456h7.243v2.144h-7.243zm-207.639 91.831h104.982v7.15H302.09z" class="st2"/><path d="M401.596 267.19l16.368-9.33-16.368-9.33zm-88.61 23.879h104.98v7.15h-104.98z" class="st2"/><path d="M318.417 285.312l-16.331 9.33 16.331 9.33z" class="st2"/></g></g></g></svg>
