<?xml version="1.0" encoding="UTF-8" standalone="no"?>
<svg
   xmlns:dc="http://purl.org/dc/elements/1.1/"
   xmlns:cc="http://creativecommons.org/ns#"
   xmlns:rdf="http://www.w3.org/1999/02/22-rdf-syntax-ns#"
   xmlns:svg="http://www.w3.org/2000/svg"
   xmlns="http://www.w3.org/2000/svg"
   xmlns:xlink="http://www.w3.org/1999/xlink"
   version="1.1"
   id="Layer_1"
   x="0px"
   y="0px"
   viewBox="0 0 800 459.99999"
   xml:space="preserve"
   width="800"
   height="460"><metadata
   id="metadata73"><rdf:RDF><cc:Work
       rdf:about=""><dc:format>image/svg+xml</dc:format><dc:type
         rdf:resource="http://purl.org/dc/dcmitype/StillImage" /><dc:title></dc:title></cc:Work></rdf:RDF></metadata><defs
   id="defs109"><filter
     style="color-interpolation-filters:sRGB"
     id="filter1174"><feFlood
       flood-opacity="1"
       flood-color="rgb(203,204,206)"
       result="flood"
       id="feFlood1164" /><feComposite
       in="flood"
       in2="SourceGraphic"
       operator="in"
       result="composite1"
       id="feComposite1166" /><feGaussianBlur
       in="composite1"
       stdDeviation="12"
       result="blur"
       id="feGaussianBlur1168" /><feOffset
       dx="24"
       dy="24"
       result="offset"
       id="feOffset1170" /><feComposite
       in="SourceGraphic"
       in2="offset"
       operator="over"
       result="composite2"
       id="feComposite1172" /></filter><filter
     style="color-interpolation-filters:sRGB"
     id="filter1186"><feFlood
       flood-opacity="1"
       flood-color="rgb(203,204,206)"
       result="flood"
       id="feFlood1176" /><feComposite
       in="flood"
       in2="SourceGraphic"
       operator="in"
       result="composite1"
       id="feComposite1178" /><feGaussianBlur
       in="composite1"
       stdDeviation="12"
       result="blur"
       id="feGaussianBlur1180" /><feOffset
       dx="24"
       dy="24"
       result="offset"
       id="feOffset1182" /><feComposite
       in="SourceGraphic"
       in2="offset"
       operator="over"
       result="composite2"
       id="feComposite1184" /></filter><filter
     style="color-interpolation-filters:sRGB"
     id="filter1174-3"><feFlood
       flood-opacity="1"
       flood-color="rgb(203,204,206)"
       result="flood"
       id="feFlood1164-6" /><feComposite
       in="flood"
       in2="SourceGraphic"
       operator="in"
       result="composite1"
       id="feComposite1166-7" /><feGaussianBlur
       in="composite1"
       stdDeviation="12"
       result="blur"
       id="feGaussianBlur1168-5" /><feOffset
       dx="24"
       dy="24"
       result="offset"
       id="feOffset1170-3" /><feComposite
       in="SourceGraphic"
       in2="offset"
       operator="over"
       result="composite2"
       id="feComposite1172-5" /></filter><linearGradient
     id="linearGradient1027"
     gradientUnits="userSpaceOnUse"
     x1="568.16028"
     y1="794.89038"
     x2="1196.6289"
     y2="1589.8507"><stop
       offset="0"
       style="stop-color:#FFFFFF"
       id="stop12-6" /><stop
       offset="1"
       style="stop-color:#E6E6E6"
       id="stop14-2" /></linearGradient><linearGradient
     id="linearGradient1031"
     gradientUnits="userSpaceOnUse"
     x1="380.21051"
     y1="975.18298"
     x2="1041.1772"
     y2="975.18298"><stop
       offset="0"
       style="stop-color:#E6E6E6"
       id="stop19-9" /><stop
       offset="1"
       style="stop-color:#FFFFFF"
       id="stop21-1" /></linearGradient><filter
     style="color-interpolation-filters:sRGB"
     id="filter1102"><feFlood
       flood-opacity="0.847059"
       flood-color="rgb(203,204,206)"
       result="flood"
       id="feFlood1092" /><feComposite
       in="flood"
       in2="SourceGraphic"
       operator="in"
       result="composite1"
       id="feComposite1094" /><feGaussianBlur
       in="composite1"
       stdDeviation="12"
       result="blur"
       id="feGaussianBlur1096" /><feOffset
       dx="20"
       dy="20"
       result="offset"
       id="feOffset1098" /><feComposite
       in="SourceGraphic"
       in2="offset"
       operator="over"
       result="composite2"
       id="feComposite1100" /></filter><filter
     style="color-interpolation-filters:sRGB"
     id="filter1174-9"><feFlood
       flood-opacity="1"
       flood-color="rgb(203,204,206)"
       result="flood"
       id="feFlood1164-3" /><feComposite
       in="flood"
       in2="SourceGraphic"
       operator="in"
       result="composite1"
       id="feComposite1166-6" /><feGaussianBlur
       in="composite1"
       stdDeviation="12"
       result="blur"
       id="feGaussianBlur1168-0" /><feOffset
       dx="24"
       dy="24"
       result="offset"
       id="feOffset1170-6" /><feComposite
       in="SourceGraphic"
       in2="offset"
       operator="over"
       result="composite2"
       id="feComposite1172-2" /></filter><linearGradient
     id="linearGradient1217"
     gradientUnits="userSpaceOnUse"
     x1="1572.7008"
     y1="949.90448"
     x2="1834.2715"
     y2="1330.371"><stop
       offset="0"
       style="stop-color:#FFFFFF"
       id="stop60-3" /><stop
       offset="1"
       style="stop-color:#E6E6E6"
       id="stop62-7" /></linearGradient><linearGradient
     xlink:href="#SVGID_3_"
     id="linearGradient1221"
     gradientUnits="userSpaceOnUse"
     x1="1572.7008"
     y1="949.90448"
     x2="1834.2715"
     y2="1330.371"
     gradientTransform="translate(-672.11427,-338.96171)" /><filter
     style="color-interpolation-filters:sRGB"
     id="filter1234"
     x="-0.1"
     y="-0.1"
     width="1.2299027"
     height="1.3627404"><feFlood
       flood-opacity="0.847059"
       flood-color="rgb(203,204,206)"
       result="flood"
       id="feFlood1224" /><feComposite
       in="flood"
       in2="SourceGraphic"
       operator="in"
       result="composite1"
       id="feComposite1226" /><feGaussianBlur
       in="composite1"
       stdDeviation="12"
       result="blur"
       id="feGaussianBlur1228" /><feOffset
       dx="20"
       dy="20"
       result="offset"
       id="feOffset1230" /><feComposite
       in="SourceGraphic"
       in2="offset"
       operator="over"
       result="composite2"
       id="feComposite1232" /></filter><filter
     style="color-interpolation-filters:sRGB"
     id="filter1246"
     x="-0.1"
     y="-0.1"
     width="1.2024583"
     height="1.2577569"><feFlood
       flood-opacity="0.847059"
       flood-color="rgb(203,204,206)"
       result="flood"
       id="feFlood1236" /><feComposite
       in="flood"
       in2="SourceGraphic"
       operator="in"
       result="composite1"
       id="feComposite1238" /><feGaussianBlur
       in="composite1"
       stdDeviation="12"
       result="blur"
       id="feGaussianBlur1240" /><feOffset
       dx="20"
       dy="20"
       result="offset"
       id="feOffset1242" /><feComposite
       in="SourceGraphic"
       in2="offset"
       operator="over"
       result="composite2"
       id="feComposite1244" /></filter><linearGradient
     xlink:href="#SVGID_3_"
     id="linearGradient996"
     gradientUnits="userSpaceOnUse"
     x1="1572.7008"
     y1="949.90448"
     x2="1834.2715"
     y2="1330.371" /></defs>
<style
   type="text/css"
   id="style2">
	.st0{fill:url(#SVGID_1_);}
	.st1{fill:url(#SVGID_2_);}
	.st2{fill:#BCBEC0;}
	.st3{fill:#808285;}
	.st4{fill:#828487;}
	.st5{fill:#FFFFFF;}
	.st6{fill:url(#SVGID_3_);}
	.st7{fill:url(#SVGID_4_);}
	.st8{fill:url(#SVGID_5_);}
	.st9{fill:url(#SVGID_6_);}
	.st10{font-family:'RobotoCondensed-Bold';}
	.st11{font-size:57.0684px;}
	.st12{font-size:58.0621px;}
	.st13{font-size:100.1682px;}
	.st14{font-size:25.4663px;}
	.st15{fill:url(#SVGID_7_);}
	.st16{fill:url(#SVGID_8_);}
	.st17{fill:url(#SVGID_9_);stroke:url(#SVGID_10_);stroke-miterlimit:10;}
	.st18{fill:none;stroke:#BCBEC0;stroke-width:20;stroke-miterlimit:10;}
	.st19{fill:none;stroke:#BCBEC0;stroke-width:20;stroke-miterlimit:10;stroke-dasharray:12.0515,12.0515;}
	.st20{fill:url(#SVGID_11_);stroke:url(#SVGID_12_);stroke-miterlimit:10;}
	.st21{fill:none;stroke:#BCBEC0;stroke-width:20;stroke-miterlimit:10;stroke-dasharray:11.3661,11.3661;}
	.st22{fill:url(#SVGID_13_);stroke:url(#SVGID_14_);stroke-miterlimit:10;}
	.st23{fill:none;stroke:#BCBEC0;stroke-width:20;stroke-miterlimit:10;stroke-dasharray:11.981,11.981;}
	.st24{fill:url(#SVGID_15_);stroke:url(#SVGID_16_);stroke-miterlimit:10;}
</style>






















<g
   id="g992"
   transform="matrix(0.48464089,0,0,0.48011803,-22.310762,-5.3860349)"
   style="stroke-width:2.07308"><g
     id="g26"
     style="stroke-width:2.07308;filter:url(#filter1174)"
     transform="translate(-278.69501,-340.49065)">
	<linearGradient
   id="SVGID_1_"
   gradientUnits="userSpaceOnUse"
   x1="568.16028"
   y1="794.89038"
   x2="1196.6289"
   y2="1589.8507">
		<stop
   offset="0"
   style="stop-color:#FFFFFF"
   id="stop12" />
		<stop
   offset="1"
   style="stop-color:#E6E6E6"
   id="stop14" />
	</linearGradient>
	<path
   class="st0"
   d="m 980.7,1238.4 h -540 c -33.1,0 -60,-26.9 -60,-60 V 771.9 c 0,-33.1 26.9,-60 60,-60 h 540 c 33.1,0 60,26.9 60,60 v 406.5 c 0,33.2 -26.9,60 -60,60 z"
   id="path17"
   style="fill:url(#SVGID_1_);stroke-width:2.07308" />
	<linearGradient
   id="SVGID_2_"
   gradientUnits="userSpaceOnUse"
   x1="380.21051"
   y1="975.18298"
   x2="1041.1772"
   y2="975.18298">
		<stop
   offset="0"
   style="stop-color:#E6E6E6"
   id="stop19" />
		<stop
   offset="1"
   style="stop-color:#FFFFFF"
   id="stop21" />
	</linearGradient>
	<path
   class="st1"
   d="m 980.7,1238.9 h -540 c -33.4,0 -60.5,-27.1 -60.5,-60.5 V 771.9 c 0,-33.4 27.1,-60.5 60.5,-60.5 h 540 c 33.4,0 60.5,27.1 60.5,60.5 v 406.5 c 0,33.4 -27.2,60.5 -60.5,60.5 z m -540,-526.5 c -32.8,0 -59.5,26.7 -59.5,59.5 v 406.5 c 0,32.8 26.7,59.5 59.5,59.5 h 540 c 32.8,0 59.5,-26.7 59.5,-59.5 V 771.9 c 0,-32.8 -26.7,-59.5 -59.5,-59.5 z"
   id="path24"
   style="fill:url(#SVGID_2_);stroke-width:2.07308" />
</g><g
     id="g34"
     transform="translate(-278.69501,-340.49065)"
     style="stroke-width:2.07308">
	<rect
   x="779.59998"
   y="832.29999"
   class="st2"
   width="20"
   height="6"
   id="rect28"
   style="stroke-width:2.07308" />
	<path
   class="st2"
   d="m 799.6,820.3 h -20 v -12.1 h 20 z m 0,-24.1 h -20 v -12.1 h 20 z m 0,-24.1 h -20 V 760 h 20 z m 0,-24.1 h -20 v -12.1 h 20 z m 0,-24.1 h -20 v -12.1 h 20 z m 0,-24.1 h -20 v -12.1 h 20 z m 0,-24.1 h -20 v -12.1 h 20 z m 0,-24.2 h -20 V 644 c 0,-1.8 0.1,-3.6 0.2,-5.4 l 19.9,1.5 c -0.1,1.3 -0.1,2.6 -0.1,3.8 z m 1.9,-21.1 -19.2,-5.5 c 1.3,-4.5 3,-8.9 5.2,-13.1 l 17.8,9.2 c -1.7,3.1 -2.9,6.2 -3.8,9.4 z m 9.2,-17.7 -15.6,-12.6 c 2.9,-3.6 6.3,-7 9.9,-10 l 12.8,15.4 c -2.6,2.2 -5,4.6 -7.1,7.2 z m 15.4,-12.7 -9.4,-17.6 c 4.1,-2.2 8.5,-4 13,-5.3 l 5.7,19.2 c -3.3,0.8 -6.4,2.1 -9.3,3.7 z m 19.1,-5.7 -1.7,-19.9 c 2,-0.2 4.1,-0.3 6.2,-0.3 h 6.7 v 20 h -6.7 c -1.6,0 -3.1,0.1 -4.5,0.2 z m 517.3,-0.2 h -12.1 v -20 h 12.1 z m -24.1,0 h -12.1 v -20 h 12.1 z m -24.1,0 h -12.1 v -20 h 12.1 z m -24.1,0 h -12.1 v -20 h 12.1 z m -24.1,0 H 1254 v -20 h 12.1 z m -24.1,0 h -12.1 v -20 h 12.1 z m -24.1,0 h -12.1 v -20 h 12.1 z m -24.1,0 h -12.1 v -20 h 12.1 z m -24.1,0 h -12.1 v -20 h 12.1 z m -24.1,0 h -12.1 v -20 h 12.1 z m -24.1,0 h -12.1 v -20 h 12.1 z m -24.1,0 h -12.1 v -20 h 12.1 z m -24.1,0 h -12.1 v -20 h 12.1 z m -24.2,0 H 1037 v -20 h 12.1 z m -24.1,0 h -12 v -20 h 12.1 v 20 z m -24.1,0 h -12.1 v -20 h 12.1 z m -24.1,0 h -12.1 v -20 h 12.1 z m -24.1,0 h -12.1 v -20 h 12.1 z m -24.1,0 h -12.1 v -20 h 12.1 z m -24.1,0 h -12.1 v -20 h 12.1 z m -24.1,0 h -12.1 v -20 h 12.1 z"
   id="path30"
   style="stroke-width:2.07308" />
	<rect
   x="1374.6"
   y="574.09998"
   class="st2"
   width="6"
   height="20"
   id="rect32"
   style="stroke-width:2.07308" />
</g><g
     id="g40"
     transform="translate(-278.69501,-340.49065)"
     style="stroke-width:2.07308">
	<g
   id="g38"
   style="stroke-width:2.07308">
		<path
   class="st3"
   d="m 1865,562.6 c 16,-87.2 -51.2,-167 -139,-167 -50.8,0 -96.2,26.9 -121.2,68.6 -34.1,-11 -69.3,-6.3 -98.2,13.6 -28.9,19.9 -46.2,51.4 -47.6,85.9 -38.6,18.2 -63.9,56.7 -63.9,98.9 0,7.2 0.7,14.5 2.1,21.5 10.2,51.2 55.5,88.4 107.8,88.4 h 315.2 c 61.2,0 111,-49.3 111,-109.9 0,-43.2 -26.3,-82.3 -66.2,-100 z m -44.8,178.6 H 1505 c -42.9,0 -78.5,-34.8 -78.5,-78.5 0,-32.7 21.5,-62.3 53.5,-73.7 l 11.2,-3.9 -0.7,-11.8 c -1.7,-27.7 11,-53.7 33.9,-69.5 24.2,-16.7 54,-17.8 81.2,-5.5 l 14.1,6.4 6.6,-14.1 c 18,-38.6 57.1,-63.5 99.7,-63.5 60.6,0 109.9,49.3 109.9,109.9 0,17.9 -3.8,28.8 -8,43.2 11.7,6.1 13.6,7.2 17.6,8.6 32.5,11.1 54.3,40.8 54.3,73.9 0,43.2 -35.7,78.5 -79.6,78.5 z"
   id="path36"
   style="stroke-width:2.07308" />
	</g>
</g><text
     class="st4 st10 st11"
     id="text42"
     style="font-style:normal;font-variant:normal;font-weight:bold;font-stretch:normal;font-family:'Nimbus Sans';-inkscape-font-specification:'Nimbus Sans Bold';letter-spacing:-2px;stroke-width:2.07308"
     x="1309.8973"
     y="342.39624">Broadwayd</text><text
     class="st4 st10 st12"
     id="text54"
     style="font-style:normal;font-variant:normal;font-weight:bold;font-stretch:normal;font-family:'Nimbus Sans';-inkscape-font-specification:'Nimbus Sans Bold';letter-spacing:-2px;stroke-width:2.07308"
     x="891.14191"
     y="789.17065">JSON</text><text
     class="st4 st10 st13"
     id="text56"
     style="font-style:normal;font-variant:normal;font-weight:bold;font-stretch:normal;font-family:'Nimbus Sans';-inkscape-font-specification:'Nimbus Sans Bold';letter-spacing:-2px;stroke-width:2.07308"
     x="102.01599"
     y="121.86327">Merengue</text><g
     id="g1227"
     transform="translate(-278.69501,-340.49065)"
     style="stroke-width:2.07308"><path
       class="st4"
       d="m 946.6,1175.1 h -314 c -13.2,0 -24,-10.8 -24,-24 v -266 c 0,-13.2 10.8,-24 24,-24 h 314 c 13.2,0 24,10.8 24,24 v 266 c 0,13.2 -10.8,24 -24,24 z"
       id="path44"
       style="stroke-width:2.07308" /><text
       transform="translate(659.7315,951.4023)"
       id="text50"
       style="font-style:normal;font-variant:normal;font-weight:bold;font-stretch:normal;font-family:'Nimbus Sans';-inkscape-font-specification:'Nimbus Sans Bold';letter-spacing:-2px;stroke-width:2.07308"><tspan
         x="0"
         y="0"
         class="st5 st10 st12"
         id="tspan46"
         style="font-style:normal;font-variant:normal;font-weight:bold;font-stretch:normal;font-family:'Nimbus Sans';-inkscape-font-specification:'Nimbus Sans Bold';stroke-width:2.07308">WebKit</tspan><tspan
         x="0"
         y="69.699997"
         class="st5 st10 st12"
         id="tspan48"
         style="font-style:normal;font-variant:normal;font-weight:bold;font-stretch:normal;font-family:'Nimbus Sans';-inkscape-font-specification:'Nimbus Sans Bold';stroke-width:2.07308">WebView</tspan></text><text
       class="st5 st10 st14"
       id="text58"
       style="font-style:normal;font-variant:normal;font-weight:bold;font-stretch:normal;font-size:29.3333px;font-family:'Nimbus Sans';-inkscape-font-specification:'Nimbus Sans Bold';letter-spacing:-2px;stroke-width:2.07308"
       x="658.521"
       y="1127.8774">http://localhost:8080</text></g><g
     id="g74"
     transform="translate(-278.69501,-340.49065)"
     style="stroke-width:2.07308;filter:url(#filter1246)">
	<linearGradient
   id="SVGID_3_"
   gradientUnits="userSpaceOnUse"
   x1="1572.7008"
   y1="949.90448"
   x2="1834.2715"
   y2="1330.371">
		<stop
   offset="0"
   style="stop-color:#FFFFFF"
   id="stop60" />
		<stop
   offset="1"
   style="stop-color:#E6E6E6"
   id="stop62" />
	</linearGradient>
	<path
   class="st6"
   d="m 1872.1,1238.4 h -417.9 c -13.2,0 -24,-10.8 -24,-24 v -266 c 0,-13.2 10.8,-24 24,-24 h 417.9 c 13.2,0 24,10.8 24,24 v 266 c 0,13.2 -10.8,24 -24,24 z"
   id="path65"
   style="fill:url(#linearGradient996);stroke-width:2.07308" />
	<linearGradient
   id="SVGID_4_"
   gradientUnits="userSpaceOnUse"
   x1="1429.6821"
   y1="1081.4198"
   x2="1896.5532"
   y2="1081.4198">
		<stop
   offset="0"
   style="stop-color:#E6E6E6"
   id="stop67" />
		<stop
   offset="1"
   style="stop-color:#FFFFFF"
   id="stop69" />
	</linearGradient>
	<path
   class="st7"
   d="m 1872.1,1238.9 h -417.9 c -13.5,0 -24.5,-11 -24.5,-24.5 v -266 c 0,-13.5 11,-24.5 24.5,-24.5 h 417.9 c 13.5,0 24.5,11 24.5,24.5 v 266 c 0,13.5 -11,24.5 -24.5,24.5 z m -417.9,-314 c -13,0 -23.5,10.5 -23.5,23.5 v 266 c 0,13 10.5,23.5 23.5,23.5 h 417.9 c 13,0 23.5,-10.5 23.5,-23.5 v -266 c 0,-13 -10.5,-23.5 -23.5,-23.5 z"
   id="path72"
   style="fill:url(#SVGID_4_);stroke-width:2.07308" />
</g><text
     class="st3 st10 st12"
     id="text76"
     style="font-style:normal;font-variant:normal;font-weight:bold;font-stretch:normal;font-family:'Nimbus Sans';-inkscape-font-specification:'Nimbus Sans Bold';letter-spacing:-2px;stroke-width:2.07308"
     x="1332.4871"
     y="792.01196">Merengue</text><g
     id="g80"
     transform="translate(-278.69501,-340.49065)"
     style="stroke-width:2.07308">
	<text
   transform="translate(1449.5942,1068.7373)"
   class="st4 st10 st14"
   id="text78"
   style="font-size:29.3333px;stroke-width:2.07308"><tspan
     style="font-style:normal;font-variant:normal;font-weight:bold;font-stretch:normal;font-size:29.3333px;font-family:'Nimbus Sans';-inkscape-font-specification:'Nimbus Sans Bold';stroke-width:2.07308"
     id="tspan1188">stdin</tspan></text>
</g><g
     id="g84"
     transform="translate(-278.69501,-339.53059)"
     style="stroke-width:2.07308">
	<text
   transform="translate(1449.5938,1170.5946)"
   class="st4 st10 st14"
   id="text82"
   style="font-size:29.3333px;stroke-width:2.07308"><tspan
     style="font-style:normal;font-variant:normal;font-weight:bold;font-stretch:normal;font-size:29.3333px;font-family:'Nimbus Sans';-inkscape-font-specification:'Nimbus Sans Bold';stroke-width:2.07308"
     id="tspan1190">stdout</tspan></text>
</g><g
     id="g954"
     transform="translate(-18,-4)"
     style="stroke-width:2.07308"><text
       class="st4 st10 st12"
       id="text52"
       style="font-style:normal;font-variant:normal;font-weight:bold;font-stretch:normal;font-family:'Nimbus Sans';-inkscape-font-specification:'Nimbus Sans Bold';letter-spacing:-2px;stroke-width:2.07308"
       x="154.40469"
       y="462.13623">Cambalache</text><text
       class="st4 st10 st14"
       id="text86"
       style="font-style:normal;font-variant:normal;font-weight:bold;font-stretch:normal;font-size:29.3333px;font-family:'Nimbus Sans';-inkscape-font-specification:'Nimbus Sans Bold';letter-spacing:-2px;stroke-width:2.07308"
       x="155.72742"
       y="497.82971">Gtk 3 Application</text></g><text
     class="st4 st10 st14"
     id="text88"
     style="font-style:normal;font-variant:normal;font-weight:bold;font-stretch:normal;font-size:29.3333px;font-family:'Nimbus Sans';-inkscape-font-specification:'Nimbus Sans Bold';letter-spacing:-2px;stroke-width:2.07308"
     x="1335.0873"
     y="834.60571">Gtk 3 or 4 Application</text><g
     id="g96"
     transform="translate(-278.69501,-340.49065)"
     style="stroke-width:2.07308">
	<rect
   x="1653.1"
   y="899.59998"
   class="st2"
   width="20"
   height="6"
   id="rect90"
   style="stroke-width:2.07308" />
	<path
   class="st2"
   d="m 1673.1,888.3 h -20 v -11.4 h 20 z m 0,-22.8 h -20 v -11.4 h 20 z m 0,-22.7 h -20 v -11.4 h 20 z m 0,-22.7 h -20 v -11.4 h 20 z"
   id="path92"
   style="stroke-width:2.07308" />
	<rect
   x="1653.1"
   y="791.40002"
   class="st2"
   width="20"
   height="6"
   id="rect94"
   style="stroke-width:2.07308" />
</g><g
     id="g1235"
     transform="translate(-278.69501,-340.49065)"
     style="stroke-width:2.07308"><rect
       x="1079.7"
       y="1048.3"
       class="st2"
       width="289.89999"
       height="20"
       id="rect98"
       style="stroke-width:2.07308" /><polygon
       class="st2"
       points="1354.5,1084.4 1399.7,1058.3 1354.5,1032.2 "
       id="polygon100"
       style="stroke-width:2.07308" /></g><g
     id="g1231"
     transform="translate(-278.69501,-340.49065)"
     style="stroke-width:2.07308"><rect
       x="1109.8"
       y="1151.2"
       class="st2"
       width="289.89999"
       height="20"
       id="rect102"
       style="stroke-width:2.07308" /><polygon
       class="st2"
       points="1124.8,1135.1 1079.7,1161.2 1124.8,1187.3 "
       id="polygon104"
       style="stroke-width:2.07308" /></g></g>
</svg>
