<?xml version="1.0" encoding="UTF-8"?>
<svg version="1.1" viewBox="0 0 32 33.336" xmlns="http://www.w3.org/2000/svg">
 <defs>
  <linearGradient id="c" x1="-143" x2="-129.5" y1="207.36" y2="108.86" gradientTransform="matrix(.12809 0 0 .12809 33.844 -12.218)" gradientUnits="userSpaceOnUse">
   <stop stop-color="#92cbe2" offset="0"/>
   <stop stop-color="#7f95fe" offset="1"/>
  </linearGradient>
  <linearGradient id="b" x1="-133.5" x2="-50" y1="221.86" y2="279.36" gradientTransform="matrix(.12809 0 0 .12809 33.844 -12.218)" gradientUnits="userSpaceOnUse">
   <stop stop-color="#bff872" offset="0"/>
   <stop stop-color="#7de567" offset="1"/>
  </linearGradient>
  <linearGradient id="a" x1="-157.5" x2="-247.5" y1="222.86" y2="276.86" gradientTransform="matrix(.12809 0 0 .12809 33.844 -12.218)" gradientUnits="userSpaceOnUse">
   <stop stop-color="#fe798e" offset="0"/>
   <stop stop-color="#9c2219" offset="1"/>
  </linearGradient>
 </defs>
 <path d="m14.587 15.159-13.341-7.9466 16.043-6.575 13.469 7.4425z" fill="url(#c)"/>
 <path d="m15.427 15.181 15.832-6.9539-2.2718 15.91-14.915 8.5469z" fill="url(#b)"/>
 <path d="m14.402 32.294-13.385-8.2263 0.057475-15.837 13.889 7.1944z" fill="url(#a)"/>
<path d="m13.5 32.9c-0.4-0.2-2.4-1.6-4.6-3-5-3.3-6.5-4.3-7.6-4.9-1.4-0.7-1.4 0.1-1.4-8.4 0-8-0.1-9.4 0.6-9.2-0.6-0.6 2.2-1.4 6.5-3.4 4.3-1.9 8.9-3.8 10-4.1 0.3 0 0.9 0.2 3.5 1.5 5.5 2.7 10.1 5.3 10.7 5.9 0.1 0.1 0.3 0.3 0.4 0.3 0.3 0 0.3 0.5 0.2 1.5-0.1 0.5-0.6 3.7-1.2 7.1s-1.1 6.5-1.1 6.9c-0.2 1.5-0.1 1.4-2.4 2.9-1.1 0.7-4 2.4-6.4 3.8-2.4 1.4-4.8 2.7-5.3 3-0.5 0.3-1 0.6-1.1 0.5-0.1 0-0.5-0.2-0.9-0.4zm0.6-3.3c0-1.1 0.1-4.4 0.2-7.3 0.1-6.4 0.2-6.2-1.2-7.1-1.7-1.1-3.4-2.1-6.5-3.7-1.7-0.9-3.5-1.9-4-2.2-0.7-0.4-1.1-0.6-1.2-0.5-0.2 0.2-0.2 6.8 0 11.5l0.1 3.3 0.9 0.5c0.8 0.5 5.4 3.5 9.8 6.6 0.7 0.5 1.4 0.9 1.6 0.9 0.2 0 0.2-0.3 0.3-2.1zm-7.9-5.7 0.2-6.4-2.4-1.3 0.3-2.6 7.7 3.7-0.1 2.5-2.8-1.2c-0.4 1.4-0.4 4.3-0.6 6.5zm14.6 4.5c5.6-3.2 7.5-4.4 7.6-4.7 0-0.2 0.2-0.9 0.3-1.7 0.1-0.8 0.6-3.8 1.1-6.8 0.8-5 1-6.2 0.8-6.2-0.2 0-3.2 1.4-7 3.1-2.4 1.1-5 2.3-5.8 2.7-0.8 0.4-1.6 0.8-1.7 0.9-0.3 0.2-0.9 15-0.6 15.5 0.1 0.2 0.2 0.2 0.8-0.2 0.4-0.2 2.5-1.4 4.6-2.6zm-2.8-2.2c0-3.4-0.3-6.8 0.5-10.3l1.6 0 0.1 4.9 5.5-6.8 2.6-0.7-4.9 6.7 4.5 2.2-1.9 1.2-4.6-2-1.7 0.8-0.1 3.3zm-1.7-12c0.4-0.2 3.1-1.5 6.1-2.9 3-1.4 5.8-2.7 6.2-2.9 1.2-0.5 1.3-0.6 0.7-1-0.9-0.6-5.5-3-8.7-4.6l-3.2-1.6-1.1 0.4c-1.5 0.5-5.8 2.3-9.5 3.9-3.9 1.7-4.4 2-4.4 2.2 0 0.1 0.9 0.6 1.9 1.2 3.3 1.9 10.6 5.6 10.9 5.6 0.2 0 0.6-0.1 1-0.3zm-2-2.1c-1.9-0.5-4-1.5-4.5-2.3-0.4-0.6-0.8-1.6-0.8-2.1 0-0.7 0.4-1.6 0.9-2.1 0.7-0.7 1.6-1 4.1-1.3 2.4-0.3 4.6-0.2 5.8 0.2 1.2 0.4 1.7 0.7 1.9 1 0.6 0.9 1.1 1.7 1.1 1.8 0 0.2-0.6 0.5-1 0.4-0.2 0-0.5-0.1-0.8-0.1-0.4-0.1-0.5-0.2-0.8-0.6-0.3-0.6-1.2-1.2-2-1.4-1.3-0.3-4.8-0.1-5.9 0.5-0.6 0.3-0.9 1-1 2-0.1 0.7 0 0.9 0.2 1.2 0.4 0.4 1.4 0.9 2.6 1.3 0.6 0.2 1 0.3 1.5 0.2 1-0.1 1.2-0.4 0.5-1.2-0.5-0.7-0.7-1-0.5-1.4 0.1-0.2 0.2-0.3 0.8-0.2 0.8 0.1 2.6 0.7 3 1.1 0.4 0.3 0.4 1.1 0.1 1.5-0.4 0.4-2 1.2-2.6 1.4-0.7 0.2-1.8 0.2-2.7 0z" stroke-width="4"/>
</svg>
