<svg width="962" height="660" viewBox="0 0 962 660" xmlns="http://www.w3.org/2000/svg">
  <path class="success" d="M920.06 350.76a3.7 3.7 0 1 0 3.58 4.77 3.7 3.7 0 0 0-3.58-4.77zm-19.96.45a5.12 5.12 0 1 0 .09 10.23 5.12 5.12 0 0 0-.1-10.23zm37.23 1.76a2 2 0 0 0-.76 3.92 2 2 0 1 0 .76-3.92zm9.3 37.5c-65.9 0-137.96 10.44-220.32 31.93-73.44 19.15-148.1 45.1-220.28 70.22-72.19 25.1-146.83 51.06-220.24 70.2-82.32 21.47-154.33 31.9-220.18 31.9v.56c65.89 0 137.96-10.44 220.3-31.93 73.44-19.15 148.1-45.12 220.29-70.22s146.83-51.05 220.24-70.2c82.31-21.47 154.33-31.9 220.19-31.9v-.55zm2.62 6.13c-6.43-.02-14.28.04-19.96.38-5.14.32-10.26.72-15.4 1.17-136.7 6.75-274.87 54.8-408.82 101.37C360.95 549.65 211.9 601.48 65.5 601.48v4.33c6.28 0 12.57-.1 18.87-.3h239.7a5.69 5.69 0 1 0 .29-3.97h-81.04v-17.55c33.02-7.4 66-16.25 98.92-25.98 15.29-4.53 34.58-10.56 52.79-16.43 18.2-5.87 35.32-11.58 46.27-15.48 1.28-.46 2.6-.87 3.91-1.32 1.97-.68 3.92-1.29 5.86-1.87l.44-.14s1.41-.45 4-1.13c1.7-.47 3.4-.9 5.09-1.32l-.2.11c2.32-.53 5.02-1.11 8.1-1.72-.17 0-.36-.04-.53-.04 17.4-3.53 30.8-3.9 30.8-3.9s.27-.44 1.09-1.3c.28-.28.62-.62 1.06-1.02 7.14-6.55 24.94-15.59 40.12-20.84l1.84-.63a486.38 486.38 0 0 1 25.29-8.67s12.26-4.14 23.73-7.98a64.23 64.23 0 0 1 16.23 15.08c3.7 6.5 6.5 13.49 7.37 20.89.62 4.69-.12 9.45-1.21 13.97a61.81 61.81 0 0 1-5.09 13.04l-.02.02a2.73 2.73 0 1 0 5.09 1.93c1.23-4.8 2.23-9.64 2.74-14.52.56-4.88.32-9.77-.14-14.6a46.54 46.54 0 0 0-2.43-10.66 76.79 76.79 0 0 1 5.1 12.61 59.74 59.74 0 0 1-39.56 74.57 47.66 47.66 0 0 1-7.3 1.63c-12.2 1.06-18.65-2.4-21.73-9.51 0 0-18.11-2.76-26.03-13.74a48.35 48.35 0 0 1-4.33-9.89 37.57 37.57 0 0 1 2.74-28.8 37.6 37.6 0 0 1 22.3-18.43 29.9 29.9 0 0 1 22.88 2.17 29.8 29.8 0 0 1 14.63 17.73 23.8 23.8 0 0 1-14.73 29.35c.72-.66 1-1.72.72-2.74a3.04 3.04 0 0 0-3.74-2.1 3.55 3.55 0 0 0-2.46 4.4 4.15 4.15 0 0 0 5.07 2.88l.05-.02h.02a25.76 25.76 0 0 0 15.26-12.62 25.77 25.77 0 0 0 1.88-19.8 31.92 31.92 0 0 0-15.68-18.99 32.05 32.05 0 0 0-24.54-2.34 39.7 39.7 0 0 0-23.59 19.49 39.73 39.73 0 0 0-2.9 30.45 49.55 49.55 0 0 0 25.94 30.14l.1.08.13.02a50.32 50.32 0 0 0 11.63 3.89c-2.03-.02-3.2-.06-2.3-.02-25.11-.32-48.15-9.94-69.45-18.84l-6.04-2.52h-.01l-.04-.02c-18.3-7.57-35.83-14.06-52.55-12.76l-.07-.01c-6.58.07-15.98.98-22.1 3.47-4.48 1.84-8.92 3.9-12.99 6.66-4.08 2.72-7.9 5.86-11.58 9.17-.15.13-.28.3-.42.47a2.74 2.74 0 0 0 4.5 3.14l.02-.02a61.82 61.82 0 0 1 9.19-10.57c3.5-3.08 7.35-5.93 11.8-7.56a47.33 47.33 0 0 1 10.68-2.68l-.52.15c-24.87 8.01-38.95 33.3-32.07 57.57a37.53 37.53 0 0 0 46.32 25.84 30.04 30.04 0 0 0 18.15-14.35 30.07 30.07 0 0 0 2.68-22.96 24.4 24.4 0 0 0-29.4-17l-.73.2v.01a4.17 4.17 0 0 0-2.68 5.22 3.56 3.56 0 0 0 4.46 2.33 3.05 3.05 0 0 0 1.98-3.8 2.7 2.7 0 0 0-2.1-1.9 22.21 22.21 0 0 1 26.4 15.56 27.8 27.8 0 0 1-2.5 21.32 27.89 27.89 0 0 1-16.84 13.33 35.05 35.05 0 0 1-26.86-3.14 35.16 35.16 0 0 1-16.79-21.2c-6.55-23.14 6.9-47.26 30.66-54.92 10.36-3.34 21.17-2.72 32.38-.03l1.13.26.46.11c6.43 2.03 10.85 6.56 12.15 11.74 0 0 11.17-3.74 24.25 1.68 27.5 11.5 57.84 23.69 91.92 15.79-.3.11-.62.2-.92.32a707.7 707.7 0 0 0 6.57-1.99l.49-.25a61.93 61.93 0 0 0 38.03-76.28c-5.01-16.49-14.3-29.27-27-38 3.07-1.02 2.24-.78 5.83-1.96h-.03c11.48-3.8 23.02-7.37 34.55-11.02l.02.02c.05.06.11.1.17.13.04.04.07.08.11.1 27.13 14.82 34.27 44.44 31.81 72.09-2.76 9.73-9.37 19.1-9.37 19.1l2.06 9.2c-4.27 10.81-11.95 27.23-23.33 40.48-11.24 13.1-11.17 21-11.11 30.13.04 5.37.1 11.44-2.21 19.45l-.59 2.02 1.72-1.19c26.43-18.31 33.17-53.8 37.52-81.4-.02.28.02.3.1.09l.05.25s2.44-11.3 4.16-19.06a174.34 174.34 0 0 0 1.12-4.9c.34-1.49.66-3.36.94-5.21l.12-.8.01-.16a135.4 135.4 0 0 0 .85-6.62c2.27-23.02-1.92-47.6-18.35-64.44 14.48 11.18 25.65 28.11 37.31 45.76 1.68 2.56 3.4 5.15 5.14 7.75v.02l.04.04c7.86 11.74 16.39 23.78 26.63 34.63.04.1.1.19.16.28a59.27 59.27 0 0 0 6.02 5.92c10.12 9.53 21.83 17.79 36.03 23.57l.4.17c41.26 16.67 79.1 17.56 111.4 3.33 0 0 .03 0 .03-.02l2.7-1.23c10.72-4.33 23.45-2.99 32.04 5.54a22.29 22.29 0 0 1 6.63 15.91 22.37 22.37 0 0 1-6.56 15.93 17.73 17.73 0 0 1-12.57 5.24 17.66 17.66 0 0 1-12.59-5.18c-.17-.17-.32-.38-.49-.56 1.15.47 2.52.03 3.27-1.06 1-1.46.65-3.44-.8-4.44a3.76 3.76 0 0 0-5.23.94 4.39 4.39 0 0 0 1 6.01c.21.25.4.5.63.72a20.02 20.02 0 0 0 28.39-.06 24.72 24.72 0 0 0 7.24-17.56 24.69 24.69 0 0 0-7.3-17.52 30.58 30.58 0 0 0-24.46-8.77c16.07-9.4 30.57-22.85 43.2-40.3l.31-.43c4.86-6.47 13.52-19.45 13.52-19.45l-13.38 6.93s-1.06 9.57-4.37 14.5c-22.36 29.6-50.45 46.9-82.65 51.36-6.43.58-25.98-2.5-27.77-6.7 0 0-8.26 6.85-21.63 4.15a192.42 192.42 0 0 1-30.12-9.51 109.81 109.81 0 0 1-23.21-12.91 58.03 58.03 0 0 0 62.1-9.19 46.61 46.61 0 0 0 4.31-65.72 37.53 37.53 0 0 0-52.88-3.48 30.57 30.57 0 0 0-5.43 6.3l-.05.04v.03a29.9 29.9 0 0 0-4.75 14.37 30.03 30.03 0 0 0 7.43 21.89 24.27 24.27 0 0 0 16.73 8.26 24.2 24.2 0 0 0 17.67-6c3.97-3.47 6.33-8.27 6.67-13.53s-1.38-10.34-4.85-14.29c-.1-.11-.23-.2-.34-.26a4.17 4.17 0 0 0-4.97-.27 3.56 3.56 0 0 0-.97 4.94 3.03 3.03 0 0 0 4.22.81 2.6 2.6 0 0 0 1.07-3 17.46 17.46 0 0 1 3.69 11.92 17.4 17.4 0 0 1-5.94 12.04 22.1 22.1 0 0 1-16.1 5.46 21.97 21.97 0 0 1-15.23-7.52 27.88 27.88 0 0 1-6.9-20.32c.22-3.59 1.15-7 2.64-10.17 3.82-7.4 9-7.27 12.5-7.03 0 0 .9-7.05 12.41-10.38a35.3 35.3 0 0 1 31.78 11.6 44.47 44.47 0 0 1-4.12 62.69 55.86 55.86 0 0 1-74.29-.66c-1.36-1.33-2.7-2.69-4.02-4.05l-.42-.45-.06-.04a164.63 164.63 0 0 1-7.23-8.18c-.6-1.08-5.62-10.2-5.79-15.18-2.78-1.32-11.5-8.24-18.71-19.07-15.28-23.15-29.75-45-52-54.77 1.89-.6 3.77-1.22 5.66-1.81.43.24.8.46 1.26.7.9.55 27.1 16.9 42.8 40.26 9.61 14.33 17.23 16.37 26.06 18.75 5.18 1.4 11.05 2.97 18.16 7.32l1.8 1.1-.7-1.99c-10.59-30.35-43-46.35-68.42-57.9 1.7.53-6.24-3.42-11.35-5.74a168.64 168.64 0 0 1-7.3-3.23c2.57-.8 5.13-1.67 7.7-2.47l5.09 3.05c6.18 2.3 12.62 3.84 19.24 3.73 4.84-.1 9.73-.4 14.51-1.51a98.77 98.77 0 0 0 14.1-4.37 2.76 2.76 0 0 0 1.3-4.08 2.74 2.74 0 0 0-3.8-.76l-.01.02c-3.87 2.59-8 4.86-12.38 6.52-4.37 1.6-9 2.87-13.74 2.78-8.08-.02-15.92-2.35-23.28-5.7 1.55-.48 3.1-1.01 4.64-1.48l.02.05c.47-.18.95-.34 1.42-.49.7-.2 1.42-.43 2.12-.64.43-.11.87-.19 1.28-.28 8.3-2.52 16.84-5.07 25.57-7.62-.05 0-.13 0-.18.02 2-.59 4.02-1.14 6.04-1.72l1.86-.53c33.42-9.62 60.86-15.7 86.15-21.36l2.02-.44a247.9 247.9 0 0 1 11.06-1.54c11.98-1.52 22.04-1.8 29.9-.57 8.05 1.1 10.47 3.14 10.47 3.14s4.05-8.64 26.24-13.37l2.05-.35 1.65.24s2.9.77 6.47 1.91c3.59 1.15 7.85 2.68 10.59 4.22a45.67 45.67 0 0 1 6.17 4.13c.15-.02.23.14.34.2a43.48 43.48 0 0 1 10.18 11.86c.26.42.51.85.75 1.3a52.49 52.49 0 0 1 5.66 17.21 42.66 42.66 0 0 1 .34 10.86 39.99 39.99 0 0 1-11.88 24.52 39.9 39.9 0 0 1-18.8 10.35 35.56 35.56 0 0 1-8.8 1c-4.97-.1-9.9-1.4-14.29-3.74a32.1 32.1 0 0 1-11.95-11.09 31.66 31.66 0 0 1-4.78-13.98 25.17 25.17 0 0 1 23.06-27.35 19.82 19.82 0 0 1 15.03 5.32 19.87 19.87 0 0 1 5.81 10.04l.04 1.34c-.3-.35-.63-.68-.92-1.04a2.4 2.4 0 0 0-.78-.84 2 2 0 0 0-1.08-.35 2.98 2.98 0 0 0-2.74 1.54 3.58 3.58 0 0 0-.23 2.56 3.88 3.88 0 0 0 2.04 2.55c.83.4 1.79.55 2.7.45a4.02 4.02 0 0 0 2.91-1.8c.47-.7.7-1.55.7-2.4.03-.15.06-.3.01-.44-.02-.23-.07-.45-.1-.68a21.66 21.66 0 0 0-4.7-10.42 22.48 22.48 0 0 0-7.26-5.83l-.3-.15a22.13 22.13 0 0 0-5.09-1.75l-.31-.07a22.33 22.33 0 0 0-9.39.16 27.86 27.86 0 0 0-4.92 1.54 27.44 27.44 0 0 0-14.3 13.75l-.32.7a24.7 24.7 0 0 0-1.12 3.07 27.57 27.57 0 0 0-.88 11.62 34.02 34.02 0 0 0 2.96 9.98c.08.17.18.4.28.58a34.14 34.14 0 0 0 13.3 14.27 33.88 33.88 0 0 0 13.88 4.56l.57.05a35.08 35.08 0 0 0 10.56-.73l1.11-.24.5-.12a43.6 43.6 0 0 0 8.63-3.22 42.3 42.3 0 0 0 17.83-16.98c1.5-2.63 2.7-5.42 3.61-8.3l.24-.81a41.6 41.6 0 0 0 1.03-4.38c.03-.26.2-.47.3-.7l.28-.58.39 1.2c.26 7.68-.7 15.38-2.73 22.77-1.37 5-3.2 9.86-5.45 14.53a94.86 94.86 0 0 1-7.88 13.38 95.5 95.5 0 0 1-17.03 18.43 17.12 17.12 0 0 1-7.05 2.83 29.75 29.75 0 0 1-8.54.23c-1.9 2.97-3.95 5.84-6.14 8.6a56.33 56.33 0 0 1-6.98 7.45c4.7-1.95 9.35-4.1 13.86-6.49a104.12 104.12 0 0 0 6.98-4 69.95 69.95 0 0 0 4.8-3.26c.09-.08.23-.14.29-.24.12-.14.3-.23.44-.35a97.65 97.65 0 0 0 27.34-31.7l.47-.89a92.16 92.16 0 0 0 4-8.69l.3-.76a86.45 86.45 0 0 0 3.25-10.19l.17-.7a82.12 82.12 0 0 0 1.82-10.48 72.7 72.7 0 0 0-2.23-27.4 69.66 69.66 0 0 0-8.4-18.64c-.18-.22-.32-.49-.49-.73a46.12 46.12 0 0 0-3.21-4.23l-.4-.46a45.8 45.8 0 0 0-2.62-2.74l-.49-.47a46.83 46.83 0 0 0-9.9-7.08 52.68 52.68 0 0 0-6.72-3l-.87-.32a56.54 56.54 0 0 0-3.64-1.14c-.14-.03-.94-.32-1.4-.47l.9-.15c.9-.1 1.77-.17 2.65-.27 1.65.13 3.3.34 4.92.63 6.42 1.07 12.47 3.72 18.07 7.05 5.46 3.6 10.19 8.22 14.5 13.1 2.24 2.36 4.2 5 6.25 7.52 1.99 2.59 3.78 5.35 5.67 8l.1.15.24.3c.44.47 1 .72 1.59.86.58.13 1.18.15 1.75-.06a3.09 3.09 0 0 0 1.88-1.93c.16-.48.2-.99.11-1.48a3.08 3.08 0 0 0-.8-1.7c-4.58-4.95-9.16-9.89-14.2-14.35a92.67 92.67 0 0 0-16.26-11.89 51.17 51.17 0 0 0-16.33-6.92c6.37-.6 12.76-1.1 19.13-1.53 18.84 1.91 30.4 11.65 30.4 11.65l-.05-.14c.04.02.04.04.04.04s-2.8-6.75-5.93-10.28l34.28-7.64-.36-.01.42-.1s-5-.11-11.44-.13zm-150.2 33.26a3.7 3.7 0 1 0 .29 7.38 3.7 3.7 0 0 0-.29-7.38zm21.03 3.07a5.11 5.11 0 1 0 .4 10.2 5.11 5.11 0 0 0-.4-10.2zm-38.98.05a2 2 0 0 0-1.62 3.33 2 2 0 1 0 1.62-3.34zm-91.26.78h.04-.04zm81.6 23.23c-1.84.01-3.68.09-5.52.23-4.9.34-9.79 1.08-14.32 2.78-12.63 4.72-24 16.56-24 16.54.24.05.5.03.7-.15 6.8-6.58 14.62-12.3 23.67-15.07 4.5-1.45 9.3-1.59 13.95-1.32 4.67.32 9.28 1.28 13.74 2.65h.02a2.72 2.72 0 0 0 3.42-1.82 2.72 2.72 0 0 0-2.41-3.53 118.1 118.1 0 0 0-9.25-.31zm168.65.32a4.12 4.12 0 0 0-3.7 2.46 4.12 4.12 0 0 0 2.12 5.43 4.12 4.12 0 0 0 5.43-2.12 4.12 4.12 0 0 0-2.11-5.42l-.02-.01a4.12 4.12 0 0 0-1.72-.34zm-281.08 9.47c3.22 1.95 6.45 3.94 9.57 6.09a495.3 495.3 0 0 1 14.72 10.47 1605.2 1605.2 0 0 1 28.9 21.83 933.14 933.14 0 0 0-27.99-23.02 453.08 453.08 0 0 0-14.5-10.9 266.31 266.31 0 0 0-5.33-3.69c24.54 11.17 55.37 26.52 66.37 54.81-6.49-3.66-11.91-5.12-16.73-6.42-8.89-2.38-15.9-4.27-25.22-18.13-8.73-12.98-20.66-23.82-29.79-31.04zm-25.7 17.19a2.01 2.01 0 0 0-1.45 3.23 2 2 0 0 0 2.81.36 2.01 2.01 0 0 0-1.36-3.6zM379.56 495.7a5.12 5.12 0 1 0 5.23 5.5 5.12 5.12 0 0 0-5.23-5.5zm262.54 2.31a3.7 3.7 0 1 0-.23 7.4 3.7 3.7 0 0 0 .23-7.4zm-281.58 5.22a3.7 3.7 0 1 0 .2 7.4 3.7 3.7 0 0 0-.2-7.4zm316.04 3.26-2.08 1.24s.34.67.89 2.31c0-.1 0-.17-.02-.26.94 2.89 1.89 5.85 2.82 8.92.47 1.72.98 3.4 1.49 5.08l1.76 6.31c1.05 3.92 2.26 7.87 3.59 11.84h-.02l.34.96.11.36c4.05 12.38 5.14 33.83 5.14 33.83 4.03-3.74 3.22-12.68 3.22-12.68l-.04-.1 1.7 3.75h-.02c.8 1.76 1.63 3.44 2.48 5.08a238.71 238.71 0 0 0 17.65 29.96c17.6 25.22 37.9 42.78 58.73 50.77a90 90 0 0 0 4.63 1.63c21.9 6.92 43.89 3.38 65.44-10.55l3.46-2.23-4.13.25c-7.99.43-15.66-3.78-24.53-8.68-10.64-5.86-22.68-12.5-39.84-14.44l-1.69-.2c-20.71-2.33-59.27-6.66-80.21-52.5l-.27.11a229.85 229.85 0 0 1-7.88-19.35l.57 1.08a159.03 159.03 0 0 1-8.75-28.03l-.8-2.69c-.04-.15-.1-.32-.13-.47a334.7 334.7 0 0 0-3.61-11.3zM344 508.16a2.02 2.02 0 0 0-2.16 1.85 2.02 2.02 0 0 0 1.86 2.16 2 2 0 0 0 .3-4zm299.63 9.73a5.1 5.1 0 0 0-.44 10.2c.65 29.15-11.36 53.04-34.5 67.02-4.66 2.15-9.61 1.38-9.61 1.38s-4.8 6.14-10 9.22c.02.02 5.46-1.53 10.58-3.57l.02.05 1.1-.52c1.44-.6 2.8-1.23 3.99-1.88l.07-.05c27.2-13.92 41.42-39.88 40.58-72.02a5.1 5.1 0 0 0-1.8-9.83zm269.3 9.47c-1.4-.09-2.58.99-2.68 2.4-.07 1.4 1 2.61 2.4 2.69 1.4.07 2.61-1 2.69-2.4.07-1.4-1-2.61-2.4-2.69zm-438 13.96a3.4 3.4 0 0 0-1.54 6.4l38.16 20.1-34.53-25.83a3.42 3.42 0 0 0-2.08-.67zm422.58 1.56a4.72 4.72 0 1 0 .43 9.42 4.72 4.72 0 0 0-.43-9.42zm-23.04 13.17a6.5 6.5 0 1 0 .59 12.98 6.5 6.5 0 0 0-.59-12.98zm-215.02 9.44a174.64 174.64 0 0 1-3.33 10.85 492.64 492.64 0 0 1-6.16 17c-4.27 11.28-8.8 22.46-13.32 33.65a877.82 877.82 0 0 0 14.72-33.11c2.3-5.6 4.56-11.21 6.64-16.9a291.6 291.6 0 0 0 2.13-6.12c-4.2 26.65-10.77 60.46-35.1 78.6 1.8-7.21 1.76-12.83 1.72-17.84-.07-9.2-.13-16.46 10.74-29.14 10.19-11.87 17.44-26.26 21.96-37zm-417.63 18.84v17.2h-8.5v-15.32c2.83-.61 5.67-1.25 8.5-1.88zm244.78 1.54a7.2 7.2 0 0 0-6.41 10.62 7.23 7.23 0 1 0 6.41-10.62zm-254.78.64v15.02h-8.52v-13.27c2.84-.58 5.68-1.14 8.52-1.75zm-10.02 2.06v12.96h-8.52v-11.21c2.84-.56 5.68-1.17 8.52-1.75zm-10.02 2.05v10.91h-8.52v-9.35c2.84-.52 5.68-1 8.52-1.56zm-10.01 1.83v9.08h-8.53v-7.57l8.53-1.5zm-10.02 1.78v7.3h-8.5v-5.8c2.83-.46 5.66-1.01 8.5-1.5zm-10 1.71v5.6h-8.52v-4.34c2.84-.43 5.68-.8 8.52-1.26zm-10.02 1.48v4.11h-31.97a808.8 808.8 0 0 0 31.97-4.11zm342.34 3.6a5.24 5.24 0 0 0-4.64 7.69 5.22 5.22 0 1 0 4.64-7.7zm204 2.06c1.5 1.67 3.04 3.31 4.66 4.88 1.59 1.64 3.27 3.21 4.95 4.76a130.39 130.39 0 0 0 21.9 16.54c7.9 4.65 16.42 8.24 25.2 10.72a121.64 121.64 0 0 0 26.92 4.18 127.05 127.05 0 0 1-26.5-5.54 106.46 106.46 0 0 1-24.33-11.47 127.86 127.86 0 0 1-21.02-16.73c-2.23-2.18-4.36-4.4-6.48-6.68 19.11 14.16 40.38 16.54 54.02 18.1l1.68.18c16.73 1.91 28.59 8.43 39.04 14.2 7.84 4.3 14.76 8.12 21.98 8.82-21.43 12.82-43.32 15.13-65 6.77-17.72-6.8-38.79-23.51-57.03-48.73zm-178.82 4.4a2.84 2.84 0 1 0 2.76 1.5 2.82 2.82 0 0 0-2.76-1.5z" fill="#252e30" paint-order="fill markers stroke"/>
  <path class="error" d="m640.2 268.8-1.1 4.9c5-3 10.5-4.9 15.8-6.4l.3-1.5c-3-8.8-6-17.7-9.1-26.5-2 9.4-4.1 19.6-5.9 29.5zm-36.9 30.7c4.6 10.2 2.3 28.6-1.3 36.3-.9 2-.9 3.3-.8 3.6l.1.1c.6.5 1.2 1 1.5 1.9.2-2.3 1.7-3.2 2.7-3.6 6-2.7 8.2-8.7 9.1-13.3l2.6-12.7c-1.1-3.5-2.8-6.4-5.4-8zm340.9-151.3c-.2.7-.4 1.2-.6 1.6l-.4.7c-1.2 1.5-.5 3.7.2 5.2 2.7 5.4 3.5 10.2 2.4 14.6-1.1 4.8-5.5 11-11.1 11.9l12.3 6.2c.7.5 1.6.8 2.6.8 5.2.6 9.9-5.6 11.1-10.4 1.1-4.4 0-8.8-2.2-13.3-1.1-2.2-1.8-5.1 0-7.4.4-.7.7-1.1.7-2.2zm-79.1 5.3c-.2 2.1-2.1 3-3 3.4l-.5.2c-4.9.9-5.4 7.3-5.4 10-.3 12.7-.4 25.6-.4 38.1 3.3-1.5 3.8-3.2 3.8-4.8 0-1.8.9-2.6 1.5-2.9 1-.6 2.4-.5 3.6.2l.4.2c1.8 1.6 2.7 4.1 2.6 7.3-.1 5.8-3.2 12.8-7.1 16.1-1.3 1.1-2.9 2.1-4.8 2.8 0 14 0 28.5.4 42.7 0 3.2.6 8.5 4.9 8.6 1-.1 2 .2 2.7.8.8.7 1.2 1.6 1.2 2.8v2.1l-1.8.2c-11.6 1.3-23.6 3-35.6 4.9l14.6 7.3c12.7-2.1 25.3-3.8 38-5.3v-.4c0-.6-.2-1.1-.7-1.4.2-1.5.2-1.5.1-1.5l-8.2-4.1c-.1-.3-.3-.6-.4-1-.3 0-.6.1-.9.1l-2.2.2v-2.9c0-1.8.8-2.9 2.3-3.3-.4-14.6-.4-29.2-.4-43.8 2.2-.7 4.1-1.6 5.5-2.9.5-.4.9-.9 1.4-1.4v-21l-4.2-4.1c0-8.8.1-17.5.3-26.3 0-2.4.4-5.1 1.4-7.3 1-1.9 2.5-3.5 4.6-4.4.2-.1.3-.1.5-.1-.1-1.7-.4-3.5-1.1-4.9l-5.5-2.8c-.6 0-1.5-.1-2.2-.7-.3-.3-.5-.7-.7-1l-2.4-1.2zm49.2 6.9c-.8 0-1.6 0-2.4.1-3.8.2-7.6.4-11.4.7 0 7.3-.1 14.7-.2 21.8-.1 7-.2 14.2-.2 21.4 2.2-.2 4.5-.3 6.8-.4 2.2-.1 4.2-.7 6-1.7.1-11.3.3-22.6.3-34 4.4-.3 8.9-.6 13.3-.8 1.7-.1 3.3-.1 4.8 0-.2-.7-.4-1.4-.8-1.8-.9-1.3-4.7-5.2-16.2-5.1zm-105.5 4.2-.4.2c-4.3 1.1-5.9 6.3-5.9 10.5v40.1l.6-.4c3.7-2.1 7.8-3.5 12.1-4.4v-26.3c0-2.4.5-5.2 1.7-7.6 1-1.9 2.5-3.5 4.6-4.5.4-.2.7-.3 1.1-.4 1.1-.6 1.8-1.1 1.8-2.2v-.7l-12.67-6.32zm-39.6 5.6c-.1 1.1-.7 1.8-1.3 2.5-.9 1.3-.8 2.8.5 5.1 2.4 3.8 3.3 8.6 2.4 13.3-1.3 5.3-6.2 12.8-12.3 14l13 6.5c.7.5 1.7.8 2.9.5 2.3-.2 4.4-1.6 6.2-3.4l-.1-29.1c-.1-1.8-.4-3.1-.8-4.1l-7.1-3.5c-.9-.2-1.5-.6-2-1.2zm-22 15.5c-1.1 0-2.3.1-3.5.4-7.9 1.6-15 8.1-18.1 16.5-3.6 9.2-5.4 22.5-5.4 39.5 0 23.8 3.7 38.8 11 44.4 2.2 1.7 4.7 2.5 7.5 2.5-5.3-11.1-5.8-28.1-5.8-38.1 0-17.3 1.9-30.7 5.5-40.1 3.3-9.2 10.7-15.3 18-17.4.2-2-.2-3.6-.8-4.1a11.8 11.8 0 0 0-8.4-3.6zm178.7 7.5v32.6h-.7l4.4 2.3c.9-.7 2.1-1.1 3.3-1.2 2.7.9 4.8 1.6 6.6 3V202l-15.4-7.6zm-246 10.6c-.3 1.23-1.4 2.8-3 3-1 .1-1.9-.3-2.6-1.2-.3-.2-1.5-.1-2.8.5-7.3 3.4-5.7 13-4.2 18.4 4.1 12.1 8.2 24.3 12.3 36.5 3.1-1.2 6.5-3.1 7.7-5.7-2.4-7.1-4.8-14.3-7.2-21.4-1.5-5.1-3.7-16.6 5.2-20.7 1.3-.6 2.7-1 3.9-.7 0 0 .1 0 .1.1.1 0 .1.1.2.1s.1.1.2.1.1.1.2.1.1.1.2.1.1.1.2.1.1.1.2.1.1.1.2.1.1.1.2.1c0 0 .1 0 .1.1.7.8 1.7-.2 2-1.3a7.4 7.4 0 0 0-3.8-7.5l-9.42-4.6c.46 1.47.42 2.46.12 3.7zm228.2 11.7h-1c-2.3.1-4.7.3-7 .4 0 8.3.1 16.5.2 24.5.1 7.8.2 15.8.2 23.8 3.7-.2 7.5-.5 11.2-.7.5 0 1-.1 1.5-.1-.1-13.4-.3-26.8-.3-40.5 2-.2 4.1-.3 6.1-.4-1.8-4.3-5.9-7-10.8-7.1zm-84.6 9.9c-4.9 0-9.8.3-14.5 1.8-5.5 1.6-7.1 4.8-6.9 6.6.1 1.1.9 1.2 1.2 1.2h.3c.9.2 2-.4 2.7-1.1.6-1.4 1.7-1.6 2.1-1.7.9-.1 2.1.2 3.2 2.2 1.1 1.8 1.5 4 1 6-.4 1.5-1.5 3.8-4.6 5.5-1.3 1-3.2 1.5-6.2 1.8v27.7c0 3.1.8 5.7 2.2 7 .8.7 1.8 1.1 3 1.1 1.1-.2 2.1.1 2.8.7.8.6 1.2 1.6 1.2 2.8v2l-1.6.3c-12.4 2.2-25.3 4.8-38.3 7.7l-2.4.5v-2.8c0-2 1.3-3.7 3.3-4.1 3.5-1.3 5.5-5.1 6-11.3v-19.6l-6.6-3.3c4.2 8.9 1.3 25.1-10 35.6-6.8 6.5-15.6 11.6-23 13.5-3.7.9-7.2 1.4-10.5 1.4-2.1 0-4.1-.2-6-.5 4.26 1.69 8.08 4.57 12.1 5.8 5.8 2 12.5 2.1 19.8.3 7-1.8 15.5-6.7 22.1-13 .3-.3.6-.5.8-.8l10.6 5.3c12.8-2.8 25.6-5.4 38.3-7.7v-.4c0-.6-.2-1.1-.6-1.3l-9-4.8c-.7-1.7-1-3.8-1-5.7v-29.4c.4-.1.7-.1 1.1-.2 2.6-.1 4.8-.5 5.9-1.5 4.8-2.7 4.4-6.7 2.9-9-.3-.6-.6-.9-.9-1.1l-9.1-4.5c1.3-1.8 3.5-3.4 6.9-4.4 3-.9 6.1-1.4 9.2-1.7v-6.7c-2.9-.2-5.8-.4-8.8-.4zm-255.6 4.2c-.2 1.6-1 2.7-2.6 3.3-5.4 2.6-6.2 8.7-6.2 12.1v100.7l10.6-3.7c.7-.2 1.4-.6 2.1-.9v-87.3c0-4.8 1.5-11.2 7.4-14 1.1-.4 1.5-.9 1.5-2v-.7c-.1 0-.1 0-.2.1v-.2c-.1 0-.1 0-.2.1v-.2l.3-.4-12.7-7.1zm375.1 5.3c2 3.3 3.3 7.2 3.6 10 1.1 8.2-1 17-3.5 22.1-.9 1.6-1.2 3.1-.7 3.6l.2.2c1.2 1.6 1.2 2.6 1.2 3.7v2.5h-2c-22.4.1-45.9 1.5-69.7 3.9l14.2 7.2c24.2-2.6 48.4-4.1 72.6-4.2 0-1.1.4-1.5-.7-2.9-1.6-1.4-.9-3.9.2-5.8 2.2-4.4 4.4-12.9 3.3-21-.6-4.2-3.2-11.1-7.5-13.9l-10.7-5.4zm-730.53 20.01c-12.02 11.81-16.4 28.74-18.57 42.59-2.5 15.9-4.8 31-20.9 38.7-2.4 1.2-4.8 1.8-7.2 1.8l9.9 5c3.2 2.2 7.7 2.9 12.8.4 29.4-14.2 10-55.1 38.4-80.4l-.5-.5c-3.87-4.07-9.96-4.91-13.93-7.58zm288.73 3.89c.77.97 1 2.6.7 4.1l-.1.3c-.4 1.3-1.4 2.9-3 3.1-1 .1-1.9-.3-2.5-1.1-.3-.1-1.4-.1-2.8.7-7.3 3.8-5.8 13.3-4.2 18.7l12.2 35.7c3-1.4 6.2-3.3 7.6-5.9-2.3-6.8-4.6-13.6-7-20.4-1.5-5-3.7-16.4 5.2-21 1.4-.8 2.9-1.2 4.1-.9.6.19 1.15.52 1.6.8.7.8 1.7-.2 2-1.4.5-3-1-5.6-3.2-7zm193.1 5.9c-1.2 3.8-3.2 7.4-5.5 9.7a12.8 12.8 0 0 1-3.9 3.2c2.4 8.1 5.2 16 7.9 23.6l.1.3c1.5 5.3 4.2 7.5 8.5 7.1 1.2-.3 2.1.1 2.6.5.8.6 1.2 1.6 1.2 2.9v1.9l-1.5.4c-11.6 3.2-23.8 6.7-36.2 10.5l15 7.5c12.7-3.8 25.3-7.5 38-11v-.4c0-.6-.1-1.1-.5-1.3l-13.4-6.6-.6-1.8c-2.9-8.4-5.9-16.7-8.5-25.5.5-.3 1.1-.6 1.6-.9-2.3-5.7-3.8-12.2-4.5-19.9zm-534.6 8.5c-17.3.1-41.2 16.3-53.6 44.1-12.2 27.7-18.7 66.1-17.3 102.5 1.6 40.2 12.2 72.1 30 90 4 4 8.2 7.2 12.8 9.7-38.9-39.9-37.1-138.6-12.7-194.1 12.9-29 38.1-45.8 56.4-45.3-2.6-3.3-6.2-5.5-10.6-6.4-1.6-.3-3.3-.5-5.1-.5zm500.9 10c-5.9.5-11.9 1.2-18.9 4-5.5 2.4-7.5 6.1-7 8 .1.4.3.6.9.6h.4c1.1.1 2.1-.5 2.8-1.5.6-1.6 1.8-1.9 2.3-1.9 1.2-.1 2.2.7 3 2.3 1 1.3 1.4 3 1.2 4.7-.2 1.8-1.2 4.6-4.6 7.3-1.5 1-4 2.1-6.8 2.6h-.8c-.5 0-1.1 0-1.8-.1l-2.5 12.8c-1.2 7.1.4 7.4 1 7.5.5.1 1 .2 1.3.1 1.4-.4 2.3-.1 2.8.3.8.6 1.2 1.6 1.2 2.9v1.8l-1.4.4c-9.2 2.9-18.9 6.1-28.7 9.4l-3.7 1.2c-20.6 6.9-42.7 14.5-71.3 24.5l15 7.6c24.3-8.6 48.7-17 73-25.1v-.7c-.42-1.9-1.53-2.06-1.8-3.8l6.6 3.3c9.6-3.2 19.2-6.3 28.7-9.4v-.4c0-.6-.2-1.1-.5-1.3l-7.5-3.8c-.2-1.8 0-4.1.4-6.2 1-5 2-10 2.9-14.9 1.1.8 2.6.6 3.7.7 2.6-.5 4.8-1.5 5.9-2.2 4.8-3.7 4.4-7.7 2.9-9.4-.4-.5-.8-.9-1.1-1.1l-8.5-4.3c1.3-1.7 3.4-3.4 6.5-4.7 2.7-1.1 5.3-1.9 7.8-2.5l-2.9-8.6zm-235.9 11c7.31 9.7-5.93 33.46-11 39.2-1.7 1.7-3.6 3.4-5.8 5.2 7.2-.8 11.9.2 15.9 3.4.4.3.7.6 1 .9.7-.7 1.5-1.3 2.1-2 12.1-13.2 18.6-34.3 6.4-41.9-3.45-2.18-6.04-3.83-8.6-4.8zm43.3 6c-2 9.8-4.1 19.8-5.9 29.8l-1.1 4.8c5.2-3.3 10.7-5.4 15.9-7l.3-1.3-9.1-26.3zm-75.9 1.7c-3 .1-6.6 1-9.6 2.3v39.1c5-1.9 9.2-4.1 12.7-7.8v-23.6c2-1 4.2-1.8 6.6-2.4-.8-2.5-2.1-4.6-4-5.9l-.2-.2c-1.1-1.1-3.2-1.5-5.5-1.5zm-41.6 4.6c-.4.7-1.2 1.5-2.6 1.9-5.2 2.4-5.8 9-5.8 11.8-.4 33.2-.4 66.8 0 99.8.1 3.1.9 5.6 2.1 6.7.6.5 1.5.7 2.6.5.6-.2 1.8-.5 3 .2.4-.9 1.2-1.5 2.3-1.9a6.7 6.7 0 0 0 2.8-2.1c-.3-31.3-.3-63 0-94.4 0-3.4.8-7.6 3.2-10.7v-4.6c0-2-.3-3.7-.8-4.9v-.1c-1.83-.65-2.76-2.03-4.9-2.1-.5.2-.9.5-1.9-.1zm167.2 7c.8 5.7-2.4 14.9-6.6 19.2a14.4 14.4 0 0 1-4 3.5c2.4 7.9 5.2 15.6 7.9 23l.2.4c1.5 5.2 4 7.1 8.4 6.4 1.3-.4 2.2-.1 2.7.3l.2.2c.1-.3.2-.5.4-.8-2.5-7-5-14.1-7.2-21.6 1.8-1 3.7-2.4 4.8-3.9 5.2-5.1 8.9-18.6 4.1-21.3zm-232.9 10.2v.2-.1zm0 .1c.2.7.3.9.3.9-.2 2-1.4 2.8-2.3 3.1-1.3.7-2.2 1.7-2.5 2.1-1.9 2.5-1.5 4.8-.8 8l.1.2c4.9 18 9.9 36 14.8 54 1.5-6.9 3-13.8 4.5-20.8l-6.6-24c-.7-3.5-1.5-6.6 1.1-9.9.7-.9 1.9-2 3.3-2.8.7-.2 1.1-.7 1.1-1.8v-.7l-15.2-15.2h-.1zm197.7 19.7c-6.1.8-12 1.8-18.9 4.8-5.9 2.7-7.5 6.7-7 8.3.1.3.2.5.8.5h.4c1.2 0 2.2-.6 2.9-1.7.6-1.7 1.8-1.9 2.3-2 1.2-.1 2.2.6 3 2.2.9 1.2 1.4 2.8 1.3 4.5-.2 1.9-1.1 4.7-4.6 7.6-1.5 1.1-4 2.3-6.7 2.8l-.7.1h-1.8l-2.5 12.9c-.6 3.7-.6 6 .1 7 .1.2.3.4.8.5s1 .1 1.3.1c1.4-.5 2.3-.1 2.8.3.8.6 1.3 1.6 1.3 2.9v1.8l-1.3.5c-9.6 3.4-19.2 6.7-28.8 10l-2.6.9v-3.2c0-2.8 1.8-3.8 2.8-4.2 5.9-2.7 8.2-8.9 9-13.5l5.8-28.1c-1.4-2.4-3.2-4.2-5-5.7-3.18-2.3-7.15-4.01-10.4-5.6 3 4.2 4.6 9.4 5.1 16.3.4 16-3.1 28.2-10.8 37.4-9.7 11.2-29.9 20.6-41.1 17.2-1.2 2.8-3.8 5.1-7.9 7l-60 19 15 7.5c12.7-3.8 25.3-7.7 38-11.7v-.7c0-.6-.2-.9-.6-1l-9.4-4.7c-.1-.3-.1-.6-.2-.9l13 6.7c7.1-2.3 14.3-4.6 21.4-7 2.6-1.2 7-3.8 7.4-8 9.3 5.1 29.9-4.1 39.9-14.7l7.9 4.1c9.6-3.3 19.2-6.7 28.7-10v-.4c0-.6-.1-1.1-.5-1.3l-7.5-3.8c-.2-1.8 0-4 .4-6 1-5 2-10 2.9-15 1.1.7 2.6.6 3.7.5 2.6-.5 4.8-1.7 5.9-2.4 4.8-3.9 4.4-7.8 2.9-9.5-2.57-2.58-6.13-3.85-9.2-5.3 1.3-1.7 3.4-3.4 6.3-4.8 2.8-1.3 5.5-2.1 8-2.8l-3.1-9.1zm-270.4 9.2-.1.3c-.5 1.6-1.7 2.7-3 2.8-1 .1-2-.4-2.7-1.3-.4-.3-1.5-.4-2.9.2-7.1 2.7-5.6 12.3-4 17.9l12.3 37.8c3.3-1.1 6.9-2.8 7.9-5.6-2.5-7.6-4.9-15.1-7.4-22.7-1.5-5.2-3.7-16.9 5.2-20.2 1.1-.5 2.34-.68 3.5-.5.84.13 1.58.85 2.3 1.1.72.25 1.7-.1 2-1.1.5-3.4-1.6-6.7-4.5-8.2l-8.49-4.3c.22 1.5.27 2.5-.11 3.8zm105.9-3.8c-7.3 33.1-14.6 66.2-21.9 99.2l-.2 1.2-1.1.3c-2 .6-3.9 1.1-5.9 1.7l7.4 7.5c2.6-.7 5.2-1.5 7.7-2.2l2.7-12.3-2.8 1.2v-3.4c0-1.9.9-3.2 2.8-3.8.5-.2.8-.5 1.2-.7 1.6-7.3 3.2-14.7 4.9-22v-66.2zm76.2 4.8c-3.8-.1-8 .9-12 3.1 0 4.6-.1 10.3-.2 16.3-.1 5-.1 10.1-.2 14.9 1.6-1.5 3.5-2.6 5.5-3.3l.4-.1c2-.3 3.8.1 4.9 1 .5.4.8.9.9 1.4.2.4.3.8.3 1.3.1.8-.8 1.3-1.3 1.5-3.1 2.2-4.1 7-2.9 9.8.9 2 2.8 2.8 5.6 2.1 3.7-.9 6.6-3.8 8.7-7.5l-10.8-5.4c.1-8.9.3-18.1.3-24.6 3.6-2.1 7.5-3.4 11.2-3.8-.2-.5-.5-1-.7-1.4-2.2-3.6-6.4-5.5-11.3-5.6zm-134.3 6.6v83.6c0 3.2.7 5.7 2 6.8.7.6 1.7.9 3 .7.5-.1 1.7-.4 2.8.4s1.1 2.2 1.1 2.6v2.2l-1.5.4c-8.9 2.4-17.8 4.7-26.4 6.8l14.8 7.5c9.5-2.3 18.9-4.7 28.4-7.3v-.7c0-.6-.1-1-.5-1.1-.2.1-.3.1-.3.1l-9.3-4.7c-.4-1.5-.6-3.1-.6-4.7v-48.7c-3-10.8-6.2-21.6-9.3-32.2-1.1-3.9-2.3-7.7-3.4-11.6zm268.72 10.33L494.5 382.8l-5.2 1.8 15 7.6c12.7-4.5 25.3-9 38-13.4v-.4c0-.6-.1-1.1-.5-1.3zM178.1 385.2c-2 9.4-4.1 19-5.8 28.4l-1.2 5.2c5-2.3 10.3-3.5 15.5-4.4.2-.7.3-1.5.4-2.2-3-9-5.9-18-8.9-27zm49.8 21.2c.45 5.79-2.8 13.7-6.8 17.3a13.6 13.6 0 0 1-3.9 3c2.5 8.4 5.3 16.5 8 24.4 1.6 5.5 4.2 7.8 8.6 7.6 1.2-.2 2 .2 2.5.5.2.2.4.3.5.5l.6-.9c-2.7-7.9-5.5-15.9-7.9-24.3 1.8-.8 3.7-1.9 4.8-3.3 5.2-4.5 8.9-17.5 4.1-20.8l-10.6-5.3zM188 430.7c-4.6 0-9.2.4-14.4 1.8-5.3 1.5-7 4.7-6.8 6.4.65 1.82 2.97 1.65 4.1.4.6-1.5 1.8-1.8 2.3-1.8 1.3-.1 2.3.8 3.1 2.5a6.6 6.6 0 0 1 1.1 5.3c-.3 1.7-1.4 4.2-4.7 6.4-3.46 1.55-5.89 1.9-9.2 1.3l-2.5 12c-.9 4.9-.5 7.4 1.3 8 .5.2 1 .3 1.2.3 1.3-.2 2.2.2 2.6.6.8.6 1.1 1.6 1.1 2.9v2l-1.6.3c-8.8 1.5-17.6 2.9-26.3 4.1l14.4 7.3c9.6-1.3 19.2-2.8 28.8-4.4v-.4c0-.8-.2-1.4-.8-1.6l-6.8-3.4c-.6-2.1-.3-4.8.1-7.2 1-4.8 2-9.6 2.9-14.5.26.19.6.37.9.5 1 .5 2 .6 2.9.7 2.6-.1 4.8-.8 5.9-1.4 4.8-3.1 4.4-7.1 2.9-9-.3-2.3-.7-2.7-1-2.8l-8.9-4.5c1.3-1.8 3.5-3.5 7-4.5 2.5-.7 4.9-1.1 7.2-1.4-.8-2.5-1.6-4.9-2.3-7.3-1.5 0-3.1-.1-4.6 0zm11.9 42.1 14.6 7.3c12.7-2.6 25.3-5.4 38-8.5v-.4c0-.6-.2-1.1-.5-1.4l-11.7-5.8zm24.5 21.3c1.4 2.6 2 5.6 1.5 8.8-3 15.7-16.5 21.9-30.8 28.5-14.2 6.6-30.3 14-39.1 32l-.4.8 14.8 7.4c.3-.1.6-.1.9-.2 18-36.8 64.1-30.3 69.8-59.9.7-5.8-2.4-10.1-6.4-12.4a116.7 116.7 0 0 0-9.6-4.9zm-18.5 7.6c-.6 0-1.3.3-1.7.7-.3.3-.6.6-.9.8l5.9 2.9c.6-1.7.4-3.1-.6-3.8-.5-.4-1.2-.5-1.8-.5zm-81.1 43.9c4.9 3.1 10.2 5.6 15.9 7.2 3.7 1 7.4 1.5 10.8 1.9 0-.8-.2-1.6-.5-2.3-.9-1.7-3-3-6.2-3.9l-2.1-.2c-4.6-.4-10.8-1-17-2.6-.2-.1-.5-.2-.7-.2z" fill="#b3b3b3"/>
  <path class="fg" d="M940.7 261.4c2.2-4.4 4.4-12.9 3.3-21-.7-5.5-5.2-15.9-12.2-15-1.8 0-3.3 1.5-3.7 2.3 0 .4 0 .7.4.7 8.1 1 6.6 31.6-17.7 32.7-4.4.2-8.9.5-13.3.8 0-17.3-.4-34.6-.4-52.3l8.9-.6c6.6-.4 12.5 3.4 14.4 10 .4 1.5 1.1 1.4 2.6 1.4h.4v-32h-.4c-1.5.1-2.2.5-2.6 1.6-1.8 6.3-7.4 11-14.4 11.3l-8.9.6c0-15.8.4-31.3.4-47.1 4.4-.3 8.9-.6 13.3-.8 11.1-.5 17.7 2.3 20.3 5.9s1.5 12.1-2.9 13c0 0-.4.4 0 .7 0 .7 1.8 2.2 3.7 2.1 5.2.6 9.9-5.6 11.1-10.4 1.1-4.4 0-8.8-2.2-13.3-1.1-2.2-1.8-5.1 0-7.4.4-.7.7-1.1.7-2.2-.4 0-.4-.4-.7 0-1.5.7-5.5.8-8.5.8-21.3.4-42.5 1.8-63.8 4.1v.7c0 1.1.4 1.4 1.5 1.3 5.9.1 7.4 5.9 7.4 10.7v99.8c0 4.8-1.5 10.8-7.4 12.2-1.1.1-1.5.5-1.5 1.6v.7c24.2-2.6 48.4-4.1 72.6-4.2 0-1.1.4-1.5-.7-2.9-1.5-1.5-.8-4.1.4-5.9zm-53.2-64.7v22.5c0 4.2.1 9 .2 14.4s.2 12.2.2 20.2l-1.5 6.3c-.4-2.1-.7-4.2-1.1-6.3v-91.7l1.5-6.3c.4 2.1.7 4.2 1.1 6.3-.2 8.1-.4 14.9-.4 20.2zm-26.4 75.7c-5.5-.1-7-5.8-7-10.6-.4-14.7-.4-29.4-.4-44.1 2.2-.7 4.1-1.6 5.5-2.9 5.2-4.3 8.9-16.5 4.4-20.4-1.1-.6-2.2-.5-2.2 1 0 4.1-2.9 6.2-7.7 7.6 0-13.6 0-27.2.4-40.9 0-4.8 1.5-10.9 7-11.9 1.1-.5 1.8-.9 1.8-2.1v-.7c-12.7 1.5-25.3 3.2-38 5.3v.7c0 1.1.4 1.4 1.5 1.6 5.9-.6 7.4 5.1 7.4 9.9v40.9c-10.7.5-22.1 1.4-30.6 6.3l-3.7 2.5v-43.8c0-4.8 1.8-11 7.4-12.4 1.1-.6 1.8-1.1 1.8-2.2v-.7a997.6 997.6 0 0 0-38.3 7.7v.7c0 1.1.7 1.3 1.8 1.4 5.5-.8 7 4.8 7.4 9.5v99.8c-.4 4.9-1.8 11.1-7.4 13-1.1.2-1.8 1.1-1.8 2.2v.4c12.8-2.8 25.6-5.4 38.3-7.7v-.4c0-1.1-.7-1.7-1.8-1.5-5.5.3-7.4-5.2-7.4-10v-29.4c.4-.1.7-.1 1.1-.2 2.6-.1 4.8-.5 5.9-1.5 4.8-2.7 4.4-6.7 2.9-9-.7-1.3-1.5-1.6-1.8-.4-1.1 1.3-2.9 2.4-4.8 2-4.8-.2-4.8-8.7 5.2-11.6 8.5-2.6 17.3-1.9 25.8-1.4v45.7c0 4.8-1.5 10.9-7.4 12.6-1.1.2-1.5 1-1.5 2.1v.4c12.7-2.1 25.3-3.8 38-5.3v-.4c0-1.1-.8-1.8-1.8-1.6zm-71.7-61v56.9c-.4 2.1-.7 4.3-1.1 6.4-.4-2.1-.7-4.1-1.1-6.1v-91.7l1.5-6.4c.4 2.1.7 4.1 1.1 6.1-.2 8.1-.4 14.9-.4 20.5v14.4zm55.5.9v11.2c0 4.1.1 8.8.2 14.2s.2 12.1.2 20.2l-1.5 6.3c-.4-2.1-.7-4.1-1.1-6.2v-91.7l1.5-6.3c.4 2.1.7 4.1 1.1 6.2 0 8.1-.1 14.9-.2 20.4s-.2 10.3-.2 14.4zm-83.4 35.6c-1.8.8-3.3 2.2-3.7 3.4 0 .4 0 .7.4.7 6.6-.7 7.7 28.3-15.5 33.9-24 6-25.4-31.4-25.4-48.3 0-17.3 1.8-30.7 5.5-40.1 5.9-16.3 24.7-23.2 33.2-14.1 2.9 2.6 1.5 11.8-2.6 13.1-.4.1-.4.5-.4.8.4.6 1.8 1.8 3.7 1.3 5.5-.5 10.3-7.9 11.4-12.5.7-4.2 0-8.5-2.2-12-1.1-2-2.2-4.7-.4-7.3.7-.9 1.1-1.4.7-2.4 0-.4-.4-.3-.4-.3-1.5 1.4-5.5 2.4-8.9 3.1-5.2 1.2-10.7 2.5-16.2 3.9-14.7 3.3-25.4 12.8-33.2 26.3-4.4 7.5-7.7 15.8-9.6 24s-2.9 17.4-2.9 27.3c0 15.5 2.6 31.3 11.8 41.6 8.1 8.8 18.8 11.5 31.7 8.3 7-1.8 15.5-6.7 22.1-13 16.2-15.1 13.3-41.7.7-37.8zm-52.8 21.7c-2.3-6.6-3.7-13.7-4.1-21.4s.1-15.3 1.5-22.9a74.4 74.4 0 0 1 6.1-19.8c-1.5 5.4-2.6 11.8-3.5 19.2s-1.1 14.9-.7 22.4 1.4 14.7 3.1 21.5 4.3 12.3 7.7 16.3c-4.4-3.7-7.8-8.8-10.1-15.4zm-7.6 36c-6.3.6-9.2-3.3-10.7-8.4-2.9-8.4-5.9-16.7-8.5-25.5 1.8-.9 3.7-2.2 4.8-3.6 5.2-4.8 8.9-18 4.1-21-.7-.5-1.8-.2-1.8 1.6 0 4.8-4.8 8-10.7 10.1-.2.1-.5.2-.7.2-4.3-12.9-8.6-25.7-12.9-38.5-1.5-5.1-3.7-16.6 5.2-20.7 1.8-.9 4.1-1.2 5.2-.1.7 1.3 1.8.2 2.2-1 .7-4.6-3.3-8.6-7.4-8.5-1.7.5-3.4 1-5.2 1.5-13.3 4-22.9 6.7-35.4 10.7v.7c0 1.1.4 1.4 1.5 1.4 5.5-1.4 7.7 4.2 7 8.8l-11.1 53.2-11.1 53.7c-1.1 5.9-4.1 12-10.3 14.8-1.1.4-1.5 1.2-1.5 2.3v.4c9.6-3.2 19.2-6.3 28.7-9.4v-.4c0-1.1-.4-1.7-1.5-1.4-.7.2-1.5.1-2.2 0-3.7-.7-3.3-5.6-2.6-9.8 1-5 2-10 2.9-14.9 1.1.8 2.6.6 3.7.7 2.6-.5 4.8-1.5 5.9-2.2 4.8-3.7 4.4-7.7 2.9-9.4-.7-1.6-1.5-1.7-1.8-.5-1.1 1.8-2.9 2.8-4.8 2.6-4.8.4-4.8-8 5.2-12.3 7.7-3.2 14.4-3.8 21-4.3 2.9 8.9 5.9 17.9 8.9 26.8.4 1.4.7 2.7 1.1 4.1.4 4.7-1.8 6.4-5.5 8.7-.7.6-1.1 1.1-1.1 2.2v.4c12.7-3.8 25.3-7.5 38-11v-.4c.1-1.1-.3-1.7-1.4-1.4zm-65.6-32.3c-.1 0-.2.1-.4.1.7-3.2 1.5-6.4 2.2-9.5 2.2-12.1 4.8-24.4 7.4-36.6 4.2 12.2 8.4 24.4 12.5 36.6-7.4 1.9-15.1 4.3-21.7 9.4zm41.7 23.3c-2.5-7.6-4.5-13.9-6.1-18.9s-2.9-9.2-4.1-12.8c-1.1-3.6-2.1-6.7-2.9-9.5-.9-2.8-1.9-5.9-3.1-9.5-3.55-10.5-6.99-21.03-10.3-31.6-.2-2.1-.5-4.3-.7-6.5 1 1.6 2 3.3 2.9 4.9 2.2 7.4 4.1 13.5 5.7 18.3s2.9 9.1 4.1 12.8c1.1 3.7 2.2 7.1 3.1 10.2s2.2 6.5 3.5 10.2 2.8 7.9 4.4 12.7 3.6 11 6.1 18.3c.1 2.1.2 4.1.4 6.2-1-1.7-2-3.3-2.9-5zm-78.6 39.2c-.7-1.2 0-3.7.7-5.4 4.4-9.6 7-37.3-5.2-41-2.9-.8-7 2.7-7.4 4.3 0 .4 0 .4.4.2 8.1-1.2 7 37-17.7 45.4-4.4 1.5-8.9 3.1-13.3 4.6V240.5c0-4.8 1.5-11.2 7.4-14 1.1-.4 1.5-.9 1.5-2v-.7c-12.7 4.4-25.3 8.8-38 13.3v.7c0 1.1.7 1.2 1.5 1 5.9-1.3 7.4 4 7.4 8.8.4 33 .4 66.5 0 99.8 0 4.8-1.5 11.2-7.4 14-.7.3-1.5.9-1.5 2v.7c24.3-8.6 48.7-17 73-25.1v-.7c0-1.9-1.1-1.5-1.5-2.5zm-52.1-53.3v57.1c-.4 2.2-.7 4.4-1.1 6.5-.4-2-.7-4-1.1-6v-91.7l1.5-6.6c.4 2 .7 4 1.1 6-.2 8.2-.4 14.9-.4 20.3v14.3zm-23.4 80.8c-6.3 1.1-9.2-2.6-10.7-7.6-2.9-8.2-5.9-16.3-8.5-25 1.8-1 3.7-2.4 4.8-3.9 5.2-5.1 8.9-18.6 4.1-21.3-.7-.5-1.8-.1-1.8 1.8 0 4.8-4.8 8.3-10.7 10.8-.2.1-.5.2-.7.3l-12.9-37.8c-1.5-5-3.7-16.4 5.2-21 1.8-1 4.1-1.4 5.2-.4.7 1.2 1.8.1 2.2-1.1a7.1 7.1 0 0 0-7.4-8.1c-1.7.6-3.4 1.2-5.2 1.8-13.3 4.7-22.9 7.7-35.4 12.1v.7c0 1.1.4 1.3 1.5 1.3 5.5-1.6 7.7 3.9 7 8.6l-11.1 53.6c-3.7 18-7.4 36-11.1 53.9-1.1 5.9-4.1 12.1-10.3 15-1.1.4-1.5 1.2-1.5 2.4v.4c9.6-3.3 19.2-6.7 28.7-10v-.4c0-1.1-.4-1.7-1.5-1.3-.7.3-1.5.2-2.2 0-3.7-.5-3.3-5.5-2.6-9.8 1-5 2-10 2.9-15 1.1.7 2.6.6 3.7.5 2.6-.5 4.8-1.7 5.9-2.5 4.8-3.9 4.4-7.8 2.9-9.5-.7-1.6-1.5-1.7-1.8-.5a5.22 5.22 0 0 1-4.8 2.8c-4.8.6-4.8-7.9 5.2-12.5 7.7-3.5 14.4-4.3 21-5.2 2.9 8.8 5.9 17.5 8.9 26.3.4 1.3.7 2.7 1.1 4 .4 4.7-1.8 6.5-5.5 9-.7.6-1.1 1.1-1.1 2.2v.4c12.7-4.5 25.3-9 38-13.4v-.4c.1-1.1-.3-1.7-1.4-1.3zm-65.6-28.7c-.1 0-.2.1-.4.1l2.2-9.6c2.2-12.2 4.8-24.5 7.4-36.8 4.2 12 8.4 24.1 12.5 36.1-7.4 2.2-15.1 5-21.7 10.3zm42.6 24.2c-2.5-7.5-4.5-13.6-6.1-18.5s-2.9-9-4.1-12.6-2.1-6.6-2.9-9.4c-.9-2.7-1.9-5.8-3.1-9.3l-4.2-12.3c-1.6-4.8-3.6-11-6.1-18.7-.2-2.1-.5-4.3-.7-6.4 1 1.6 2 3.2 2.9 4.8 2.2 7.3 4.1 13.3 5.7 18 1.6 4.8 2.9 8.9 4.1 12.6 1.1 3.6 2.2 7 3.1 10s2.2 6.4 3.5 10 2.8 7.7 4.4 12.5c1.6 4.7 3.6 10.7 6.1 17.9.1 2.1.2 4.1.4 6.2-1-1.6-2-3.1-3-4.8zm-69.5 0c-.7-10.8-4.4-16.1-8.9-19.8-4.8-3.9-11.1-4.3-22.5-1.5 4.8-3.5 8.9-6.7 12.2-10 13.3-14.5 19.9-38.5 2.2-43.8-4.1-1.2-8.9-1.4-14.7-.5-5.5 1.1-11.8 3.4-48.3 15.2v.7c0 1.1.4 1.4 1.5 1 5.9-1.1 7.4 4.2 7.4 9v99.8c0 4.8-1.5 11.2-7.4 13.8-1.1.4-1.5.8-1.5 1.9v.7c7.1-2.3 14.3-4.6 21.4-7 2.6-1.2 7-3.8 7.4-8 9.6 5.3 31.3-4.7 40.9-15.7 7.7-9.3 10.7-21.4 10.3-36zM415 300.5c.6 4.3-.5 8.7-3.5 13.4-.1 0-.2.1-.4.1 2.7-9 1.6-16.5-3.3-22.4 4.2 1.7 6.6 4.6 7.2 8.9zm-44.6 30.7c-.1 5.4-.2 10.3-.4 14.4-.1 4.2-.2 8-.2 11.3v11.2c0 4.2.1 9 .2 14.3.1 5.4.2 12.1.2 20.2-.4 2.2-.7 4.4-1.1 6.5l-1.5-5.9c0-8.6.1-15.7.2-21.2.1-5.6.2-10.3.2-14.2v-56.3c.4-2.2.7-4.4 1.1-6.5l1.5 5.9c0 8.1-.1 14.9-.2 20.3zm9.3-32.7c5.9-3.1 14.7-4.6 18.4-1 5.9 4.3 6.6 12.8 4.4 21.7-.7 3.6-1.8 6.5-3.3 8.9-5.2 8-12.5 11.2-19.5 13.6v-43.1zm30.6 72.1c-.4 8.6-4.4 25.8-15.5 28.5-10.3 2.4-10.7-11.1-4.1-15.6.4-.1.7-.2.4-.5 0-1.1-1.8-1.6-3.7-1.3-3.3 1.1-5.9 3.4-8.1 7.1 0-11.8.4-28.1.4-38 9.9-5.9 22.1-5.2 26.9 2.7 2.5 4.7 4 10.8 3.7 17.2zm8.9 8.6c-1.2 4.1-3.1 7.5-5.5 10.1l-1.5 1.5c4.2-7.4 6.3-15.3 6.5-23.5.1-8.3-1.5-15.2-5-21 .2.2.5.4.7.5 2.2 1.9 3.9 4.7 5 8.3s1.7 7.6 1.7 11.7c0 4.2-.6 8.3-1.8 12.4zM346.5 302c1.1-.4 1.8-1 1.8-2.1v-.7c-15 4.8-30 9.4-45 13.8v.7c0 1.1.7 1.3 1.8 1.3 1.1-.3 2.2.1 2.9.6 2.6 1.8 2.2 5.2 1.1 9.2-5.2 23.8-10.3 47.5-15.5 71.2-5.6-20.6-11.3-41.2-16.9-61.9-.7-3.5-1.5-6.6 1.1-9.9.7-.9 1.8-2 3.3-2.8.7-.2 1.1-.7 1.1-1.8v-.7c-14.9 4.1-29.7 8.1-44.6 11.7v.7c0 1.1.4 1.4 1.5 1.1 5.9-.7 7.4 4.8 7.4 9.6v99.8c0 4.8-1.5 11.1-7.4 13.3-1.1.3-1.5.7-1.5 1.8v.7c9.5-2.3 18.9-4.7 28.4-7.3v-.7c0-1.1-.4-1.4-1.5-1.1-5.9.8-7.4-4.7-7.4-9.5v-97.6c9.6 33.6 21 69.5 28.4 103.9 2.6-.7 5.2-1.5 7.7-2.2 8.6-38.9 17.2-77.9 25.8-117v95.4c0 4.8-1.8 11.2-7.4 13.6-1.1.3-1.5.8-1.5 1.9v.7c12.7-3.8 25.3-7.7 38-11.7v-.7c0-1.1-.7-1.2-1.8-.9-5.5 1-7-4.4-7-9.2-.4-33-.4-66.5 0-99.8 0-4.8 1.4-11.1 7-13.6zm-61.2 115.1c-2.2-7.9-3.9-14.2-5.2-18.8-1.2-4.7-2.2-8.4-2.9-11.4-.7-2.9-1.4-5.5-2-7.7s-1.3-4.8-2-7.7-1.7-6.7-2.9-11.4l-4.8-18.9c-.1-2.2-.2-4.4-.4-6.6 1 1.8 2 3.5 2.9 5.3 2.7 11.3 4.7 19.5 5.9 24.8s2.4 9.8 3.5 13.7c1.1 3.8 2.3 8.3 3.7 13.4 1.3 5.1 3.5 13.3 6.5 24.4.1 2.1.2 4.1.4 6.2-.9-1.8-1.8-3.6-2.6-5.4zm42.8-43.7v11.2c0 4.2.1 9 .2 14.3.1 5.4.2 12.1.2 20.2l-1.5 6.6c-.4-2-.7-4-1.1-6 0-8.6.1-15.7.2-21.2s.2-10.3.2-14.2v-21c0-3.9-.1-8.6-.2-14.1s-.2-12.5-.2-21.1l1.5-6.6c.4 2 .7 4 1.1 6 0 8.1-.1 14.9-.2 20.3s-.2 10.2-.2 14.4zm-94.8 82.8c-6.3.4-9.2-3.7-10.7-8.9-2.9-8.5-5.9-17.1-8.5-26.1 1.8-.8 3.7-1.9 4.8-3.3 5.2-4.5 8.9-17.5 4.1-20.8-.7-.6-1.8-.3-1.8 1.5 0 4.8-4.8 7.7-10.7 9.4-.2.1-.5.1-.7.2l-12.9-39.6c-1.5-5.2-3.7-16.9 5.2-20.2 1.8-.8 4.1-.9 5.2.4.7 1.3 1.8.3 2.2-.8.7-4.6-3.3-8.8-7.4-9.1l-5.2 1.1c-13.3 2.7-22.9 4.1-35.4 6.2v.7c0 1.1.4 1.4 1.5 1.6 5.5-.6 7.7 5.3 7 9.8l-11.1 51.6c-3.7 17.3-7.4 34.6-11.1 51.8-1.1 5.7-4.1 11.3-10.3 12.9-1.1.2-1.5.9-1.5 2v.4c9.6-1.3 19.2-2.8 28.7-4.4v-.4c0-1.1-.4-1.8-1.5-1.6-.7.1-1.5-.1-2.2-.4-3.7-1.2-3.3-6.1-2.6-10.3l2.9-14.5c1.1.9 2.6 1 3.7 1.2 2.6-.1 4.8-.8 5.9-1.4 4.8-3.1 4.4-7 2.9-9-.7-1.7-1.5-1.9-1.8-.8a4.23 4.23 0 0 1-4.8 1.9c-4.8-.3-4.8-8.7 5.2-11.6 7.7-2.1 14.4-1.9 21-1.8 2.9 9.2 5.9 18.4 8.9 27.6.4 1.4.7 2.8 1.1 4.2.4 4.7-1.8 6.3-5.5 8.1-.7.5-1.1 1-1.1 2.1v.4c12.7-2.6 25.3-5.4 38-8.5v-.4c0-1.1-.3-1.8-1.4-1.5zm-65.6-38.3c-.1 0-.2 0-.4.1l2.2-9.2c2.2-11.8 4.8-23.7 7.4-35.6 4.2 12.7 8.4 25.4 12.5 38.1-7.4 1.1-15.1 2.5-21.7 6.6zm41.7 26.9c-2.5-7.7-4.5-14.1-6.1-19.2-1.6-5-2.9-9.4-4.1-13-1.1-3.6-2.1-6.9-2.9-9.7-.9-2.8-1.9-6.1-3.1-9.7s-2.6-7.9-4.2-12.9c-1.6-4.9-3.6-11.4-6.1-19.4-.2-2.2-.5-4.4-.7-6.5 1 1.7 2 3.4 2.9 5.1 2.2 7.6 4.1 13.8 5.7 18.7s2.9 9.3 4.1 13.1 2.2 7.2 3.1 10.4 2.2 6.6 3.5 10.3c1.4 3.7 2.8 8 4.4 13 1.6 4.9 3.6 11.1 6.1 18.6.1 2.1.2 4.1.4 6.2l-3-5.1zm-1.6 38.9c-7.6 2.4-8.6 8.3-8.6 11.6.5 2.3 1.4 2.7 2.9 1.2 3.3-3.2 10.4-.2 6.6 7.1-2.4 5.4-6.6 9-12.8 11-115.8 50.1-128.1-121.9-92.6-202.7 21.8-48.9 78.3-63.2 78.3-17.8 0 8.1-1.9 15.4-8.1 20.7-6.6 5.4-10.9.5-8.6-4.2.9-1.6 0-2.4-2.4-1.5-3.3.6-8.6 4-9 11.7-.5 6.3 7.6 14.1 17.6 9.1 29.4-14.2 10-55.1 38.4-80.4l-.5-.5c-.5-1.4-1.4-1.3-2.9-.8-3.3 2.1-7.6 2.5-11.4.1-15.2-9.4-39.4-5.8-55.1.3-39.9 15.3-64.6 58.6-74.5 107.2-4.7-4.8-10.9-7.1-19.5-4.5-3.3.5-6.6 4.3-2.9 5.3 11.9 3.6 16.1 20.6 17.6 34.8-3.8 65.5 17.6 134.9 64.6 148.1 7.1 1.9 14.3 2.3 19 2.7 6.2 1.6 10.4 5 7.6 13.2-.5 1.5 0 2.4.9 2.7.3-.1.6-.1.9-.2 18-36.8 64.1-30.3 69.8-59.9 1.5-10.5-9.4-16.1-15.6-14.2zM95.1 300.9c-25.6 74.6-30.8 179.5 14.7 214.6C63.3 489.9 60 383.2 95.1 300.9z" fill="#252e30"/>
  <path class="success" d="M117.4 243.4c-19-.1-37.5 2.4-54.2 8-18.4 6.1-40.2 17.9-52.9 40.1v.1c-4.4 7.7-7.7 16.7-9.3 27.2-3.2 20.4 1.8 38 14.3 49.6 8 7.4 18.5 11.7 28.4 11.8-.2-.8-.5-1.5-.7-2.2-9.2-.3-18.9-4.3-26.3-11.2C5.3 356.1.4 340 2.8 321.2c.4-1.5 3.4-13.4 11.7-17.5 0 0-2.4-10.8 5.4-22.1 12.4-14.7 29.3-23.2 44-28.1 15.4-5.1 32.5-7.7 50.1-7.8 1.1-.8 2.2-1.5 3.4-2.2zm96.5 23.7c-.4.6-.8 1.2-1.1 1.9 6.4 3.4 12.5 7.1 18.2 11.2l2.9-.6c-6.2-4.5-12.9-8.7-19.9-12.4zm-139.4.5c-1.6-.1-3.2.5-4.5 1.7-2.5 2.3-2.7 6.3-.4 8.8s6.3 2.7 8.9.4a6.2 6.2 0 0 0-3.9-10.8zm-23.1 10.3c-1.2 0-2.3.3-3.2 1.2-1.8 1.7-2 4.6-.3 6.4s4.6 2 6.4.3 2-4.5.3-6.4c-.8-.9-2-1.4-3.2-1.5zm-18.6 11.7a3 3 0 0 0-1.8.6c-1 .9-1.1 2.5-.2 3.5s2.5 1.1 3.5.2 1.1-2.5.2-3.5c-.5-.5-1.1-.8-1.7-.8zm36.3 9.2c-1.9 0-3.9.1-5.8.1v4.3H67c.7-1.5 1.4-2.9 2.1-4.4zm-18.9 19c-2.1 0-4.1.2-6.2.7a22.04 22.04 0 0 0-16.6 26.3c.2 1 .5 1.9.9 2.8.4-.8.9-1.7 1.5-2.5-.1-.3-.2-.5-.2-.8a19.87 19.87 0 0 1 15-23.7c5.2-1.1 10.3-.6 14.9 1.2l.7-2c-3.1-1.2-6.4-1.9-9.8-1.9zm482-242.9c-3.7 0-7.4.5-11.2 1.7a30.18 30.18 0 0 0-20 37.7 24.4 24.4 0 0 0 29.8 16.3c.2-.1.5-.1.7-.2 2.2-.8 3.3-3.1 2.6-5.3-.6-1.8-2.6-2.8-4.5-2.2-1.6.5-2.4 2.3-1.9 3.8.3 1 1.2 1.7 2.1 1.8a22.22 22.22 0 0 1-26.7-14.9 28.03 28.03 0 0 1 18.5-35c9-2.8 18.6-1.9 26.9 2.5s14.5 11.8 17.3 20.8c7.1 22.9-5.8 47.3-29.3 55.5-10.3 3.6-21.1 3.2-32.3.8-.4-.1-.8-.1-1.1-.2l-.5-.1c-6.5-1.9-11-6.3-12.4-11.4 0 0-11.1 4-24.3-1.1-17.3-6.7-35.6-13.7-55.2-15.9h1.6c4.5-.8 8.8-2.2 12.7-4.7 2.9-1.8 5.7-3.7 8.1-6.1 2.5-2.3 4.7-4.9 6.9-7.6.1-.1.2-.2.2-.4.5-.9 0-2.1-.9-2.5-.9-.5-2.1 0-2.5.9-1.4 2.9-3 5.7-5 8.3-2 2.5-4.3 4.9-7.2 6.6-5.3 3.2-11.5 4.6-17.7 5.1 7.2-2.9 13.3-8.5 16.4-16.3 2.3-5.8 2.2-12.2-.3-17.9s-7.1-10.2-12.9-12.5c-4.7-1.9-9.9-1.8-14.6.3-4.7 2-8.2 5.7-10.1 10.5l-.3.9c-1.1 1.9-.5 4.4 1.4 5.6 1.6 1 3.8.5 4.9-1.2.9-1.4.4-3.3-1-4.2-1.1-.7-2.4-.5-3.2.3.1-.2.1-.5.2-.7 1.6-4.2 4.8-7.5 8.9-9.3s8.7-1.9 12.9-.2c5.3 2.1 9.5 6.1 11.8 11.3s2.4 11 .3 16.3a26.9 26.9 0 0 1-21.7 16.8c-8.61.17-18.05 1.24-25.8 3.1l.9-.3c-1.2.4-2.3.7-3.4 1.1-.2.1-.5.1-.7.2s-.4.2-.6.2c-.6.2-1.2.4-1.7.6-.1.1-.2.1-.3.2-30.6 11.7-46.9 45.7-36.5 77 5.5 16.5 15.3 29.1 28.3 37.5l2.7-1-1.5-.9c-4.4-4.7-8.2-10-10.1-16.1-1-3.1-1.1-6.5-.9-9.7s.9-6.4 1.9-9.5c.3-1-.3-2.1-1.3-2.4s-2.1.3-2.4 1.3c0 .1-.1.3-.1.4-.2 3.4-.3 6.9-.1 10.3s1 6.7 1.9 10c1.2 4.4 3.5 8.4 6.3 12l2.8 2.5c-11.7-8.1-20.5-19.9-25.5-35.1-10.4-31.1 6.6-64.9 37.8-75.2 2.4-.8 4.8-1.4 7.2-1.8 12.2-1.3 18.7 2 21.9 9 0 0 18.1 2.3 26.3 13.1 1.8 3 3.4 6.3 4.5 9.8 3.2 9.6 2.4 19.8-2.1 28.8s-12.3 15.7-21.9 18.9c-7.6 2.5-15.7 1.9-22.9-1.6-7.2-3.6-12.5-9.7-15-17.3-4-12.1 2.3-25.1 14-29.6-.7.7-1 1.7-.6 2.8.5 1.6 2.2 2.5 3.8 2 1.9-.6 2.9-2.6 2.4-4.4-.7-2.2-2.9-3.4-5.1-2.8h-.1a25.7 25.7 0 0 0-14.9 12.9 25.7 25.7 0 0 0-1.4 19.8c2.7 8.1 8.4 14.7 16.1 18.6 7.7 3.8 16.4 4.5 24.5 1.8a39.68 39.68 0 0 0 23.1-20 39.2 39.2 0 0 0 2.2-30.4 49.4 49.4 0 0 0-26.6-29.4l-.1-.1h-.1c-3.6-1.6-7.4-2.8-11.3-3.5l2.2-.1c25-.2 48.2 8.8 69.6 17.2 2 .8 4.1 1.6 6.1 2.4h.1c21.6 8.3 42.1 15.2 61.2 10l3-.9c24.7-8.6 38.1-34.1 30.7-58.1-5-16-19.7-26.3-35.7-26.4zM336.7 89c-3.6.1-6.4 3.1-6.3 6.6s3.1 6.4 6.6 6.3c3.6-.1 6.4-3.1 6.3-6.6-.1-3.6-3.1-6.4-6.6-6.3zm-78.8 15.6c-.7 9.9-6.6 18-6.6 18s5.3 10 7 15.8c4.9 37.5 16.1 69.9 33.8 98.3.6.9 2.4 3.1 5 6-11.5-10.9-21-25.5-30.9-40.7l-5.1-7.8c-11.77-15.38-19.25-29.41-32.6-40.9-10-9.6-21.7-17.9-35.8-23.7l-.4-.2c-67.7-27.8-126.4-13-166.6 41.8l-.3.4c-4.9 6.4-13.6 19.3-13.6 19.3l13.4-6.9s1.1-9.5 4.5-14.4c22.5-29.4 50.7-46.4 82.9-50.7 6.4-.5 25.9 2.7 27.7 6.9 0 0 8.3-6.8 21.6-4 9.7 2.2 19.5 5.4 29.6 9.5l.4.2c8.6 3.6 16.2 8 23.1 13l-2.1-.9c-19.6-8-42.9-5.1-60 9.7a46.9 46.9 0 0 0-9 10.5l-.2.2c-4 5.2-7.4 10.9-9.2 17.2-1.3 4.6-2.5 9.4-2.8 14.3-.4 4.9-.3 9.8 0 14.7 0 .2.1.4.1.6.4 1.5 2 2.3 3.4 1.8 1.5-.4 2.3-2 1.8-3.4-1.3-4.5-2.3-9-2.6-13.7-.2-4.6-.1-9.4 1.4-13.9.9-3 2.2-5.8 3.7-8.6a46.46 46.46 0 0 0 8.7 45.8 37.49 37.49 0 0 0 52.8 3.8c2.1-1.8 3.9-4 5.5-6.2h.1c2.8-4.2 4.5-9.1 4.9-14.3.6-8-2-15.8-7.3-21.9-4.2-4.9-10.2-7.9-16.6-8.4-6.5-.5-12.8 1.6-17.7 5.9-4 3.4-6.4 8.2-6.8 13.5s1.3 10.3 4.7 14.3l.3.3c1.4 1.1 3.4 1.3 5 .3 1.6-1.1 2.1-3.3 1-4.9-.9-1.4-2.8-1.8-4.2-.8-1 .7-1.5 1.9-1.1 3a17.44 17.44 0 0 1 2.4-23.9 21.6 21.6 0 0 1 16.1-5.3c5.9.4 11.3 3.1 15.2 7.6 4.9 5.7 7.3 12.9 6.7 20.3-.3 3.6-1.2 7-2.7 10.1-3.9 7.4-9 7.2-12.5 6.9 0 0-.9 7-12.5 10.3a35.42 35.42 0 0 1-31.7-11.8c-16-18.5-14-46.5 4.5-62.5 21.6-18.7 53.7-17.7 74.2 1.2 4 4 8.26 8.63 11.7 12.8.6 1.1 5.5 10.2 5.7 15.2 2.8 1.3 11.4 8.3 18.6 19.2 15.5 23.8 30.1 46.2 53.2 55.8h.7c.1 0 .1-.1.2-.1s.1-.1.2-.1l.3-.3v-.9c0-.1-.1-.1-.1-.2s-.1-.1-.1-.2l-.3-.3c-27-15-33.9-44.6-31.3-72.1 2.8-9.7 9.5-19 9.5-19l-4.1-19s-2.5 11.3-4.3 19c-.4 1.5-.7 3-1 4.5 0 .1-.1.3-.1.4-.4 1.5-.7 3.4-1 5.2 0 .3-.1.5-.1.8v.2c-.3 2.1-.6 4.1-.8 6.2v.3c-1.7 15.8-.3 32.3 6 46.6-17.1-29.2-27.5-62.6-31.5-101.4-.9-9.8-1.8-24.3-1.8-24.3zm57.2 2.9c-6.53-.14-6.33 9.8.19 9.39 6-.37 5.82-9.26-.19-9.39zm46.7 8.3s-5.4 1.7-10.5 3.8v-.1c-.4.2-.7.4-1.1.5-1.4.6-2.8 1.3-3.9 2l-.1.1c-26.8 14.5-40.4 40.6-38.9 72.4-.5.1-1 .4-1.5.7-5.2 3.84-.01 11.8 5.6 8.6a5.04 5.04 0 0 0-1.8-9.2c-1.3-29.1 10.1-53.2 32.9-67.7 4.6-2.3 9.6-1.6 9.6-1.6s4.6-6.2 9.8-9.4zm-60.2 12.6c-1.4 0-2.5 1.2-2.5 2.6s1.2 2.5 2.6 2.5 2.5-1.2 2.5-2.6-1.2-2.5-2.6-2.5zm173.6 48.4c.1.1.3.2.5.3 1.7.8 3.7.2 4.5-1.5s.2-3.7-1.5-4.5L440.1 152c11.82 8.06 23.43 16.5 35.1 24.8zm-77.3 4.2c-.3 0-.5.1-.8.2-2.1.7-3.3 2.9-2.7 5.1.7 2.1 2.9 3.3 5.1 2.7 2.1-.6 3.3-2.9 2.7-5.1-.6-1.9-2.4-3-4.3-2.8zm-170 31.1c3.4 6.7 2.8 14.3 2.8 14.3s7.3 4.4 10.8 7.6c11.3 14.2 23.5 26.1 36.6 35.8l2.3-.8c-15.1-11-29-24.9-41.7-41.8-4.4-6-10.8-15.1-10.8-15.1zm81.1 4.5c-.7 0-1.4.2-2.1.6-1.7 1.1-2.2 3.4-1.1 5.1s3.4 2.2 5.1 1.1 2.2-3.4 1.1-5.1c-.7-1.1-1.9-1.6-3-1.7zm8.9 16.7c-.4 0-.8.1-1.1.3-.9.6-1.2 1.8-.6 2.8.6.9 1.9 1.2 2.8.6s1.2-1.8.6-2.8c-.4-.6-1-.9-1.6-.9zM943.2 95.1c-147 0-296.3 51.9-440.6 102-88.7 30.8-179.3 62.2-269.9 81.8l-2.9.6c-7.4 1.6-14.9 3.1-22.3 4.5-.3 1.5-.6 3-.8 4.6 99.9-18.9 199.7-53.6 297.3-87.5 144-50 292.9-101.7 439.2-101.7zm0 10.5c-65.8 0-137.8 10.4-220 31.9-73.3 19.1-147.9 45-220 70s-146.6 50.9-219.9 70c-26.9 7-52.8 12.8-77.6 17.5 0 .2-.1.4-.1.6 24.9-4.7 50.8-10.5 77.9-17.6 73.3-19.1 147.9-45 220-70s146.6-50.9 219.9-70c82.2-21.4 154.1-31.8 219.9-31.8v-.5zM166.8 290.9c-11.4 1.7-22.83 3.1-34.3 4.2-1.5 1.5-3 3.1-4.4 4.8 8.2-.8 16.3-1.7 24.5-2.7 2-1.1 4.1-1.9 6.1-2.5 3-.9 5.7-1.1 8.2-.7 0-1.1 0-2.2-.1-3.1zm-22.4 13.5c-7.2.8-14.2 1.5-21.3 2.2-.1.2-.2.4-.4.6 7-.6 14.1-1.3 21.2-2.2.1-.2.3-.4.4-.6z" fill="#252e30"/>
  <path class="success" d="M940.2 311.1h-.9v8.7c-1.7 0-3.5 0-5.2.1v-8.8h-.9v8.8c-1.7 0-3.4.1-5.2.1v-8.8h-.9v8.8c-1.7 0-3.5.1-5.2.2v-8.8h-.9v8.8c-1.7.1-3.4.1-5.2.2v-8.8h-.9v8.8l-5.2.3v-8.8h-.9v8.8l-5.2.3v-8.8l-.9.1v8.8l-5.2.3v-8.8l-.9.1v8.8c-1.7.1-3.5.3-5.2.4v-8.8l-.9.1v8.8c-1.7.1-3.4.3-5.2.4v-8.8l-.9.1v8.8c-1.7.2-3.4.3-5.2.5v-8.8l-.9.1v8.8c-1.7.2-3.4.3-5.1.5v-8.8l-.9.1v8.8l-5.2.6v-8.8l-.9.1v8.8l-5.2.6v-8.8l-.9.1v8.8l-5.1.6v-8.8l-.9.1v8.8c-1.7.2-3.4.5-5.2.7v-8.8l-.9.1v8.8c-1.7.2-3.4.5-5.1.7v-8.8l-.9.1v8.8c-1.7.2-3.4.5-5.2.8v-8.8l-.9.1v8.8c-1.7.3-3.4.5-5.1.8v-8.8l-.9.1v8.8c-1.7.3-3.4.5-5.1.8v-8.8l-.9.2v8.8l-5.1.9v-8.8l-.9.2v8.8l-5.1.9v-8.8l-.9.2v8.8l-5.1.9v-8.8l-.9.2v8.8c-1.7.3-3.4.6-5.1 1v-8.8l-.9.2v8.8c-1.7.3-3.4.6-5.1 1v-8.8l-.9.2v8.8c-1.7.3-3.4.7-5.1 1v-8.8l-.9.2v8.8c-1.7.3-3.4.7-5.1 1v-8.9l-.9.2v8.8c-1.7.4-3.4.7-5.1 1.1v-8.8l-.9.2v8.8c-1.7.4-3.4.7-5.1 1.1v-8.8l-.9.2v8.8c-1.7.4-3.3.7-5 1.1v-8.8l-.9.2v8.8l-5.1 1.2v-8.8l-.9.2v8.8l-5.1 1.2v-8.8l-.9.2v8.8c-1.7.4-3.4.8-5 1.2v-8.8l-.9.2v8.8c-1.7.4-3.4.8-5 1.2v-8.8l-.9.2v8.8c-1.7.4-3.4.8-5 1.2v-8.8l-.9.2v8.8c-1.7.4-3.4.9-5 1.3v-8.8l-.9.2v8.8c-1.7.4-3.4.8-5 1.3v-8.8l-.9.2v8.8c-1.7.4-3.3.9-5 1.3v-8.8l-.9.2v8.8c-1.7.4-3.4.9-5 1.3v-8.8l-.9.2v8.8c-1.7.4-3.3.9-5 1.4v-8.8l-.9.2v8.8c-1.7.5-3.4.9-5 1.4v-8.8l-.9.2v8.8c-1.7.5-3.3.9-5 1.4v-8.8l-.9.2v8.8c-1.7.5-3.3.9-5 1.4v-8.8l-.9.2v8.8c-1.7.5-3.3.9-5 1.4v-8.8l-.9.2v8.8l-5 1.5v-8.8l-.9.3v8.8l-4.9 1.5v-8.8l-.8.3v8.8l-5 1.5v-8.8l-.9.3v8.8l-5 1.5v-8.8l-.8.3v8.8l-4.9 1.5V363l-.9.3v8.8l-4.9 1.5v-8.8l-.8.3v8.8l-5 1.5v-8.7l-.9.3v8.8c-1.6.5-3.3 1-4.9 1.6v-8.7l-.8.3v8.8c-1.6.5-3.3 1-4.9 1.6v-8.7l-.9.3v8.7c-1.6.5-3.3 1-4.9 1.6v-8.7l-.9.3v8.7c-1.6.5-3.3 1.1-4.9 1.6v-8.7l-.8.3v8.7c-1.6.5-3.3 1.1-4.9 1.6v-8.7l-.8.3v8.7c-1.6.5-3.3 1.1-4.9 1.6v-8.7l-.8.3v8.7c-1.6.5-3.3 1.1-4.9 1.6v-8.7l-.8.3v8.7c-1.6.5-3.3 1.1-4.9 1.6v-8.7l-.8.3v8.7c-1.6.5-3.3 1.1-4.9 1.6V384l-.8.3v8.7c-1.6.5-3.3 1.1-4.9 1.6v-8.7l-.8.3v8.7c-1.7.6-3.3 1.1-4.9 1.7v-8.7l-.8.3v8.7c-1.6.6-3.3 1.1-4.9 1.7v-8.7l-.8.3v8.7c-1.6.6-3.3 1.1-4.9 1.7v-8.7l-.8.3v8.7c-1.6.6-3.3 1.1-4.9 1.7v-8.7l-.8.3v8.7c-1.6.6-3.3 1.1-4.9 1.7v-8.7l-.8.3v8.7c-1.6.6-3.3 1.1-4.9 1.7v-8.7l-.9.3v8.7c-1.6.6-3.3 1.1-4.9 1.7v-8.7l-.8.3v8.7c-1.6.6-3.3 1.1-4.9 1.7v-8.7l-.8.3v8.7c-1.6.6-3.3 1.1-4.9 1.7v-8.7l-.8.3v8.7c-1.6.6-3.3 1.1-4.9 1.7v-8.7l-.8.3v8.7c-1.6.6-3.3 1.1-4.9 1.7v-8.7l-.8.3v8.7c-1.6.6-3.3 1.1-4.9 1.7v-8.7l-.8.3v8.7c-1.6.6-3.3 1.1-4.9 1.7v-8.7l-.9.3v8.7c-1.4.5-2.8 1-4.3 1.5-.2.1-.4.1-.6.2v-8.7l-.8.3v8.7c-1.6.6-3.3 1.1-4.9 1.7v-8.7l-.8.3v8.7c-1.6.6-3.3 1.1-4.9 1.7v-8.7l-.8.3v8.7c-1.6.6-3.3 1.1-4.9 1.7v-8.7l-.8.3v8.7c-1.6.6-3.3 1.1-4.9 1.7v-8.7l-.8.3v8.7c-1.6.6-3.3 1.1-4.9 1.7v-8.7l-.8.3v8.7c-1.6.6-3.3 1.1-4.9 1.7v-8.7l-.8.3v8.7c-1.6.6-3.3 1.1-4.9 1.7v-8.7l-.8.3v8.7c-1.6.6-3.3 1.1-4.9 1.7v-8.7l-.8.3v8.7c-1.6.6-3.3 1.1-4.9 1.7v-8.7l-.8.3v8.7c-1.6.6-3.3 1.1-4.9 1.7v-8.7l-.8.3v8.7c-1.6.6-3.3 1.1-4.9 1.7v-8.7l-.8.3v8.7c-1.6.6-3.3 1.1-4.9 1.7v-8.7l-.8.3v8.7c-1.6.6-3.3 1.1-4.9 1.7v-8.7l-.9.3v8.7c-1.6.5-3.3 1.1-4.9 1.6v-8.7l-.8.3v8.7c-1.6.6-3.3 1.1-4.9 1.6v-8.7l-.8.3v8.7c-1.6.5-3.3 1.1-4.9 1.6v-8.7l-.9.3v8.7c-1.6.5-3.3 1.1-4.9 1.6v-8.7l-.8.3v8.7c-1.6.5-3.3 1.1-4.9 1.6v-8.7l-.8.3v8.7c-1.6.5-3.3 1.1-4.9 1.6v-8.7l-.8.3v8.7c-1.6.5-3.3 1.1-4.9 1.6v-8.7l-.9.3v8.7c-1.6.5-3.3 1.1-4.9 1.6v-8.6l-.8.3v8.7c-1.6.5-3.3 1.1-4.9 1.6v-8.6l-.8.3v8.7c-1.7.5-3.3 1.1-5 1.6v-8.7l-.8.3v8.7l-4.9 1.5v-8.7l-.9.3v8.6l-4.9 1.5v-8.6l-.9.3v8.7l-5 1.5v-8.6l-.9.3v8.6l-4.9 1.5v-8.6l-.8.2v8.6l-5 1.5v-8.6l-.9.3v8.6l-4.9 1.5v-8.6l-.9.2v8.6l-5 1.5v-8.6l-.9.2v8.6l-5 1.5v-8.6l-.9.2v8.6c-1.7.5-3.3.9-5 1.4v-8.6l-.9.2v8.6c-1.7.5-3.3.9-5 1.4v-8.6l-.9.2v8.6c-1.7.5-3.3.9-5 1.4v-8.6l-.8.2v8.6c-1.7.5-3.4.9-5 1.4v-8.6l-.9.2v8.6c-1.7.5-3.3.9-5 1.3v-8.6l-.9.2v8.6c-1.7.4-3.4.9-5 1.3v-8.6l-.9.2v8.6c-1.7.4-3.4.9-5 1.3v-8.6l-.9.2v8.6c-1.7.4-3.3.9-5 1.3v-8.6l-.9.2v8.6c-1.7.4-3.3.9-5 1.3v-8.6l-.9.2v8.6c-1.7.4-3.4.8-5.1 1.3v-8.6l-.9.2v8.6c-1.7.4-3.4.8-5 1.2v-8.6l-.9.2v8.6c-1.7.4-3.4.8-5 1.2v-8.6l-.9.2v8.6l-5.1 1.2v-8.6l-.9.2v8.6c-1.7.4-3.3.8-5 1.1v-8.6l-.9.2v8.6c-1.1.2-2.1.5-3.2.7-.2.8-.4 1.6-.7 2.4 90-19.7 179.9-50.9 268-81.5 144.1-50 293.1-101.8 439.5-101.8l.04-2.89-5.77-.03zM71.7 514.7v8.8h-5.2v-8.7h-.9v8.7h-1.1v2.2c5.2 0 10.3-.1 15.5-.2l-1.3-1.6-.9-1.2v.7c-1.7 0-3.5.1-5.2.1v-8.3c-.1-.1-.2-.3-.3-.4h-.6z" fill="#252e30"/>
  <path class="fg" d="m803.1 348.9-7.1 1.3v.9l2.5-.5v37.1l-2.5.5v.9l8.7-1.6v-.9l-1.6.3zm55.7 3.5h-.7c-1.8.2-3.1 1.2-3.8 2.9l-.1.1v-2l-7.2.9v.9l2.5-.3v24.5l-2.5.3v.9l9.7-1.2v-.9l-2.5.3v-19.6c0-1.4.3-2.7.9-3.8s1.3-1.8 2.1-1.8c.3 0 .5.1.5.4 0 .1-.1.2-.2.5-.5.8-.7 1.5-.7 1.9 0 .6.2 1.1.7 1.5s1 .5 1.7.5c.8-.1 1.4-.5 1.8-1 .5-.6.7-1.2.7-2a2.9 2.9 0 0 0-2.8-3zm-27 3.8c-.3 0-.6 0-.8.1-2.6.4-4.5 1.9-5.9 4.4-1.3 2.5-2 6-2 10.4s.7 7.7 2.1 9.8c1.4 2.2 3.4 3.1 6 2.6 2.1-.3 3.6-1.3 4.7-3s1.7-4.1 2-7.3l-1 .2c-.2 2.7-.8 4.8-1.7 6.3-.9 1.6-2 2.5-3.3 2.7-1.1.2-2.1-.2-2.8-1.1s-1.1-2.3-1.1-4.1v-6.1l9.9-1.5c0-4.8-.6-8.3-1.7-10.4-1-1.9-2.5-2.9-4.4-2.8zm-68.5.9-8.4 2-4.1 25.7h-.1l-4.1-23.8-8.6 2.1v.9l2.6-.6v34c0 1.1-.2 2-.6 2.5s-1.1.9-2 1.2v.9l6.2-1.5v-.9c-1 .2-1.6.2-2-.2s-.5-1.1-.5-2.2v-33.9h.1l6.4 36.3 1.1-.3 6.3-38.5h.1v36.1l-2.6.6v.9l10.1-2.4v-.9l-2.6.6v-37.1l2.6-.6v-1zm68.1.1c.5.1.9.4 1.2.9.4.7.6 1.8.6 3.1v8l-5.2.8v-7.1c0-1.6.2-2.9.8-3.9.5-1 1.2-1.6 2.2-1.8h.5zm-16.5 2.2-6.7 1.2v.9l1.3-.2c.6-.1.9.1.9.6 0 .2-.1.4-.2.7s-.8 1.4-2.1 3.3l-4.6 7 5.7 13-1.7.3v.9l8.9-1.6v-.9l-2.2.4-7.1-15.8 4.6-7c.6-1 1.4-1.5 2.2-1.7l.9-.2v-.9zm-34.8 6.4c-.4 0-.9 0-1.3.1-1.8.4-3.2 1.2-4.5 2.4-1.2 1.2-1.9 2.5-1.9 3.7 0 .8.2 1.4.7 1.8s1.1.6 1.9.4c.7-.2 1.2-.5 1.7-1.1.4-.6.7-1.2.7-1.9 0-.9-.4-1.5-1.3-1.8-.4-.1-.6-.4-.6-.8 0-.3.3-.6.8-1s1.1-.6 1.7-.8c.9-.2 1.6-.1 2.1.3s.8 1 .8 1.9v6.8c-.2.5-1.5 1.9-3.9 4-2 1.8-3.4 3.2-4.1 4.5s-1.1 2.6-1.1 4c0 1.9.5 3.2 1.4 4.2.9.9 2.1 1.2 3.5.9 2.2-.5 3.7-1.7 4.6-3.7.5 1.7 1.6 2.4 3.4 2 1.2-.2 2.1-.8 2.7-1.7s.9-2 .9-3.3v-.6l-.9.2c0 2.1-.4 3.3-1.1 3.4-.6.1-.8-.3-.8-1.2v-16.4c0-2.3-.7-4.1-2-5.3-1-.9-2.1-1.4-3.4-1.4zm.8 11.6v10.1c0 1.1-.2 2-.8 2.8-.5.8-1 1.2-1.6 1.4-1.3.3-2-.5-2-2.4v-4.4c0-1.1.2-2.1.5-2.9.4-.8 1.1-1.8 2.2-2.8.7-.7 1.2-1.2 1.5-1.7zm-74.1 6.4c-.5 0-1 .1-1.6.2-2.5.7-4.4 2.4-5.7 5.1s-1.9 6.2-1.9 10.6.7 7.6 2.1 9.6 3.3 2.7 5.9 2c2-.5 3.5-1.7 4.6-3.5 1-1.8 1.7-4.3 1.9-7.5l-.9.3c-.2 2.7-.8 4.8-1.6 6.5-.9 1.7-1.9 2.7-3.2 3-1.1.3-2 0-2.7-.8s-1.1-2.2-1.1-4v-6.1l9.7-2.7c0-4.8-.6-8.2-1.7-10.3-.8-1.6-2-2.4-3.5-2.4zm-1.1 1.1c.5 0 .8.3 1.1.8.4.7.6 1.7.6 3.1v8l-5.1 1.4v-7.1c0-1.6.3-2.9.8-4s1.2-1.8 2.1-2c.2 0 .3-.1.5-.1zm-21.1 5.3c-.6 0-1.3.1-2.1.3-2.6.8-4.6 2.5-6 5.3s-2.2 6.3-2.2 10.6c0 4.4.7 7.6 2.1 9.6s3.3 2.6 5.9 1.9c2-.6 3.4-1.7 4.2-3.3s1.4-4 1.6-7.3l-1 .3a19 19 0 0 1-1.4 6.3c-.7 1.5-1.7 2.4-2.9 2.8-1.1.3-2 .1-2.7-.8-.7-.8-1.1-2.2-1.1-4v-14.1c0-1.5.3-2.8 1-4s1.5-1.9 2.4-2.2c.9-.2 1.6-.3 2.2-.1s.9.5.9.8-.3.6-.8.8a3.37 3.37 0 0 0-1.6 2.8c0 .6.2 1.1.6 1.4s.9.4 1.5.2c.7-.2 1.3-.6 1.8-1.3s.7-1.4.7-2.2c0-1.5-.5-2.6-1.5-3.2-.5-.3-1-.5-1.7-.5zm-44.6.7c-.2 0-.5.1-.7.1-1.5.5-2.7 1.5-3.5 3.2s-1.3 3.8-1.3 6.3c0 .9.1 2.5.4 4.8l-2.4.8v.9l2.5-.8v24.5l-2.5.8v.9l9.4-3v-.9l-2.5.8v-24.5l2.5-.8v-.9l-2.9.9c-1.3-2-1.9-4.6-1.9-7.8 0-1 .2-1.9.6-2.7s.9-1.3 1.4-1.5c.7-.2 1-.1 1 .3 0 .1-.1.4-.5 1-.3.5-.5 1.1-.5 1.7 0 .7.2 1.2.6 1.5s.9.4 1.4.2.9-.5 1.3-1.1.5-1.2.5-1.9c0-1-.4-1.8-1.1-2.4-.6-.4-1.2-.6-1.8-.6zm18.8 6.9c-.6 0-1.2.1-1.9.3-1.7.5-3.2 1.5-4.4 2.8s-1.8 2.7-1.8 3.9c0 .8.2 1.4.7 1.7.5.4 1.1.5 1.8.2.7-.2 1.2-.6 1.6-1.2s.6-1.2.6-1.9c0-.9-.4-1.5-1.2-1.7-.4-.1-.6-.3-.6-.7 0-.3.3-.6.8-1.1.5-.4 1.1-.8 1.7-.9.8-.3 1.5-.2 2 .1s.8 1 .8 1.9v6.8c-.2.6-1.5 2-3.9 4.3-1.9 1.9-3.3 3.5-4 4.8s-1.1 2.7-1.1 4.1c0 1.8.4 3.2 1.3 4s2 1.1 3.4.6c2.2-.7 3.7-2 4.5-4.1.5 1.7 1.6 2.3 3.3 1.7 1.1-.3 2-1 2.6-1.9s.9-2.1.9-3.4h.1v-.6l-.9.3c0 2.1-.4 3.3-1.1 3.5-.5.2-.8-.2-.8-1.1v-16.4c0-2.3-.6-4-1.9-5.1-.8-.7-1.7-1.1-2.7-1.1zm-35.6 11.1c-.4 0-.8 0-1.3.2-1.7.5-3 1.8-3.7 3.6l-.1.1v-2l-6.9 2.2v.9l2.5-.8v24.5l-2.5.8v.9l9.3-3v-.9l-2.5.8v-19.6c0-1.4.3-2.7.9-4 .6-1.2 1.3-2 2-2.2.3-.1.5 0 .5.3 0 .1-.1.2-.2.5-.5.9-.7 1.6-.7 2.1 0 .6.2 1.1.6 1.4s1 .4 1.6.2c.7-.2 1.3-.7 1.8-1.4s.7-1.4.7-2.1c0-.9-.3-1.6-1-2.1-.3-.2-.7-.3-1.1-.4zm35.7.4v10.1c0 1.1-.2 2-.7 2.8s-1 1.3-1.5 1.5c-1.3.4-1.9-.4-1.9-2.2v-4.4c0-1.1.2-2.1.5-3 .3-.8 1.1-1.9 2.2-3 .7-.7 1.2-1.3 1.5-1.8zm-82.4 7.9-4.4 1.5v7.3l-2.9 1v.9l2.9-1v21.7c0 1.3.3 2.2 1 2.8.7.5 1.5.6 2.6.3 2.6-.9 4.2-3.4 4.7-7.4l-.9.3c-.4 2.8-1.2 4.4-2.2 4.8-.5.2-.7-.1-.7-.9v-23l2.9-1v-.9l-2.9 1v-7.3zm21 0c-.5 0-1 .1-1.6.3-2.5.8-4.3 2.6-5.6 5.4s-1.9 6.3-1.9 10.7.7 7.5 2 9.5c1.3 1.9 3.3 2.5 5.8 1.7 2-.7 3.5-1.9 4.5-3.7s1.7-4.4 1.9-7.6l-.9.3c-.2 2.7-.8 4.9-1.6 6.6s-1.9 2.8-3.2 3.2c-1.1.4-2 .1-2.7-.7s-1.1-2.1-1.1-3.9v-6.1l9.6-3.2c0-4.8-.6-8.2-1.7-10.2-.8-1.5-2-2.2-3.5-2.2zm-1.1 1.1c.5 0 .8.2 1.1.7.4.6.6 1.7.6 3v8l-5 1.7v-7.1c0-1.6.2-2.9.8-4.1.5-1.1 1.2-1.8 2.1-2.1.2-.1.3-.1.5-.1zm-61.9 8-9.8 3.4v.9l2.5-.9v37.1l-2.5.9v.9l9.7-3.4v-.9l-2.4.8V428l2.5-.9v-.9zm21.7 4.9c-.5 0-1 .1-1.5.3-2.2.8-3.9 2.7-5.2 5.9v-3.6l-6.9 2.4v.9l2.4-.8v24.5l-2.4.8v.9l8.4-2.9v-.9l-1.5.5V441c0-1.3.4-2.8 1.3-4.4.8-1.6 1.7-2.6 2.5-2.8.5-.2.9 0 1.2.5s.5 1.2.5 2.3v20.9l-1.5.5v.9l8.4-2.9v-.9l-2.4.8v-19.7c0-2-.4-3.4-1.2-4.2-.5-.5-1.1-.8-1.9-.7zm-57.8 20c-.4 0-.8 0-1.3.2-1.7.6-2.9 1.8-3.6 3.7l-.1.1v-2l-6.9 2.4v.9l2.4-.8v24.6l-2.4.8v.9l9.3-3.2v-.9l-2.4.8v-19.6c0-1.4.3-2.7.9-4s1.3-2 2-2.3c.3-.1.5 0 .5.3 0 .1-.1.2-.2.5-.5.9-.7 1.6-.7 2.1 0 .6.2 1.1.6 1.4s1 .3 1.6.1c.7-.2 1.3-.7 1.8-1.4s.7-1.4.7-2.1c0-.9-.3-1.6-1-2.1-.3-.2-.7-.3-1.1-.4zm-25.6 8.9c-.5 0-1 .1-1.6.3-2.5.8-4.3 2.7-5.6 5.4-1.3 2.8-1.9 6.3-1.9 10.7s.7 7.5 2 9.5 3.3 2.5 5.8 1.6c2-.7 3.5-2 4.5-3.8s1.6-4.4 1.9-7.6l-.9.3c-.2 2.7-.8 4.9-1.6 6.6s-1.9 2.8-3.1 3.2c-1.1.4-2 .2-2.7-.7-.7-.8-1.1-2.1-1.1-3.9v-6.1l9.5-3.3c0-4.8-.6-8.1-1.7-10.1-.8-1.5-2-2.2-3.5-2.2zm-39 1.1-6.2 2.1v.9l.8-.3c.5-.2 1-.1 1.3.1.3.3.5.7.5 1.3v28.6c0 2.1-.4 3.8-1.2 5.2s-1.9 2.4-3.3 2.8c-1.2.4-2.1.3-2.7-.1-.7-.5-1-1.3-1-2.5v-33.2l2.5-.8v-.9l-9.8 3.3v.9l2.5-.8v29.4c0 2.9.6 4.9 1.8 6.1 1.2 1.1 3 1.4 5.2.6 2.3-.8 4.1-2 5.2-3.7 1.2-1.7 1.8-3.8 1.8-6.4v-28.7c0-.6.2-1.1.5-1.6s.8-.8 1.3-1l.8-.3v-.9zm38 0c.5 0 .8.2 1.1.7.4.6.6 1.6.6 3v8l-5 1.8v-7.1c0-1.6.3-3 .8-4.1s1.2-1.8 2.1-2.1c.2-.1.3-.1.5-.1zm-17.8 5.6-.9.3c0 .6-.2.9-.6 1.1-.3.1-.5.1-.9 0-1-.3-2.3-.3-3.8.2-1.3.5-2.6 1.4-3.7 2.9s-1.7 3.4-1.7 5.6c0 2.8 1.5 5.1 4.6 6.8 1.9 1.1 3.3 2.1 4.1 3s1.1 1.9 1.1 3.1c0 1-.3 1.9-.9 2.8s-1.3 1.4-2.2 1.7c-1.4.5-2.6.2-3.6-.9s-1.7-3-2-5.7l-.8.3v9l.8-.3c.1-.7.3-1.2.6-1.3s.7-.1 1.2.1c1.1.3 2.4.2 3.9-.4 1.7-.6 3-1.6 4.2-3a9.5 9.5 0 0 0 1.7-5.8c0-3.1-1.9-5.8-5.5-7.9-1.9-1.1-3.1-2-3.7-2.6s-.8-1.5-.8-2.5c0-.9.2-1.8.7-2.6s1.2-1.3 2-1.6c1.3-.5 2.5-.2 3.4.7s1.5 2.5 1.9 4.7l.9-.3v-7.7z" fill="#252e30"/>
</svg>
