<svg xmlns="http://www.w3.org/2000/svg" width="380" height="140" viewBox="0 0 380 140"><defs/><style>.st2{fill:#b0b0b0}.st3{fill:#252e30}</style><g stroke-width="7.603"><path d="M48.684 122.95c1.67-.552 2.578-2.347 2.025-4.018s-2.347-2.577-4.016-2.025a3.178 3.178 0 00-2.025 4.019 3.176 3.176 0 004.016 2.025zm20.307 7.267a1.247 1.247 0 00-.795 1.579c.217.657.92 1.012 1.578.795a1.247 1.247 0 00.796-1.578 1.248 1.248 0 00-1.579-.796zm-9.647-.315a2.307 2.307 0 10-1.446-4.38 2.305 2.305 0 00-1.467 2.913 2.313 2.313 0 002.913 1.466zm48.426-33.295a.698.698 0 00.42-.888.699.699 0 00-.887-.42.698.698 0 00-.42.888.69.69 0 00.888.42zm1.316 6.648c.664-.236 1.013-.973.777-1.636s-.975-1.013-1.638-.777-1.013.973-.777 1.637a1.275 1.275 0 001.637.776zm-3.9 6.55a1.766 1.766 0 002.261 1.066 1.768 1.768 0 10-1.196-3.327 1.772 1.772 0 00-1.065 2.261zm-55.114-12.31a1.168 1.168 0 00-1.776-.17 1.173 1.173 0 00-.026 1.657L58.647 109.7z" class="st3"/><path d="M67.365 120.25a26.625 26.625 0 002.847 1.29c-8.226-2.815-14.763-8.463-20.8-13.686l-1.71-1.472v-.007l-.007-.006c-6.082-5.222-11.976-9.851-18.821-10.338a15 15 0 00-1.091-.04c-9.042-.045-16.4 6.748-16.755 15.461-.29 7.148 5.273 13.192 12.442 13.495a10.392 10.392 0 007.509-2.762 10.392 10.392 0 003.361-7.268c.184-4.563-3.307-8.442-7.839-8.758a3.348 3.348 0 00-.256-.013v.006a1.446 1.446 0 00-1.447 1.421 1.227 1.227 0 001.216 1.243 1.046 1.046 0 001.059-1.04.924.924 0 00-.486-.847 7.69 7.69 0 016.997 7.962c-.106 2.591-1.21 4.985-3.117 6.741s-4.38 2.67-6.97 2.565a12.159 12.159 0 01-8.498-3.926 12.136 12.136 0 01-3.229-8.786c.336-8.312 7.366-14.788 16-14.742 3.769.019 7.254 1.387 10.647 3.477.113.073.236.139.342.212.046.026.092.058.132.085 1.894 1.355 2.86 3.327 2.736 5.168 0 0 4.077-.019 7.792 3.164 7.8 6.74 16.46 14.026 28.513 15.105-.112.007-.23 0-.341.007.821.026 1.643.045 2.374.059.164-.026.328-.059.499-.086-6.05-.677-8.917-1.67-13.1-3.682z" class="st3"/><path d="M96.012 87.504l-.98.007c3.446 4.221 5.234 9.462 5.116 15.526-.224 11.383-9.667 20.465-21.05 20.241a16.537 16.537 0 01-2.57-.256c-4.13-.973-5.873-2.802-6.123-5.471 0 0-5.65-2.861-7.076-7.326a16.492 16.492 0 01-.355-3.716c.066-3.492 1.493-6.753 4.011-9.173s5.827-3.722 9.324-3.65a10.322 10.322 0 017.287 3.183 10.31 10.31 0 012.9 7.405c-.085 4.412-3.642 7.943-8.01 8.061a.956.956 0 00.534-.82 1.045 1.045 0 00-1-1.092 1.238 1.238 0 00-1.283 1.177 1.44 1.44 0 001.356 1.498v.007h.025a8.924 8.924 0 006.38-2.506 8.921 8.921 0 002.755-6.3c.059-2.97-1.046-5.793-3.11-7.936s-4.841-3.36-7.813-3.414a13.722 13.722 0 00-9.858 3.861 13.732 13.732 0 00-4.24 9.699c-.1 4.978 1.952 9.503 5.28 12.705l.019.039.04.02a17.164 17.164 0 006.122 3.781c.54.192 1.09.342 1.657.48l.034.02.01-.007c1.192.284 2.422.461 3.69.487 11.799.23 21.584-9.18 21.815-20.978.117-6.036-1.593-11.283-4.887-15.552z" class="st3"/><path d="M83.907 130.5v.02c.145-.014.275-.04.42-.053.534-.04 1.052-.099 1.513-.185l.026-.012c10.693-1.677 18.276-8.97 21.334-20.059l-.08.468.217-.776c.007-.098.007-.191.013-.282l-.716-.257c-2.697 10.468-9.416 17.597-18.991 19.8-1.77.205-3.308-.585-3.308-.585s-2.242 1.507-4.282 1.96a40.5 40.5 0 003.855-.04zM24.125 95.252c-1.67.118-3.352.316-4.984.789-1.638.454-3.228 1.072-4.794 1.763a.766.766 0 00-.184.112.945.945 0 00-.191 1.328.947.947 0 001.328.191l.007-.007c1.295-.966 2.677-1.828 4.156-2.48 1.48-.637 3.058-1.157 4.695-1.21 3.268-.164 6.491.77 9.484 2.105h.005c.086.04.171.014.244-.033l-2.118-1.315c-2.177-.684-5.366-1.395-7.648-1.243zm75.357 6.866c-.368 1.631-.815 3.268-1.526 4.814-.69 1.552-1.545 3.032-2.466 4.477a.833.833 0 01-.138.165.947.947 0 01-1.34-.013.947.947 0 01.012-1.342l.006-.007c1.151-1.13 2.21-2.367 3.077-3.735.849-1.368 1.606-2.854 1.902-4.458.657-3.208.21-6.53-.659-9.693v-.007c-.025-.092.014-.17.067-.236l1.144 3.261c.354 2.244.42 4.538-.079 6.773zm36.589-.408h-.303a.619.619 0 00-.486.203.748.748 0 00-.185.507v9.995c0 .895-.217 1.566-.644 2.014s-1.071.67-1.926.67c-.823 0-1.454-.27-1.907-.815s-.678-1.322-.678-2.335v-10.233h-.907v-.321h3.603v.321h-.914v11.574c0 .421.118.756.362 1 .243.244.578.362.999.362.52 0 .927-.197 1.223-.592.296-.394.44-.96.44-1.683v-9.95a.713.713 0 00-.184-.513.626.626 0 00-.486-.196h-.304v-.323h2.29v.315zm4.957 6.714c-.118-.822-.348-1.44-.682-1.868-.342-.427-.758-.638-1.25-.638a.921.921 0 00-.73.315c-.178.212-.27.482-.27.81 0 .356.099.678.29.96.197.29.643.737 1.34 1.335 1.355 1.165 2.033 2.295 2.033 3.393 0 .836-.203 1.435-.62 1.81-.412.367-.925.558-1.53.558-.56 0-1.04-.112-1.428-.335-.177-.118-.328-.178-.447-.178s-.196.119-.236.362h-.31v-3.13h.31c.118.973.36 1.71.736 2.21.368.506.816.755 1.335.755.322 0 .585-.112.81-.342.216-.23.328-.513.328-.855 0-.42-.139-.834-.414-1.236-.277-.4-.777-.9-1.486-1.512-1.119-.973-1.677-1.946-1.677-2.926 0-.77.203-1.349.618-1.737s.867-.585 1.361-.585c.546 0 1.013.118 1.387.362a.663.663 0 00.322.105c.152 0 .23-.1.23-.303h.322v2.664h-.342zm7.037 2.157h-3.498v2.111c0 .631.131 1.13.394 1.5.264.367.592.55.987.55.461 0 .842-.248 1.158-.747.31-.5.513-1.204.591-2.112h.342c-.092 1.098-.322 1.907-.697 2.433s-.92.79-1.644.79c-.914 0-1.624-.415-2.118-1.25-.493-.834-.743-2.012-.743-3.538s.237-2.695.704-3.504c.466-.81 1.15-1.21 2.058-1.21.822 0 1.434.413 1.849 1.248.414.822.618 2.072.618 3.73zm-1.657-.362v-2.767c0-.48-.072-.855-.217-1.125s-.342-.409-.592-.409c-.321 0-.571.165-.756.501-.184.335-.275.776-.275 1.334v2.466zm5.228-3.769c.263-.571.711-.855 1.342-.855.342 0 .63.113.868.344a1.125 1.125 0 01.362.834.969.969 0 01-.25.664.827.827 0 01-.645.277.777.777 0 01-.585-.236.762.762 0 01-.236-.56c0-.17.085-.388.249-.644.053-.079.085-.125.085-.145 0-.098-.051-.144-.164-.144-.263 0-.506.183-.73.551a2.42 2.42 0 00-.335 1.282v6.82h.894v.323h-3.413v-.323h.894v-8.549h-.894v-.321h2.52v.684zm10.87-4.74h-.92v12.923h.894v.321h-3.583v-.321h.913V101.71h-.913v-.323h3.602v.323zm7.866 13.245h-3.092v-.322h.573v-7.287c0-.356-.053-.638-.164-.842-.113-.21-.264-.309-.448-.309-.29 0-.597.23-.914.698-.315.466-.473.927-.473 1.393v6.352h.572v.323h-3.091v-.323h.894v-8.549h-.894v-.321h2.52v1.262c.472-.953 1.11-1.427 1.912-1.427.546 0 .968.192 1.264.565.296.383.44.915.44 1.612v6.858h.894v.316zm4.708-1.874c-.185 1.361-.763 2.039-1.73 2.039-.387 0-.703-.132-.94-.402s-.362-.631-.362-1.086v-7.548h-1.086v-.322h1.086v-2.553h1.625v2.553h1.085v.322h-1.085v8.016c0 .257.085.389.25.389.387 0 .657-.467.81-1.408zm6.07-2.5h-3.5v2.112c0 .63.132 1.13.395 1.499.264.369.592.552.987.552.461 0 .842-.25 1.158-.75.31-.499.513-1.203.591-2.11h.342c-.092 1.098-.321 1.907-.697 2.434s-.92.787-1.644.787c-.914 0-1.624-.413-2.117-1.249-.494-.833-.742-2.011-.742-3.537s.236-2.696.702-3.505c.466-.81 1.152-1.21 2.058-1.21.822 0 1.435.414 1.849 1.248.407.824.618 2.072.618 3.73zm-1.658-.36v-2.77c0-.48-.072-.854-.217-1.124s-.342-.408-.592-.408c-.321 0-.571.165-.756.5-.183.336-.275.776-.275 1.335v2.466zm5.228-3.77c.263-.57.711-.854 1.342-.854a1.2 1.2 0 01.869.342 1.125 1.125 0 01.36.835.968.968 0 01-.249.664.828.828 0 01-.645.277.776.776 0 01-.585-.236.76.76 0 01-.236-.56c0-.172.085-.389.249-.645.053-.079.085-.124.085-.144 0-.1-.051-.145-.164-.145-.262 0-.506.184-.73.552a2.42 2.42 0 00-.335 1.283v6.82h.894v.321h-3.412v-.322h.894v-8.55h-.894v-.321h2.518v.684zm3.945-.689c-.09-.83-.137-1.395-.137-1.71 0-.882.158-1.572.466-2.066.31-.492.737-.742 1.282-.742.356 0 .665.137.929.42.263.283.393.606.393.96a.926.926 0 01-.19.592.584.584 0 01-.46.236.673.673 0 01-.52-.23.84.84 0 01-.21-.584c0-.204.058-.383.17-.54s.172-.256.172-.29c0-.137-.118-.21-.362-.21-.203 0-.375.118-.519.363-.145.236-.217.532-.217.88 0 1.098.23 2.072.697 2.914h1.071v.322h-.894v8.549h.894v.322h-3.412v-.322h.895v-8.549h-.895v-.322h.849zm9.266 7.852c0 .466-.111.828-.335 1.085s-.546.388-.96.388c-.631 0-1.033-.323-1.21-.96-.309.637-.861.959-1.644.959a1.541 1.541 0 01-1.236-.585c-.329-.388-.486-.907-.486-1.553 0-.492.13-.927.388-1.308.256-.381.735-.802 1.445-1.262.855-.551 1.322-.92 1.408-1.091v-2.362c0-.31-.091-.559-.276-.737-.183-.177-.434-.262-.742-.262-.212 0-.409.045-.606.144s-.29.191-.29.284c0 .131.073.236.21.31.296.157.448.4.448.728a.85.85 0 01-.236.612.78.78 0 01-.585.243.866.866 0 01-.664-.276.974.974 0 01-.259-.684c0-.427.219-.82.664-1.164.442-.349.974-.52 1.6-.52.645 0 1.204.257 1.664.777.467.52.697 1.176.697 1.973v5.695c0 .309.098.466.302.466.27 0 .408-.367.408-1.111h.308v.21zm-2.644-.369v-3.519a2.902 2.902 0 01-.551.467c-.402.29-.664.566-.79.83-.124.262-.183.584-.183.986v1.519c0 .651.23.98.697.98.196 0 .38-.118.558-.356.177-.236.27-.539.27-.907zm8.471-1.217c-.092 1.098-.29 1.881-.591 2.362-.304.472-.823.71-1.54.71-.914 0-1.624-.415-2.118-1.25-.492-.834-.742-2.013-.742-3.537 0-1.493.263-2.65.788-3.48s1.25-1.236 2.184-1.236c.546 0 1 .151 1.348.454.349.302.526.717.526 1.256a.993.993 0 01-.256.697.836.836 0 01-.638.282.74.74 0 01-.527-.23.73.73 0 01-.236-.539.87.87 0 01.164-.532.698.698 0 01.409-.284c.202-.032.301-.104.301-.21 0-.132-.104-.257-.31-.375-.208-.118-.466-.177-.78-.177-.343 0-.632.177-.875.533-.243.354-.362.788-.362 1.301v4.927c0 .63.131 1.13.393 1.498.264.37.593.553.988.553.434 0 .782-.223 1.039-.678.256-.453.42-1.13.5-2.038h.335zm6.497-1.447h-3.498v2.112c0 .63.131 1.13.393 1.499.264.369.593.552.988.552.46 0 .842-.25 1.158-.75.31-.499.513-1.203.591-2.11h.342c-.092 1.098-.322 1.907-.697 2.434-.376.526-.92.787-1.644.787-.914 0-1.624-.413-2.118-1.249-.493-.833-.743-2.011-.743-3.537s.237-2.696.704-3.505c.466-.81 1.15-1.21 2.058-1.21.822 0 1.434.414 1.849 1.248.407.824.618 2.072.618 3.73zm-1.657-.36v-2.77c0-.48-.072-.854-.217-1.124-.144-.27-.342-.408-.592-.408-.321 0-.572.165-.756.5-.184.336-.276.776-.276 1.335v2.466zm15.795-8.51h-.934v12.922h.915v.321h-3.603v-.321h.913V102.06h-.04l-2.235 12.895h-.407l-2.302-13.179h-.039v11.798c0 .394.065.67.197.83s.368.235.717.235v.322h-2.217v-.322c.342 0 .58-.078.71-.236.139-.157.205-.434.205-.829v-11.858h-.915v-.321h3.072l1.467 8.622h.039l1.466-8.622h2.984v.315zm6.755 11.902c0 .467-.113.828-.336 1.085s-.545.388-.96.388c-.631 0-1.032-.322-1.21-.96-.31.638-.861.96-1.643.96a1.541 1.541 0 01-1.238-.585c-.328-.388-.486-.908-.486-1.553 0-.492.132-.927.388-1.308.257-.382.737-.802 1.447-1.262.855-.553 1.322-.922 1.406-1.091v-2.363c0-.308-.09-.558-.274-.736-.185-.177-.434-.263-.744-.263-.21 0-.407.046-.605.145-.197.098-.29.191-.29.283 0 .131.073.236.211.309.296.157.447.4.447.73 0 .243-.079.447-.236.611s-.356.244-.585.244a.87.87 0 01-.664-.277.97.97 0 01-.258-.684c0-.427.217-.82.664-1.164.44-.349.974-.519 1.599-.519.644 0 1.203.257 1.665.777.465.518.697 1.176.697 1.972v5.694c0 .31.097.467.302.467.27 0 .407-.368.407-1.11h.31v.21zm-2.644-.369v-3.518c-.113.132-.296.29-.552.467-.401.29-.664.566-.79.828-.125.264-.184.585-.184.987v1.519c0 .652.231.98.698.98.197 0 .38-.117.558-.355s.27-.54.27-.908zm6.3 1.71h-3.092v-.321h.895V101.71h-.895v-.323h2.52v13.245h.572zm4.196 0h-3.158v-.321h.606l-2.013-4.88 1.645-2.157c.453-.599.697-.934.73-1.02a.643.643 0 00.052-.23c0-.171-.112-.263-.336-.263h-.467v-.322h2.388v.322h-.322c-.296 0-.56.146-.79.434l-1.61 2.144 2.518 5.965h.763v.328zm5.411-4.373h-3.498v2.111c0 .631.131 1.13.393 1.5.264.367.593.55.988.55.46 0 .842-.248 1.158-.747.31-.5.513-1.204.592-2.112h.342c-.093 1.098-.323 1.907-.698 2.433-.376.527-.92.79-1.644.79-.914 0-1.624-.415-2.118-1.25-.493-.834-.742-2.012-.742-3.538s.236-2.695.703-3.504c.467-.81 1.15-1.21 2.058-1.21.822 0 1.434.414 1.849 1.248.407.824.619 2.072.619 3.73zm-1.657-.362v-2.767c0-.48-.072-.855-.217-1.125-.144-.27-.342-.409-.592-.409-.321 0-.572.165-.756.501-.184.335-.276.776-.276 1.334v2.466zm5.228-3.767c.263-.573.71-.855 1.342-.855.342 0 .63.112.868.342s.362.506.362.834a.969.969 0 01-.25.664.827.827 0 01-.644.277.776.776 0 01-.585-.236.76.76 0 01-.237-.56c0-.17.085-.388.249-.644.053-.079.085-.125.085-.145 0-.098-.052-.144-.164-.144-.263 0-.506.183-.73.552a2.42 2.42 0 00-.335 1.283v6.818h.894v.323h-3.413v-.323h.894v-8.549h-.894v-.321h2.52v.684zm87.354 14.48a3.176 3.176 0 00-2.025-4.017 3.176 3.176 0 00-4.018 2.025 3.176 3.176 0 002.025 4.018 3.183 3.183 0 004.018-2.025zm-25.91 10.088a1.247 1.247 0 00.796 1.579 1.248 1.248 0 001.578-.797 1.248 1.248 0 00-.796-1.578 1.25 1.25 0 00-1.578.796zm14.138-2.578a2.306 2.306 0 10-2.914 1.467 2.31 2.31 0 002.914-1.467zm-50.445-32.25a.695.695 0 10-1.31-.466.695.695 0 101.309.467zm-.574 6.3a1.278 1.278 0 00-.776-1.636 1.276 1.276 0 00-1.636.776 1.281 1.281 0 002.414.862zm1.199 5.058a1.772 1.772 0 00-2.263 1.065 1.772 1.772 0 001.066 2.262 1.772 1.772 0 002.26-1.065 1.766 1.766 0 00-1.063-2.261zm47.61 2.164l10.377-10.719a1.168 1.168 0 00-.026-1.658 1.168 1.168 0 00-1.657.027c-.04.045-.086.092-.119.144z" class="st3"/><path d="M312.637 120.25a26.625 26.625 0 01-2.847 1.29c8.226-2.815 14.763-8.463 20.8-13.686l1.71-1.472v-.007l.007-.006c6.082-5.222 11.974-9.851 18.82-10.338.362-.026.723-.04 1.092-.04 9.042-.045 16.4 6.748 16.756 15.461.289 7.148-5.274 13.192-12.443 13.495a10.394 10.394 0 01-7.51-2.762 10.388 10.388 0 01-3.36-7.268c-.184-4.563 3.308-8.442 7.84-8.758.085-.007.17-.013.256-.013v.006a1.446 1.446 0 011.447 1.421 1.227 1.227 0 01-1.217 1.243 1.046 1.046 0 01-1.06-1.04.926.926 0 01.488-.847 7.69 7.69 0 00-6.997 7.962 9.63 9.63 0 003.116 6.741 9.648 9.648 0 006.97 2.565 12.16 12.16 0 008.497-3.926 12.136 12.136 0 003.23-8.786c-.336-8.312-7.366-14.788-16-14.742-3.77.019-7.255 1.387-10.648 3.477-.112.073-.236.139-.342.212-.045.026-.092.058-.131.085-1.894 1.355-2.861 3.327-2.736 5.168 0 0-4.076-.019-7.792 3.164-7.8 6.74-16.46 14.026-28.513 15.105.112.007.23 0 .342.007-.821.026-1.645.045-2.374.059-.165-.026-.33-.059-.5-.086 6.05-.677 8.923-1.67 13.1-3.682z" class="st3"/><path d="M283.983 87.504l.98.007c-3.446 4.221-5.234 9.462-5.116 15.526.225 11.383 9.667 20.465 21.05 20.241a16.537 16.537 0 002.57-.256c4.13-.973 5.873-2.802 6.124-5.471 0 0 5.647-2.861 7.076-7.326a16.492 16.492 0 00.354-3.716 12.982 12.982 0 00-4.01-9.173 12.984 12.984 0 00-9.327-3.65 10.32 10.32 0 00-7.285 3.183 10.313 10.313 0 00-2.9 7.405c.085 4.412 3.643 7.943 8.01 8.061a.956.956 0 01-.533-.82 1.045 1.045 0 011-1.092 1.238 1.238 0 011.282 1.177 1.44 1.44 0 01-1.355 1.498v.007h-.027a8.924 8.924 0 01-6.378-2.506 8.921 8.921 0 01-2.757-6.3 11.055 11.055 0 013.112-7.936 11.056 11.056 0 017.813-3.414 13.722 13.722 0 019.856 3.861 13.73 13.73 0 014.242 9.699c.099 4.978-1.953 9.503-5.28 12.705l-.02.039-.04.02a17.172 17.172 0 01-6.122 3.781 17.162 17.162 0 01-1.657.48l-.033.02-.013-.007c-1.19.284-2.419.461-3.689.487-11.798.23-21.583-9.18-21.814-20.978-.111-6.036 1.592-11.283 4.887-15.552z" class="st3"/><path d="M296.088 130.5v.02c-.144-.014-.275-.04-.42-.053a14.194 14.194 0 01-1.512-.185l-.027-.012c-10.694-1.677-18.275-8.97-21.333-20.059l.08.468c-.073-.257-.145-.52-.218-.776-.007-.098-.007-.191-.012-.282l.716-.257c2.696 10.468 9.416 17.597 18.992 19.8 1.769.205 3.308-.585 3.308-.585s2.242 1.507 4.28 1.96c.013.007-1.946.079-3.853-.04zm59.793-35.248c1.67.118 3.352.316 4.984.789 1.638.454 3.228 1.072 4.794 1.763a.763.763 0 01.185.112.945.945 0 01.191 1.328.947.947 0 01-1.33.191l-.006-.007c-1.295-.966-2.677-1.828-4.156-2.48-1.48-.637-3.058-1.157-4.696-1.21-3.267-.164-6.49.77-9.481 2.105h-.007c-.086.04-.171.014-.243-.033l2.117-1.315c2.17-.684 5.36-1.395 7.648-1.243zm-75.363 6.866c.368 1.631.816 3.268 1.526 4.814.69 1.552 1.546 3.032 2.466 4.477a.828.828 0 00.138.165.947.947 0 001.341-.013.946.946 0 00-.013-1.342l-.006-.007c-1.15-1.13-2.21-2.367-3.078-3.735-.848-1.368-1.604-2.854-1.9-4.458-.658-3.208-.21-6.53.658-9.693v-.007c.026-.092-.013-.17-.066-.236l-1.144 3.261c-.356 2.244-.421 4.538.078 6.773zM33.941 83.955c-3.814-.027-6.201-2.124-6.201-2.124-.869 1.15-2.44 1.808-4.248 1.637l-.125-.02a6.09 6.09 0 01-.31-.052c-3.064-.506-5.812-1.486-8.035-3.406-5.097-4.393-5.912-11.797-1.855-16.854 1.591-1.987 3.86-3.229 6.392-3.506s5.005.447 7.003 2.039a7.479 7.479 0 012.782 5.077 7.507 7.507 0 01-1.618 5.556A5.99 5.99 0 0119.54 73.4a.722.722 0 00.716-.25.82.82 0 00-.092-1.15.952.952 0 00-1.348.112 1.13 1.13 0 00.118 1.577c.053.04.105.086.158.125 2.821 2.131 6.86 1.637 9.089-1.137a8.089 8.089 0 001.742-5.985 8.088 8.088 0 00-2.999-5.464c-4.366-3.492-10.726-2.788-14.218 1.558-4.254 5.3-3.406 13.061 1.934 17.663.217.185.44.363.664.534 4.267 3.22 10.1 3.51 16.349 3.557h.005c.585.006 1.17.006 1.756.006.612 0 1.223.006 1.842.006l.02-.585c-.44-.013-.889-.013-1.335-.013zm7.983.02H35.38v.578h7.042a21.014 21.014 0 01-.5-.579zm325.361-21.202c-3.49-4.345-9.85-5.05-14.217-1.558a8.085 8.085 0 00-2.998 5.464 8.091 8.091 0 001.743 5.985c2.229 2.775 6.266 3.269 9.088 1.137.053-.039.105-.079.157-.124a1.122 1.122 0 00.118-1.578.957.957 0 00-1.347-.113.813.813 0 00-.093 1.152c.185.216.467.315.718.25a5.99 5.99 0 01-8.188-1.1 7.512 7.512 0 01-1.617-5.557 7.54 7.54 0 012.787-5.076 9.486 9.486 0 017.005-2.038 9.47 9.47 0 016.392 3.505c4.057 5.057 3.242 12.454-1.855 16.855-2.222 1.92-4.972 2.9-8.036 3.406-.105.02-.21.04-.31.053l-.123.02c-1.81.17-3.387-.487-4.25-1.637 0 0-2.387 2.098-6.2 2.124-.448 0-.895.006-1.341.006v.02H82.368l-.27.578h266.31v-.033c6.222-.045 12.028-.349 16.283-3.557.224-.171.448-.349.664-.533 5.34-4.59 6.181-12.35 1.933-17.65z" class="st3"/><path d="M187.863 26.242l-.02.08c-.152.446-.493.748-.874.781-.164.014-.572-.019-.855-.525-.263-.31-.809-.361-1.23-.277-.624.106-1.058.375-1.354.836-.625.966-.625 2.834-.014 5.13l4.34 14.261c1.992-.15 3.019-.781 3.019-1.874 0-.368.099-.61.224-.768l-2.184-7.175c-.513-1.913-1.276-6.123 1.789-6.635.31-.06.651-.066.967.013.02.013.032.027.052.04.02.013.04.033.06.039.019.013.04.033.058.039.02.013.04.034.06.04.019.013.04.033.058.039.02.013.04.033.06.04.02.013.04.033.06.038.019.014.04.034.058.041.02.012.04.034.06.04.019.013.04.033.058.039.02.013.04.033.06.04.02.013.04.033.06.038.019.014.039.034.058.04.02.013.04.034.06.04.019.013.04.033.058.039.014.006.02.02.034.027.25.309.56.072.677-.27.197-1.17-.58-2.487-1.578-3.216L187.6 24.5c-.007 0-.007-.007-.013-.007.256.48.382 1.125.275 1.75zm-8.16 19.886l-3.52-11.376c-.735 3.262-1.465 6.596-2.103 9.883l-.533 2.138c1.999-.678 4.169-.717 6.156-.645zm-7.432-21.951c.007 0 .007.006.013.006-.053-.045-.112-.08-.17-.119a.137.137 0 00.039.027c.02.013.033.033.06.04.018.019.033.04.058.046zm-10.292 6.642c.118 3.341-1.722 6.938-4.694 9.166-.698.467-1.493.895-2.473 1.343 2.873.5 4.682 1.44 6.129 3.11.098.112.197.236.296.355a15.476 15.476 0 001.643-.927c4.467-3.347 6.762-10.555 1.263-14.586l-3.315-2.21c-.006-.006-.012-.006-.019-.013.855 1.25 1.13 2.644 1.17 3.762zm-12.066 26.245c-.842.329-1.184 1.421-1.078 2.355.118 1.065.815 2.268 2.439 2.445.841.086 1.578-.157 2.243-.73.453-.388.842-.927 1.17-1.539-.007-.005-.013-.005-.02-.012l-2.84-1.895-.02-.019c.04-3.333.106-6.91.106-9.377a7.97 7.97 0 012.794-.19c-1.493-2.71-5.037-4.308-8.18-3.69-.007 1.585-.033 3.544-.06 5.61a938.599 938.599 0 00-.066 5.78 3.653 3.653 0 012.263-.75l.106.013c.742.152 1.537.585 1.683 1.217a.582.582 0 01.032.506c-.118.21-.394.264-.571.276zm132.75-33.15l.177.119c.006.006.013.006.013.012a1.64 1.64 0 00-.31-.217l.06.04c.02.02.04.033.06.046zm43.151 38.582h4.058c.467 0 .889-.047 1.303-.106-.04-4.354-.1-8.726-.1-13.165h1.803a1.484 1.484 0 01-.21-.48c-.546-1.966-2.335-3.294-4.453-3.294h-2.526c0 2.9.034 5.8.067 8.608.026 2.768.053 5.622.058 8.438zm-30.755-39.72v-.039h-.034c-.137.585-.69.768-.972.867l-.131.026c-1.953.132-2.052 2.762-2.052 3.289v14.315l.499-.25c1.474-.578 3.15-.788 4.886-.815v-8.937c0-.934.205-1.986.718-2.755a2.775 2.775 0 011.269-.967 2.537 2.537 0 01.566-.104c.38-.125.637-.257.637-.638v-.257h-.06v-.039h-.059v-.04h-.058v-.039h-.06v-.04h-.058v-.039h-.06v-.039h-.06v-.04h-.058v-.04h-.06v-.04h-.06v-.039h-.058v-.039h-.06v-.04h-.058v-.039h-.06v-.039h-.06v-.04h-.058v-.039h-.06v-.04h-.058v-.039h-.06v-.039h-.06v-.04h-.058v-.04h-.06v-.04h-.058v-.039h-.06v-.039h-.06v-.04h-.058v-.039h-.06v-.039h-.059v-.04h-.058v-.039h-.06v-.04h-.058v-.039h-.06v-.039h-.06v-.04h-.058v-.039h-.06v-.04h-.058v-.04h-.06v-.039h-.06v-.04h-.058v-.039h-.06v-.039h-.058v-.04h-.06v-.039h-.06v-.04h-.058v-.039h-.06v-.039h-.058v-.04h-.06v-.039h-.06v-.04h-.058v-.04h-.06v-.039h-.06v-.04h-.058v-.039h-.06v-.039h-.058v-.04h-.06v-.039h-.059v-.04h-.058v-.039h-.06v-.039h-.059v-.04h-.06v-.039h-.059v-.039h-.058v-.04h-.06v-.04h-.058v-.04h-.06v-.039h-.06v-.039h-.058v-.04h-.06v-.039h-.06v-.04h-.058v-.039h-.06v-.039h-.058v-.04h-.06v-.039h-.06v-.039h-.058v-.04h-.06v-.04h-.058v-.04h-.06v-.039h-.06v-.039h-.058v-.04h-.06v-.039h-.058v-.04h-.06v-.039h-.06v-.039h-.058v-.04h-.06v-.039h-.058v-.039h-.06v-.04h-.059V23h-.058v-.04h-.06zm6.366 1.11c.02.014.033.034.059.04.02.014.034.034.06.04.019.013.032.033.058.039.02.013.034.034.06.04.02.013.033.033.06.04.018.012.032.032.058.04.02.013.033.033.06.038.012.007.025.02.039.026a1.789 1.789 0 00-.599-.42l.026.02c.02.012.034.032.06.04.019.033.033.044.06.058zm38.647 18.44v-.039h-.06v-.04h-.059v-.037h-.058v-.04h-.06v-.04h-.06v-.039h-.058v-.039h-.06v-.04h-.058v-.039h-.06v-.039h-.06v-.04h-.058v-.039h-.06v-.04h-.058v-.04h-.06v-.039h-.06v-.04h-.058v-.039h-.06v-.04h-.058v-.039h-.06v-.039h-.06v-.04h-.058v-.039h-.06v-.039h-.058v-.04h-.06v-.039h-.06v-.04h-.058v-.04h-.06v-.039h-.059v-.04h-.058v-.039h-.06v-.04h-.058v-.039h-.06v-.039h-.06v-.04h-.058v-.039H338v-.039h-.058v-.04h-.06v-.039h-.06v-.04h-.058v-.042h-.06v-.04h-.058v-.039h-.06v-.039h-.06v-.04h-.058v-.039h-.06v-.04h-.06v-.039h-.058v-.039h-.06v-.04h-.058v-.039h-.06v-.039h-.06v-.04h-.058v-.039h-.06v-.04h-.058v-.04h-.06v-.039h-.059v-.04h-.058v-.039h-.06v-.04h-.059v-.037h-.06v-.04h-.059v-.04h-.058v-.039h-.06v-.039h-.058v-.04h-.06v-.039h-.06v-.039h-.058v-.04h-.06v-.04h-.06v-.04h-.058v-.039h-.06v-.039h-.058v-.04h-.06v-.039h-.06v-.04h-.058v-.039h-.06v-.039h-.058v-.04h-.06v-.039h-.06v-.039h-.058v-.04h-.06v-.04h-.058v-.04h-.06v-.039h-.06v-.039h-.058v-.04h-.06v-.039h-.058v-.04h-.06v-.039h-.059v-.039h-.058V49.66h-.632a.137.137 0 00.04.026l1.657 1.105a.137.137 0 00.04.027c.321-.27.762-.5 1.262-.506 1.222-.118 2.236.558 3.018 1.532v-9.582h-.059zm-3.255-12.093c.04-.664-.086-1.328-.368-1.73-.908-1.295-3.367-2.064-6.576-2.064h-4.058c-.006 2.571-.033 5.142-.065 7.635-.027 2.491-.06 5.056-.066 7.621h2.525a4.654 4.654 0 002.9-.986c.04-3.492.086-6.97.086-10.502h4.596c.355 0 .697.007 1.026.026zm-20.505-6.266c.014.019.04.025.06.039.014.02.04.026.059.04.013.018.039.025.06.039.013.019.039.026.059.04.012.018.04.025.058.038.014.02.04.026.06.04.013.02.04.026.06.04.012.02.039.025.058.039.014.02.04.027.06.039.006.007.012.007.019.013a1.906 1.906 0 00-.619-.434l.008.007c.012.034.04.046.058.06zm-35.904-1.151c-.073.289-.263.486-.434.65-.31.375-.25.98.23 1.927.803 1.467 1.092 3.137.816 4.676-.434 1.743-2.204 4.025-4.354 3.892.007.008.013.014.026.014l4.913 3.274c.223.171.519.31.855.31.506.066.999-.04 1.452-.257V26.741c-.058-.782-.196-1.427-.4-1.94a.155.155 0 00-.06-.039l-.058-.04-.12-.078-.058-.04-.06-.039-.058-.04-.06-.039-.06-.04-.058-.04-.06-.039-.058-.04-.12-.078-.058-.04-.06-.039-.058-.04-.12-.078-.058-.04-.119-.078-.058-.04-.06-.04-.058-.04-.12-.078-.058-.04-.06-.039-.058-.04-.12-.078-.058-.04-.06-.039-.058-.039-.06-.04-.06-.04-.058-.04-.06-.039-.058-.039-.12-.079-.058-.04-.12-.078-.058-.04-.06-.039-.058-.039-.119-.079-.058-.04-.06-.04c-.012.072-.02.072-.026.067zm-69.693.09v-.039h-.025c-.093.488-.435.758-.987.763-1.782.244-2.052 2.243-2.052 3.42v35.32h4.058c.472 0 .908-.052 1.327-.138V31.358c0-1.657.514-3.703 2.553-3.959.381 0 .513-.125.513-.513v-.257h-.06v-.039h-.06v-.04h-.058v-.039h-.06v-.039h-.058v-.04h-.06v-.039h-.06v-.04h-.058v-.039h-.06v-.039h-.058v-.04h-.06v-.04h-.06v-.04h-.058v-.039h-.06v-.039h-.058v-.04h-.06v-.039h-.059v-.039h-.058v-.04h-.06v-.039h-.06v-.04h-.058v-.039h-.06v-.039h-.058v-.04h-.06v-.04h-.06v-.04h-.058v-.039h-.06v-.039h-.058v-.04h-.06v-.039h-.06v-.038h-.058v-.04h-.06v-.04h-.058v-.04h-.06v-.039h-.06v-.039h-.058v-.04h-.06v-.039h-.058v-.039h-.06v-.04h-.06v-.039h-.058v-.04h-.06v-.039h-.059v-.039h-.058v-.04h-.06v-.04h-.059v-.04h-.06v-.039h-.059v-.039h-.058v-.04h-.06v-.039h-.058v-.039h-.06v-.04h-.06v-.039h-.058v-.04h-.06v-.039h-.058v-.039h-.06v-.04h-.06v-.04h-.058v-.04h-.06v-.039h-.06v-.039h-.058v-.04h-.06v-.039h-.058v-.039h-.06v-.04h-.06v-.039h-.058v-.04h-.06v-.039h-.058v-.039h-.06v-.04h-.06v-.039h-.058v-.04h-.06v-.04h-.058v-.039h-.06v-.04h-.059v-.039h-.058v-.039h-.06v-.04h-.059v-.039h-.06v-.04h-.059v-.039h-.058v-.039h-.06v-.04h-.06v-.039h-.058v-.04h-.06v-.04h-.058v-.039h-.06v-.04h-.06v-.039h-.058v-.039h-.06zm30.618 23.22l-3.517-11.375c-.73 3.249-1.467 6.57-2.104 9.884l-.533 2.138c1.999-.678 4.169-.717 6.154-.645zM198.365 23.96c.02.02.04.027.06.04.02.02.04.026.06.04.019.019.039.025.058.039a.137.137 0 00.04.026 1.82 1.82 0 00-.316-.223c.013.006.026.02.04.026.019.026.04.04.058.053zm-5.156 21.273c.139.501.192 1.08.132 1.71-.164 1.895-1.151 3.834-2.354 4.637-.388.362-.9.591-1.335.73.855 3.124 1.835 6.182 2.789 9.147.565 2.117 1.623 3.282 3.241 3.584.362.014.723.192.894.612.152-.362.488-.598.929-.612a.187.187 0 00.058-.013c-.92-2.894-1.842-5.794-2.65-8.798.637-.126 1.275-.382 1.658-.765 1.789-1.15 3.064-5.358 1.4-6.89a.408.408 0 00-.124-.093l-4.617-3.078c0-.157-.007-.164-.02-.17zm77.776 16.71c-1.991-4.354-2.182-10.574-2.182-14.132 0-5.996.637-10.463 1.913-13.402 1.045-2.61 3.255-4.07 5.557-4.379.039-.652-.1-1.276-.394-1.612-1.283-1.67-3.316-2.472-5.479-2.17-2.308.316-4.215 1.835-5.103 4.058-1.249 2.866-1.874 7.306-1.874 13.198-.006 11.732 2.539 17.92 7.562 18.44zm-21.483-35.7l-.02.078c-.15.448-.492.75-.873.783-.164.014-.573-.02-.855-.526-.257-.31-.816-.362-1.23-.276-.624.105-1.058.375-1.354.835-.625.967-.625 2.835-.014 5.135l4.34 14.265c1.992-.152 3.019-.783 3.019-1.875 0-.368.098-.61.223-.77l-2.183-7.174c-.513-1.913-1.276-6.122 1.789-6.635.31-.058.65-.065.967.014.02.013.032.025.052.039.02.013.04.034.059.04.02.013.039.033.06.039.02.013.039.033.059.04.019.013.04.033.058.038.02.014.04.034.06.04.02.013.04.034.058.04.02.013.04.033.06.039.02.013.04.033.06.039.019.013.04.034.058.04.02.013.04.034.06.04.019.013.04.034.058.04.02.013.04.033.06.039.02.013.04.033.06.039.019.013.039.034.058.04.014.006.02.02.034.026.25.309.558.072.677-.27.197-1.17-.58-2.486-1.578-3.216l-4.084-2.723c-.007 0-.007-.005-.014-.005.257.472.375 1.117.276 1.742zm-15.598-2.065c.007 0 .007.006.013.006a2.922 2.922 0 00-.177-.124.118.118 0 00.046.032c.02.013.034.033.06.04.019.019.033.04.058.046zm107.098-1.414v-.027a.14.14 0 01-.08-.02c-.044.146-.11.264-.163.362-.02.04-.045.079-.066.125l-.066.105c-.472.566-.223 1.382.066 1.967.92 1.835 1.184 3.46.81 4.965-.41 1.775-2.145 4.156-4.269 3.985.007 0 .007.006.014.006l4.911 3.275c.243.171.579.316.915.316 1.789.257 3.446-1.914 3.827-3.57.382-1.533 0-3.065-.763-4.597-.382-.763-.637-1.79 0-2.552.124-.256.257-.382.257-.763a.132.132 0 01-.06-.013V26.3a.132.132 0 01-.06-.014v-.025a.132.132 0 01-.058-.014v-.026a.132.132 0 01-.06-.013v-.027a.132.132 0 01-.058-.013v-.027a.132.132 0 01-.06-.012v-.027a.132.132 0 01-.06-.012v-.027a.132.132 0 01-.058-.013v-.027a.132.132 0 01-.06-.012v-.027a.132.132 0 01-.059-.014v-.026a.132.132 0 01-.058-.013v-.026a.132.132 0 01-.06-.013v-.026a.132.132 0 01-.059-.014v-.026a.132.132 0 01-.06-.013v-.026a.132.132 0 01-.059-.014v-.025a.132.132 0 01-.058-.014v-.026a.132.132 0 01-.06-.013v-.026a.132.132 0 01-.058-.014v-.027a.132.132 0 01-.06-.012v-.027a.132.132 0 01-.06-.012v-.027a.132.132 0 01-.058-.013v-.027a.132.132 0 01-.06-.012v-.027a.132.132 0 01-.058-.014v-.026a.132.132 0 01-.06-.013v-.026a.132.132 0 01-.06-.013v-.026a.132.132 0 01-.058-.014v-.026a.132.132 0 01-.06-.013v-.026a.132.132 0 01-.06-.014v-.025a.132.132 0 01-.058-.014v-.026a.132.132 0 01-.06-.013v-.026a.132.132 0 01-.058-.014v-.026a.132.132 0 01-.06-.013v-.027a.132.132 0 01-.06-.012v-.027a.132.132 0 01-.058-.013v-.028a.132.132 0 01-.06-.012v-.027a.132.132 0 01-.058-.013v-.027a.132.132 0 01-.06-.013v-.026a.132.132 0 01-.06-.014v-.025a.132.132 0 01-.058-.014V24.8a.132.132 0 01-.06-.013v-.026a.132.132 0 01-.058-.014v-.026a.132.132 0 01-.06-.013v-.026a.132.132 0 01-.059-.013v-.026a.132.132 0 01-.058-.014v-.026a.132.132 0 01-.06-.013v-.027a.132.132 0 01-.059-.013v-.027a.132.132 0 01-.06-.012v-.027a.132.132 0 01-.059-.012v-.027a.132.132 0 01-.058-.013v-.027a.132.132 0 01-.06-.012v-.027a.132.132 0 01-.06-.014v-.025a.132.132 0 01-.058-.014v-.026a.132.132 0 01-.06-.013v-.026a.132.132 0 01-.058-.014v-.024a.132.132 0 01-.06-.014v-.026a.132.132 0 01-.06-.013v-.026a.132.132 0 01-.058-.014v-.026a.132.132 0 01-.06-.013v-.026a.132.132 0 01-.058-.013v-.027a.132.132 0 01-.06-.013v-.027a.132.132 0 01-.06-.012v-.027a.132.132 0 01-.058-.013v-.027a.132.132 0 01-.06-.012v-.027a.132.132 0 01-.058-.013v-.026a.132.132 0 01-.06-.014v-.026a.132.132 0 01-.06-.013v-.026a.132.132 0 01-.058-.014v-.025a.132.132 0 01-.06-.014v-.026a.132.132 0 01-.058-.013v-.026a.132.132 0 01-.06-.014v-.026a.132.132 0 01-.06-.013v-.026a.132.132 0 01-.058-.013V23.5a.132.132 0 01-.06-.014v-.027a.132.132 0 01-.059-.012v-.027a.132.132 0 01-.058-.013v-.027a.132.132 0 01-.06-.012v-.027a.132.132 0 01-.058-.012v-.027a.132.132 0 01-.06-.014v-.026a.132.132 0 01-.06-.013v-.026a.132.132 0 01-.058-.014v-.025a.132.132 0 01-.06-.014v-.026a.132.132 0 01-.058-.013v-.026a.132.132 0 01-.06-.014v-.026a.132.132 0 01-.06-.013v-.027a.132.132 0 01-.058-.014v-.025a.132.132 0 01-.06-.014v-.026a.132.132 0 01-.058-.013v-.026a.132.132 0 01-.06-.014v-.026a.132.132 0 01-.06-.013v-.026a.132.132 0 01-.058-.013v-.026c-.034-.014-.053-.02-.066-.027z" class="st2"/><path d="M180.495 54.96a15.9 15.9 0 011.834-.06l-.907-3.026c-2.21-.486-4.32-.92-6.8-.682-1.69.19-2.34 1.032-2.38 1.696-.026.473.23.848.663.947l.08.026c.197.079.663.21.986-.157.184-.421.506-.48.644-.48h.02c.54 0 .81.598.928.888.38.597.492 1.334.309 1.98-.145.498-.533 1.203-1.586 1.689l-.052.02c-.486.157-1.341.282-2.288.15l-.231-.065c-.177-.06-.388-.124-.604-.225l-.862 4.079c-.328 1.794-.145 2.728.605 3.11.197.098.394.197.526.197.506 0 1.046.31 1.046 1.177v.664h-11.028v-.664c0-.848.52-1.165 1.012-1.177 2.013-.25 2.789-2.052 3.085-3.525l2.32-10.527a12.753 12.753 0 00-1.36-1.902 7.954 7.954 0 00-1.368-1.255c-.034-.02-.059-.046-.093-.066L161.8 45.64l-.006-.007c1.077 1.532 2.11 3.71 2.34 7.136.138 5.575-1.092 9.382-3.761 11.673-3.354 2.709-10.509 3.597-14.224 1.13-.348.671-1.131 1.317-2.768 1.546l-.04.007h-21.885v-.796c0-.664.354-1.032 1.005-1.047a1.928 1.928 0 001.052-.498l1.007-4.255V33.442l-7.97 33.807h-2.52c0 .013.007.027.007.04h.053c0 .013.007.026.007.04h.052c0 .012.006.025.006.039h.053c0 .013.007.026.007.04h.053c0 .013.006.025.006.039h.052c0 .013.007.026.007.04h.053c0 .013.007.025.007.038h.052c0 .014.006.027.006.04h.053c0 .013.007.027.007.04h.053c0 .013.005.026.005.039h.054c0 .013.007.027.007.039h.052c0 .013.007.027.007.04h.053c0 .013.006.026.006.039h.053c0 .013.006.027.006.04h.053c0 .013.006.026.006.04h.053c0 .012.007.025.007.039h.052c0 .012.007.026.007.04h.052c0 .013.007.025.007.039h.053c0 .013.006.026.006.04h.053c0 .013.006.025.006.038h.053c0 .014.007.026.007.04h.052c0 .013.006.027.006.04h.053c0 .013.007.026.007.039h.053c0 .013.007.027.007.039h.051c0 .013.007.027.007.04h.053c0 .013.007.026.007.039h.053c0 .013.005.027.005.04h.053c0 .013.007.026.007.038h.053c0 .014.007.027.007.041h.051c0 .012.007.026.007.04h.053c0 .013.007.025.007.039h.053c0 .013.005.026.005.04h.053c0 .013.007.025.007.038h.053c0 .014.006.026.006.04h.052c0 .013.007.026.007.04h.053c0 .013.007.026.007.039h.052c0 .013.006.027.006.039h.053c0 .013.007.027.007.04h.053c0 .013.006.026.006.039h.052c0 .013.007.027.007.04h.053c0 .013.006.026.006.038h.053c0 .014.006.027.006.04h.053c0 .013.007.027.007.04h.052c0 .013.007.026.007.04h.052c0 .013.007.026.007.04h.053c0 .013.006.025.006.038h.053c0 .014.007.026.007.04h.052c0 .013.006.026.006.04h.053c0 .013.007.026.007.039h.053c0 .013.006.027.006.039h.052c0 .013.007.027.007.04h.053c0 .013.007.026.007.039h.052c0 .013.006.027.006.04h.053c0 .013.007.026.007.038h.053c0 .014.005.027.005.04h.053c0 .013.007.027.007.04h.053c0 .013.007.026.007.04h.051c0 .012.007.026.007.04h.053c0 .013.007.025.007.038h.053c0 .014.005.026.005.04h.053c0 .013.007.026.007.04h.053c0 .013.007.025.007.039h.051c0 .013.007.027.007.039h.053c0 .013.007.027.007.04h.053c0 .013.006.026.006.039h.052c0 .013.007.027.007.04h.053c0 .013.006.026.006.038h.053c0 .014.006.027.006.04h.053c0 .013.007.027.007.04h.052c0 .013.007.026.007.04h.052c0 .012.007.026.007.04h.053c0 .013.006.025.006.038h.053c0 .014.006.026.006.04h.053c0 .013.006.026.006.04h.053c0 .013.007.025.007.039h.052c0 .013.007.025.007.039h.052c0 .013.007.027.007.04h.053c0 .013.006.026.006.039h.053c0 .013.006.027.006.04h.053c0 .013.007.026.007.038h.052c0 .014.006.027.006.04h.053c0 .013.007.027.007.04h.053c0 .013.006.026.006.039h.052c0 .013.007.027.007.04h.053c0 .012.007.026.007.04h.052c0 .013.006.025.006.039h.053c0 .013.007.026.007.04h.053c0 .013.007.025.007.039h.051c0 .013.007.025.007.039h.053c0 .013.007.027.007.04h.053c0 .013.005.026.005.039h2.678l.86-3.65h.04v.04h.06v.039h.059v.04h.058v.039h.06v.04h.059v.038h.06v.04h.059v.04h.058v.039h.06v.04h.058v.04h.06v.039h.06v.04h.058v.039h.06v.039h.058v.04h.06v.039h.06v.04h.058v.038h.06v.04h.06v.04h.058v.039h.06v.039h.058v.04h.06v.04h.06v.04h.058v.039h.06v.039h.058v.04h.06v.039h.059v.04h.059v.038h.06v.04h.058v.04h.06v.039h.059v.039h.058v.04h.06v.04h.059v.04h.06v.039h.059v.039h.058v.04h.06v.039h.06v.04h.058v.038h.06v.04h.058v.04h.06v.039h.06v.039h.058v.04h.06v.04h.058v.04h.06v.039h.06v.039h.058v.04h.06v.039h.058v.04h.06v.038h.06v.04h.058v.04h.06v.039h.058v.039h.06v.04h.059v.039h.059v.04h.06v.04h.059v.039h.058v.04h.06v.039h.058v.04h.06v.038h.06v.04h.058v.04h.06v.039h.058v.039h.06v.04h.06v.039h.058v.04h.06v.04h.058v.039h.06v.04h.06v.039h.058v.04h.06v.038h.06v.04h13.145v-.257c0-.21-.079-.335-.217-.414l-2.368-1.578-.052-.04c-.007-.013-.014-.025-.014-.039h.04v.04h.06v.039h.058v.04h.06v.039h.058v.04h.06v.038h.06v.04h.058v.04h.06v.039h.058v.039h.06v.04h.059v.04h.059v.04h.06v.039h.059v.039h.058v.04h.06v.039h.058v.04h.06v.038h.06v.04h.058v.04h.06v.039h.058v.039h.06v.04h.06v.04h.058v.04h.06v.039h.058v.039h.06v.04h.06v.039h.058v.04h.06v.038h.06v.04h.058v.04h.06v.039h.058v.039h.06v.04h.059v.039h.059v.04h.06v.04h.058v.039h.06v.04h.059v.039h.058v.04h.06v.038h.059v.04h.06v.04h.059v.039h.058v.039h.06v.04h.058v.039h.06v.04h.06v.04h.058v.039h.06v.04h.06v.039h.058v.04h.06v.038h7.404c.888-.123 2.4-.506 2.545-1.88.014.006.026.02.04.026l.591.394c3.302 2.177 9.423 1.527 12.791-.585v.034h.058v.038h.058v.04h.06v.039h.06v.04h.058v.04h.06v.04h.058v.039h.06v.039h.06v.04h.058v.039h.06v.04h.058v.038h.06v.04h.06v.04h.058v.039h.06v.039h.06v.04h.058v.04h.06v.04h.059v.039h.06v.039h.06v.04h.058v.039h.06v.04h.058v.038h.06v.04h.059v.04h.058v.039h.06v.039h.059v.04h.06v.039h.059v.04h.058v.04h.06v.039h.058v.04h.06v.039h.06v.04h.058v.038h.06v.04h.06v.04h.058v.039h.06v.039h.058v.04h.06v.039h.06v.04h9.956v-.125c0-.29-.08-.506-.284-.591-.02-.014-.034-.034-.06-.04-.019-.013-.033-.034-.058-.04-.02-.013-.034-.033-.06-.039-.02-.013-.033-.033-.06-.04-.018-.012-.032-.033-.058-.04-.02-.012-.034-.033-.06-.039-.019-.013-.033-.034-.058-.04-.02-.013-.034-.033-.06-.039-.02-.013-.033-.033-.06-.039-.018-.013-.032-.034-.058-.04-.02-.013-.033-.033-.06-.039-.018-.013-.033-.033-.059-.039-.02-.014-.033-.034-.058-.04-.02-.013-.034-.033-.06-.039-.02-.013-.033-.034-.059-.04-.02-.013-.033-.033-.06-.039-.018-.013-.033-.033-.059-.039-.019-.013-.032-.034-.058-.04-.02-.013-.034-.033-.06-.04-.02-.013-.033-.034-.058-.04-.02-.013-.034-.033-.06-.039-.02-.013-.034-.033-.06-.039-.019-.013-.032-.034-.058-.04-.02-.013-.033-.033-.06-.039-.019-.013-.032-.033-.058-.039-.02-.014-.034-.034-.06-.04-.02-.013-.033-.033-.06-.039-.019-.013-.032-.034-.058-.04-.02-.013-.033-.033-.06-.039-.019-.013-.032-.033-.058-.039-.02-.013-.034-.034-.06-.04-.02-.013-.026-.033-.053-.04-.275-.776-.17-1.775-.006-2.676l1.012-4.82c.014.006.027.02.04.026l.177.118c.027.02.053.034.079.053.046.026.092.045.132.072.06.034.118.065.177.092.237.105.467.171.672.237.894.125 1.657 0 2.044-.124 1.658-.764 1.532-2.171 1.02-2.934-.131-.335-.263-.527-.382-.578a.155.155 0 00-.059-.04.155.155 0 00-.06-.039.155.155 0 00-.058-.04.155.155 0 00-.06-.039.155.155 0 00-.059-.04.155.155 0 00-.058-.039.155.155 0 00-.06-.04.155.155 0 00-.059-.04.155.155 0 00-.06-.039.155.155 0 00-.059-.04.155.155 0 00-.058-.039.155.155 0 00-.06-.039.155.155 0 00-.058-.04.155.155 0 00-.06-.039.155.155 0 00-.06-.039.155.155 0 00-.058-.04.155.155 0 00-.06-.039.155.155 0 00-.058-.04.155.155 0 00-.06-.039.155.155 0 00-.06-.04.155.155 0 00-.058-.04.155.155 0 00-.06-.039.155.155 0 00-.06-.04.155.155 0 00-.058-.039.155.155 0 00-.06-.039.155.155 0 00-.058-.04.155.155 0 00-.06-.039.155.155 0 00-.06-.039.155.155 0 00-.058-.04.155.155 0 00-.06-.039.155.155 0 00-.058-.04.155.155 0 00-.06-.039.155.155 0 00-.06-.039.155.155 0 00-.058-.04.155.155 0 00-.06-.04.155.155 0 00-.058-.04.155.155 0 00-.06-.039.155.155 0 00-.059-.039.155.155 0 00-.058-.04.155.155 0 00-.06-.039.155.155 0 00-.059-.039.155.155 0 00-.06-.04.155.155 0 00-.059-.039.155.155 0 00-.058-.04c-.02-.013-.04-.033-.053-.039.427-.362 1.236-.875 2.545-1.02zm-68.056 15.144c-.014-.02-.04-.026-.06-.04-.012-.02-.04-.025-.058-.039-.014-.02-.04-.026-.06-.04-.012-.02-.04-.026-.058-.039-.014-.02-.04-.027-.06-.039-.014-.02-.04-.027-.06-.04-.012-.02-.04-.026-.058-.039-.014-.02-.04-.027-.06-.039-.013-.02-.04-.027-.058-.04-.014-.02-.04-.026-.06-.039-.013-.02-.04-.027-.06-.04-.012-.02-.039-.026-.058-.04-.014-.019-.04-.026-.06-.039-.013-.02-.04-.026-.058-.04-.014-.019-.04-.025-.06-.039-.013-.02-.04-.026-.06-.04-.012-.02-.039-.025-.058-.039-.013-.02-.04-.027-.06-.039-.013-.02-.039-.027-.06-.04-.012-.02-.039-.026-.058-.039-.013-.02-.04-.027-.06-.039-.012-.02-.039-.027-.058-.04-.013-.02-.04-.026-.06-.039-.013-.02-.039-.027-.06-.04-.011-.02-.038-.026-.058-.04-.013-.019-.039-.026-.06-.039-.012-.02-.039-.026-.058-.04-.013-.019-.04-.025-.06-.039-.013-.02-.039-.026-.059-.04-.012-.02-.04-.025-.058-.039-.014-.02-.04-.025-.06-.039-.014-.02-.04-.027-.059-.04-.013-.02-.039-.026-.06-.039-.013-.02-.039-.027-.059-.039-.012-.02-.04-.027-.058-.04-.014-.02-.04-.026-.06-.039-.013-.02-.04-.027-.058-.04-.014-.02-.04-.026-.06-.039-.014-.02-.04-.027-.06-.04-.012-.02-.04-.026-.058-.04-.014-.019-.04-.025-.06-.039-.013-.013-.04-.026-.053-.04-.31-.709-.42-1.545-.42-2.3V52.23c-1.283-5.024-2.657-10.074-4.005-15.047-.46-1.702-.927-3.4-1.374-5.076V61.83c0 1.177.27 3.177 2.05 3.42.653.013 1.013.389 1.013 1.046v.795h-10.9v-.125H83.234h.058v.04h.06v.04h.06v.038h.058v.04h.06v.04h.058v.039h.06v.039h.06v.04h.058v.039h.06v.04h.058v.038h.06v.04h.06v.04h.058v.04h.06v.04h.058v.038h.06v.04h.06v.04h.058v.039h.06v.039h.058v.04h.06v.039h.06v.04h.058v.038h.06v.04h.059v.04h.058v.04h.06v.04h.059v.038h.06v.04h.059v.04h.058v.039h.06v.039h.058v.04h.06v.039h.06v.04h.058v.038h.06v.04h.058v.04h.06v.039h.06v.04h.058v.04h.06v.039h.06v.04h.058v.039h.06v.039h.058v.04h.06v.039h.06v.04h.058v.038h.06v.04h.058v.04h.06v.039h.059v.039h.059v.04h.06v.04h.058v.04h.06v.039h.059v.039h.058v.04h.06v.039h.059v.04h.06v.038h.059v.04h.058v.04h.06v.039h.06v.039h.058v.04h.06v.04h.058v.04h.06v.039h.06v.039h.058v.04h.06v.039h.058v.04h.06v.038h.06v.04h.058v.04h.06v.039h.058v.039h.06v.04h.06v.04h.058v.04h.06v.039h.058v.039h.06v.04h.059v.039h.059v.04h.06v.038h.059v.04h.058v.04h13.147v-.125c0-.29-.079-.506-.282-.592-.02-.013-.034-.033-.06-.04-.02-.013-.033-.034-.058-.04-.02-.013-.034-.033-.06-.039-.02-.013-.034-.033-.059-.039-.02-.013-.033-.034-.06-.04-.02-.013-.033-.033-.059-.039-.019-.013-.032-.033-.058-.039-.02-.014-.034-.033-.06-.04-.02-.013-.034-.033-.06-.039-.019-.013-.032-.034-.058-.04-.02-.013-.034-.033-.06-.039-.019-.013-.032-.033-.058-.039-.02-.013-.034-.034-.06-.04-.02-.013-.034-.033-.06-.04-.019-.012-.032-.032-.058-.04-.02-.013-.034-.032-.06-.039-.019-.013-.033-.032-.058-.039-.02-.013-.034-.033-.06-.04-.02-.013-.033-.033-.06-.039-.018-.013-.032-.033-.058-.039-.02-.014-.034-.034-.06-.04-.019-.013-.033-.033-.058-.039-.02-.013-.034-.034-.06-.04-.02-.013-.033-.033-.06-.039-.018-.013-.032-.033-.058-.039-.02-.013-.033-.034-.06-.04-.018-.013-.033-.033-.059-.039-.02-.013-.033-.033-.058-.04-.02-.013-.034-.033-.06-.04-.02-.013-.033-.032-.059-.039-.02-.013-.033-.033-.06-.04-.018-.013-.033-.032-.059-.039-.019-.013-.032-.033-.058-.039-.02-.014-.034-.034-.06-.04-.02-.013-.033-.033-.058-.039-.02-.013-.034-.034-.06-.04-.02-.013-.034-.033-.06-.039-.019-.013-.032-.033-.058-.039-.02-.013-.034-.034-.06-.04-.019-.013-.034-.033-.058-.039-.02-.013-.034-.033-.06-.04-.02-.013-.034-.033-.06-.04-.019-.012-.032-.032-.058-.039-.02-.013-.034-.033-.06-.04-.019-.013-.033-.032-.058-.039-.02-.013-.034-.032-.06-.039-.02-.014-.034-.034-.06-.04-.019-.013-.032-.033-.058-.039-.02-.013-.034-.032-.06-.04-.019-.013-.033-.033-.06-.039-.018-.013-.032-.033-.058-.039-.02-.013-.033-.034-.06-.04-.018-.013-.032-.033-.058-.039-.02-.013-.034-.033-.06-.039-.019-.014-.033-.034-.06-.04a.524.524 0 01-.05-.105h.05v.04h.06v.039h.06v.039h.059v.04h.06v.039h.058v.04h.06v.038h.06l-.001.04h.059v.04h.06v.039h.059v.039h.058v.04h.06v.039h.058v.04h.06v.04h.06v.039h.058v.04h.06v.039h.058v.04h.06v.038h.06v.04h.058v.04h.06v.039h.058v.039h.06v.04h.06v.039h.058v.04h.06v.04h.058v.039h.06v.04h.06v.039h.058v.04h.06v.038h.059v.04h.059v.04h.06v.039h.058v.039h.06v.04h.059v.039h.058v.04h.06v.038h.059v.041h.06v.04h.059v.039h.058v.04h.06v.038h.058v.04h.06v.04h.06v.039h.058v.039h.06v.04h.06v.039h.058v.04h.06v.038h.058v.041h.06v.04h.06v.039h.058v.04h.06v.038h.058v.04h.06v.04h.06v.039h.058v.039h.06v.04h.058v.039h.06v.04h.059v.038h.059v.04h.06v.04h.058v.04h.06v.04h.059v.038h.058v.04h.06v.04h.06v.039h.058v.039h.06v.04h.058v.039h9.826v-.257a.403.403 0 00-.171-.281zM98.16 67.546c-.005-.014-.012-.02-.019-.034h.02zm-17.038 12.04l-.085-.065-4.142-2.762-.007-.006a3.87 3.87 0 01.217 1.927c-.848 4.59-4.708 5.93-8.8 7.35-3.814 1.33-7.759 2.697-10.021 6.748l-.151.276H58.1c.02.013.034.034.06.04.02.013.034.033.06.039.019.013.032.033.058.04.02.013.034.033.06.038.019.014.032.034.058.041.02.012.034.033.06.04.019.013.033.033.058.039.02.013.034.033.06.04.02.013.034.033.06.038.019.014.032.034.058.04.02.013.034.034.06.04.019.013.033.033.06.039.018.013.032.033.058.039.02.013.033.034.06.04.018.013.032.033.058.039.02.013.034.033.06.04.019.013.033.033.059.038.02.014.033.034.059.04.02.013.033.034.06.04.018.013.032.033.058.04.02.013.033.033.06.04.02.013.033.033.059.038.019.014.033.034.058.04.02.013.034.034.06.04.02.013.034.033.059.039.02.013.033.033.06.039.02.013.033.034.059.04.019.013.032.033.058.039.02.013.034.033.06.04.019.013.034.033.058.038.02.014.034.034.06.04.02.013.034.034.06.04.019.013.032.033.058.04.02.012.034.033.06.04.019.013.034.033.06.038.019.014.032.034.058.04.02.013.034.034.06.04.019.013.032.033.058.039.02.013.034.033.06.039.019.013.033.034.06.04.018.013.032.033.058.039.02.013.034.033.06.04.019.013.033.033.058.038.02.014.034.034.06.04.02.013.033.034.06.04.018.013.032.033.058.04.02.012.033.032.06.04.018.011.033.033.058.038.02.014.034.034.06.04.02.013.033.034.059.04.02.013.033.033.059.039.02.013.033.033.06.039.018.013.033.034.058.04.02.013.033.033.06.039.02.013.033.033.059.04.019.013.033.033.058.038.02.014.034.034.06.04.02.013.034.034.06.04.019.013.032.033.058.039.02.013.034.033.06.04.019.012.032.033.058.04.02.013.034.033.06.039.02.013.034.034.06.04.019.013.032.033.058.039.02.013.034.033.06.039.019.013.033.034.058.04.02.013.034.033.06.039.02.013.034.033.06.04.019.013.032.033.058.038.02.014.034.034.06.04.019.013.033.034.058.04.02.013.034.033.06.039.02.013.033.033.06.039.018.013.032.034.058.04.02.013.034.034.06.04.019.013.033.034.059.04.02.013.033.033.059.039.02.013.033.033.06.039.018.013.032.034.058.04.02.013.033.033.06.039.018.013.033.033.059.04.019.013.033.033.058.038.02.014.034.034.06.04.02.013.034.034.059.04.02.013.033.033.06.039.02.013.033.033.059.039.019.013.032.034.058.04.02.013.034.033.06.04.019.012.034.034.058.04.02.013.034.033.06.039.02.013.034.033.06.039h.256c4.847-8.68 17.23-5.616 18.762-13.908.178-1.375-.474-2.466-1.382-3.15zm-26.06 8.582l-.513-.152c-1.039-.308-2.408-.709-3.82-1.294 0 0 .006 0 .006.006l1.834 1.223c.02.013.033.027.053.04a21.743 21.743 0 003.452 2.144c.303.145.605.27.907.393.073-.966-.532-1.715-1.92-2.36zm-4.86-60.389c3.15-6.437 8.976-9.633 13.704-9.364-.894-1.84-2.439-3.09-4.53-3.578-4.479-1.038-11.115 1.725-14.611 8.872-3.263 6.78-4.999 16.717-4.643 26.567.388 10.864 3.208 20.018 7.93 25.766 1.664 2.025 3.531 3.597 5.59 4.728-10.502-12.652-10.028-39.285-3.44-52.99z" class="st2"/><path d="M73.597 11.973c-.02-.012-.04-.033-.058-.04-.02-.012-.04-.032-.06-.039-.02-.012-.04-.034-.06-.04-.019-.013-.04-.033-.058-.039-.007-.006-.014-.013-.02-.013l-.132.106c-3.557 2.846-4.202 6.897-4.82 10.823-.671 4.216-1.302 8.202-5.675 9.681a3.993 3.993 0 01-1.874.164c.006.007.013.014.019.014l4.439 2.958c.013.014.027.02.04.033.835.585 1.926.881 3.123.48 1.17-.394 2.046-.993 2.723-1.73l1.676-7.542c.139-.829-.098-1.828-.597-2.459-.349-.441-.797-.684-1.336-.718l-.131-.026c-.434-.145-.881-.393-.881-1.15v-.796h.539c1.571 0 2.984.02 4.405.04.698-2.23 1.823-4.348 3.946-6.037l-.124-.125c-.054-.152-.126-.244-.212-.29-.019-.013-.039-.033-.058-.04-.02-.012-.04-.032-.06-.04-.02-.012-.04-.032-.06-.039-.018-.013-.039-.033-.058-.039-.02-.013-.04-.034-.06-.04-.019-.013-.039-.033-.058-.039-.02-.013-.04-.033-.06-.039-.02-.014-.039-.034-.06-.04-.018-.013-.039-.033-.058-.039-.02-.013-.04-.034-.06-.04-.018-.013-.039-.033-.059-.039-.02-.013-.04-.033-.058-.039-.02-.013-.04-.034-.06-.04-.02-.013-.04-.033-.059-.039-.02-.013-.039-.033-.06-.039-.018-.014-.039-.034-.059-.04-.019-.013-.04-.034-.058-.04-.02-.013-.04-.034-.06-.04-.02-.013-.04-.033-.058-.039-.02-.013-.04-.033-.06-.039-.02-.014-.04-.034-.06-.04-.019-.013-.04-.033-.058-.039-.02-.013-.04-.034-.06-.04-.019-.013-.04-.033-.058-.039-.02-.013-.04-.033-.06-.039-.02-.013-.04-.034-.06-.04-.019-.013-.039-.033-.058-.039-.02-.013-.04-.033-.06-.039-.019-.014-.04-.034-.058-.04-.02-.013-.04-.033-.06-.04-.02-.012-.04-.034-.06-.04-.019-.013-.039-.033-.058-.039-.02-.013-.04-.033-.06-.039-.019-.014-.039-.034-.06-.04-.018-.013-.039-.033-.058-.039-.02-.013-.04-.034-.06-.04-.018-.013-.039-.033-.058-.039-.02-.013-.04-.033-.06-.039-.019-.013-.039-.034-.06-.04-.018-.013-.038-.033-.058-.039-.02-.013-.039-.033-.06-.039-.018-.014-.039-.034-.058-.04-.02-.013-.04-.033-.06-.04-.02-.012-.039-.033-.059-.04-.02-.013-.04-.033-.058-.039-.02-.013-.04-.033-.06-.039-.02-.014-.04-.034-.059-.04-.02-.013-.039-.033-.06-.039-.02-.013-.039-.034-.059-.04-.019-.013-.04-.033-.058-.039-.02-.013-.04-.033-.06-.039-.02-.013-.04-.034-.058-.04-.02-.013-.04-.033-.06-.039-.02-.013-.04-.033-.06-.039-.019-.014-.04-.034-.058-.04-.02-.013-.04-.033-.06-.039-.019-.013-.04-.034-.06-.04-.019-.013-.039-.034-.058-.04-.02-.013-.04-.033-.06-.039-.019-.014-.039-.034-.058-.04-.02-.013-.04-.033-.06-.039-.02-.013-.04-.034-.06-.04-.018-.013-.039-.033-.058-.039-.02-.013-.04-.033-.06-.039-.019-.013-.039-.034-.058-.04-.02-.013-.04-.033-.06-.039-.02-.013-.039-.033-.06-.039-.018-.014-.039-.034-.058-.04-.02-.013-.04-.033-.06-.039-.018-.013-.039-.034-.058-.04-.02-.013-.04-.033-.06-.04-.02-.012-.039-.033-.06-.039-.018-.014-.038-.034-.058-.04-.02-.013-.039-.033-.06-.039-.018-.013-.039-.034-.059-.04-.019-.013-.04-.033-.058-.039-.02-.013-.04-.033-.06-.039-.02-.013-.04-.034-.058-.04-.02-.013-.04-.033-.06-.039-.02-.013-.04-.033-.06-.039-.019-.014-.04-.034-.058-.04-.04-.033-.06-.046-.079-.059zm272.531 55.753c.763-1.533 1.533-4.467 1.151-7.273-.191-1.44-1.111-3.828-2.584-4.8l-3.847-2.566c-.013-.007-.026-.02-.04-.026.592 1.066.968 2.256 1.086 3.144.381 2.814-.33 5.838-1.204 7.588-.31.513-.493 1.15-.23 1.42l.052.06c.394.519.402.828.375 1.17-.006.052-.006.105-.006.171v.54h-26.219v-.796c0-.664.361-1.033 1.013-1.047.164-.019.315-.065.46-.118-.113-4.852-.113-9.705-.113-14.558a4.494 4.494 0 001.705-.631v-8.241c-.007-.006-.014-.006-.027-.012l-.014-.014c-.012-.013-.033-.019-.045-.026l-.013-.013c-.014-.014-.034-.02-.047-.026l-.013-.014c-.012-.013-.033-.02-.045-.026l-.014-.013c-.013-.014-.033-.02-.046-.027l-.013-.012c-.014-.014-.034-.02-.045-.027l-.015-.013c-.012-.013-.032-.02-.045-.027l-.013-.012c-.014-.014-.034-.02-.046-.027l-.014-.013c-.013-.013-.034-.02-.045-.027l-.013-.012c-.014-.013-.034-.02-.047-.027l-.013-.013c-.014-.013-.034-.02-.045-.026l-.015-.014c-.012-.012-.032-.019-.045-.026l-.013-.013c-.014-.013-.034-.02-.046-.026l-.014-.014c-.013-.012-.034-.019-.045-.025l-.013-.014c-.014-.013-.034-.019-.046-.026l-.014-.013c-.013-.014-.034-.02-.045-.026l-.015-.014c-.012-.013-.032-.02-.045-.026l-.013-.013c-.014-.014-.034-.02-.046-.026l-.014-.013c-.013-.014-.033-.02-.045-.027l-.014-.013c-.013-.013-.033-.02-.045-.027l-.014-.012c-.013-.014-.034-.02-.046-.027l-.013-.013c-.013-.013-.033-.02-.045-.027l-.014-.012c-.013-.013-.034-.02-.046-.027l-.014-.013c-.013-.013-.033-.02-.045-.026l-.014-.014c-.013-.012-.033-.019-.045-.026l-.014-.013c-.013-.013-.033-.02-.046-.026l-.013-.014c-.013-.012-.034-.019-.045-.025l-.014-.014c-.013-.012-.034-.019-.046-.026l-.013-.013c-.014-.014-.034-.02-.045-.026l-.015-.014s-.006 0-.006-.006c.013-3.072.04-6.136.118-9.206 0-.922.158-1.967.63-2.73a2.584 2.584 0 01.949-.855v-.466c0-.534-.06-1.238-.284-1.868h-.006v-.013c-.006-.007-.006-.02-.013-.027h-.046v-.04h-.06v-.04h-.058v-.039h-.06v-.039h-.06v-.04h-.058v-.039h-.06v-.039h-.058v-.04h-.06v-.039h-.06v-.04h-.058v-.039h-.06v-.039h-.058v-.04h-.06v-.039h-.06v-.039h-.058v-.04h-.06v-.04h-.058v-.04h-.06v-.039h-.059v-.039h-.058v-.04h-.06v-.039h-.06v-.04h-.058v-.039h-.06v-.039h-.058v-.04h-.06v-.04h-.06v-.04h-.058v-.039h-.06v-.039h-.058v-.04h-.06v-.04h-.06v-.04h-.058v-.039h-.06v-.039h-.058v-.04h-.06V24h-.06v-.039h-.058v-.04h-.06v-.039h-.06v-.04h-.058v-.039h-.06v-.039h-.058v-.04h-.06v-.04h-.059v-.037h-.058v-.04h-.06v-.039h-.059v-.039h-.06v-.04h-.059v-.039h-.058v-.04h-.06v-.039h-.058v-.039h-.06v-.04h-.06v-.039h-.058v-.039h-.06v-.04h-.058v-.04h-.06v-.04h-.06v-.039h-.032c-.139.585-.691.77-.973.869l-.132.026c-1.736.118-1.92 2.34-1.92 3.288-.118 4.505-.124 9.075-.124 13.507 1.393-.356 1.603-1.02 1.603-1.644 0-.54.284-.776.455-.862.321-.177.736-.118 1.15.158l.08.066c.637.638.926 1.637.82 2.88-.157 1.907-1.176 3.939-2.418 4.827-.468.348-1.033.605-1.691.77 0 4.88.007 9.91.125 14.861 0 .961.19 3.177 1.927 3.434.658.02 1.13.506 1.13 1.177v.663h-13.084v.04h.06v.04h.058v.039h.06v.039h.059v.04h.058v.039h.06v.04h.06v.038h.058v.04h.06v.04h.058v.039h.06v.039h.06v.04h.058v.04h.06v.04h.058v.039h.06v.039h.06v.04h.058v.039h.06v.04h.058v.038h.06v.04h.06v.04h.058v.039h.06v.039h.058v.04h.06v.04h.06v.04h.058v.039h.06v.039h.059v.04h.058v.039h.06v.04h.059v.038h.06v.04h.059v.04h.058v.039h.06v.039h.058v.04h.06v.039h.06v.04h.058v.04h.06v.039h.058v.04h.06v.039h.06v.04h.058v.038h.06v.04h.06v.04h.058v.039h.06v.039h.058v.04h.06v.039h.06v.04h.058v.04h.06v.039h.058v.04h.06v.039h.059v.04h.059v.038h.06v.04h.058v.04h.06v.039h.059v.039h.058v.04h.06v.039h.059v.04h.06v.04h.059v.039h.058v.04h.06v.039h.06v.04h.058v.038h.06v.04h.058v.04h.06v.039h.06v.039h.058v.04h.06v.039h.058v.04h.06v.038h.06v.041h.058v.04h.06v.039h.058v.04h.06v.038h.06v.04h.058v.04h.06v.039h.059v.039h.058v.04h13.146v-.124a.624.624 0 00-.23-.501c-.02-.02-.04-.026-.06-.04-.018-.019-.038-.025-.059-.039-.019-.02-.04-.026-.058-.04-.02-.02-.04-.025-.06-.039-.019-.02-.04-.027-.058-.039-.02-.02-.04-.027-.06-.04-.02-.02-.04-.026-.06-.039-.019-.02-.039-.027-.058-.039-.02-.02-.04-.027-.06-.04-.019-.02-.04-.026-.058-.039-.02-.02-.04-.027-.06-.04-.02-.02-.04-.026-.06-.04-.019-.019-.039-.026-.058-.039-.02-.02-.04-.026-.06-.04-.019-.019-.039-.025-.058-.039-.02-.02-.04-.026-.06-.04-.02-.02-.04-.025-.06-.039-.018-.02-.039-.025-.058-.039-.02-.02-.04-.027-.06-.04-.019-.02-.039-.026-.06-.039-.018-.02-.038-.027-.058-.039-.02-.02-.039-.027-.06-.04-.018-.02-.039-.026-.058-.039-.02-.02-.04-.027-.06-.04-.018-.02-.039-.026-.059-.039-.02-.02-.04-.027-.058-.04-.02-.02-.04-.026-.06-.04-.02-.019-.04-.025-.059-.039-.02-.019-.039-.026-.06-.04-.02-.02-.039-.025-.059-.039-.019-.02-.04-.025-.058-.039-.02-.02-.04-.027-.06-.04-.02-.02-.04-.026-.058-.039-.02-.02-.04-.027-.06-.039-.02-.02-.04-.027-.06-.04-.019-.02-.04-.026-.058-.039-.02-.02-.04-.027-.06-.04-.019-.02-.04-.026-.058-.039-.02-.02-.04-.027-.06-.039-.02-.02-.04-.027-.06-.04a4.774 4.774 0 01-.282-.816h.06v.04h.058v.039h.06v.04h.058v.038h.06v.041h.06v.04h.058v.039h.06v.04h.058v.038h.06v.04h.06v.04h.058v.039h.06v.039h.058v.04h.06v.039h.06v.04h.058v.038h.06v.04h.059v.04h.059v.04h.06v.04h.058v.038h.06v.04h.059v.04h.058v.039h.06v.039h.059v.04h.06v.039h.059v.04h.058v.038h.06v.04h.058v.04h.06v.04h.06v.04h.058v.038h.06v.04h.058v.04h.06v.039h.06v.039h.058v.04h.06v.039h.06v.04h.058v.038h.06v.04h.058v.04h.06v.039h.06v.04h.058v.04h.06v.039h.058v.04h.06v.039h.059v.039h.059v.04h.06v.039h.058v.04h.06v.038h.059v.04h.058v.04h.06v.039h.06v.04h.058v.04h.06v.039h.058v.04h.06v.039h.06v.039h.058v.04h.06v.039h.058v.04h.06v.038h.06v.04h.058v.04h.06v.039h.058v.039h.06v.04h.06v.04h.058v.04h.06v.039h.058v.039h.06v.04h.06v.039h.058v.04h25.14c0-.382.125-.514-.256-1.02-.513-.565-.257-1.46.124-2.098zm-29.816-.336h.013v.04c-.006-.014-.006-.026-.013-.04z" class="st2"/><path d="M300.217 69.91c-.02-.019-.04-.025-.058-.039-.02-.019-.04-.026-.06-.04-.02-.018-.04-.025-.059-.039-.02-.02-.039-.026-.06-.039-.02-.02-.039-.026-.059-.04-.019-.02-.04-.026-.058-.039-.02-.02-.04-.027-.06-.04-.02-.02-.04-.026-.058-.039-.02-.02-.04-.027-.06-.039-.02-.02-.04-.027-.06-.04-.019-.02-.04-.026-.058-.039-.02-.02-.04-.027-.06-.039-.019-.02-.04-.027-.058-.04-.02-.02-.04-.026-.06-.04-.02-.019-.04-.026-.06-.04-.019-.018-.039-.025-.058-.039-.02-.019-.04-.026-.06-.039-.019-.02-.04-.026-.06-.04-.018-.02-.039-.025-.058-.039-.02-.02-.04-.027-.06-.04-.019-.02-.039-.026-.058-.039-.02-.02-.04-.027-.06-.039-.019-.02-.039-.027-.06-.04-.018-.02-.039-.026-.058-.039-.02-.02-.04-.027-.06-.039-.018-.02-.039-.027-.058-.04-.02-.02-.04-.026-.06-.04-.02-.019-.039-.026-.06-.04-.018-.018-.038-.025-.058-.039-.02-.019-.039-.026-.06-.039-.018-.02-.039-.026-.058-.04-.02-.02-.04-.025-.06-.039-.02-.02-.039-.027-.059-.04-.02-.02-.04-.026-.058-.039-.02-.02-.04-.027-.06-.039-.02-.02-.04-.027-.059-.04-.02-.02-.039-.026-.06-.039-.02-.02-.039-.027-.059-.039-.019-.02-.04-.027-.058-.04-.02-.02-.04-.026-.06-.039-.02-.02-.04-.027-.06-.04a.138.138 0 00-.039-.026c-.349-.724-.493-1.585-.493-2.368V55.693h.382c.894.131 1.657.131 2.045-.124 1.657-.639 1.532-2.046 1.02-2.934-.119-.23-.231-.375-.336-.441a.155.155 0 00-.06-.04c-.019-.019-.04-.025-.058-.039a.155.155 0 00-.06-.04c-.019-.018-.04-.025-.06-.039a.155.155 0 00-.058-.039c-.02-.019-.04-.026-.06-.04-.019-.02-.039-.025-.058-.039-.02-.02-.04-.026-.06-.039-.02-.02-.04-.027-.06-.04-.018-.02-.039-.026-.058-.039-.02-.02-.04-.027-.06-.04a.155.155 0 00-.058-.039c-.02-.02-.04-.027-.06-.039a.155.155 0 00-.06-.04c-.018-.02-.039-.026-.058-.039-.02-.02-.04-.027-.06-.04-.018-.02-.039-.026-.058-.04a.155.155 0 00-.06-.039c-.02-.019-.039-.026-.06-.04-.018-.018-.038-.025-.058-.039a.155.155 0 00-.06-.039c-.018-.02-.039-.026-.059-.04-.019-.02-.04-.026-.058-.039-.02-.02-.04-.027-.06-.04-.02-.02-.04-.026-.058-.039-.02-.02-.04-.027-.06-.039a.155.155 0 00-.06-.04.155.155 0 00-.058-.039c-.02-.02-.04-.027-.06-.039-.019-.02-.04-.027-.058-.04a.155.155 0 00-.06-.04c-.02-.019-.04-.026-.06-.04-.019-.018-.039-.025-.058-.039a.155.155 0 00-.06-.039.155.155 0 00-.058-.04c-.02-.02-.04-.025-.06-.039a.155.155 0 00-.06-.04c-.019-.02-.039-.026-.058-.039-.02-.02-.04-.027-.06-.039a.155.155 0 00-.058-.04c-.02-.02-.04-.026-.06-.039a.155.155 0 00-.06-.039c-.018-.02-.039-.027-.058-.04a.155.155 0 00-.06-.04c-.019-.019-.039-.026-.06-.04-.011-.013-.025-.018-.032-.025.415-.592 1.224-1.098 2.52-1.243a13.475 13.475 0 012.472-.072v-2.782l-.296-.066c-2.67-.585-5.426-1.197-8.03-.855-1.71.192-2.36 1.032-2.393 1.697-.027.472.23.848.664.947l.078.026c.389.157.77 0 1.007-.197.178-.369.48-.434.606-.44.585-.027.867.57.966.775.407.71.506 1.526.27 2.203-.158.453-.56 1.065-1.527 1.454-.44.263-1.125.328-2.13.21v9.647c0 .52.099 3.13 2.058 3.42.658.019 1.138.506 1.138 1.177v.663h-14.35v-.663c0-.664.474-1.158 1.132-1.177 1.204-.178 1.893-1.342 2.059-3.46V54.51l-2.19-1.46c-.014-.012-.034-.02-.047-.033.066.145.132.283.192.441 1.209 3.301.17 8.517-3.612 11.18-2.373 1.71-5.424 2.775-7.964 2.775-1.782 0-3.438-.296-4.97-.875.007.006.02.013.026.02l3.314 2.21a12.375 12.375 0 001.414.848c1.84.966 3.893 1.453 6.135 1.453 2.427 0 5.36-1.02 7.656-2.683aNaN NaN 0 00.026-.02h.033v.04h.059v.04h.058v.039h.06v.04h.06v.039h.058v.04h.06v.038h.058v.04h.06v.04h.06v.039h.058v.039h.06v.04h.058v.039h.06v.04h.06v.038h.058v.04h.06v.04h.06v.04h.058v.04h.06v.038h.058v.04h.06v.04h.059v.039h.058v.039h.06v.04h.059v.039h.06v.04h.059v.038h.058v.04h.06v.04h.058v.04h.06v.04h.06v.038h.058v.04h.06v.04h.058v.039h.06v.039h.06v.04h.058v.039h.06v.04h.06v.038h.058v.04h.06v.04h.058v.04h.06v.04h.06v.038h.058v.04h.06v.04h.058v.039h.06v.039h.06v.04h.058v.039h.06v.04h.058v.038h.06v.04h.059v.04h13.27v-.125c-.006-.263-.099-.427-.236-.54zm-36.799.027c-.019-.014-.033-.033-.06-.039-.018-.013-.032-.034-.058-.04-.02-.013-.034-.033-.06-.039-.019-.013-.033-.033-.058-.039-.02-.014-.034-.034-.06-.04-.02-.013-.033-.033-.06-.04-.018-.013-.032-.034-.058-.04-.02-.013-.033-.033-.06-.039-.018-.013-.033-.033-.058-.039-.02-.014-.034-.034-.06-.04-.02-.013-.033-.033-.06-.039-.018-.013-.032-.034-.058-.04-.02-.013-.033-.033-.06-.039-.018-.013-.033-.033-.058-.039-.02-.013-.033-.034-.06-.04-.02-.013-.033-.033-.059-.039-.02-.013-.033-.033-.058-.039-.02-.014-.034-.034-.06-.04-.02-.013-.034-.033-.06-.04-.019-.012-.032-.034-.058-.04-.02-.013-.034-.033-.06-.039-.019-.013-.032-.033-.058-.039-.02-.014-.034-.034-.06-.04-.02-.013-.034-.033-.06-.039-.019-.013-.032-.034-.058-.04-.02-.013-.034-.033-.06-.039-.019-.013-.033-.033-.058-.039-.02-.013-.034-.034-.06-.04-.02-.013-.034-.033-.06-.039-.019-.013-.032-.033-.058-.039-.02-.014-.034-.034-.06-.04-.019-.013-.033-.033-.058-.04-.02-.012-.034-.033-.06-.04-.02-.013-.033-.033-.06-.039-.018-.013-.032-.033-.058-.039-.02-.014-.034-.034-.06-.04-.019-.013-.033-.033-.06-.039-.018-.013-.032-.034-.058-.04-.02-.013-.033-.033-.06-.039-.018-.013-.032-.033-.058-.039-.02-.013-.033-.034-.06-.04-.018-.013-.033-.033-.059-.039-.02-.013-.033-.033-.058-.039-.02-.014-.034-.034-.06-.04-.02-.013-.034-.033-.059-.039-.02-.013-.033-.034-.06-.04-.02-.013-.033-.033-.059-.04-.019-.013-.032-.033-.058-.039-.02-.014-.034-.034-.06-.04-.02-.013-.034-.033-.058-.039-.02-.013-.034-.034-.06-.04-.02-.013-.034-.033-.06-.039-.019-.013-.032-.033-.058-.039-.02-.013-.034-.034-.06-.04-.019-.013-.034-.033-.058-.039a7.784 7.784 0 01-.679-1.723c-.848-2.663-1.696-5.327-2.471-8.063-1.238-2.774-1.994-6.037-2.237-9.79-.374 1.49-1.19 2.859-2.15 3.503-.388.37-.9.592-1.335.732.855 3.11 1.828 6.16 2.775 9.12l.02.053c.565 2.124 1.597 3.255 3.235 3.556.494.02.993.342.993 1.178v.664H245.17h.058v.04h.06v.038h.06v.04h.058v.04h.06v.039h.058v.039h.06v.04h.06v.04h.058v.04h.06v.039h.058v.039h.06v.04h.06v.039h.058v.04h.06v.038h.059v.04h.058v.04h.06v.039h.059v.04h.06v.04h.059v.039h.058v.04h.06v.04h.058v.04h.06v.038h.06v.04h.058v.04h.06v.039h.058v.039h.06v.04h.06v.039h.058v.04h.06v.038h.06v.04h.058v.04h.06v.04h.058v.04h.06v.038h.06v.04h.058v.04h.06v.039h.058v.039h.06v.04h.06v.039h.058v.04h.06v.038h.058v.04h.06v.04h.059v.04h.058v.04h.06v.038h.059v.04h.06v.04h.059v.039h.058v.039h.06v.04h.06v.039h.058v.04h.06v.038h.058v.04h.06v.04h.058v.039h.06v.04h.058v.04h.06v.039h.06v.04h.058v.039h.06v.039h.058v.04h.06v.039h.06v.04h.058v.038h.06v.04h.058v.04h.06v.039h.06v.039h.058v.04h.06v.04h.058v.04h.06v.039h.06v.039h.058v.04h.06v.039h.058v.04h.06v.038h.06v.04h.058v.04h.06v.039h.059v.039h.058v.04h.06v.04h13.146v-.125c-.007-.225-.08-.434-.283-.527zm-21.287-14.973a15.9 15.9 0 011.835-.06l-.908-3.025c-2.21-.486-4.32-.92-6.8-.684-1.69.191-2.34 1.033-2.38 1.698-.026.472.23.848.658.946l.079.027c.191.078.664.21.987-.158.183-.422.506-.48.643-.48h.02c.54 0 .81.604.927.887.382.599.494 1.335.31 1.986-.145.5-.534 1.204-1.585 1.69l-.053.02c-.486.158-1.335.282-2.289.152l-.23-.068c-.177-.058-.388-.123-.604-.222l-.862 4.077c-.329 1.795-.145 2.729.605 3.11.197.1.394.197.526.197.506 0 1.046.31 1.046 1.178v.664h-11.029v-.664c0-.848.513-1.164 1.013-1.178 2.013-.25 2.789-2.052 3.085-3.524l1.275-5.786c-.487-1.25-1.203-2.295-2.223-2.948h-.006a.391.391 0 01-.053-.038h-.006c-.02-.014-.034-.027-.053-.04h-.006a.461.461 0 01-.053-.039h-.007c-.02-.013-.033-.027-.052-.04h-.007a.461.461 0 01-.052-.039h-.007c-.02-.013-.034-.027-.053-.039h-.007c-.019-.013-.032-.027-.052-.04h-.006a.351.351 0 01-.053-.04h-.007c-.02-.013-.04-.026-.053-.04h-.005c-.02-.013-.04-.025-.053-.039h-.007a.404.404 0 01-.053-.039h-.007c-.019-.013-.04-.026-.051-.04h-.007a.461.461 0 01-.053-.039h-.007a.391.391 0 01-.053-.039h-.005a.391.391 0 01-.053-.04h-.007a.461.461 0 01-.053-.039h-.007c-.019-.013-.039-.027-.051-.04h-.007a.461.461 0 01-.053-.039h-.007c-.019-.013-.04-.027-.053-.039h-.005c-.02-.013-.034-.027-.053-.04h-.007a.351.351 0 01-.053-.04h-.006l-.052-.04h-.007c-.02-.013-.04-.025-.053-.039h-.007c-.019-.013-.039-.025-.052-.039h-.006c-.02-.013-.034-.026-.053-.04h-.007c-.02-.013-.033-.025-.053-.039h-.006a.394.394 0 01-.052-.039h-.007a.391.391 0 01-.053-.04h-.006c-.02-.013-.034-.026-.053-.039h-.007c-.02-.013-.04-.027-.052-.04h-.007a.461.461 0 01-.052-.039h-.007c-.02-.013-.033-.027-.053-.039h-.006a.461.461 0 01-.053-.04h-.006a.404.404 0 01-.053-.04h-.007a.351.351 0 01-.052-.04h-.006c-.02-.013-.034-.025-.053-.039h-.007c-.02-.013-.04-.025-.053-.039h-.006c-.02-.013-.033-.026-.052-.04h-.007c-.02-.013-.04-.025-.053-.039h-.007c-.019-.013-.04-.027-.052-.039h-.006a.461.461 0 01-.053-.04h-.007a.391.391 0 01-.053-.039h-.005a.404.404 0 01-.053-.04h-.007a.461.461 0 01-.053-.039h-.007c-.019-.013-.032-.027-.051-.039h-.007a.461.461 0 01-.053-.04h-.007c-.019-.013-.04-.026-.053-.039h-.006a.394.394 0 01-.052-.04h-.007a.351.351 0 01-.053-.04h-.007c-.019-.013-.039-.025-.051-.039h-.007c-.02-.013-.04-.026-.053-.04h-.007c-.019-.013-.04-.025-.053-.039h-.006c-.02-.013-.04-.026-.052-.039h-.007c-.02-.014-.034-.027-.053-.04h-.006c-.02-.013-.04-.026-.053-.039h-.006c-.02-.013-.034-.027-.053-.04h-.007a.461.461 0 01-.052-.039h-.007c-.02-.013-.04-.027-.052-.039h-.007a.461.461 0 01-.053-.04h-.006c-.02-.013-.04-.026-.053-.039h-.006a.36.36 0 01-.053-.04h-.006c-.014-.007-.026-.02-.04-.026 2.17 3.971 1.387 10.74-.013 13.309-.264.526-.361 1.053-.243 1.289l.026.073c.006.026.033.052.105.124.165.172.435.454.435 1.066v.796h-39.306.059v.04h.06v.038h.058v.04h.06v.04h.06v.039h.058v.039h.06v.04h.058v.039h.06v.04h.059v.04h.059v.039h.06v.04h.058v.039h.06v.04h.059v.038h.058v.04h.06v.04h.06v.039h.058v.039h.06v.04h.058v.039h.06v.04h.06v.038h.058v.041h.06v.04h.058v.039h.06v.04h.06v.038h.058v.04h.06v.04h.058v.039h.06v.039h.06v.04h.058v.039h.06v.04h.059v.038h.059v.041h.06v.04h.058v.039h.06v.04h.059v.038h.058v.04h.06v.04h.059v.039h.06v.039h.059v.04h.058v.039h.06v.04h.058v.038h.06v.04h.06v.04h.058v.04h.06v.04h.058v.038h.06v.04h.06v.04h.058v.039h.06v.039h.06v.04h.058v.039h.06v.04h.058v.038h.06v.04h.06v.04h.058v.04h.06v.04h.058v.038h.06v.04h.06v.04h.058v.039h.06v.039h.058v.04h.06v.039h.059v.04h.058v.038h.06v.04h.059v.04h.06v.04h.059v.04h.058v.038h.06v.04h.06v.04h.058v.039h.06v.039h.058v.04h.06v.039h.06v.04h.058v.038h.06v.04h.058v.04h.06v.039h13.145v-.124c0-.29-.078-.506-.282-.592-.02-.013-.034-.034-.06-.04-.019-.013-.033-.033-.058-.039-.02-.013-.034-.033-.06-.039-.02-.014-.034-.034-.06-.04-.019-.013-.032-.033-.058-.04-.02-.013-.034-.034-.06-.04-.019-.013-.033-.033-.058-.039-.02-.013-.034-.033-.06-.039-.02-.014-.033-.034-.06-.04-.018-.013-.032-.033-.058-.039-.02-.013-.034-.034-.06-.04-.019-.013-.033-.033-.058-.039-.02-.013-.034-.033-.06-.039-.02-.013-.033-.034-.06-.04-.018-.013-.032-.033-.058-.039-.02-.013-.033-.033-.06-.039-.018-.014-.033-.034-.059-.04-.02-.013-.033-.033-.058-.04-.02-.012-.034-.034-.06-.04-.02-.013-.033-.033-.059-.039-.02-.013-.033-.033-.06-.039-.02-.014-.033-.034-.059-.04-.019-.013-.032-.033-.058-.039-.02-.013-.034-.034-.06-.04-.02-.013-.034-.033-.058-.039-.02-.013-.034-.033-.06-.039-.02-.013-.034-.034-.06-.04-.019-.013-.032-.033-.058-.039-.02-.013-.034-.033-.06-.039-.019-.014-.034-.034-.058-.04-.02-.013-.034-.033-.06-.04-.02-.012-.034-.033-.06-.04-.019-.013-.032-.033-.058-.039-.02-.013-.034-.033-.06-.039-.019-.014-.033-.034-.06-.04-.018-.013-.032-.033-.058-.039-.02-.013-.034-.034-.06-.04-.019-.013-.032-.033-.058-.039-.02-.013-.034-.033-.06-.039-.019-.013-.033-.034-.06-.04-.018-.013-.032-.033-.058-.039-.02-.013-.033-.033-.06-.039-.018-.014-.033-.034-.058-.04-.02-.013-.034-.033-.06-.039-.02-.013-.033-.034-.06-.04-.018-.013-.032-.033-.058-.04-.02-.013-.033-.033-.06-.039-.018-.014-.033-.034-.058-.04-.02-.013-.033-.033-.06-.039-.02-.013-.033-.034-.059-.04-.02-.013-.033-.033-.058-.039-.02-.013-.034-.033-.06-.039-.02-.013-.034-.034-.059-.04-.02-.013-.033-.033-.06-.039-.02-.013-.033-.033-.059-.039-.032-.066-.072-.126-.104-.191h.033v.04h.059v.038h.058v.04h.06v.04h.058v.039h.06v.039h.06v.04h.058v.039h.06v.04h.058v.038h.06v.041h.06v.04h.058v.039h.06v.04h.06v.038h.058v.04h.06v.04h.058v.039h.06v.039h.06v.04h.058v.039h.06v.04h.058v.038h.06v.041h.06v.04h.058v.039h.06v.04h.058v.038h.06v.04h.059v.04h.058v.039h.06v.039h.06v.04h.058v.039h.06v.04h.058v.038h.06v.04h.06v.04h.058v.04h.06v.04h.058v.038h.06v.04h.06v.04h.058v.039h.06v.039h.058v.04h.06v.039h.06v.04h.058v.038h.06v.04h.058v.04h.06v.04h.06v.04h.058v.038h.06v.04h.059v.04h.058v.039h.06v.039h.059v.04h.06v.039h.059v.04h.058v.038h.06v.04h.058v.04h.06v.04h.06v.04h.058v.038h.06v.04h.058v.04h.06v.039h.06v.039h.058v.04h.06v.039h.058v.04h.06v.038h.06v.04h.058v.04h25.265v-.256c0-.619-.354-.638-.493-.987h.053v.04h.059v.039h.06v.04h.058v.039h.06v.04h.06v.038h.058v.04h.06v.04h.058v.039h.06v.039h.06v.04h.058v.039h.06v.04h.059v.04h.058v.039h.06v.04h.058v.039h.06v.04h.06v.038h.058v.04h.06v.04h.058v.039h.06v.039h.06v.04h.058v.039h.06v.04h.058v.04h.06v.039h.06v.04h.058v.039h9.963v-.125c0-.29-.079-.506-.284-.592-.019-.013-.032-.034-.058-.04-.02-.013-.033-.033-.06-.039-.019-.013-.032-.033-.058-.039-.02-.014-.034-.034-.06-.04-.02-.013-.032-.033-.06-.039-.019-.013-.032-.034-.058-.04-.02-.013-.034-.033-.06-.039-.019-.013-.032-.033-.06-.04-.018-.012-.032-.033-.058-.04-.02-.013-.032-.033-.06-.039-.018-.013-.032-.034-.058-.04-.02-.013-.034-.033-.06-.039-.02-.013-.032-.033-.06-.039-.018-.013-.032-.034-.058-.04-.02-.013-.032-.033-.06-.039-.018-.013-.032-.033-.058-.039-.02-.014-.033-.034-.06-.04-.02-.013-.032-.033-.059-.039-.02-.013-.033-.034-.058-.04-.02-.013-.033-.033-.06-.039-.02-.013-.033-.033-.059-.039-.02-.013-.033-.034-.06-.04-.02-.013-.032-.033-.059-.04-.019-.013-.032-.034-.058-.04-.02-.013-.034-.033-.06-.039-.02-.013-.033-.033-.06-.039-.019-.013-.032-.034-.058-.04-.02-.013-.033-.033-.06-.039-.019-.013-.032-.033-.058-.039-.02-.014-.034-.034-.06-.04-.019-.013-.032-.033-.06-.039-.019-.013-.025-.034-.051-.04-.277-.775-.171-1.776-.007-2.677l1.013-4.82c.013.006.025.02.039.027l.178.118c.026.02.053.034.078.053.047.026.093.053.139.073.058.032.118.065.178.091.236.106.466.171.67.243.894.125 1.657 0 2.039-.124 1.657-.764 1.532-2.171 1.019-2.934-.132-.335-.263-.525-.382-.578a.155.155 0 00-.06-.04.155.155 0 00-.058-.039.155.155 0 00-.06-.04.155.155 0 00-.058-.039.155.155 0 00-.06-.039.155.155 0 00-.06-.04.155.155 0 00-.058-.039.155.155 0 00-.06-.039.155.155 0 00-.058-.04.155.155 0 00-.06-.04.155.155 0 00-.059-.04.155.155 0 00-.058-.039.155.155 0 00-.06-.039.155.155 0 00-.06-.04.155.155 0 00-.058-.039.155.155 0 00-.06-.04.155.155 0 00-.058-.039.155.155 0 00-.06-.039.155.155 0 00-.06-.04.155.155 0 00-.058-.039.155.155 0 00-.06-.039.155.155 0 00-.058-.04.155.155 0 00-.06-.04.155.155 0 00-.06-.04.155.155 0 00-.058-.039.155.155 0 00-.06-.039.155.155 0 00-.058-.04.155.155 0 00-.06-.039.155.155 0 00-.06-.04.155.155 0 00-.058-.039.155.155 0 00-.06-.039.155.155 0 00-.058-.04.155.155 0 00-.06-.039.155.155 0 00-.06-.039.155.155 0 00-.058-.04.155.155 0 00-.06-.04.155.155 0 00-.059-.04.155.155 0 00-.058-.039.155.155 0 00-.06-.039.155.155 0 00-.059-.04.155.155 0 00-.06-.039.155.155 0 00-.059-.04.155.155 0 00-.058-.039.155.155 0 00-.06-.039c-.02-.013-.04-.034-.053-.04.428-.611 1.238-1.124 2.546-1.27zm-14.408 14.44c0-.005-.007-.012-.007-.019v-.007h.014v.026zM62.877 27.496c-.006-.007-.012-.007-.02-.014-.013-.013-.039-.027-.058-.04-.013-.013-.04-.025-.06-.039-.013-.013-.039-.025-.059-.039-.012-.013-.04-.027-.058-.04-.014-.013-.04-.026-.06-.039-.014-.013-.04-.027-.06-.039-.012-.014-.04-.027-.058-.04-.014-.013-.04-.026-.06-.039-.012-.013-.04-.027-.058-.04-.014-.013-.04-.026-.06-.039-.013-.013-.04-.027-.06-.04-.012-.012-.039-.026-.058-.04-.014-.013-.04-.025-.06-.039-.012-.013-.04-.026-.058-.04-.014-.013-.04-.025-.06-.039-.013-.013-.04-.025-.06-.039-.012-.013-.039-.027-.058-.04-.013-.013-.04-.026-.06-.039-.013-.013-.039-.027-.058-.039-.014-.014-.04-.027-.06-.04-.013-.013-.04-.026-.06-.039-.012-.013-.039-.027-.058-.04-.013-.013-.04-.026-.06-.039-.013-.013-.039-.02-.058-.033a1.32 1.32 0 01-.112.21.77.77 0 00.138.914c.31.25.835.196 1.414-.171zm71.673 37.68c.492.007.788.197.96.454.157-.284.454-.441.874-.455.81-.11 1.302-.585 1.605-1.175-.106-10.812-.106-21.722.02-32.518 0-.77.118-1.625.427-2.342v-1.966c0-1.178-.27-3.177-2.052-3.42-.42-.006-.716-.164-.875-.453-.17.256-.472.44-.96.453-1.735.256-1.925 2.473-1.925 3.42a1581.373 1581.373 0 000 34.576c0 .954.19 3.169 1.926 3.425zm-36.636-41.25l.007.007c.013.02.04.026.06.04.013.02.039.025.059.039.012.02.04.027.058.039.014.02.04.027.06.04.012.02.04.026.059.039.013.02.039.027.06.04.013.02.039.026.059.038.012.02.04.027.058.04.014.02.04.027.06.04.013.02.04.026.058.039.007.007.014.007.02.013a2.079 2.079 0 00-.618-.414zM92.917 45.24c.138.5.184 1.078.131 1.717-.164 1.893-1.15 3.833-2.353 4.635-.388.368-.901.592-1.336.731.855 3.123 1.834 6.181 2.783 9.146.571 2.145 1.604 3.282 3.24 3.585.427.019.862.263.967.874.1-.467.428-.724.954-.743-.94-2.94-1.867-5.886-2.697-8.943.638-.125 1.276-.383 1.658-.763 1.788-1.151 3.064-5.36 1.4-6.892a.408.408 0 00-.124-.092l-4.617-3.078c.013-.164 0-.171-.006-.178zm53.615-18.998v13.921c2.216-.046 4.012-.427 5.385-1.776V30.08a7.24 7.24 0 011.342-.113 6.315 6.315 0 00-1.275-2.038c-1.066-1.382-3.545-1.913-5.452-1.69zm-33.688-3.203V23h-.027c-.112.624-.572.743-.816.763a1.891 1.891 0 00-.848.48c-.638.638-.512 1.46-.255 2.742l.019.092 5.32 20.925 2.038-8.786-1.966-7.727c-.257-1.275-.513-2.426.381-3.32a2.437 2.437 0 011.151-.639c.257 0 .381-.123.381-.511v-.257h-.06v-.04h-.058v-.039h-.06v-.039h-.059v-.04h-.058v-.039h-.06v-.04h-.059v-.039h-.06v-.039h-.059v-.04h-.058v-.039h-.06v-.04h-.058v-.04h-.06v-.039h-.06v-.04h-.058v-.039h-.06v-.039h-.058v-.04h-.06v-.039h-.06v-.041h-.058v-.04h-.06v-.04h-.06v-.039h-.058v-.039h-.06v-.04h-.058v-.04h-.06v-.04h-.06v-.039h-.058v-.039h-.06v-.04h-.058v-.039h-.06v-.039h-.06v-.04h-.058v-.039h-.06v-.04h-.058v-.039h-.06v-.039h-.059v-.04h-.058v-.04h-.06v-.04h-.059v-.039h-.06v-.039h-.059v-.04h-.058v-.039h-.06v-.039h-.06v-.04h-.058v-.039h-.06v-.04h-.058v-.039h-.06v-.039h-.06v-.04h-.058v-.039h-.06v-.04h-.058v-.04h-.06v-.039h-.06v-.04h-.058v-.039h-.06v-.039h-.058v-.04h-.06v-.039h-.06v-.04h-.058v-.039h-.06v-.039h-.058v-.04h-.06v-.039h-.06v-.039h-.058v-.04h-.058v-.04h-.06v-.04h-.06v-.039h-.058v-.039h-.06v-.04h-.058v-.039h-.06v-.04h-.06v-.039h-.058V23.8h-.06v-.04h-.059v-.039h-.058v-.039h-.06v-.04h-.059v-.04h-.06v-.04h-.059v-.039h-.058v-.039h-.06v-.04h-.058v-.039h-.06v-.04h-.06v-.039h-.058v-.039h-.06v-.04h-.058v-.039h-.053zm-39.588 23.74c2-.671 4.168-.718 6.154-.646l-3.517-11.376c-.737 3.262-1.467 6.596-2.104 9.884zM72.12 78.282c-.277-.225-.69-.237-.928-.034a1.243 1.243 0 01-.368.263.3.3 0 00.118.106c.02.012.04.033.06.04.019.012.039.032.058.039.02.012.04.033.06.04.02.013.04.033.06.038.018.014.039.034.058.04.02.013.04.034.06.04.019.013.039.033.06.039.018.013.038.033.058.039.02.013.039.034.06.04.018.013.039.033.058.039.02.013.04.033.06.04.018.013.039.033.059.038.02.014.04.034.058.04.02.013.04.034.06.04.02.013.04.033.059.04.02.012.039.032.06.04.02.013.039.033.059.038.019.014.04.034.058.04.02.013.04.034.06.04.02.013.04.033.058.039.02.013.04.033.06.039.007.007.02.013.026.02.244-.506.21-.94-.091-1.183zm8.08-23.32a15.9 15.9 0 011.836-.059l-.908-3.025c-2.217-.493-4.32-.92-6.799-.684-1.69.191-2.34 1.033-2.38 1.698-.027.472.23.848.664.946l.078.027c.192.078.664.21.986-.158.184-.422.506-.48.644-.48h.02c.54 0 .81.604.928.887.382.599.494 1.335.31 1.986-.146.5-.534 1.204-1.586 1.69l-.053.02c-.486.158-1.34.282-2.288.152l-.23-.068c-.177-.058-.389-.123-.605-.222l-.855 4.077c-.328 1.795-.145 2.729.605 3.11.197.1.394.197.526.197.506 0 1.046.31 1.046 1.178v.664h-9.956.06v.04h.058v.039h.06v.039h.058v.04h.06v.039h.06v.04h.058v.038h.06v.04h.059v.04h.058v.039h.06v.04h.059v.04h.06v.039h.059v.04h.058v.039h.06v.039h.058v.04h.06v.039h.06v.04h.058v.038h.06v.04h.058v.04h.06v.039h.06v.04h.058v.04h.06v.039h.06v.04h.058v.039h.06v.039h.058v.04h.06v.039h.06v.04h.058v.038h.06v.04h.058v.04h.06v.039h.06v.039h.058v.04h.06v.04h.058v.04h.06v.039h.059v.039h.058v.04h.06v.039h.059v.04h.06v.038h.059v.04h.058v.04h.06v.039h.06v.04h.058v.04h.06v.04h.058v.04h.06v.039h.06v.04h.058v.038h.06v.04h.058v.04h.06v.039h.06v.039h.058v.04h.06v.039h.058v.04h.06v.038h.06v.04h.058v.04h.06v.04h.058v.04h.06v.038h.059v.04h.059v.04h.06v.039h.059v.039h.058v.04h.06v.039h.058v.04h.06v.038h.06v.04h.058v.04h.06v.04h.058v.04h.06v.038h.06v.04h.058v.04h.06v.039h.058v.039h.06v.04h.06v.039h.058v.04h.06v.038h.06v.04h9.955v-.124c0-.29-.078-.506-.283-.593-.02-.012-.034-.032-.06-.04-.019-.012-.033-.032-.058-.039-.02-.012-.034-.032-.06-.039-.02-.012-.034-.033-.06-.04-.019-.013-.032-.033-.058-.039-.02-.013-.034-.033-.06-.039-.019-.014-.033-.034-.06-.04-.018-.013-.032-.033-.058-.039-.02-.013-.033-.034-.06-.04-.018-.013-.032-.033-.058-.039-.02-.013-.034-.033-.06-.039-.019-.013-.033-.034-.06-.04-.018-.013-.032-.033-.058-.039-.02-.013-.033-.033-.06-.039-.018-.014-.033-.034-.058-.04-.02-.013-.033-.033-.06-.039-.02-.013-.033-.034-.059-.04-.02-.013-.033-.034-.058-.04-.02-.013-.034-.033-.06-.039-.02-.014-.034-.034-.059-.04-.02-.013-.033-.033-.06-.039-.02-.013-.033-.034-.059-.04-.019-.013-.032-.033-.058-.039-.02-.013-.034-.033-.06-.039-.02-.013-.034-.034-.058-.04-.02-.013-.034-.033-.06-.039-.02-.013-.034-.033-.06-.039-.019-.014-.032-.034-.058-.04-.02-.013-.034-.033-.06-.039-.019-.013-.034-.034-.06-.04-.019-.013-.032-.033-.058-.04-.02-.012-.034-.033-.053-.039-.275-.776-.17-1.775-.007-2.676l1.013-4.82c.013.007.027.02.04.026l.177.118c.027.02.053.034.079.053.046.026.092.046.131.072.06.034.119.066.178.092.236.106.467.171.67.236.895.126 1.659 0 2.04-.123 1.657-.763 1.533-2.172 1.02-2.933-.132-.337-.264-.527-.383-.58a.155.155 0 00-.058-.039.155.155 0 00-.06-.04.155.155 0 00-.059-.039.155.155 0 00-.06-.039.155.155 0 00-.058-.04.155.155 0 00-.06-.039.155.155 0 00-.059-.04.155.155 0 00-.058-.039.155.155 0 00-.06-.039.155.155 0 00-.059-.04.155.155 0 00-.06-.039.155.155 0 00-.059-.04.155.155 0 00-.058-.04.155.155 0 00-.06-.039.155.155 0 00-.06-.04.155.155 0 00-.058-.039.155.155 0 00-.06-.039.155.155 0 00-.058-.04.155.155 0 00-.06-.039.155.155 0 00-.06-.04.155.155 0 00-.058-.039.155.155 0 00-.06-.039.155.155 0 00-.058-.04.155.155 0 00-.06-.039.155.155 0 00-.06-.039.155.155 0 00-.058-.04.155.155 0 00-.06-.04.155.155 0 00-.058-.04.155.155 0 00-.06-.039.155.155 0 00-.06-.039.155.155 0 00-.058-.04.155.155 0 00-.06-.039.155.155 0 00-.059-.04.155.155 0 00-.058-.039.155.155 0 00-.06-.039.155.155 0 00-.059-.04.155.155 0 00-.06-.039.155.155 0 00-.059-.039.155.155 0 00-.058-.04.155.155 0 00-.06-.04.155.155 0 00-.058-.04.155.155 0 00-.06-.039.155.155 0 00-.06-.039.155.155 0 00-.058-.04c-.02-.013-.04-.033-.053-.039.427-.58 1.236-1.091 2.545-1.237zm7.373-28.716l-.02.079c-.151.446-.493.749-.875.782-.164.013-.572-.02-.855-.526-.263-.31-.815-.362-1.23-.277-.624.106-1.058.375-1.354.836-.624.967-.624 2.833-.013 5.135l4.34 14.265c1.992-.152 3.018-.783 3.018-1.876 0-.367.1-.61.225-.769l-2.184-7.174c-.513-1.913-1.276-6.122 1.788-6.635.31-.059.652-.066.968.013l.052.04c.02.013.04.033.06.039.018.013.039.034.059.04.02.013.04.033.058.039.02.013.04.033.06.039.02.013.04.034.059.04.02.013.039.033.06.039.02.013.039.033.059.04.019.013.04.033.058.038.02.014.04.034.06.041.02.012.04.034.058.04.02.013.04.033.06.039.02.013.04.033.06.04.019.013.04.033.058.038.02.014.04.034.06.04.013.007.019.02.034.027.248.308.558.072.676-.27.197-1.17-.579-2.486-1.579-3.217L87.31 24.51c-.007 0-.007-.006-.013-.006.256.473.382 1.117.276 1.743z" class="st2"/><path d="M44.836 86.981H20.052v1.736h26.915a25.566 25.566 0 01-2.13-1.736zm315.113 0H80.139c-.795.684-2.057 1.249-2.95 1.736h282.768zM71.015 73.803c-2.038.513-2.295 2.038-2.295 2.933.125.638.382.763.763.381.894-.763 2.808.124 1.789 2.039-.638 1.4-1.79 2.295-3.446 2.683-31.138 8.042-34.452-39.174-24.884-59.085 5.872-11.994 21.057-12.763 21.057-.762 0 2.17-.513 4.084-2.17 5.235-1.79 1.15-2.933-.383-2.296-1.532.257-.383 0-.638-.637-.513-.895 0-2.295.637-2.427 2.683-.124 1.657 2.038 4.207 4.722 3.32 7.91-2.682 2.683-14.289 10.337-20.418l-.125-.126c-.125-.381-.382-.381-.762-.257-.895.513-2.039.513-3.065-.256-4.084-2.933-10.594-3.19-14.803-2.427C42.054 9.491 35.42 20.21 32.736 33.098c-1.276-1.4-2.933-2.169-5.235-1.53-.894.123-1.788 1.15-.762 1.4 3.189 1.019 4.34 5.74 4.721 9.568-1.02 17.61 4.722 36.371 17.354 42.62 1.914.893 3.828 1.4 5.103 1.788 1.658.763 2.808 1.913 2.039 3.958-.124.382 0 .638.256.763h.257c4.846-8.68 17.23-5.616 18.762-13.909.382-2.801-2.559-4.333-4.216-3.952zm-33.925-7.97c-1.657-4.722-2.663-9.72-2.998-14.994a59.39 59.39 0 011.084-15.76c1.065-5.237 2.788-9.847 5.17-13.845-1.704 3.656-3 7.976-3.893 12.954-.896 4.978-1.236 10.081-1.02 15.317.21 5.235 1.04 10.318 2.486 15.25s3.57 9.186 6.379 12.764c-3.144-3.077-5.55-6.97-7.208-11.686z" class="st3"/><path d="M93.98 64.87c-2.17-.38-3.188-2.038-3.7-3.957-1.02-3.19-2.04-6.379-2.934-9.701.638-.124 1.275-.382 1.657-.763 1.789-1.15 3.064-5.36 1.4-6.892-.256-.256-.637-.256-.637.383 0 1.656-1.658 2.295-3.702 2.425h-.257l-4.465-14.678c-.513-1.912-1.276-6.122 1.788-6.635.638-.125 1.4 0 1.789.513.257.513.638.257.763-.125.256-1.532-1.151-3.32-2.552-3.7h-1.788c-4.596 0-7.91-.127-12.252-.127v.257c0 .382.125.513.513.637 1.914.125 2.683 2.295 2.427 3.828l-3.827 17.23-3.828 17.353c-.381 1.914-1.4 3.702-3.57 3.96-.382 0-.513.256-.513.637v.124h9.956v-.124c0-.382-.125-.638-.513-.638-.257 0-.513-.125-.763-.256-1.276-.638-1.15-2.295-.894-3.703l1.019-4.846c.381.382.894.513 1.276.638.894.125 1.657 0 2.038-.124 1.659-.764 1.533-2.171 1.02-2.934-.256-.638-.512-.763-.637-.381-.383.513-1.02.637-1.658.382-1.658-.382-1.658-3.322 1.788-3.703 2.683-.257 4.978.256 7.273.762l3.065 10.206.382 1.533c.124 1.657-.639 2.04-1.914 2.426-.257.125-.382.257-.382.638v.125h13.146v-.125c-.007-.388-.132-.643-.513-.643zM71.268 46.878h-.126l.763-3.064c.763-3.959 1.657-7.911 2.551-11.869l4.34 14.04c-2.55-.126-5.234-.126-7.529.893zM86.845 60.53c-.848-2.807-1.552-5.122-2.104-6.957a403.493 403.493 0 01-1.401-4.721c-.38-1.317-.723-2.487-1.019-3.513a123.311 123.311 0 00-1.085-3.51 374.468 374.468 0 01-1.466-4.657 519.727 519.727 0 01-2.105-7.016l-.256-2.295 1.019 1.913a262.238 262.238 0 001.98 6.761 200.19 200.19 0 011.4 4.72c.382 1.362.743 2.618 1.085 3.77a90.734 90.734 0 001.21 3.76c.466 1.361.98 2.934 1.533 4.723.55 1.789 1.255 4.043 2.103 6.766l.125 2.171zm46.308-38.028c.382 0 .638-.126.638-.513v-.257h-15.565v.257c0 .381.256.513.638.638.381 0 .762.256 1.019.513.894.894.763 2.038.381 3.32l-5.36 23.096-5.872-23.096c-.256-1.276-.513-2.426.383-3.32a2.437 2.437 0 011.15-.638c.256 0 .382-.126.382-.513v-.257H95.504v.257c0 .381.124.513.513.513 2.039.255 2.552 2.295 2.552 3.958v34.583c0 1.658-.513 3.703-2.552 3.96-.382 0-.513.124-.513.512v.257h9.825v-.257c0-.381-.125-.513-.513-.513-2.039-.256-2.552-2.295-2.552-3.959V27.23c3.321 12.508 7.273 26.035 9.825 38.667h2.683L123.702 28V61.05c0 1.656-.638 3.701-2.551 3.958-.383 0-.513.124-.513.513v.256h13.145v-.256c0-.383-.256-.513-.637-.513-1.914-.257-2.427-2.295-2.427-3.96a1595.475 1595.475 0 010-34.583c.007-1.665.52-3.709 2.433-3.965zM113.13 55.684a651.701 651.701 0 01-1.79-6.892 432.29 432.29 0 01-1.018-4.149 163.474 163.474 0 00-.704-2.808c-.209-.81-.447-1.744-.704-2.808-.256-1.065-.598-2.447-1.02-4.15a466.425 466.425 0 01-1.656-6.892l-.124-2.295 1.018 2.039c.934 4.083 1.618 7.083 2.039 8.996.427 1.913.829 3.571 1.21 4.978.382 1.401.809 3.045 1.276 4.912.467 1.874 1.21 4.847 2.235 8.93l.125 2.172zm14.869-3.065c.039 1.874.065 4.21.065 7.018l-.512 2.17-.382-2.171c0-2.978.02-5.425.066-7.339a249.4 249.4 0 00.065-4.912V40.11c0-1.36-.019-2.998-.065-4.911a318.668 318.668 0 01-.066-7.339l.513-2.17.38 2.17c0 2.808-.02 5.148-.064 7.016a203.749 203.749 0 00-.067 4.978v7.786c0 1.447.02 3.11.067 4.978zm34.247-.638c-.257-3.827-1.532-6.122-3.065-7.91-1.657-1.913-3.827-2.809-7.785-3.19 1.656-.638 3.064-1.276 4.208-2.039 4.597-3.445 6.892-10.975.763-14.927-1.401-.895-3.065-1.532-5.103-1.913-1.913-.257-4.084-.257-16.717-.257V22c0 .383.125.513.513.513 2.039.257 2.552 2.295 2.552 3.96v34.583c0 1.657-.513 3.702-2.552 3.96-.381 0-.513.123-.513.512v.256h7.398c.895-.124 2.427-.513 2.552-1.912 3.32 2.931 10.845 2.037 14.165-.64 2.695-2.32 3.714-6.149 3.583-11.252zM142.03 34.884c-.046 1.874-.086 3.531-.125 4.978a122.771 122.771 0 00-.065 3.892v3.893c0 1.448.019 3.105.065 4.979.04 1.874.065 4.207.065 7.017l-.38 2.17-.513-2.172c0-2.977.019-5.424.065-7.338.04-1.912.067-3.55.067-4.912V27.866l.38-2.171.513 2.17a332.46 332.46 0 01-.072 7.017zm15.44-4.722c.21 1.532-.19 2.979-1.209 4.34h-.126c.934-2.893.552-5.57-1.15-8.044 1.446.934 2.275 2.172 2.485 3.704zm-12.836 9.7V25.059c2.039-.381 5.103.125 6.379 1.789 2.038 2.17 2.295 5.234 1.532 8.042-.256 1.151-.638 2.039-1.15 2.683-1.79 2.17-4.341 2.427-6.76 2.427zm10.594 13.776c-.125 2.933-1.532 8.424-5.36 8.043-3.57-.382-3.702-5.103-1.4-5.872.124 0 .257 0 .124-.125 0-.382-.637-.763-1.275-.895-1.15 0-2.04.513-2.808 1.533 0-4.084.124-9.7.124-13.146 3.447-.894 7.656.763 9.32 4.084.894 1.912 1.4 4.207 1.275 6.378zm3.71 4.15c-.428 1.321-1.066 2.321-1.914 2.999l-.513.382c1.447-2.21 2.189-4.743 2.235-7.597.04-2.846-.532-5.425-1.722-7.72l.256.257c.763.848 1.341 1.96 1.723 3.314a15.549 15.549 0 01.572 4.209c0 1.453-.21 2.84-.638 4.155z" class="st3"/><path d="M194.276 64.87c-2.17-.38-3.19-2.038-3.701-3.957-1.02-3.19-2.04-6.379-2.934-9.701.637-.124 1.275-.382 1.657-.763 1.788-1.15 3.064-5.36 1.4-6.892-.256-.256-.638-.256-.638.383 0 1.656-1.657 2.295-3.7 2.425h-.258l-4.466-14.678c-.513-1.912-1.275-6.122 1.79-6.635.637-.125 1.4 0 1.788.513.256.513.638.257.763-.125.256-1.532-1.151-3.32-2.552-3.7h-1.789c-4.596 0-7.91-.127-12.25-.127v.257c0 .382.124.513.512.637 1.914.125 2.683 2.295 2.427 3.828l-3.827 17.23-3.828 17.353c-.381 1.914-1.4 3.702-3.57 3.96-.382 0-.513.256-.513.637v.124h9.956v-.124c0-.382-.125-.638-.513-.638-.257 0-.513-.125-.763-.256-1.276-.638-1.15-2.295-.894-3.703l1.019-4.846c.381.382.894.513 1.276.638.894.125 1.657 0 2.038-.124 1.657-.764 1.532-2.171 1.02-2.934-.257-.638-.514-.763-.638-.381-.382.513-1.02.637-1.658.382-1.657-.382-1.657-3.322 1.79-3.703 2.682-.257 4.977.256 7.272.762l3.065 10.206.382 1.533c.124 1.657-.639 2.04-1.914 2.426-.257.125-.382.257-.382.638v.125h13.146v-.125c0-.388-.124-.643-.513-.643zm-22.714-17.992h-.126l.763-3.064c.764-3.959 1.658-7.911 2.552-11.869l4.34 14.04c-2.552-.126-5.234-.126-7.53.893zM187.14 60.53c-.855-2.807-1.553-5.122-2.104-6.957a403.493 403.493 0 01-1.4-4.721c-.383-1.317-.724-2.487-1.02-3.513a123.311 123.311 0 00-1.085-3.51 374.468 374.468 0 01-1.466-4.657 519.727 519.727 0 01-2.105-7.016l-.257-2.295 1.02 1.913a262.238 262.238 0 001.98 6.761c.55 1.789 1.019 3.36 1.4 4.72s.743 2.618 1.086 3.77a82.754 82.754 0 001.21 3.76c.466 1.361.978 2.934 1.532 4.723s1.255 4.043 2.103 6.766l.125 2.171zm33.55 2.045c1.533-2.808 2.427-12.126-1.788-14.802-1.02-.638-2.427.125-2.551.638 0 .124 0 .124.124.124 2.808.513 2.427 13.652-6.122 13.652h-4.597V26.33c0-1.657.513-3.701 2.552-3.959.382 0 .513-.124.513-.513v-.256h-13.146v.256c0 .383.257.513.513.513 2.039.257 2.552 2.295 2.552 3.96a1595.475 1595.475 0 010 34.583c0 1.657-.513 3.701-2.552 3.959-.256 0-.513.123-.513.513v.255h25.266v-.255c0-.64-.383-.64-.513-1.02-.25-.513.006-1.283.263-1.79zm-17.596-27.823v24.759l-.382 2.17-.381-2.17V27.736l.513-2.17.381 2.17a217.89 217.89 0 00-.131 7.017zm52.818 30.117c-2.17-.38-3.19-2.038-3.701-3.957-1.02-3.19-2.04-6.38-2.934-9.701.638-.124 1.276-.382 1.657-.763 1.789-1.15 3.065-5.36 1.4-6.892-.256-.256-.637-.256-.637.383 0 1.656-1.657 2.295-3.701 2.425h-.258l-4.465-14.678c-.513-1.912-1.276-6.122 1.789-6.635.638-.125 1.4 0 1.788.513.257.513.638.257.763-.125.257-1.532-1.15-3.32-2.551-3.701h-1.79c-4.595 0-7.91-.126-12.25-.126v.256c0 .383.125.513.513.638 1.912.125 2.683 2.295 2.426 3.828l-3.827 17.229-3.827 17.354c-.382 1.914-1.4 3.701-3.57 3.96-.382 0-.514.256-.514.637v.124h9.956v-.124c0-.383-.125-.638-.513-.638-.256 0-.513-.125-.762-.256-1.276-.638-1.151-2.295-.895-3.703l1.02-4.846c.38.382.894.513 1.275.638.895.124 1.657 0 2.039-.124 1.657-.764 1.532-2.171 1.019-2.934-.255-.638-.512-.763-.638-.382-.381.513-1.02.638-1.657.383-1.657-.383-1.657-3.322 1.789-3.704 2.683-.256 4.978.257 7.273.763l3.064 10.206.383 1.532c.124 1.658-.64 2.04-1.915 2.427-.256.125-.382.257-.382.638v.125h13.146v-.125c-.005-.388-.131-.644-.513-.644zm-22.72-17.992h-.125l.763-3.064c.762-3.96 1.657-7.911 2.551-11.869l4.34 14.04c-2.551-.126-5.227-.126-7.53.893zM248.77 60.53c-.855-2.807-1.553-5.122-2.104-6.957a403.493 403.493 0 01-1.4-4.722c-.383-1.316-.724-2.486-1.02-3.512a123.311 123.311 0 00-1.085-3.51 374.468 374.468 0 01-1.466-4.657 519.727 519.727 0 01-2.105-7.016l-.257-2.295 1.02 1.913a262.238 262.238 0 001.98 6.761 200.19 200.19 0 011.4 4.72c.382 1.362.743 2.618 1.086 3.77a82.754 82.754 0 001.21 3.76c.466 1.361.978 2.934 1.531 4.723s1.256 4.043 2.104 6.766l.126 2.17z" class="st3"/><path d="M276.84 50.193c-.638.124-1.151.513-1.276.894 0 .125 0 .256.125.256 2.295.257 2.683 10.463-5.36 10.463-8.292 0-8.805-13.146-8.805-19.013 0-5.996.638-10.46 1.912-13.4 2.04-5.105 8.55-5.873 11.483-2.04 1.02 1.15.513 4.21-.894 4.341-.125 0-.125.124-.125.256.124.256.638.763 1.276.763 1.912.257 3.57-1.913 3.959-3.445.256-1.401 0-2.934-.763-4.342-.383-.763-.764-1.789-.126-2.551.256-.257.382-.382.256-.763 0-.124-.123-.124-.123-.124-.515.38-1.915.38-3.066.38h-5.616c-5.103-.123-8.804 2.172-11.482 6.123a21.592 21.592 0 00-3.32 7.406c-.639 2.683-1.02 5.74-1.02 9.185 0 5.36.894 11.1 4.084 15.566 2.808 3.828 6.51 5.742 10.975 5.742 2.427 0 5.36-1.02 7.655-2.683 5.609-3.953 4.59-13.396.25-13.014zm-18.177 3.636a28.251 28.251 0 01-1.4-7.655 34.12 34.12 0 01.511-7.845c.467-2.551 1.171-4.721 2.105-6.51-.512 1.789-.913 3.94-1.21 6.445a46.91 46.91 0 00-.257 7.72 40.505 40.505 0 001.086 7.654c.591 2.466 1.486 4.512 2.683 6.123-1.54-1.526-2.71-3.506-3.518-5.932z" class="st3"/><path d="M311.298 64.747c-1.913-.257-2.426-2.295-2.426-3.958-.125-5.104-.125-10.207-.125-15.316.763-.125 1.4-.382 1.913-.763 1.79-1.275 3.065-5.359 1.533-6.891-.382-.257-.763-.257-.763.256 0 1.4-1.02 2.039-2.683 2.295 0-4.721 0-9.443.125-14.165 0-1.658.513-3.702 2.426-3.828.382-.124.638-.257.638-.638v-.256h-13.145v.256c0 .383.124.513.511.638 2.04.126 2.552 2.171 2.552 3.828V40.37c-3.701-.38-7.653-.762-10.593.383l-1.276.637V26.205c0-1.658.638-3.702 2.552-3.828.381-.124.638-.257.638-.638v-.256h-13.27v.256c0 .383.257.513.638.638 1.913.126 2.427 2.171 2.552 3.828v34.583c-.125 1.658-.638 3.703-2.552 3.96-.382 0-.638.255-.638.638v.123h13.27v-.123c0-.383-.256-.64-.637-.64-1.914-.255-2.552-2.294-2.552-3.957V50.582h.382c.894.125 1.657.125 2.038-.124 1.657-.639 1.532-2.04 1.02-2.934-.257-.513-.514-.638-.638-.256-.382.382-1.02.637-1.658.382-1.657-.382-1.657-3.32 1.79-3.702 2.932-.383 5.997.381 8.93 1.019v15.822c0 1.657-.514 3.701-2.552 3.958-.381 0-.513.256-.513.638v.124h13.146v-.123c.006-.39-.25-.64-.632-.64zm-23.977-30.052v24.692l-.381 2.17-.382-2.17V27.613l.513-2.172.382 2.172a220.894 220.894 0 00-.132 7.082zm18.821 17.669c.04 1.874.066 4.208.066 7.016l-.512 2.172-.383-2.172V27.605l.514-2.17.38 2.171c0 2.807-.018 5.168-.065 7.08s-.066 3.573-.066 4.98v7.785a200.813 200.813 0 00.066 4.913zm32.722 10.339c.763-1.534 1.532-4.467 1.151-7.275-.256-1.913-1.789-5.484-4.207-5.234-.64 0-1.152.513-1.277.762 0 .125 0 .257.125.257 2.808.381 2.295 11.1-6.123 11.1h-4.596c0-5.996-.124-11.994-.124-18.123h3.063c2.295 0 4.34 1.4 4.978 3.7.125.515.383.515.895.515h.125v-11.1h-.124c-.514 0-.764.123-.896.513-.638 2.17-2.551 3.7-4.978 3.7h-3.064c0-5.482.125-10.843.125-16.334h4.596c3.828 0 6.123 1.02 7.017 2.295.894 1.277.513 4.21-1.02 4.466 0 0-.123.124 0 .257 0 .256.639.762 1.276.762 1.79.257 3.446-1.913 3.828-3.57.381-1.533 0-3.065-.763-4.597-.381-.763-.638-1.789 0-2.552.125-.256.256-.382.256-.764-.124 0-.124-.123-.256 0-.513.257-1.914.257-2.933.257h-22.077v.256c0 .383.125.513.513.513 2.039.257 2.552 2.295 2.552 3.96V61.05c0 1.657-.513 3.702-2.552 3.96-.381 0-.513.124-.513.512v.256h25.14c0-.381.125-.513-.256-1.019-.52-.525-.27-1.42.118-2.059zM321.201 52.62c.039 1.875.066 4.209.066 7.017l-.513 2.171-.383-2.171V27.861l.515-2.17.38 2.171a236.362 236.362 0 00-.124 7.016v12.765c-.007 1.447.014 3.111.059 4.978z" class="st3"/></g></svg>
