<?xml version="1.0" encoding="UTF-8"?>
<svg version="1.1" viewBox="0 0 380 140" xml:space="preserve" xmlns="http://www.w3.org/2000/svg">
  <style>
    .st2{fill:#252e30}.st3{fill:#b0b0b0}
  </style>
  <g transform="translate(0 3.86) scale(.62101)">
    <path class="st2" d="M17.77 87.83A17.16 17.16 0 0 0 4.6 94.25c-7.23 9.01-5.8 22.2 3.29 30.03.36.3.74.61 1.12.9 7.26 5.48 17.17 5.97 27.8 6.05l2.99.01 3.12.01h12.2c-.3-.32-.58-.65-.86-.98h-11.3c-.75-.03-1.5-.04-2.27-.04-6.48-.04-10.54-3.6-10.54-3.6-1.47 1.95-4.14 3.07-7.22 2.78l-.21-.04-.53-.09c-5.2-.86-9.88-2.52-13.66-5.79-8.66-7.46-10.04-20.05-3.15-28.65 2.7-3.37 6.56-5.48 10.87-5.95s8.5.76 11.9 3.46a12.71 12.71 0 0 1 4.73 8.63c.38 3.41-.6 6.76-2.75 9.45a10.18 10.18 0 0 1-13.92 1.86c.44.1.92-.05 1.22-.42a1.4 1.4 0 0 0-.15-1.96 1.62 1.62 0 0 0-2.3.2c-.68.79-.58 1.98.2 2.67l.27.22a11.2 11.2 0 0 0 15.45-1.94c2.32-2.88 3.37-6.5 2.96-10.17s-2.21-6.97-5.1-9.29a17.16 17.16 0 0 0-10.99-3.77zm574.72.03c-3.3.27-6.56 1.5-9.34 3.72-2.89 2.31-4.7 5.61-5.1 9.29s.65 7.29 2.96 10.17a11.2 11.2 0 0 0 15.72 1.72c.79-.68.88-1.88.2-2.68a1.63 1.63 0 0 0-2.3-.19c-.58.5-.65 1.37-.15 1.96.31.36.8.53 1.22.42a10.18 10.18 0 0 1-13.92-1.87 12.82 12.82 0 0 1 1.99-18.07c3.39-2.7 7.6-3.94 11.9-3.47s8.17 2.6 10.87 5.96c6.9 8.6 5.51 21.17-3.15 28.65-3.78 3.27-8.45 4.93-13.66 5.8l-.53.08-.2.03c-3.08.3-5.77-.82-7.23-2.78 0 0-4.06 3.57-10.54 3.61l-2.28.01v.04h-446.2c-.18.35-.37.68-.57 1l453.04-.02v-.06c10.57-.07 20.44-.59 27.68-6.04l1.13-.9c9.07-7.81 10.5-21 3.28-30.01a17.18 17.18 0 0 0-14.82-6.37zM17.08 135.4v2.95h45.75a43.45 43.45 0 0 1-3.62-2.95zm101.48 0a24.92 24.92 0 0 1-4.36 2.95h31.86a37.68 37.68 0 0 1 4.91 9.48c.9 4.34 1.2 8.79.31 13.12-.5 2.73-1.79 5.25-3.23 7.58a36.1 36.1 0 0 1-5.23 6.35h-.01a1.6 1.6 0 1 0 2.26 2.31c.09-.08.16-.18.23-.28a58.76 58.76 0 0 0 4.2-7.61 41.18 41.18 0 0 0 2.59-8.18c.47-2.13.64-4.29.6-6.44.4 2.56.59 5.24.54 8.01a35.14 35.14 0 0 1-35.78 34.4 28.1 28.1 0 0 1-4.38-.43c-7.02-1.65-9.98-4.76-10.4-9.3 0 0-9.6-4.86-12.03-12.45a28.03 28.03 0 0 1-.6-6.32c.1-5.93 2.53-11.48 6.82-15.59s9.9-6.33 15.85-6.2c4.71.09 9.1 2 12.38 5.4s5.02 7.88 4.93 12.6a14 14 0 0 1-13.61 13.7c.51-.24.87-.78.9-1.4a1.78 1.78 0 0 0-1.7-1.85 2.1 2.1 0 0 0-2.18 2 2.45 2.45 0 0 0 2.3 2.54v.02h.05c4.07.06 7.91-1.45 10.84-4.26a15.16 15.16 0 0 0 4.69-10.71c.1-5.05-1.78-9.85-5.3-13.5s-8.22-5.7-13.27-5.8a23.33 23.33 0 0 0-16.76 6.57 23.34 23.34 0 0 0-7.2 16.48 29.11 29.11 0 0 0 8.97 21.6l.03.07.07.03c1.8 1.72 3.81 3.2 6 4.43a78.38 78.38 0 0 1-6.36-2.76c1.55.81 3.17 1.54 4.84 2.19-13.98-4.79-25.1-14.39-35.35-23.26l-2.91-2.5v-.02l-.01-.01c-8.83-7.58-17.43-14.41-27-16.76l-.06-.04c-3.7-1.16-9.12-2.37-13-2.11-2.84.2-5.7.53-8.48 1.34a59.88 59.88 0 0 0-8.14 3 1.6 1.6 0 0 0-.64 2.45 1.6 1.6 0 0 0 2.26.32v-.02c2.21-1.64 4.56-3.1 7.07-4.2 2.52-1.1 5.2-1.98 7.98-2.07 2.17-.1 4.32.07 6.45.46h-.29c-15.37-.09-27.88 11.46-28.48 26.27a22.08 22.08 0 0 0 21.15 22.94c4.74.19 9.28-1.48 12.76-4.7s5.53-7.6 5.72-12.35a14.36 14.36 0 0 0-13.76-14.91v.01a2.46 2.46 0 0 0-2.46 2.42c-.01 1.15.9 2.1 2.07 2.1.98.02 1.78-.76 1.8-1.76a1.57 1.57 0 0 0-.83-1.44c6.9.62 12.17 6.55 11.9 13.54-.19 4.4-2.07 8.47-5.3 11.45s-7.45 4.54-11.86 4.36c-5.56-.23-10.67-2.59-14.44-6.67S2.77 182.6 3 177.05c.57-14.13 12.52-25.14 27.2-25.06 6.4.03 12.33 2.35 18.1 5.9.19.13.4.24.58.37l.22.14c3.22 2.3 4.86 5.66 4.65 8.79 0 0 6.93-.04 13.25 5.37 12.8 11.06 26.97 22.96 46.37 25.42.65.11 1.31.2 1.98.26l-.47.01.72.02a36.42 36.42 0 0 0 38.91-35.55c.18-9.32-2.22-17.52-6.85-24.38h316.61c-4.63 6.86-7.03 15.06-6.85 24.38a36.42 36.42 0 0 0 38.9 35.55l.72-.02h-.46c.66-.07 1.32-.16 1.98-.27 19.4-2.46 33.57-14.36 46.37-25.42 6.32-5.4 13.25-5.37 13.25-5.37-.22-3.13 1.43-6.49 4.65-8.79l.22-.14c.18-.13.39-.24.58-.36 5.77-3.56 11.7-5.88 18.1-5.91 14.67-.08 26.62 10.93 27.2 25.06.22 5.55-1.73 10.85-5.5 14.93s-8.87 6.44-14.44 6.67c-4.4.18-8.6-1.37-11.85-4.36s-5.12-7.05-5.3-11.45a13.07 13.07 0 0 1 11.9-13.54c-.51.26-.84.83-.83 1.44.01 1 .82 1.78 1.8 1.77a2.09 2.09 0 0 0 2.07-2.11 2.46 2.46 0 0 0-2.46-2.42v-.01l-.44.02a14.36 14.36 0 0 0-13.32 14.9c.2 4.74 2.23 9.12 5.71 12.34s8.03 4.89 12.77 4.7a22.08 22.08 0 0 0 21.15-22.94c-.6-14.81-13.11-26.36-28.48-26.28l-.28.01c2.13-.39 4.28-.56 6.45-.46 2.78.1 5.46.98 7.98 2.06a36.43 36.43 0 0 1 7.06 4.21l.01.02c.72.53 1.72.39 2.26-.33s.4-1.72-.32-2.26a1.3 1.3 0 0 0-.32-.19 59.88 59.88 0 0 0-8.15-3 40.55 40.55 0 0 0-8.47-1.33c-3.89-.26-9.31.95-13 2.1l-.05.04c-9.58 2.35-18.18 9.18-27.02 16.77l-.01.01v.01l-2.9 2.5c-10.27 8.88-21.38 18.48-35.37 23.27 1.68-.65 3.3-1.38 4.85-2.2a77.69 77.69 0 0 1-6.37 2.77 29.58 29.58 0 0 0 6-4.43l.07-.03.04-.07a29.11 29.11 0 0 0 8.97-21.6 23.34 23.34 0 0 0-7.2-16.48 23.33 23.33 0 0 0-16.76-6.56c-5.05.09-9.77 2.15-13.28 5.8s-5.39 8.44-5.29 13.49a15.16 15.16 0 0 0 4.69 10.7 15.17 15.17 0 0 0 10.84 4.27h.04v-.01a2.45 2.45 0 0 0 2.3-2.55 2.1 2.1 0 0 0-2.17-2c-.99.04-1.75.87-1.7 1.85.03.62.39 1.16.9 1.4a14 14 0 0 1-13.61-13.7c-.1-4.72 1.65-9.2 4.93-12.6s7.66-5.31 12.38-5.4c5.95-.13 11.57 2.09 15.85 6.2s6.7 9.66 6.82 15.6c.05 2.16-.18 4.28-.6 6.31-2.43 7.59-12.03 12.45-12.03 12.45-.42 4.54-3.39 7.65-10.4 9.3-1.43.26-2.9.4-4.38.44a35.14 35.14 0 0 1-35.78-34.4c-.05-2.78.14-5.46.54-8.02a26.9 26.9 0 0 0 .6 6.44 41.18 41.18 0 0 0 2.6 8.18 58.76 58.76 0 0 0 4.19 7.61 1.6 1.6 0 1 0 2.5-2.02l-.02-.01a36.1 36.1 0 0 1-5.23-6.35c-1.44-2.33-2.73-4.85-3.23-7.58-.9-4.33-.6-8.78.3-13.12a37.68 37.68 0 0 1 4.92-9.48h129.03c-.06-.54-.1-1.65-.1-1.65s.02-.87.07-1.3zm327.5 14.07a1.18 1.18 0 1 0 1.18 1.58 1.18 1.18 0 0 0-1.17-1.58zm-280.2 0a1.19 1.19 0 0 0-1.18 1.57c.21.62.9.94 1.5.72s.94-.9.72-1.5a1.18 1.18 0 0 0-1.04-.79zM66.5 152.4a2 2 0 0 0-1.46 3.38l17.64 18.23-14.58-20.75a2 2 0 0 0-1.6-.86zm478.9.02c-.51 0-1.02.2-1.4.6-.07.08-.15.16-.2.25l-14.58 20.75 17.64-18.22c.77-.8.75-2.06-.04-2.82-.4-.39-.91-.57-1.42-.56zm-377.81 6.4a2.18 2.18 0 1 0 .82 4.23 2.18 2.18 0 0 0-.82-4.23zm276.71.01a2.16 2.16 0 0 0-2.14 1.45 2.18 2.18 0 1 0 2.14-1.44zM164.5 170.16a3.01 3.01 0 0 0-.96 5.8c-4.98 16.41-16.07 27.56-31.56 31.12-3 .35-5.62-1-5.62-1s-3.81 2.57-7.28 3.34c-.02 0 3.31.13 6.55-.07v.03c.25-.02.47-.06.72-.09.9-.06 1.79-.16 2.57-.3l.04-.03c17.76-2.78 30.46-14.68 35.89-32.8a3 3 0 0 0-.34-6zm282.93 0a3.01 3.01 0 0 0-1.15 5.84 3 3 0 0 0 .8.16c5.43 18.12 18.13 30.02 35.89 32.8l.04.02c.79.15 1.67.25 2.57.32l.72.08v-.03c3.24.2 6.57.08 6.55.07-3.46-.77-7.28-3.33-7.28-3.33s-2.61 1.34-5.62 1c-15.49-3.57-26.58-14.72-31.56-31.13a3 3 0 0 0-.96-5.8zM63.97 185.99a5.4 5.4 0 1 0 .2 10.81 5.4 5.4 0 0 0-.2-10.8zm483.98 0a5.4 5.4 0 0 0-1.78 10.55 5.4 5.4 0 1 0 1.78-10.55zM82.58 200.7a3.91 3.91 0 0 0-3.65 5.15 3.92 3.92 0 1 0 3.65-5.15zm446.76 0a3.92 3.92 0 1 0-.13 7.85 3.92 3.92 0 0 0 .13-7.85zm-428.23 8.08a2.13 2.13 0 1 0-.33 4.24 2.13 2.13 0 0 0 .33-4.24zm409.7 0a2.13 2.13 0 1 0 .34 4.24 2.13 2.13 0 0 0-.34-4.24z"/>
    <path class="st2" d="m306.42 160.11c-0.93 0-1.65 0.42-2.18 1.26a6.6 6.6 0 0 0-0.8 3.51c0 0.54 0.08 1.5 0.24 2.9h-1.44v0.55h1.52v14.53h-1.52v0.54h5.8v-0.54h-1.52v-14.53h1.52v-0.55h-1.82a10.05 10.05 0 0 1-1.19-4.95c0-0.6 0.13-1.1 0.37-1.5 0.25-0.42 0.54-0.62 0.89-0.62 0.4 0 0.61 0.13 0.61 0.36 0 0.06-0.1 0.22-0.29 0.5s-0.3 0.56-0.3 0.9c0 0.41 0.13 0.75 0.37 1 0.23 0.26 0.52 0.4 0.88 0.4 0.3 0 0.56-0.14 0.78-0.4 0.21-0.28 0.33-0.61 0.33-1.01 0-0.6-0.23-1.15-0.67-1.63a2.08 2.08 0 0 0-1.58-0.72zm-53.34 0.25v0.54h1.55v21.97h-1.55v0.55h6.1v-0.55h-1.53v-21.97h1.56v-0.54zm123.77 0v0.54h1.52v21.97h-1.52v0.55h5.25v-0.55h-0.97v-22.51zm-174.53 0v0.55h1.54v17.4c0 1.72 0.38 3.04 1.15 3.96s1.85 1.4 3.25 1.4c1.45 0 2.54-0.39 3.27-1.15s1.1-1.9 1.1-3.42v-16.99c0-0.35 0.1-0.63 0.31-0.86s0.48-0.35 0.83-0.35h0.5v-0.53h-3.89v0.54h0.51c0.35 0 0.63 0.12 0.83 0.34 0.21 0.22 0.31 0.51 0.31 0.87v16.91c0 1.23-0.24 2.2-0.74 2.87s-1.2 1-2.08 1a2.3 2.3 0 0 1-1.7-0.61 2.3 2.3 0 0 1-0.62-1.7v-19.67h1.56v-0.55zm146.73 0v0.55h1.55v20.16c0 0.67-0.1 1.14-0.34 1.4-0.23 0.27-0.63 0.4-1.2 0.4v0.56h3.76v-0.55c-0.6 0-1-0.14-1.22-0.4s-0.34-0.74-0.34-1.41v-20.06h0.07l3.91 22.4h0.7l3.8-21.91h0.06v21.37h-1.55v0.55h6.13v-0.55h-1.56v-21.97h1.58v-0.53h-5.08l-2.49 14.65h-0.07l-2.49-14.65zm-73.61 3.1v4.33h-1.85v0.55h1.85v12.83c0 0.77 0.2 1.38 0.61 1.84 0.4 0.46 0.94 0.68 1.6 0.68 1.64 0 2.63-1.15 2.94-3.46h-0.6c-0.25 1.6-0.7 2.4-1.37 2.4-0.28 0-0.42-0.23-0.42-0.67v-13.62h1.84v-0.55h-1.84v-4.34zm-56 4.04c-0.83 0-1.6 0.33-2.3 1-0.71 0.65-1.06 1.64-1.06 2.94 0 1.67 0.95 3.32 2.85 4.98a15.37 15.37 0 0 1 2.53 2.57c0.47 0.68 0.7 1.38 0.7 2.1 0 0.58-0.19 1.06-0.55 1.45-0.38 0.4-0.83 0.58-1.38 0.58-0.88 0-1.64-0.42-2.27-1.28a7.84 7.84 0 0 1-1.25-3.76h-0.53v5.32h0.53c0.07-0.41 0.2-0.61 0.4-0.61s0.46 0.1 0.76 0.3a4.8 4.8 0 0 0 2.43 0.57 3.8 3.8 0 0 0 2.6-0.95c0.7-0.64 1.05-1.65 1.05-3.07 0-1.87-1.15-3.8-3.45-5.77a14.48 14.48 0 0 1-2.28-2.27 2.86 2.86 0 0 1-0.5-1.63c0-0.56 0.16-1.02 0.47-1.38 0.3-0.35 0.72-0.53 1.24-0.53 0.83 0 1.54 0.35 2.12 1.08 0.57 0.73 0.96 1.78 1.16 3.18v-0.02h0.58v-4.52h-0.54c0 0.34-0.14 0.51-0.4 0.51-0.15 0-0.33-0.05-0.54-0.18a4.26 4.26 0 0 0-2.36-0.61zm23.58 0.01c-1.07 0-1.83 0.48-2.28 1.45h-0.07v-1.16h-4.28v0.55h1.52v14.53h-1.52v0.55h5.8v-0.55h-1.52v-11.6c0-0.82 0.2-1.55 0.57-2.17 0.38-0.63 0.8-0.94 1.25-0.94 0.19 0 0.28 0.08 0.28 0.25 0 0.03-0.06 0.1-0.15 0.24-0.28 0.44-0.43 0.8-0.43 1.1 0 0.37 0.14 0.68 0.4 0.95 0.26 0.26 0.6 0.4 1 0.4 0.45 0 0.82-0.16 1.1-0.47s0.42-0.7 0.42-1.13c0-0.56-0.21-1.03-0.61-1.42s-0.9-0.58-1.48-0.58zm56.24 0c-1.08 0-1.84 0.48-2.28 1.45h-0.07v-1.16h-4.28v0.55h1.52v14.53h-1.52v0.55h5.8v-0.55h-1.52v-11.6c0-0.82 0.19-1.55 0.57-2.17s0.8-0.94 1.24-0.94c0.19 0 0.28 0.08 0.28 0.25 0 0.03-0.06 0.1-0.15 0.24-0.28 0.44-0.42 0.8-0.42 1.1 0 0.37 0.13 0.68 0.4 0.95 0.26 0.26 0.6 0.4 1 0.4 0.44 0 0.81-0.16 1.1-0.47 0.27-0.31 0.42-0.7 0.42-1.13 0-0.56-0.22-1.03-0.62-1.42s-0.9-0.58-1.47-0.58zm26.64 0c-1.58 0-2.81 0.7-3.7 2.1s-1.35 3.38-1.35 5.91c0 2.6 0.43 4.6 1.26 6.02a3.97 3.97 0 0 0 3.6 2.12c1.22 0 2.1-0.4 2.62-1.2 0.51-0.82 0.85-2.15 1-4h-0.57a8.81 8.81 0 0 1-0.85 3.46c-0.43 0.77-1.02 1.15-1.76 1.15-0.67 0-1.23-0.31-1.68-0.94a4.3 4.3 0 0 1-0.67-2.55v-8.37c0-0.87 0.2-1.61 0.62-2.21 0.41-0.6 0.9-0.9 1.48-0.9 0.54 0 0.98 0.1 1.33 0.3s0.53 0.4 0.53 0.63c0 0.18-0.17 0.3-0.52 0.36-0.28 0.06-0.5 0.22-0.69 0.48s-0.28 0.56-0.28 0.9c0 0.35 0.14 0.66 0.4 0.92 0.27 0.26 0.56 0.4 0.9 0.4 0.43 0 0.8-0.18 1.08-0.49 0.3-0.31 0.44-0.71 0.44-1.18 0-0.92-0.3-1.62-0.9-2.14a3.38 3.38 0 0 0-2.29-0.77zm3.43 10.94m77.45-10.94c-1.07 0-1.83 0.48-2.28 1.45h-0.06v-1.16h-4.28v0.55h1.52v14.53h-1.52v0.55h5.8v-0.55h-1.52v-11.6c0-0.82 0.19-1.55 0.57-2.17s0.79-0.94 1.24-0.94c0.19 0 0.28 0.08 0.28 0.25 0 0.03-0.06 0.1-0.15 0.24-0.28 0.44-0.42 0.8-0.42 1.1 0 0.37 0.13 0.68 0.4 0.95 0.26 0.26 0.6 0.4 1 0.4 0.44 0 0.81-0.16 1.09-0.47s0.42-0.7 0.42-1.13c0-0.56-0.2-1.03-0.61-1.42-0.4-0.39-0.9-0.58-1.48-0.58zm-176.3 0.01a3.8 3.8 0 0 0-3.5 2.06c-0.79 1.37-1.2 3.36-1.2 5.96s0.43 4.59 1.27 6a3.97 3.97 0 0 0 3.6 2.13c1.23 0 2.16-0.44 2.8-1.34 0.63-0.9 1.02-2.27 1.18-4.13h-0.58a8.21 8.21 0 0 1-1 3.58c-0.54 0.85-1.2 1.28-1.97 1.28-0.67 0-1.23-0.32-1.68-0.94s-0.67-1.48-0.67-2.55v-3.59h5.95c0-2.81-0.35-4.94-1.06-6.34-0.7-1.42-1.74-2.12-3.14-2.12zm37.68 0c-1.36 0-2.45 0.8-3.25 2.43v-2.15h-4.28v0.55h1.52v14.53h-1.52v0.55h5.25v-0.55h-0.97v-10.8c0-0.8 0.27-1.57 0.8-2.37 0.54-0.8 1.07-1.18 1.56-1.18 0.31 0 0.57 0.17 0.76 0.52s0.28 0.83 0.28 1.43v12.39h-0.97v0.55h5.24v-0.54h-1.52v-11.66c0-1.18-0.25-2.09-0.75-2.74a2.58 2.58 0 0 0-2.15-0.96zm18.56 0c-1.54 0-2.7 0.68-3.5 2.06s-1.2 3.36-1.2 5.96 0.43 4.59 1.27 6a3.97 3.97 0 0 0 3.6 2.13c1.22 0 2.15-0.44 2.79-1.34s1.03-2.27 1.18-4.13h-0.58a8.21 8.21 0 0 1-1 3.58c-0.54 0.85-1.19 1.28-1.97 1.28-0.67 0-1.23-0.32-1.68-0.94s-0.67-1.48-0.67-2.55v-3.59h5.95c0-2.81-0.36-4.94-1.05-6.34-0.7-1.42-1.74-2.12-3.14-2.12zm27 0c-1.07 0-1.98 0.3-2.72 0.88-0.76 0.59-1.13 1.26-1.13 1.98 0 0.46 0.14 0.85 0.43 1.16 0.3 0.32 0.67 0.47 1.13 0.47 0.4 0 0.73-0.13 1-0.4 0.26-0.29 0.4-0.64 0.4-1.05 0-0.56-0.26-0.97-0.76-1.24-0.24-0.12-0.36-0.3-0.36-0.52 0-0.16 0.16-0.32 0.5-0.49s0.66-0.24 1.02-0.24c0.53 0 0.95 0.14 1.26 0.45 0.32 0.3 0.47 0.72 0.47 1.25v4.01c-0.14 0.3-0.94 0.92-2.39 1.86a8.62 8.62 0 0 0-2.46 2.14 3.89 3.89 0 0 0-0.66 2.23c0 1.1 0.27 1.97 0.83 2.63 0.55 0.66 1.25 1 2.1 1 1.33 0 2.27-0.55 2.8-1.63 0.3 1.08 0.98 1.63 2.05 1.63 0.7 0 1.25-0.22 1.63-0.66s0.57-1.05 0.57-1.84h0.03v-0.36h-0.53c0 1.26-0.23 1.89-0.7 1.89-0.34 0-0.5-0.27-0.5-0.8v-9.68c0-1.35-0.4-2.47-1.19-3.35a3.65 3.65 0 0 0-2.83-1.32zm22.47 0a3.8 3.8 0 0 0-3.5 2.06c-0.8 1.37-1.2 3.36-1.2 5.96s0.43 4.59 1.27 6 2.04 2.13 3.6 2.13c1.23 0 2.15-0.44 2.8-1.34 0.63-0.9 1.02-2.27 1.18-4.13h-0.58a8.21 8.21 0 0 1-1.01 3.58c-0.54 0.85-1.19 1.28-1.97 1.28-0.67 0-1.23-0.32-1.67-0.94a4.3 4.3 0 0 1-0.68-2.55v-3.59h5.95c0-2.81-0.36-4.94-1.05-6.34-0.7-1.42-1.74-2.12-3.14-2.12zm33.98 0c-1.06 0-1.97 0.3-2.72 0.88-0.76 0.59-1.13 1.26-1.13 1.98 0 0.46 0.15 0.85 0.44 1.16 0.3 0.32 0.67 0.47 1.13 0.47 0.4 0 0.73-0.13 1-0.4 0.26-0.29 0.4-0.64 0.4-1.05 0-0.56-0.26-0.97-0.76-1.24-0.24-0.12-0.36-0.3-0.36-0.52 0-0.16 0.16-0.32 0.5-0.49 0.33-0.16 0.66-0.24 1.02-0.24 0.52 0 0.95 0.14 1.26 0.45 0.32 0.3 0.47 0.72 0.47 1.25v4.01c-0.14 0.3-0.94 0.92-2.39 1.86a8.62 8.62 0 0 0-2.46 2.14 3.89 3.89 0 0 0-0.66 2.23c0 1.1 0.27 1.97 0.83 2.63 0.55 0.66 1.25 1 2.1 1 1.33 0 2.27-0.55 2.8-1.63 0.3 1.08 0.98 1.63 2.05 1.63 0.7 0 1.25-0.22 1.63-0.66s0.57-1.05 0.57-1.84h0.02v-0.36h-0.52c0 1.26-0.24 1.89-0.7 1.89-0.34 0-0.5-0.27-0.5-0.8v-9.68c0-1.35-0.4-2.47-1.2-3.35a3.65 3.65 0 0 0-2.82-1.32zm24.08 0c-1.55 0-2.7 0.68-3.5 2.06s-1.2 3.36-1.2 5.96 0.43 4.59 1.26 6a3.97 3.97 0 0 0 3.6 2.13c1.23 0 2.16-0.44 2.8-1.34 0.63-0.9 1.03-2.27 1.18-4.13h-0.58a8.21 8.21 0 0 1-1 3.58c-0.54 0.85-1.19 1.28-1.97 1.28-0.67 0-1.23-0.32-1.68-0.94s-0.67-1.48-0.67-2.55v-3.59h5.95c0-2.81-0.36-4.94-1.05-6.34-0.7-1.42-1.75-2.12-3.14-2.12zm-10 0.27v0.55h0.79c0.38 0 0.57 0.15 0.57 0.44 0 0.13-0.04 0.25-0.1 0.4s-0.46 0.71-1.23 1.73l-2.8 3.66 3.42 8.3h-1.03v0.55h5.38v-0.56h-1.3l-4.28-10.14 2.74-3.65c0.4-0.49 0.84-0.73 1.34-0.73h0.55v-0.55zm-153.77 0.27c0.43 0 0.76 0.23 1 0.69 0.25 0.46 0.38 1.1 0.38 1.91v4.7h-3.13v-4.18c0-0.95 0.15-1.7 0.47-2.27 0.3-0.57 0.73-0.85 1.28-0.85zm56.24 0c0.42 0 0.76 0.23 1 0.69 0.25 0.46 0.37 1.1 0.37 1.91v4.7h-3.13v-4.18c0-0.95 0.16-1.7 0.47-2.27s0.74-0.85 1.29-0.85zm49.47 0c0.42 0 0.76 0.23 1 0.69 0.25 0.46 0.37 1.1 0.37 1.91v4.7h-3.13v-4.18c0-0.95 0.16-1.7 0.47-2.27 0.32-0.57 0.74-0.85 1.29-0.85zm58.05 0c0.43 0 0.76 0.23 1.01 0.69s0.37 1.1 0.37 1.91v4.7h-3.13v-4.18c0-0.95 0.16-1.7 0.47-2.27s0.74-0.85 1.28-0.85zm-79.3 6.47v5.98a2.5 2.5 0 0 1-0.46 1.54c-0.3 0.4-0.61 0.6-0.95 0.6-0.8 0-1.18-0.55-1.18-1.66v-2.58c0-0.68 0.1-1.23 0.3-1.68 0.22-0.45 0.67-0.92 1.35-1.4a5 5 0 0 0 0.94-0.8zm56.46 0v5.98a2.5 2.5 0 0 1-0.46 1.54c-0.3 0.4-0.62 0.6-0.95 0.6-0.8 0-1.19-0.55-1.19-1.66v-2.58c0-0.68 0.1-1.23 0.32-1.68s0.66-0.92 1.34-1.4a5 5 0 0 0 0.94-0.8z" fill="#252e30" stroke-width=".11"/>
    <g transform="translate(-54.77 -137.52) scale(.11178)">
      <path class="st3" d="m1453.1 1298.3-2 1.6c-54.1 43.3-63.9 104.9-73.3 164.6-10.2 64.1-19.8 124.7-86.3 147.2-9.6 3.2-19.2 3.9-28.5 2.5.1.1 68.2 45.5 68.4 45.7 12.7 8.9 29.3 13.4 47.5 7.3 17.8-6 31.1-15.1 41.4-26.3l25.5-114.7c2.1-12.6-1.5-27.8-9.1-37.4-5.3-6.7-12.1-10.4-20.3-10.9l-2-.4c-6.6-2.2-13.4-6-13.4-17.5v-12.1h8.2c23.9 0 45.4.3 67 .6 10.6-33.9 27.7-66.1 60-91.8l-1.9-1.9c-.8-2.3-1.9-3.7-3.2-4.4-.3-.2-77.9-52.1-78-52.1zm-239.22 43c-65.66-1.06-148.73 42.99-195.28 138.1-49.6 103.1-76 254.2-70.6 404 5.9 165.2 48.8 304.4 120.6 391.8 25.3 30.8 53.7 54.7 85 71.9-159.7-192.4-152.5-597.4-52.3-805.8 47.9-97.9 136.5-146.5 208.4-142.4-13.6-28-37.1-47-68.9-54.4a128.33 128.33 0 0 0-26.91-3.2zm4308.2 123c-.7 2.2-1.7 4-2.5 5.5-.3.6-.7 1.2-1 1.9l-1 1.6c-7.2 8.6-3.4 21 1 29.9 14 27.9 18 52.6 12.3 75.5-6.2 27-32.6 63.2-64.9 60.6.1 0 74.9 49.9 74.9 49.9 3.7 2.6 8.8 4.8 13.9 4.8 27.2 3.9 52.4-29.1 58.2-54.3 5.8-23.3 0-46.6-11.6-69.9-5.8-11.6-9.7-27.2 0-38.8 1.9-3.9 3.9-5.8 3.9-11.6-.4 0-82.9-54.9-83.2-55.1zm-697.9.3c-2.1 8.9-10.5 11.7-14.8 13.2l-2 .4c-29.7 2-31.2 42-31.2 50v217.7l7.6-3.8c22.4-8.8 47.9-12 74.3-12.4v-135.9c0-14.2 3.1-30.2 10.9-41.9 4.7-6.4 11.1-11.6 19.3-14.7 2.7-.8 5.5-1.4 8.6-1.6 5.8-1.9 9.7-3.9 9.7-9.7v-3.9l-81.9-54v-3.4zm-221.9.2c-1.1 4.18-4.13 8.12-7 10.9-4.7 5.7-3.8 14.9 3.5 29.3 12.2 22.3 16.6 47.7 12.4 71.1-6.6 26.5-33.5 61.2-66.2 59.2.1.1 75.1 50 75.1 50 3.4 2.6 7.9 4.7 13 4.7 7.7 1 15.2-.6 22.1-3.9v-160.6c-.9-11.9-3-21.7-6.1-29.5-.3-.3-46.5-31.1-46.8-31.2zm-1060.6 1.8c-1.4 7.4-6.6 11.5-15 11.6-27.1 3.7-31.2 34.1-31.2 52v537.1h61.7c7.2 0 13.8-.8 20.2-2.1v-469.5c0-25.2 7.8-56.3 38.8-60.2 5.8 0 7.8-1.9 7.8-7.8v-3.9h-.9v-.6h-.9v-.6h-.9v-.6h-.9v-.6h-.9v-.6h-.9v-.6h-.9v-.6h-.9v-.6h-.9v-.6h-.9v-.6h-.9v-.6h-.9v-.6h-.9v-.6h-.9v-.6h-.9v-.6h-.9v-.6h-.9v-.6h-.9v-.6h-.9v-.6h-.9v-.6h-.9v-.6h-.9v-.6h-.9v-.6h-.9v-.6h-.9v-.6h-.9v-.6h-.9v-.6h-.9v-.6h-.9v-.6h-.9v-.6h-.9v-.6h-.9v-.6h-.9v-.6h-.9v-.6h-.9v-.6h-.9v-.6h-.9v-.6h-.9v-.6h-.9v-.6h-.9v-.6h-.9v-.6h-.9v-.6h-.9v-.6h-.9v-.6h-.9v-.6h-.9v-.6h-.9v-.6h-.9v-.6h-.9v-.6h-.9v-.6h-.9v-.6h-.9v-.6h-.9v-.6h-.9v-.6h-.9v-.6h-.9v-.6h-.9v-.6h-.9v-.6h-.9v-.6h-.9v-.6h-.9v-.6h-.9v-.6h-.9v-.6h-.9v-.6h-.9v-.6h-.9v-.6h-.9v-.6h-.9v-.6h-.9v-.6h-.9v-.6h-.9v-.6h-.9v-.6h-.9v-.6h-.9v-.6h-.9v-.6h-.9v-.6h-.9v-.6h-.9v-.6h-.9v-.6h-.9v-.6h-.9v-.6h-.9v-.6h-.9v-.6h-.9v-.6h-.9v-.6h-.9v-.6h-.9v-.6h-.9v-.6h-.9v-.6h-.9v-.6h-.9v-3.2zm-1488.4 1.9c-1.7 9.5-8.7 11.3-12.4 11.6-6.3 1.7-10.5 4.9-12.9 7.3-9.7 9.7-7.8 22.2-3.9 41.7l.3 1.4 80.9 318.2 31-133.6-29.9-117.5c-3.9-19.4-7.8-36.9 5.8-50.5 3.9-3.9 9.7-7.8 17.5-9.7 3.9 0 5.8-1.9 5.8-7.8v-3.9l-81.8-54v-3.2zm3056.2.9c-2.1 8.9-10.5 11.7-14.8 13.2l-2 .4c-26.4 1.8-29.2 35.6-29.2 50-1.8 68.5-1.9 138-1.9 205.4 21.2-5.4 24.4-15.5 24.4-25 0-8.2 4.3-11.8 6.9-13.1 4.9-2.7 11.2-1.8 17.5 2.4l1.2 1c9.7 9.7 14.1 24.9 12.5 43.8-2.4 29-17.9 59.9-36.8 73.4-7.1 5.3-15.7 9.2-25.7 11.7 0 74.2.1 150.7 1.9 226 0 14.6 2.9 48.3 29.3 52.2 10 .3 17.2 7.7 17.2 17.9v10.1h-199l81 54.6h199.9v-1.9c0-3.3-1.4-5.9-3.5-7.6-.3-.3-35.7-23.8-36-24-1.8-3.9-3.2-8.1-4.3-12.4h.9l72 48.6h382.3c0-5.8 1.9-7.8-3.9-15.5-7.8-8.6-3.9-22.2 1.9-31.9 11.6-23.3 23.3-67.9 17.5-110.6-2.9-21.9-16.9-58.2-39.3-73 0 0-58.9-39.3-59.1-39.4 9 16.2 14.7 34.3 16.5 47.8 5.8 42.8-5 88.8-18.3 115.4-4.7 7.8-7.5 17.5-3.5 21.6l.8.9c6 7.9 6.1 12.6 5.7 17.8-.1.8-.1 1.6-.1 2.6v8.2h-398.7v-12.1c0-10.1 5.5-15.7 15.4-15.9 2.5-.3 4.8-1 7-1.8-1.7-73.8-1.7-147.6-1.7-221.4 10.2-1.7 18.7-5 25.9-9.6v-125.3c-.1-.1-25.9-17.2-25.9-17.3.2-46.7.6-93.3 1.8-140 0-14 2.4-29.9 9.6-41.5 3.6-5.4 8.4-9.8 14.4-13v-7.1c0-8.1-.9-18.8-4.3-28.4zm-2711.1 3.7c-2.6 3.9-7.2 6.7-14.6 6.9-26.4 3.9-29.3 37.6-29.3 52-1.9 174.5-1.9 351.4 0 525.8 0 14.5 2.9 48.2 29.3 52.1 7.5.1 12 3 14.6 6.9 2.4-4.3 6.9-6.7 13.3-6.9 12.3-1.7 19.8-8.9 24.4-17.9-1.6-164.4-1.6-330.3.3-494.5 0-11.7 1.8-24.7 6.5-35.6V1532c0-17.9-4.1-48.3-31.2-52-6.4-.1-10.9-2.5-13.3-6.9zm792 18.2c3.9 7.3 5.8 17.1 4.2 26.6l-.3 1.2c-2.3 6.8-7.5 11.4-13.3 11.9-2.5.2-8.7-.3-13-8-4-4.7-12.3-5.5-18.7-4.2-9.5 1.6-16.1 5.7-20.6 12.7-9.5 14.7-9.5 43.1-.2 78l66 216.9c30.3-2.3 45.9-11.9 45.9-28.5 0-5.6 1.5-9.3 3.4-11.7l-33.2-109.1c-7.8-29.1-19.4-93.1 27.2-100.9 4.7-.9 9.9-1 14.7.2.3.2 13.7 9.3 13.9 9.4 3.8 4.7 8.5 1.1 10.3-4.1 3-17.8-8.8-37.8-24-48.9 0 0-62.2-41.5-62.3-41.5zm-1525.2.1c3.9 7.2 5.8 17 4.2 26.5l-.3 1.2c-2.3 6.8-7.5 11.4-13.3 11.9-2.5.2-8.7-.3-13-8-4-4.7-12.4-5.5-18.7-4.2-9.5 1.6-16.1 5.7-20.6 12.7-9.5 14.7-9.5 43.1-.2 78.1l66 216.9c30.3-2.3 45.9-11.9 45.9-28.5 0-5.6 1.5-9.3 3.4-11.7l-33.2-109.1c-7.8-29.1-19.4-93.1 27.2-100.9 4.7-.9 9.9-1 14.7.2.3.2 13.7 9.3 13.9 9.4 3.8 4.7 8.5 1.1 10.3-4.1 3-17.8-8.8-37.8-24-48.9 0 0-62.2-41.5-62.3-41.5zm2462.5 0c3.9 7.2 5.7 17 4.2 26.5l-.3 1.2c-2.3 6.8-7.5 11.4-13.3 11.9-2.5.2-8.7-.3-13-8-3.9-4.7-12.4-5.5-18.7-4.2-9.5 1.6-16.1 5.7-20.6 12.7-9.5 14.7-9.5 43.1-.2 78.1l66 216.9c30.3-2.3 45.9-11.9 45.9-28.5 0-5.6 1.5-9.3 3.4-11.7l-33.2-109.1c-7.8-29.1-19.4-93.1 27.2-100.9 4.7-.9 9.9-1 14.7.2.3.2 13.7 9.3 13.9 9.4 3.8 4.7 8.5 1.1 10.3-4.1 3-17.8-8.8-37.8-24-48.9 0 0-62.2-41.5-62.3-41.5zm334.23 25.65c-4.03.06-8.11.37-12.23.95-35.1 4.8-64.1 27.9-77.6 61.7-19 43.6-28.5 111.1-28.5 200.7-.1 178.4 38.6 272.5 115 280.4-30.3-66.2-33.2-160.8-33.2-214.9 0-91.2 9.7-159.1 29.1-203.8 15.9-39.7 49.5-61.9 84.5-66.6.6-9.9-1.5-19.4-6-24.5-17.06-22.23-42.85-34.35-71.07-33.95zm-1884.7.02c-3.84.06-7.6.3-11.22.73v211.7c33.7-.7 61-6.5 81.9-27v-126.3c6.3-1.2 13.2-1.7 20.4-1.7-4.5-11.6-11-22-19.4-31-14.18-18.37-44.82-26.87-71.68-26.43zm2715.2 3.83c-.1 39.1-.5 78.2-1 116.1-.4 37.9-.9 76.9-1 115.9h38.4c16.8 0 32-5.5 44.1-15 .6-53.1 1.3-106 1.3-159.7h69.9c5.4 0 10.6.1 15.6.4.6-10.1-1.3-20.2-5.6-26.3-13.8-19.7-51.2-31.4-100-31.4zm-2509.2 9.4c13 19 17.2 40.2 17.8 57.2 1.8 50.8-26.2 105.5-71.4 139.4-10.6 7.1-22.7 13.6-37.6 20.4 43.7 7.6 71.2 21.9 93.2 47.3 1.5 1.7 3 3.6 4.5 5.4 9-4.5 17.5-9.1 25-14.1 67.9-50.9 102.8-160.5 19.2-221.8l-.9-.6-1.8-1.2-.9-.6-3.6-2.4-.9-.6-3.6-2.4-.9-.6-3.6-2.4-.9-.6-3.6-2.4-.9-.6-3.6-2.4-.9-.6-3.6-2.4-.9-.6-3.6-2.4-.9-.6-3.6-2.4-.9-.6-3.6-2.4-.9-.6-3.6-2.4-.9-.6-1.8-1.2c-.1-.1-.2-.1-.3-.2zm-861.4 76.8v452c0 17.9 4.1 48.3 31.2 52 9.9.2 15.4 5.9 15.4 15.9v12.1h-364.8l81.9 52.7h195.9v-1.9c0-4.4-1.2-7.7-4.3-9l-49.5-33c-.3-.5-.6-1-.8-1.6h8.8l69.3 46.8h145.4v-3.9c-.1-1.2-.9-3.2-2.6-4.3-.2-.3-37.5-25-37.7-25.2-4.7-10.8-6.4-23.5-6.4-35v-211.6c-19.5-76.4-40.4-153.2-60.9-228.8-7-25.9-14.1-51.7-20.9-77.2zm309.6 20.3-121.2 514.1h-38.3c0 .2 81.1 54.4 81.1 54.6h40.7l13.1-55.5 76.2 51h197.9v-3.9c0-3.2-1.2-5.1-3.3-6.3l-.9-.6-35.9-24c-.1-.2-.2-.4-.2-.6h10.6l51.3 34.8h104.6c13.5-1.9 36.5-7.7 38.7-28.6.2.1 9.6 6.4 9.6 6.4 50.2 33.1 143.3 23.2 194.5-8.9l40.5 27.5h151.4v-1.9c0-4.4-1.2-7.7-4.3-9-.3-.2-28.3-19.1-28.7-19.2-4.2-11.8-2.6-27-.1-40.7l15.4-73.3c.2.1 4.1 2.7 4.5 3 .7.4 1.4.7 2 1.1.9.5 1.8 1 2.7 1.4 3.6 1.6 7.1 2.6 10.2 3.6 13.6 1.9 25.2 0 31.1-1.9 25.2-11.6 23.3-33 15.5-44.6-2-5.1-4-8-5.8-8.8-.3-.3-40.2-26.9-40.4-27 6.5-5.5 18.8-13.3 38.7-15.5 9.6-.9 18.9-1.1 27.9-.9l-13.8-46c-33.6-7.4-65.7-14-103.4-10.4-25.7 2.9-35.6 15.7-36.2 25.8-.4 7.2 3.5 12.9 10.1 14.4l1.2.4c3 1.2 10.1 3.2 15-2.4 2.8-6.4 7.7-7.3 9.8-7.3h.3c8.2 0 12.3 9.1 14.1 13.5 5.8 9.1 7.5 20.3 4.7 30.1-2.2 7.6-8.1 18.3-24.1 25.7l-.8.3c-7.4 2.4-20.4 4.3-34.8 2.3l-3.5-1c-2.7-.9-5.9-1.9-9.2-3.4l-13.1 62c-5 27.3-2.2 41.5 9.2 47.3 3 1.5 6 3 8 3 7.7 0 15.9 4.7 15.9 17.9v10.1h-167.7v-10.1c0-12.9 7.9-17.7 15.4-17.9 30.6-3.8 42.4-31.2 46.9-53.6l35.3-160.1c-6.3-10.8-13.3-20.3-20.7-28.9-6.3-7.3-13.2-13.6-20.8-19.1-.5-.3-50.1-33.5-50.1-33.5 16.4 23.3 32.1 56.4 35.6 108.5 2.1 84.8-16.6 142.7-57.2 177.5-51 41.2-159.8 54.7-216.3 17.2-5.3 10.2-17.2 20-42.1 23.5l-.6.1h-332.8v-12.1c0-10.1 5.4-15.7 15.3-15.9 6.7-1 11.9-3.8 16-7.6l15.3-64.7zm-739.6 19.9c-11.2 49.6-22.3 100.3-32 150.3l-8.1 32.5c30.4-10.2 63.4-10.9 93.6-9.8zm1525.2 0c-11.2 49.6-22.3 100.3-32 150.3l-8.1 32.5c30.4-10.3 63.4-10.9 93.6-9.8zm937.2 0c-11.1 49.4-22.3 99.9-32 150.3l-8.1 32.5c30.4-10.3 63.4-10.9 93.6-9.8zm1474 61.2V1874h-9.6c.2.2 26.2 17.5 26.4 17.6 4.9-4.1 11.6-7.6 19.2-7.7 18.6-1.8 34 8.5 45.9 23.3v-145.7zm-2839.5 83.7c-7.62-.12-15.24.53-22.71 2-.1 24.1-.5 53.9-.9 85.3-.4 29.8-.8 60.3-1 87.9 10.1-7.6 21.5-11.4 34.4-11.4l1.6.2c11.3 2.3 23.4 8.9 25.6 18.5 1.9 3.4 1 6.4.5 7.7-1.8 3.2-6 4-8.7 4.2-12.8 5-18 21.6-16.4 35.8 1.8 16.2 12.4 34.5 37.1 37.2 12.8 1.3 24-2.4 34.1-11.1 6.9-5.9 12.8-14.1 17.8-23.4-.1-.1-.2-.1-.3-.2l-.9-.6-.9-.6-1.8-1.2-.9-.6-.9-.6-.9-.6-1.8-1.2-.9-.6-.9-.6-.9-.6-1.8-1.2-.9-.6-.9-.6-.9-.6-1.8-1.2-.9-.6-.9-.6-.9-.6-1.8-1.2-.9-.6-.9-.6-.9-.6-1.8-1.2-.9-.6-.9-.6-.9-.6-1.8-1.2-.9-.6-.9-.6-.9-.6-1.8-1.2-.9-.6-.9-.6-.9-.6-1.8-1.2-.9-.6-.9-.6-.9-.6-.9-.6-.3-.3c.6-50.7 1.6-105.1 1.6-142.6 13.7-3.5 28.2-4.4 42.5-2.9-19.15-34.76-60.52-57.5-101.69-58.1zm-838.01 14.5c2.1 7.6 2.8 16.4 2 26.1-2.5 28.8-17.5 58.3-35.8 70.5-5.9 5.6-13.7 9-20.3 11.1 13 47.5 27.9 94 42.3 139.1 8.7 32.6 24.4 49.9 49.3 54.5 6.5.3 13.1 4 14.7 13.3 1.5-7.1 6.5-11 14.5-11.3-14.3-44.7-28.4-89.5-41-136 9.7-1.9 19.4-5.8 25.2-11.6 27.2-17.5 46.6-81.5 21.3-104.8-.6-.6-72.1-50.8-72.2-50.9zm3093.1.69a190.5 190.5 0 0 0-30.08 1.41c-26 2.9-35.9 15.7-36.4 25.8-.4 7.2 3.5 12.9 10.1 14.4l1.2.4c5.9 2.4 11.7 0 15.3-3 2.7-5.6 7.3-6.6 9.2-6.7 8.9-.4 13.2 8.7 14.7 11.8 6.2 10.8 7.7 23.2 4.1 33.5-2.4 6.9-8.5 16.2-23.2 22.1-6.7 4-17.1 5-32.4 3.2V2057c0 7.9 1.5 47.6 31.3 52 10 .3 17.3 7.7 17.3 17.9v10.1h-218.2v-10.1c0-10.1 7.2-17.6 17.2-17.9 18.3-2.7 28.8-20.4 31.3-52.6v-108.7s-33.8-22.5-34-22.7c1 2.2 2 4.3 2.9 6.7 18.4 50.2 2.6 129.5-54.9 170-36.1 26-82.5 42.2-121.1 42.2-27.1 0-52.3-4.5-75.6-13.3.1.1 50.8 33.9 50.8 33.9 6.9 4.8 14.1 9.1 21.5 12.9 28 14.7 59.2 22.1 93.3 22.1 36.9 0 81.5-15.5 116.4-40.8.2-.1 50.4 33.3 50.4 33.3h201.8v-1.9c-.1-4-1.5-6.5-3.6-8.2-.3-.3-37.3-24.9-37.5-25-5.3-11-7.5-24.1-7.5-36v-155.2h5.8c13.6 2 25.2 2 31.1-1.9 25.2-9.7 23.3-31.1 15.5-44.6-1.8-3.5-3.5-5.7-5.1-6.7-.3-.3-40.9-27.3-41-27.4 6.3-9 18.6-16.7 38.3-18.9 12.4-1.6 25.01-1.8 37.61-1.1v-42.3l-4.5-1c-30.45-6.67-61.63-13.57-92.02-14.41zm-1567.9 1.3c2.1 7.6 2.9 14.4 2 24-2.5 28.8-17.5 58.3-35.8 70.5-5.9 5.5-13.7 9.01-20.3 11.11 13 47.5 27.9 94 42.4 139.1 8.6 32.2 24.7 49.9 49.3 54.5 5.5.2 11 2.9 13.6 9.3 2.3-5.5 7.4-9.1 14.1-9.3.3 0 .6-.1.9-.2-14-44-28-88.1-40.3-133.8 9.7-1.9 19.4-5.8 25.2-11.6 27.2-17.5 46.6-81.5 21.3-104.8-.6-.6-72.2-48.7-72.4-48.8zm2014.6 1.3c0 44.1.5 88.2 1 130.9.4 42.1.8 85.5.9 128.3h61.7c7.1 0 13.5-.7 19.8-1.6-.6-66.2-1.5-132.7-1.5-200.2h27.4c-1.3-1.9-2.4-4.2-3.2-7.3-8.3-29.9-35.5-50.1-67.7-50.1zm-1078.4 41.6c-5.7 22.7-18.1 43.5-32.7 53.3-5.9 5.6-13.7 9-20.3 11.1 13 47.3 27.8 93.7 42.2 138.7l.3.81c8.6 32.3 24.3 49.5 49.2 54.1 7.5.3 15.1 5.2 15.1 17.9v10.1H4066l81.9 54.6h199.9v-1.9c-.1-3.4-1.2-6.6-4.3-8-.3-.2-49.1-32.9-49.5-33-4.4-8-7.8-16.9-10.3-26.2-12.9-40.5-25.8-81-37.6-122.6-18.8-42.2-30.3-91.8-34-148.9zm-490.5 33.1c33 60.4 21.1 163.3-.2 202.4-4 8-5.5 16-3.7 19.6l.4 1.11c.1.4.5.8 1.6 1.9 2.5 2.6 6.6 6.9 6.6 16.2v12.1h-597.7l81.9 54.6h199.9v-1.9c0-4.4-1.2-7.7-4.3-9-.3-.2-49.1-32.9-49.5-33-.5-1-1.1-1.9-1.6-2.9h6.5l68.4 46.2h378.2v-3.9c0-9.4-5.4-9.7-7.5-15h.8l26.1 18H3979v-1.9c0-4.4-1.2-7.7-4.3-9-.3-.2-28.3-19.1-28.7-19.2-4.2-11.8-2.6-27-.1-40.7l15.4-73.3c.2.1 5.9 3.8 6.6 4.1.9.5 1.8 1 2.7 1.4 3.6 1.6 7.1 2.6 10.2 3.7 13.6 1.9 25.2 0 31-1.9 25.2-11.6 23.3-33 15.5-44.6-2-5.1-4-8-5.8-8.8-.3-.3-40.2-26.9-40.4-27 6.5-9.3 18.8-17.1 38.7-19.3 9.6-.9 18.9-1.1 27.9-.9l-13.8-46c-33.6-7.4-65.7-14-103.4-10.4-25.7 2.9-35.6 15.7-36.2 25.8-.4 7.2 3.5 12.9 10 14.4l1.2.4c2.9 1.2 10.1 3.2 15-2.4 2.8-6.4 7.7-7.3 9.8-7.3h.3c8.2 0 12.3 9.2 14.1 13.5 5.8 9.1 7.5 20.3 4.7 30.2-2.2 7.6-8.1 18.3-24.1 25.7l-.8.3c-7.4 2.4-20.3 4.3-34.8 2.3l-3.5-1c-2.7-.9-5.9-1.9-9.2-3.4l-13.1 62c-5 27.3-2.2 41.5 9.2 47.3 3 1.5 6 3 8 3 7.7 0 15.9 4.7 15.9 17.9v10.1h-167.7V2126c0-12.9 7.8-17.7 15.4-17.9 30.6-3.8 42.4-31.2 46.9-53.6l19.4-88c-7.4-19-18.3-34.9-33.8-44.8 0 0-55.4-36.9-55.6-37zm-2226.3 11.66c-8.83-.22-17.9.05-27.32.95-25.7 2.9-35.6 15.7-36.2 25.8-.4 7.2 3.5 12.9 10.1 14.4l1.2.4c2.9 1.2 10.1 3.2 15-2.4 2.8-6.4 7.7-7.3 9.8-7.3h.3c8.2 0 12.3 9.2 14.1 13.5 5.8 9.1 7.5 20.3 4.7 30.2-2.2 7.6-8.1 18.3-24.1 25.7l-.8.3c-7.4 2.4-20.4 4.3-34.8 2.3l-3.5-1c-2.7-.9-5.9-1.9-9.2-3.4l-13 62c-5 27.3-2.2 41.5 9.2 47.3 3 1.5 6 3 8 3 7.7 0 15.9 4.7 15.9 17.9v10.1h-151.4l81.9 54.6h151.4v-1.9c0-4.4-1.2-7.7-4.3-9-.3-.2-28.4-19.1-28.7-19.2-4.2-11.8-2.6-27-.1-40.7l15.4-73.3c.2.1.4.3.6.4l1.8 1.2.9.6c.4.3.8.5 1.2.8.7.4 1.4.7 2 1.1.9.5 1.8 1 2.7 1.4 3.6 1.6 7.1 2.6 10.2 3.6 13.6 1.9 25.2 0 31-1.9 25.2-11.6 23.3-33 15.5-44.6-2-5.1-4-8-5.8-8.8-.3-.3-40.2-26.9-40.4-27 6.5-8.8 18.8-16.6 38.7-18.8 9.6-.9 18.9-1.1 27.9-.9l-13.8-46c-25.28-5.63-49.6-10.69-76.08-11.35zm11.78 389.65c3.5 9.1 4.7 19 3.3 29.3-12.9 69.8-71.6 90.2-133.8 111.8-58 20.2-118 41-152.4 102.6l-2.3 4.2h-.5c.3.2.5.5.9.6.3.2.5.5.9.6.3.2.5.5.9.6.3.2.5.5.9.6.3.2.5.5.9.6.3.2.5.5.9.6.3.2.5.5.9.6.3.2.5.5.9.6.3.2.5.5.9.6.3.2.5.5.9.6.3.2.5.5.9.6.3.2.5.5.9.6.3.2.5.5.9.6.3.2.5.5.9.6.3.2.5.5.9.6.3.2.5.5.9.6.3.2.5.5.9.6.3.2.5.5.9.6.3.2.5.5.9.6.3.2.5.5.9.6.3.2.5.5.9.6.3.2.5.5.9.6.3.2.5.5.9.6.3.2.5.5.9.6.3.2.5.5.9.6.3.2.5.5.9.6.3.2.5.5.9.6.3.2.5.5.9.6.3.2.5.5.9.6.3.2.5.5.9.6.3.2.5.5.9.6.3.2.5.5.9.6.3.2.5.5.9.6.3.2.5.5.9.6.3.2.5.5.9.6.3.2.5.5.9.6.3.2.5.5.9.6.3.2.5.5.9.6.3.2.5.5.9.6.3.2.5.5.9.6.3.2.5.5.9.6.3.2.5.5.9.6.3.2.5.5.9.6.3.2.5.5.9.6.3.2.5.5.9.6.3.2.5.5.9.6.3.2.5.5.9.6.3.2.5.5.9.6.3.2.5.5.9.6.3.2.5.5.9.6.3.2.5.5.9.6.3.2.5.5.9.6.3.2.5.5.9.6.3.2.5.5.9.6.3.2.5.5.9.6.3.2.5.5.9.6.3.2.5.5.9.6.3.2.5.5.9.6.3.2.5.5.9.6.3.2.5.5.9.6.3.2.5.5.9.6.3.2.5.5.9.6.3.2.5.5.9.6.3.2.5.5.9.6.3.2.5.5.9.6.3.2.5.5.9.6.3.2.5.5.9.6.3.2.5.5.9.6.3.2.5.5.9.6.3.2.5.5.9.6.3.2.5.5.9.6.3.2.5.5.9.6.3.2.5.5.9.6.3.2.5.5.9.6.3.2.5.5.9.6.3.2.5.5.9.6.3.2.5.5.9.6.3.2.5.5.9.6.3.2.5.5.9.6.3.2.5.5.9.6.3.2.5.5.9.6.3.2.5.5.9.6.3.2.5.5.9.6.3.2.5.5.9.6.3.2.5.5.9.6.3.2.5.5.9.6.3.2.5.5.9.6.3.2.5.5.9.6.3.2.5.5.9.6.3.2.5.5.9.6.3.2.5.5.9.6h3.9c73.7-132 262-85.4 285.3-211.5 2.7-20.9-7.2-37.5-21-47.9l-64.3-43zm-397.8 151.6 28.8 19.3c16.5 12.5 34 23.4 52.5 32.6 4.6 2.2 9.2 4.1 13.8 6 1.1-14.7-8.1-26.1-29.2-35.9l-7.8-2.3c-15.8-4.7-36.6-10.8-58.1-19.7z"/>
      <path class="st3" d="M2957.5 1486.5c.1 0 .1.1.2.1-.8-.7-1.7-1.2-2.6-1.8.2.2.4.3.6.4.3.2.5.5.9.6.3.3.5.6.9.7z"/>
      <path class="st3" d="m4636.2 1482.5 2.7 1.8c.1.1.2.1.2.2-1.5-1.3-3-2.4-4.7-3.3l.9.6c.3.3.6.5.9.7z"/>
      <path class="st3" d="M4921.5 1482.1c.3.2.5.5.9.6.3.2.5.5.9.6.3.2.5.5.9.6.3.2.5.5.9.6.3.2.5.5.9.6.3.2.5.5.9.6.3.2.5.5.9.6.2.1.4.3.6.4a27.2 27.2 0 0 0-9.1-6.4c.1.1.2.2.4.3.3.2.5.5.9.6.3.5.5.7.9.9z"/>
      <path class="st3" d="M3354.3 1483.2c.3.3.6.4.9.6.3.3.6.4.9.6.3.3.6.4.9.6.2.2.4.3.6.4-1.4-1.3-3.1-2.4-4.8-3.4.2.1.4.3.6.4.3.4.6.6.9.8z"/>
      <path class="st3" d="M3894.7 1486.5c.1 0 .1.1.2.1-.9-.7-1.8-1.3-2.7-1.9.2.2.4.4.7.5.3.2.5.5.9.6.3.3.5.6.9.7z"/>
      <path class="st3" d="M1293.9 1536.9c-.1-.1-.2-.1-.3-.2-.2-.2-.6-.4-.9-.6-.2-.2-.6-.4-.9-.6-.2-.2-.6-.4-.9-.6-.2-.2-.6-.4-.9-.6-.2-.2-.6-.4-.9-.6-.2-.2-.6-.4-.9-.6-.2-.2-.6-.4-.9-.6-.2-.2-.6-.4-.9-.6-.2-.2-.6-.4-.9-.6-.2-.2-.6-.4-.9-.6-.2-.2-.6-.4-.9-.6-.2-.2-.6-.4-.9-.6-.2-.2-.6-.4-.9-.6-.2-.2-.6-.4-.9-.6-.2-.2-.6-.4-.9-.6-.2-.2-.6-.4-.9-.6-.2-.2-.6-.4-.9-.6-.2-.2-.6-.4-.9-.6-.2-.2-.6-.4-.9-.6-.2-.2-.6-.4-.9-.6-.2-.2-.6-.4-.9-.6-.2-.2-.6-.4-.9-.6-.2-.2-.6-.4-.9-.6-.2-.2-.6-.3-.9-.5-.4 1-1 2.1-1.7 3.2-2.4 4.4-1.7 10.3 2.1 13.9 4.7 3.8 12.7 3 21.5-2.6z"/>
      <path class="st3" d="m1826.7 1482.6.1.1c.2.3.6.4.9.6.2.3.6.4.9.6.2.3.6.4.9.6.2.3.6.4.9.6.2.3.6.4.9.6.2.3.6.4.9.6.2.3.6.4.9.6.2.3.6.4.9.6.2.3.6.4.9.6.2.3.6.4.9.6.1.1.2.1.3.2-2.6-2.5-5.7-4.7-9.4-6.3z"/>
      <path class="st3" d="M1434.4 2309.2c-4.2-3.4-10.5-3.6-14.1-.5a18.9 18.9 0 0 1-5.6 4c.5.7 1.1 1.3 1.8 1.6.3.2.6.5.9.6.3.2.6.5.9.6.3.2.6.5.9.6.3.2.6.5.9.6.3.2.6.5.9.6.3.2.6.5.9.6.3.2.6.5.9.6.3.2.6.5.9.6.3.2.6.5.9.6.3.2.6.5.9.6.3.2.6.5.9.6.3.2.6.5.9.6.3.2.6.5.9.6.3.2.6.5.9.6.3.2.6.5.9.6.3.2.6.5.9.6.3.2.6.5.9.6.3.2.6.5.9.6.3.2.6.5.9.6.3.2.6.5.9.6.3.2.6.5.9.6.1.1.3.2.4.3 3.7-7.7 3.2-14.3-1.4-18z"/>
      <path class="st2" d="m4138.9 2395.6 3.9 8.8"/>
    </g>
    <path class="st2" d="M78.66 0c-2.15 0-4.18.3-5.97.62-18.22 3.04-29.5 21.26-34.06 43.17-2.17-2.38-4.98-3.69-8.9-2.6-1.52.2-3.04 1.95-1.3 2.38 5.43 1.73 7.39 9.76 8.03 16.26-1.73 29.93 8.03 61.82 29.5 72.44 3.25 1.52 6.5 2.38 8.68 3.04 2.81 1.3 4.77 3.26 3.46 6.73-.21.65 0 1.09.44 1.3h.43c8.24-14.76 29.29-9.55 31.9-23.64.64-4.76-4.36-7.37-7.17-6.72-3.47.87-3.9 3.46-3.9 4.98.2 1.09.64 1.3 1.3.65 1.51-1.3 4.77.22 3.03 3.47-1.08 2.38-3.04 3.9-5.85 4.56C45.35 140.3 39.72 60.05 55.98 26.2c9.98-20.39 35.79-21.7 35.79-1.3 0 3.7-.87 6.94-3.69 8.9-3.04 1.96-4.98-.65-3.9-2.6.44-.65 0-1.09-1.08-.88-1.52 0-3.9 1.09-4.13 4.56-.21 2.82 3.47 7.16 8.03 5.65 13.44-4.56 4.56-24.3 17.57-34.7l-.21-.22c-.22-.65-.65-.65-1.3-.44a4.62 4.62 0 0 1-5.2-.43C92.63 1 85.11-.17 78.65 0zm-27.1 23.63c-2.9 6.21-5.1 13.55-6.61 22.02a118.91 118.91 0 0 0-1.74 26.03 107 107 0 0 0 4.23 25.92c2.46 8.38 6.07 15.62 10.84 21.7-5.34-5.24-9.43-11.85-12.25-19.87a94.74 94.74 0 0 1-5.1-25.48 101 101 0 0 1 1.85-26.8c1.8-8.9 4.74-16.73 8.78-23.52zm507.55.33a.35.35 0 0 0-.13.1c-.87.43-3.25.43-4.98.43h-37.53v.43c0 .65.22.87.88.87 3.46.44 4.33 3.9 4.33 6.73v58.79c0 2.81-.87 6.29-4.33 6.73-.65 0-.88.2-.88.87v.43h42.74c0-.65.2-.87-.44-1.73-.88-.9-.46-2.41.2-3.5 1.3-2.6 2.6-7.59 1.96-12.36-.44-3.25-3.04-9.32-7.16-8.9-1.08 0-1.95.87-2.17 1.3 0 .21 0 .43.22.43 4.77.65 3.9 18.87-10.4 18.87h-7.82c0-10.2-.21-20.39-.21-30.8h5.2a8.6 8.6 0 0 1 8.47 6.29c.2.87.64.87 1.52.87h.2V50.94h-.2c-.88 0-1.3.22-1.52.88a8.66 8.66 0 0 1-8.47 6.29h-5.2c0-9.32.2-18.43.2-27.77h7.82c6.5 0 10.4 1.74 11.93 3.9 1.52 2.17.87 7.16-1.73 7.6 0 0-.22.2 0 .43 0 .44 1.08 1.3 2.16 1.3 3.04.43 5.86-3.26 6.5-6.07.66-2.6 0-5.21-1.29-7.82-.65-1.3-1.08-3.04 0-4.33.22-.44.44-.65.44-1.3-.16 0-.2-.12-.3-.09zm-100.36.1v.43c0 .65.44.87 1.09 1.08 3.25.21 4.12 3.69 4.34 6.5v58.79c-.22 2.82-1.09 6.3-4.34 6.73-.65 0-1.09.43-1.09 1.08v.21h22.56v-.2c0-.66-.44-1.1-1.08-1.1-3.26-.43-4.34-3.9-4.34-6.72V73.5h.65c1.52.21 2.81.21 3.46-.21 2.82-1.08 2.6-3.47 1.73-4.99-.43-.87-.87-1.08-1.08-.43a2.62 2.62 0 0 1-2.82.65c-2.81-.65-2.81-5.65 3.04-6.3 4.99-.64 10.2.65 15.18 1.74v26.89c0 2.82-.87 6.3-4.33 6.73-.65 0-.88.43-.88 1.08v.22h22.35v-.22c0-.66-.43-1.08-1.07-1.08-3.26-.44-4.13-3.9-4.13-6.73-.21-8.67-.21-17.35-.21-26.03a7.36 7.36 0 0 0 3.25-1.3c3.04-2.17 5.21-9.1 2.6-11.71-.64-.44-1.3-.44-1.3.43 0 2.38-1.72 3.47-4.55 3.9 0-8.02 0-16.05.21-24.07 0-2.82.87-6.3 4.13-6.5.64-.22 1.08-.44 1.08-1.1v-.43h-22.34v.44c0 .65.2.87.87 1.08 3.46.21 4.33 3.7 4.33 6.5v24.08c-6.29-.64-13-1.3-18 .65l-2.17 1.09V32.08c0-2.82 1.08-6.3 4.34-6.5.64-.22 1.08-.44 1.08-1.1v-.43zm-2.58 0c-.87.65-3.25.65-5.2.65h-9.55c-8.68-.21-14.97 3.69-19.52 10.4a36.7 36.7 0 0 0-5.64 12.6 67.43 67.43 0 0 0-1.74 15.6c0 9.12 1.52 18.88 6.95 26.46 4.77 6.51 11.06 9.76 18.65 9.76 4.13 0 9.11-1.73 13.01-4.56 9.54-6.72 7.8-22.77.43-22.12-1.09.21-1.96.87-2.17 1.52 0 .21 0 .44.21.44 3.9.43 4.56 17.78-9.11 17.78-14.1 0-14.97-22.34-14.97-32.31 0-10.2 1.09-17.79 3.26-22.78 3.46-8.68 14.53-9.98 19.51-3.47 1.73 1.96.87 7.16-1.52 7.38-.21 0-.21.21-.21.44.21.43 1.08 1.3 2.17 1.3 3.25.43 6.07-3.26 6.73-5.87.43-2.38 0-4.98-1.3-7.37-.65-1.3-1.3-3.04-.21-4.34.43-.44.65-.65.43-1.3 0-.2-.2-.2-.2-.2zm-140.57.2v.43c0 .65.44.87.87.87 3.47.44 4.34 3.9 4.34 6.73.21 19.51.21 39.25 0 58.78 0 2.82-.87 6.3-4.34 6.73-.43 0-.87.21-.87.87v.44h42.95v-.44c0-1.08-.65-1.08-.88-1.73-.42-.87.02-2.18.45-3.04 2.6-4.77 4.13-20.61-3.04-25.16-1.73-1.09-4.12.21-4.34 1.08 0 .22 0 .22.22.22 4.77.87 4.12 23.2-10.4 23.2h-7.82V32.29c0-2.82.87-6.3 4.33-6.73.65 0 .88-.21.88-.87v-.44zm-215.17.01v.44c0 .65.21.87.87 1.08 3.26.22 4.56 3.9 4.13 6.51l-6.5 29.29-6.51 29.5c-.65 3.24-2.38 6.29-6.07 6.72-.65 0-.87.44-.87 1.09v.2h16.92v-.2c0-.65-.21-1.09-.87-1.09-.44 0-.87-.21-1.3-.43-2.17-1.09-1.96-3.9-1.52-6.3l1.73-8.24c.65.65 1.52.88 2.17 1.09 1.52.21 2.82 0 3.47-.21 2.81-1.3 2.6-3.7 1.73-4.99-.44-1.08-.87-1.3-1.08-.65-.65.87-1.74 1.09-2.82.65-2.82-.65-2.82-5.64 3.04-6.3 4.56-.43 8.46.44 12.36 1.3l5.2 17.35.66 2.6c.21 2.82-1.09 3.47-3.26 4.13-.43.21-.64.44-.64 1.08v.22h22.34v-.22c-.01-.65-.22-1.1-.87-1.1-3.69-.64-5.42-3.46-6.3-6.72-1.73-5.42-3.46-10.84-4.98-16.49a5.64 5.64 0 0 0 2.82-1.3c3.04-1.95 5.2-9.1 2.38-11.7-.44-.44-1.09-.44-1.09.64 0 2.82-2.81 3.9-6.29 4.13h-.43l-7.6-24.95c-.87-3.25-2.16-10.4 3.05-11.28 1.08-.21 2.38 0 3.04.87.43.87 1.08.44 1.3-.21.43-2.6-1.96-5.65-4.34-6.3h-3.04c-7.82 0-13.45-.2-20.83-.2zm170.48 0v.44c0 .65.21.87.87 1.08 3.26.22 4.56 3.9 4.13 6.51l-6.5 29.29-6.51 29.5c-.65 3.24-2.38 6.29-6.07 6.72-.65 0-.87.44-.87 1.09v.2h16.92v-.2c0-.65-.21-1.09-.87-1.09-.44 0-.87-.21-1.3-.43-2.17-1.09-1.95-3.9-1.52-6.3l1.73-8.24c.65.65 1.52.88 2.17 1.09 1.52.21 2.82 0 3.47-.21 2.81-1.3 2.6-3.7 1.73-4.99-.44-1.08-.87-1.3-1.08-.65-.65.87-1.74 1.09-2.82.65-2.82-.65-2.82-5.64 3.04-6.3 4.56-.43 8.46.44 12.36 1.3l5.2 17.35.66 2.6c.21 2.82-1.09 3.47-3.25 4.13-.44.21-.65.44-.65 1.08v.22h22.34v-.22c0-.65-.21-1.1-.87-1.1-3.69-.64-5.42-3.46-6.3-6.72-1.73-5.42-3.46-10.84-4.98-16.49a5.64 5.64 0 0 0 2.82-1.3c3.04-1.95 5.2-9.1 2.38-11.7-.44-.44-1.09-.44-1.09.64 0 2.82-2.81 3.9-6.29 4.13h-.43l-7.6-24.95c-.87-3.25-2.16-10.4 3.05-11.28 1.08-.21 2.38 0 3.04.87.43.87 1.08.44 1.3-.21.43-2.6-1.96-5.65-4.34-6.3h-3.04c-7.82 0-13.45-.2-20.83-.2zm104.77 0v.44c0 .65.21.87.87 1.08 3.26.22 4.56 3.9 4.13 6.51l-6.5 29.29-6.51 29.5c-.65 3.24-2.38 6.29-6.07 6.72-.65 0-.87.44-.87 1.09v.2h16.92v-.2c0-.65-.21-1.09-.87-1.09-.44 0-.87-.21-1.3-.43-2.17-1.09-1.96-3.9-1.52-6.3l1.73-8.24c.65.65 1.52.88 2.17 1.09 1.52.21 2.82 0 3.47-.21 2.81-1.3 2.6-3.7 1.73-4.99-.44-1.08-.87-1.3-1.08-.65-.65.87-1.74 1.09-2.82.65-2.82-.65-2.82-5.64 3.04-6.3 4.56-.43 8.46.44 12.36 1.3l5.2 17.35.66 2.6c.21 2.82-1.09 3.47-3.26 4.13-.43.21-.64.44-.64 1.08v.22h22.34v-.22c-.01-.65-.22-1.1-.87-1.1-3.69-.64-5.42-3.46-6.3-6.72-1.73-5.42-3.46-10.84-4.98-16.49a5.64 5.64 0 0 0 2.82-1.3c3.04-1.95 5.2-9.1 2.38-11.7-.44-.44-1.09-.44-1.09.64 0 2.82-2.81 3.9-6.29 4.13h-.43l-7.6-24.95c-.87-3.25-2.16-10.4 3.05-11.28 1.08-.21 2.38 0 3.04.87.43.87 1.08.44 1.3-.21.43-2.6-1.96-5.65-4.34-6.3h-3.04c-7.82 0-13.45-.2-20.83-.2zm-230.35.2v.44c0 .65.21.87.87.87 3.47.44 4.34 3.9 4.34 6.73V91.3c0 2.81-.87 6.29-4.34 6.72-.64 0-.87.22-.87.88v.43h16.7v-.43c0-.65-.21-.88-.87-.88-3.47-.43-4.34-3.9-4.34-6.72V33.82c5.65 21.26 12.36 44.25 16.7 65.72h4.56l15.18-64.41V91.3c0 2.81-1.08 6.29-4.34 6.73-.64 0-.87.2-.87.87v.43h22.35v-.43c0-.65-.44-.87-1.09-.87-3.25-.44-4.12-3.9-4.12-6.73-.22-19.52-.22-39.26 0-58.79 0-2.82.88-6.3 4.13-6.74.65 0 1.09-.2 1.09-.87v-.43h-26.46v.43c0 .65.44.87 1.08 1.09.65 0 1.3.43 1.74.87 1.52 1.52 1.3 3.46.65 5.64l-9.11 39.26-9.99-39.26c-.43-2.17-.87-4.12.65-5.64a4.14 4.14 0 0 1 1.96-1.09c.43 0 .65-.2.65-.87v-.43zm66.36.03v.43c0 .65.22.88.87.88 3.47.43 4.34 3.9 4.34 6.72v58.79c0 2.81-.87 6.3-4.34 6.73-.64 0-.87.2-.87.87v.43h12.58c1.52-.2 4.12-.87 4.33-3.25 5.65 4.99 18.44 3.47 24.08-1.08 4.58-3.95 6.32-10.45 6.1-19.13-.44-6.5-2.61-10.4-5.22-13.44-2.81-3.26-6.5-4.78-13.23-5.43a36.82 36.82 0 0 0 7.15-3.46c7.82-5.86 11.72-18.66 1.3-25.37a24.04 24.04 0 0 0-8.67-3.26c-3.26-.43-6.94-.43-28.42-.43zm20 5.44c3.03.1 6.37 1.11 8 3.23 3.46 3.69 3.9 8.9 2.6 13.67a11.14 11.14 0 0 1-1.96 4.56c-3.04 3.7-7.38 4.13-11.5 4.13v-25.4a13.3 13.3 0 0 1 2.86-.2zm271.12.83.65 3.69c0 4.77-.04 8.78-.11 12.04-.08 3.25-.12 6.06-.12 8.46v13.23c0 2.4.04 5.18.12 8.35.06 3.19.1 7.15.1 11.93l-.86 3.69-.65-3.7v-54zm-31.88.01.65 3.69c-.16 4.77-.22 8.78-.22 12.04v41.97l-.65 3.69-.65-3.7v-54zm-143.15.21.65 3.7c-.16 4.76-.22 8.74-.22 11.92v42.08l-.65 3.69-.65-3.69v-54zm-164.42.21 1.73 3.47c1.6 6.94 2.75 12.04 3.47 15.3.73 3.24 1.4 6.06 2.06 8.45a419.4 419.4 0 0 1 2.16 8.35l3.8 15.18.22 3.69-1.51-3.45a735.09 735.09 0 0 1-4.77-18.77c-.44-1.81-.84-3.4-1.2-4.77s-.76-2.97-1.2-4.78c-.43-1.8-1.01-4.16-1.73-7.05-.73-2.9-1.67-6.8-2.82-11.71zm36.66 0 .65 3.7c0 4.77-.03 8.75-.11 11.92-.08 3.18-.11 6-.11 8.46v13.23c0 2.46.03 5.3.11 8.47.07 3.18.11 7.15.11 11.92l-.87 3.7-.65-3.7c0-5.06.03-9.22.11-12.47.07-3.25.11-6.04.11-8.35V55.72c0-2.32-.03-5.1-.1-8.35-.09-3.26-.12-7.41-.12-12.48zm328.4 0 .64 3.7c-.14 4.77-.21 8.75-.21 11.92v21.7c-.01 2.45.02 5.28.1 8.46.07 3.18.11 7.15.11 11.92l-.87 3.7-.65-3.7v-54zm-304.75.02.87 3.68a563.8 563.8 0 0 1-.12 11.93l-.21 8.46c-.08 2.46-.11 4.66-.11 6.62v6.62c0 2.46.03 5.27.11 8.46.07 3.18.11 7.15.11 11.93l-.65 3.68-.87-3.68c0-5.07.03-9.23.11-12.48.07-3.25.11-6.03.11-8.35V34.91zm22.77 1.3c2.46 1.58 3.87 3.68 4.23 6.29a9.73 9.73 0 0 1-2.06 7.37h-.21c1.59-4.92.94-9.46-1.96-13.67zm-131.86 2.37 1.73 3.26c1.3 4.62 2.43 8.46 3.37 11.49.94 3.04 1.73 5.7 2.38 8.02s1.26 4.45 1.84 6.4c.59 1.96 1.27 4.1 2.06 6.4.8 2.31 1.67 4.99 2.6 8.03l3.58 11.5.21 3.69-1.73-3.26-3.58-11.82c-.93-3.1-1.73-5.78-2.38-8.03l-1.73-5.97c-.5-1.73-1.12-3.72-1.84-5.96a885.17 885.17 0 0 1-6.07-19.84zm170.48 0 1.73 3.26c1.3 4.62 2.43 8.46 3.37 11.49.94 3.04 1.73 5.7 2.38 8.02.65 2.32 1.26 4.45 1.84 6.4.57 1.96 1.27 4.1 2.06 6.4.8 2.31 1.67 4.99 2.6 8.03l3.58 11.5.21 3.69-1.73-3.26a3786.59 3786.59 0 0 1-5.96-19.85l-1.73-5.97c-.5-1.73-1.12-3.72-1.84-5.96a885.32 885.32 0 0 1-6.07-19.84zm104.76 0 1.73 3.26c1.3 4.62 2.43 8.46 3.37 11.49.94 3.04 1.73 5.7 2.38 8.02.65 2.32 1.26 4.45 1.84 6.4.57 1.96 1.27 4.1 2.06 6.4.8 2.31 1.67 4.99 2.6 8.03l3.58 11.5.21 3.69-1.73-3.26a3786.59 3786.59 0 0 1-5.96-19.85l-1.73-5.97c-.5-1.73-1.12-3.72-1.84-5.96a885.32 885.32 0 0 1-6.07-19.84zm34.92 6.73a70.2 70.2 0 0 0-2.06 10.96 79.7 79.7 0 0 0-.43 13.12c.21 4.48.83 8.82 1.84 13 1 4.2 2.53 7.68 4.56 10.42-2.61-2.6-4.6-5.96-5.98-10.09s-2.17-8.46-2.38-13a58 58 0 0 1 .87-13.34c.8-4.34 2-8.03 3.58-11.07zm-315.17.21 7.38 23.87c-4.34-.21-8.9-.21-12.8 1.52h-.21l1.3-5.21c1.3-6.73 2.81-13.45 4.33-20.18zm170.48 0 7.38 23.87c-4.34-.21-8.9-.21-12.8 1.52h-.21l1.3-5.21c1.3-6.73 2.81-13.45 4.33-20.18zm104.76 0 7.38 23.87c-4.34-.21-8.89-.21-12.8 1.52h-.21l1.3-5.21c1.3-6.73 2.81-13.45 4.33-20.18zM232.25 60.52c5 .04 10.15 2.76 12.44 7.35a23.17 23.17 0 0 1 2.17 10.84c-.2 4.98-2.6 14.32-9.1 13.67-6.08-.65-6.3-8.67-2.39-9.98.22 0 .44 0 .22-.21 0-.65-1.09-1.3-2.17-1.52-1.96 0-3.47.87-4.78 2.6 0-6.94.22-16.49.22-22.34 1.1-.29 2.24-.42 3.4-.41zm17.66 4.96.44.43a13.96 13.96 0 0 1 2.93 5.63c.65 2.32.97 4.71.97 7.16 0 2.47-.36 4.83-1.08 7.06a10.4 10.4 0 0 1-3.25 5.1l-.88.65a23.76 23.76 0 0 0 3.8-12.91c.07-4.84-.9-9.22-2.92-13.12z" fill="#252e30" stroke-width=".11"/>
  </g>
</svg>
