<?xml version="1.0" encoding="UTF-8" standalone="no"?>
<svg
   xmlns:dc="http://purl.org/dc/elements/1.1/"
   xmlns:cc="http://creativecommons.org/ns#"
   xmlns:rdf="http://www.w3.org/1999/02/22-rdf-syntax-ns#"
   xmlns:svg="http://www.w3.org/2000/svg"
   xmlns="http://www.w3.org/2000/svg"
   xmlns:xlink="http://www.w3.org/1999/xlink"
   width="32"
   height="33.33588"
   version="1.1"
   id="svg32">
  <metadata
     id="metadata36">
    <rdf:RDF>
      <cc:Work
         rdf:about="">
        <dc:format>image/svg+xml</dc:format>
        <dc:type
           rdf:resource="http://purl.org/dc/dcmitype/StillImage" />
        <dc:title></dc:title>
      </cc:Work>
    </rdf:RDF>
  </metadata>
  <defs
     id="defs20">
    <linearGradient
       id="L0">
      <stop
         style="stop-color:#fe798e"
         id="stop2" />
      <stop
         style="stop-color:#9c2219"
         offset="1"
         id="stop4" />
    </linearGradient>
    <linearGradient
       id="L1">
      <stop
         style="stop-color:#bff872"
         id="stop7" />
      <stop
         style="stop-color:#7de567"
         offset="1"
         id="stop9" />
    </linearGradient>
    <linearGradient
       id="L2">
      <stop
         style="stop-color:#92cbe2"
         id="stop12" />
      <stop
         style="stop-color:#7f95fe"
         offset="1"
         id="stop14" />
    </linearGradient>
    <linearGradient
       xlink:href="#L2"
       id="L3"
       gradientUnits="userSpaceOnUse"
       gradientTransform="translate(92.2254,-0.313709)"
       x1="-143"
       y1="207.36218"
       x2="-129.5"
       y2="108.86218" />
    <linearGradient
       xlink:href="#L1"
       id="L4"
       gradientUnits="userSpaceOnUse"
       gradientTransform="translate(92.2254,-0.313709)"
       x1="-133.5"
       y1="221.86218"
       x2="-50"
       y2="279.36218" />
    <linearGradient
       xlink:href="#L0"
       id="L5"
       gradientUnits="userSpaceOnUse"
       gradientTransform="translate(92.2254,-0.313709)"
       x1="-157.5"
       y1="222.86218"
       x2="-247.5"
       y2="276.86218" />
  </defs>
  <g
     transform="matrix(0.12809098,0,0,0.12809098,22.030694,-12.17847)"
     id="g30"
     style="stroke-width:7.80696">
    <path
       style="fill:url(#L3);stroke-width:7.80696"
       d="M -58.11348,213.41831 -162.26826,151.37974 -37.01785,100.04846 68.1307,158.15264 Z"
       id="path22" />
    <path
       style="fill:url(#L4);stroke-width:7.80696"
       d="M -51.56037,213.5916 72.03976,159.30293 54.30386,283.51375 -62.14067,350.24024 Z"
       id="path24" />
    <path
       style="fill:url(#L5);stroke-width:7.80696"
       d="M -59.56037,347.18826 -164.06037,282.96566 -163.61166,159.3255 -55.18554,215.49255 Z"
       id="path26" />
    <path
       style="fill:#000000;stroke-width:30.4742"
       d="M -66.27108,352.00632 C -69.30467,350.22909 -85.32501,339.74485 -101.87184,328.708 -141.06516,302.56578 -152.91684,294.99749 -161.22644,290.80508 -172.47362,285.13057 -171.42166,291.71277 -171.76785,224.84661 -172.09132,162.36876 -172.8819,151.51349 -166.98072,153.09872 -171.59657,148.70486 -149.89048,141.93362 -115.91158,126.8062 -82.71848,112.02862 -46.04303,97.12968 -37.99045,95.151731 -35.80415,94.614711 -30.58575,96.813551 -10.91381,106.56083 32.31874,127.98218 67.99593,147.7319 72.54924,152.76325 73.58759,153.91062 75.03553,154.84937 75.76688,154.84937 77.84679,154.84937 78.37332,158.95768 77.25844,166.48751 76.69538,170.29042 72.64193,195.0632 68.25078,221.53813 63.85962,248.01307 59.96508,272.38204 59.59625,275.69141 58.29011,287.41076 58.65986,286.97385 40.74281,297.9691 31.80145,303.4562 9.14236,316.66419 -9.61071,327.3202 -28.36378,337.97622 -47.03613,348.65729 -51.10479,351.05592 -55.17346,353.45455 -59.00931,355.3767 -59.62892,355.32736 -60.24852,355.27802 -63.23749,353.78356 -66.27108,352.00632 Z M -61.87106,326.08404 C -61.53987,317.12117 -60.90739,291.51119 -60.46556,269.17296 -59.4846,219.57813 -59.22374,221.12454 -69.76193,214.06246 -82.68227,205.404 -96.65592,197.35576 -120.42436,184.88302 -133.38604,178.08124 -147.58846,170.35597 -151.98528,167.71576 -157.4594,164.42865 -160.30462,163.24026 -161.01083,163.94598 -162.29568,165.22992 -162.39159,217.12625 -161.17615,253.40053 L -160.31016,279.24588 -153.15345,283.38712 C -146.97571,286.96188 -111.07469,311.08894 -76.29946,335.03636 -70.50807,339.02452 -65.02796,342.30839 -64.12144,342.33386 -62.68203,342.3743 -62.39695,340.31581 -61.87106,326.08404 Z M -123.45447,281.63953 -121.92862,231.56652 -140.98255,221.52843 -138.49408,200.85313 -78.16426,229.52961 -79.29283,248.93423 -101.23414,239.89866 C -104.02169,251.08704 -104.55187,273.56224 -106.14867,290.70437 Z M -9.61071,316.77116 C 34.17351,291.73098 48.95974,282.50651 49.5137,279.88608 49.76822,278.68213 50.70639,272.73304 51.59851,266.66586 52.49065,260.59869 56.34489,236.69937 60.1635,213.55627 66.55191,174.8386 67.87919,164.87776 66.64985,164.87776 65.35309,164.87776 41.87183,175.43096 11.95031,189.46143 -6.52698,198.1256 -27.06009,207.7061 -33.67883,210.75142 -40.29756,213.79674 -46.27431,216.80609 -46.96048,217.43886 -49.01471,219.33318 -53.67591,334.1607 -51.88774,338.82058 -51.3077,340.33214 -50.58188,340.15475 -45.46483,337.25078 -42.2919,335.45011 -26.15754,326.23429 -9.61071,316.77116 Z M -31.52427,299.57413 C -31.87775,272.99487 -33.95338,246.76003 -28.00983,218.92136 L -15.53109,218.69485 -14.46997,256.84948 28.82336,204.1205 49.21858,198.81459 11.17117,250.94644 46.4177,267.81063 31.8401,277.19567 -4.08659,261.22054 -17.12774,267.67154 -17.55651,293.33323 Z M -44.98935,205.62376 C -42.07793,204.31693 -20.74221,194.22819 2.42335,183.20435 25.58892,172.18051 47.47586,161.89162 51.06101,160.34015 60.54302,156.23684 60.93348,155.67356 56.37503,152.674 49.35425,148.05414 13.69688,129.08139 -11.32169,116.65357 L -36.09795,104.34612 -44.41536,107.15536 C -56.14763,111.11798 -89.54973,125.04344 -118.35237,137.97996 -148.44864,151.49752 -152.51519,153.54112 -152.51519,155.14816 -152.51519,155.84547 -145.85885,160.0994 -137.72332,164.60135 -111.60287,179.05557 -54.81147,207.96913 -52.51064,207.98472 -51.28536,207.99302 -47.90078,206.93059 -44.98935,205.62376 Z M -60.75547,189.54567 C -75.28072,185.96717 -91.81229,177.57594 -96.0911,171.6097 -99.47879,166.88602 -102.37326,159.22994 -102.37326,154.99297 -102.37326,149.88393 -99.16092,142.63741 -94.96571,138.28271 -89.64934,132.76424 -82.2461,130.42562 -63.03287,128.19542 -43.93665,125.97879 -27.42575,126.6637 -17.57474,130.08117 -8.29082,133.30188 -4.52834,135.30727 -2.61559,138.05436 2.38083,145.2301 5.93328,151.2196 5.93328,152.46787 5.93328,154.32106 1.29355,156.06801 -2.01293,155.45979 -3.4339,155.1984 -6.26937,154.71168 -8.31397,154.3782 -11.32445,153.88717 -12.45855,153.01191 -14.27723,149.776 -16.85292,145.19318 -23.60657,140.51818 -30.15247,138.78687 -40.15132,136.14228 -67.5992,138.35316 -76.05306,142.48406 -80.82949,144.81802 -83.39709,149.93235 -84.08312,158.47883 -84.55072,164.304 -84.36299,165.20843 -82.20604,167.52215 -79.28527,170.65521 -71.09215,174.87312 -62.00697,177.92089 -56.94497,179.61901 -54.0594,180.03115 -50.5755,179.55363 -42.46315,178.44171 -41.49161,176.3237 -46.32188,170.28055 -50.48755,165.06888 -51.4992,162.24318 -50.12122,159.66839 -49.15472,157.86249 -48.34815,157.66756 -43.78911,158.13809 -37.32875,158.80486 -23.72903,163.98325 -20.5194,166.99854 -17.69425,169.65263 -17.2471,175.88082 -19.70523,178.33895 -22.5073,181.14102 -34.94771,188.0685 -39.80016,189.52887 -45.45811,191.23166 -53.88454,191.23841 -60.75547,189.54567 Z"
       id="path28" />
  </g>
</svg>
