<?xml version="1.0" encoding="UTF-8"?>
<svg width="64" height="64" version="1.1" viewBox="0 0 16.933 16.933" xmlns="http://www.w3.org/2000/svg">
 <g transform="matrix(1.5087 0 0 1.5087 -18.31 -4.2176)" fill="#e6e6e6" stroke-width=".17538">
  <path class="st3" d="m15.579 6.9041c0.021161-0.0070528 0.035268-0.0070528 0.042323 0.014107l0.007053 0.0070542c-0.43028 0.34387-0.13578 0.9981-0.58193 1.1498-0.15165 0.051139-0.27333-0.093462-0.26628-0.18692 0.007054-0.11463 0.086408-0.15165 0.13578-0.15165 0.035269-0.0070543 0.051139 0.0070543 0.035269 0.028215-0.035269 0.065247 0.028215 0.15165 0.12873 0.086408 0.093461-0.065247 0.12168-0.17281 0.12168-0.29449 0-0.6754-0.85526-0.6313-1.185 0.042323-0.53784 1.1198-0.35269 3.7772 1.4001 3.3258 0.093462-0.021161 0.15871-0.0723 0.19398-0.15165 0.058194-0.10757-0.049376-0.15871-0.10052-0.11463-0.02116 0.021162-0.035268 0.014108-0.042323-0.021161 0-0.05114 0.014108-0.13578 0.12873-0.16576 0.093461-0.021159 0.25922 0.065247 0.2363 0.22219-0.086408 0.4673-0.78296 0.29449-1.0563 0.78296h-0.014107c-0.014106-0.007053-0.021161-0.021159-0.014106-0.042321 0.042321-0.11462-0.021162-0.17987-0.11463-0.22219-0.072301-0.021159-0.17987-0.051139-0.28744-0.10051-0.71067-0.35269-1.0351-1.4072-0.97694-2.3983-0.021162-0.21514-0.086409-0.48142-0.26628-0.53784-0.058194-0.014108-0.007054-0.072301 0.042321-0.079354 0.12873-0.035269 0.22219 0.0070529 0.29449 0.086408 0.15165-0.72477 0.52374-1.3297 1.1269-1.4144 0.2363-0.058141 0.60309 0 0.83234 0.11997 0.065247 0.044086 0.13049 0.044086 0.17987 0.01587z"/>
  <path class="st3" d="m16.383 6.4827c-0.038796-0.49905-0.23101-0.92227-0.88348-1.1444-0.31742-0.1058-0.65423-0.077592-0.76004 0.27862-0.06701 0.33682 0.27862 0.51844 0.41264 0.25922 0.028216-0.058193 0.038796-0.095225 0.086408-0.058193 0.086409 0.07759 0.086409 0.25922 0 0.38443-0.2698 0.38443-1.0475 0.086408-0.87465-0.55725 0.11463-0.40383 0.56783-0.59604 0.98047-0.53784 0.60485 0.086408 0.94167 0.42322 1.7493 0.41264-0.008817 0.028216-0.008817 0.047613-0.047612 0.06701-0.058193 0.019399-0.095226 0.13402-0.1252 0.27862 0.19221 0.72125 0.55725 1.4319 0.84645 2.1337 0.34563-0.69126 0.78825-1.3649 1.0474-2.0862-0.067009-0.21161-0.23983-0.2892-0.34563-0.32623-0.028215-0.0088172-0.028215-0.038794-0.028215-0.06701h0.1252c0.55725-0.0088172 0.78825-0.40383 1.2979-0.42322 0.32623-0.0088172 0.64365 0.30684 0.52903 0.65424-0.13402 0.34563-0.66305 0.15342-0.49023-0.095225 0.028214-0.038796 0.058193-0.047613 0.067009-0.0088172 0.028216 0.047613 0.096989 0.06701 0.15342 0.019397 0.1058-0.086407 0.058192-0.31742-0.1446-0.33681-0.25922-0.0088172-0.56783 0.23101-0.60485 0.70184-0.008817 0.095225-0.019397 0.51844-0.019397 0.89406v3.153c0 0.2698 0.008817 0.53784 0.028214 0.80765 0.019397 0.27862 0.14461 0.74946 0.48142 0.76004 0.164 0.008816 0.17281-0.15342 0.086409-0.19221-0.028216-0.008818-0.028216-0.038796 0.019397-0.058193 0.058192-0.038796 0.164-0.058193 0.25041 0.067009 0.077592 0.095226 0.047614 0.35621-0.15342 0.41264-0.51844 0.1446-0.76004-0.57664-1.0951-0.77768l-0.008818-0.008817c-0.008817-0.008817-0.008817-0.019397 0-0.019397 0.058193-0.019397 0.095224-0.077592 0.095224-0.13402 0-0.086409-0.067009-0.15342-0.15342-0.15342-0.077592 0-0.13402 0.067009-0.1446 0.13402 0 0.019398-0.008818 0.019398-0.028216 0.019398-0.23101-0.028216-0.50963-0.038796-0.42322-0.46201 0-0.038796 0.047612-0.038796 0.058194 0 0.058192 0.17281 0.40383 0.25041 0.47084-0.30684v-3.2394c-0.25041 0.49905-0.51844 0.94167-0.77768 1.4319-0.058192 0.1058-0.11462 0.20104-0.15342 0.29802-0.19221 0.39325 0.038796 0.49023 0.17281 0.33681 0.047613-0.058193 0.038796-0.13402-0.008817-0.15342-0.028215-0.0088172-0.028215-0.038794 0.019399-0.06701 0.058193-0.038796 0.17281-0.067011 0.25041 0.058193 0.019397 0.038796 0.038794 0.1252 0.028214 0.21161-0.019397 0.1834-0.25041 0.31742-0.43204 0.32623-0.27862 0.0088171-0.53784-0.23101-0.44262-0.69126 0-0.038796 0.019397-0.077592 0.028215-0.1252-0.028215-0.07759-0.06701-0.15342-0.096989-0.23983-0.17281-0.41264-0.34563-0.79707-0.50963-1.2009-0.008818 1.0475-0.008818 2.095 0 3.1336 0.038796 0.63483 0.41264 0.54842 0.47084 0.37561 0.008818-0.047611 0.058193-0.038794 0.058193 0 0.086409 0.41264-0.19221 0.42322-0.42322 0.46201-0.019397 0-0.028214-0.008818-0.028214-0.019397 0-0.077592-0.06701-0.13402-0.1446-0.13402-0.086407 0-0.1446 0.067011-0.1446 0.1446 0 0.06701 0.028216 0.11462 0.086409 0.1446 0.008817 0 0.008817 0.008818 0 0.019397l-0.008817 0.008818c-0.33681 0.20102-0.57664 0.91346-1.0951 0.77767-0.20104-0.058193-0.23101-0.31742-0.15342-0.42322 0.086407-0.1252 0.19221-0.095226 0.25922-0.06701 0.038794 0.028215 0.038794 0.047612 0.008817 0.06701-0.086409 0.038796-0.067012 0.19221 0.086406 0.19221 0.33682-0.008817 0.46201-0.48142 0.48142-0.76004 0.067012-0.93285 0.019398-1.9998 0.019398-2.922-0.058193 0.0088172-0.13402 0.019399-0.21162 0-0.067009-0.019397-0.13402-0.086406-0.058193-0.11463 0.27862-0.07759 0.2698-0.36503 0.2698-0.59604-0.00529-0.33329-0.00529-0.68774-0.00529-0.91875z"/>
  <path class="st3" d="m20.693 7.0646c0-0.091698-0.028214-0.1975-0.14107-0.15519-0.021162 0.0070543-0.028215 0-0.028215-0.02116v-0.0070543l0.37385-0.16929 0.070536-0.028216 0.28215-0.12697v0.014108c0 0.02116-0.014109 0.035269-0.028216 0.042321-0.11286 0.063484-0.14107 0.15513-0.14107 0.28215 0 0.26804-0.007053 0.6895-0.007053 1.0915 0.51492-0.070537 0.7812-0.31742 0.87995-0.61191 0.19045-0.54842-0.29626-0.91521-0.80941-0.93638-0.6895-0.021162-1.3737 0.50786-1.1338 1.1338 0.028216 0.070538 0.077591 0.12697 0.16223 0.1058 0.035269-0.0070543 0.05643-0.049376 0.042323-0.077592-0.007054-0.028215 0.007053-0.035269 0.042321-0.021162 0.049377 0.021162 0.11992 0.070537 0.1058 0.16929-0.007053 0.035269-0.035269 0.07759-0.077591 0.098751-0.14813 0.070538-0.31036-0.056429-0.37385-0.21161-0.098751-0.26099 0.05643-0.61191-0.24688-0.95049h0.007055c0.014107-0.014108 0.028214-0.014108 0.049375 0 0.049376 0.082828 0.098752 0.082828 0.12697 0.014107 0.45849-0.44439 1.7599-0.70361 2.2748-0.14107 0.16929 0.2098 0.25393 0.43028 0.25393 0.68245 0.007054 0.39501-0.21162 0.70361-0.52903 0.90111 0.37385 0.11286 0.65424 0.34563 0.83057 0.64012 0.14107 0.23277 0.21162 0.50786 0.21866 0.7812 0.007054 0.2751-0.05643 0.55548-0.1834 0.80236-0.2751 0.52903-0.85878 0.90817-1.7176 0.85878-0.28215-0.014107-0.56254-0.12697-0.7671-0.32447-0.63307-0.5837-0.59075-1.6329 0.23277-1.9644 0.07759-0.035269 0.15518-0.05643 0.23277-0.070537 0-0.23983 0.042322-0.7953-0.25393-0.887-0.05643-0.014107-0.007054-0.063484 0.042323-0.077592 0.084644-0.021162 0.15518-0.014107 0.21162 0.021161v-0.85703zm0.31036 3.2394c-0.74593-0.035269-0.56254-0.78825-0.26804-0.7953 0.042321 0 0.070537 0.014107 0.049376 0.05643-0.19045 0.36679 0.063482 0.50786 0.33152 0.46555 0.61897-0.1058 0.66128-0.90111-0.063482-1.0069-0.16929-0.028215-0.33858 0-0.49376 0.070538 0.070536 0.014107 0.12697 0.049375 0.16929 0.13402 0.014107 0.035269 0.007054 0.098752-0.035269 0.063484-0.098752-0.070538-0.26099-0.042323-0.395 0.028215-0.23983 0.12697-0.33858 0.43733-0.32447 0.6895 0.035269-0.049378 0.098751-0.084646 0.1834-0.091699 0.042321 0 0.091698 0.028214 0.049377 0.056429-0.19045 0.11991-0.11286 0.53432 0.014106 0.6895 0.23983 0.31036 0.61897 0.47259 0.99986 0.40912 0.68244-0.11286 1.2962-0.76004 1.2679-1.5007-0.007053-0.20456-0.056428-0.40912-0.16223-0.57664-0.25393-0.43028-0.7812-0.57664-1.2538-0.50786v0.3809c1.0299 0.18163 0.79707 1.469-0.068773 1.4355z"/>
 </g>
 <g transform="matrix(1.5087 0 0 1.5087 -18.672 -4.4624)" fill="#252e30" stroke-width=".17538">
  <path class="st3" d="m15.579 6.9041c0.021161-0.0070528 0.035268-0.0070528 0.042323 0.014107l0.007053 0.0070542c-0.43028 0.34387-0.13578 0.9981-0.58193 1.1498-0.15165 0.051139-0.27333-0.093462-0.26628-0.18692 0.007054-0.11463 0.086408-0.15165 0.13578-0.15165 0.035269-0.0070543 0.051139 0.0070543 0.035269 0.028215-0.035269 0.065247 0.028215 0.15165 0.12873 0.086408 0.093461-0.065247 0.12168-0.17281 0.12168-0.29449 0-0.6754-0.85526-0.6313-1.185 0.042323-0.53784 1.1198-0.35269 3.7772 1.4001 3.3258 0.093462-0.021161 0.15871-0.0723 0.19398-0.15165 0.058194-0.10757-0.049376-0.15871-0.10052-0.11463-0.02116 0.021162-0.035268 0.014108-0.042323-0.021161 0-0.05114 0.014108-0.13578 0.12873-0.16576 0.093461-0.021159 0.25922 0.065247 0.2363 0.22219-0.086408 0.4673-0.78296 0.29449-1.0563 0.78296h-0.014107c-0.014106-0.007053-0.021161-0.021159-0.014106-0.042321 0.042321-0.11462-0.021162-0.17987-0.11463-0.22219-0.072301-0.021159-0.17987-0.051139-0.28744-0.10051-0.71067-0.35269-1.0351-1.4072-0.97694-2.3983-0.021162-0.21514-0.086409-0.48142-0.26628-0.53784-0.058194-0.014108-0.007054-0.072301 0.042321-0.079354 0.12873-0.035269 0.22219 0.0070529 0.29449 0.086408 0.15165-0.72477 0.52374-1.3297 1.1269-1.4144 0.2363-0.058141 0.60309 0 0.83234 0.11997 0.065247 0.044086 0.13049 0.044086 0.17987 0.01587z"/>
  <path class="st3" d="m16.383 6.4827c-0.038796-0.49905-0.23101-0.92227-0.88348-1.1444-0.31742-0.1058-0.65423-0.077592-0.76004 0.27862-0.06701 0.33682 0.27862 0.51844 0.41264 0.25922 0.028216-0.058193 0.038796-0.095225 0.086408-0.058193 0.086409 0.07759 0.086409 0.25922 0 0.38443-0.2698 0.38443-1.0475 0.086408-0.87465-0.55725 0.11463-0.40383 0.56783-0.59604 0.98047-0.53784 0.60485 0.086408 0.94167 0.42322 1.7493 0.41264-0.008817 0.028216-0.008817 0.047613-0.047612 0.06701-0.058193 0.019399-0.095226 0.13402-0.1252 0.27862 0.19221 0.72125 0.55725 1.4319 0.84645 2.1337 0.34563-0.69126 0.78825-1.3649 1.0474-2.0862-0.067009-0.21161-0.23983-0.2892-0.34563-0.32623-0.028215-0.0088172-0.028215-0.038794-0.028215-0.06701h0.1252c0.55725-0.0088172 0.78825-0.40383 1.2979-0.42322 0.32623-0.0088172 0.64365 0.30684 0.52903 0.65424-0.13402 0.34563-0.66305 0.15342-0.49023-0.095225 0.028214-0.038796 0.058193-0.047613 0.067009-0.0088172 0.028216 0.047613 0.096989 0.06701 0.15342 0.019397 0.1058-0.086407 0.058192-0.31742-0.1446-0.33681-0.25922-0.0088172-0.56783 0.23101-0.60485 0.70184-0.008817 0.095225-0.019397 0.51844-0.019397 0.89406v3.153c0 0.2698 0.008817 0.53784 0.028214 0.80765 0.019397 0.27862 0.14461 0.74946 0.48142 0.76004 0.164 0.008816 0.17281-0.15342 0.086409-0.19221-0.028216-0.008818-0.028216-0.038796 0.019397-0.058193 0.058192-0.038796 0.164-0.058193 0.25041 0.067009 0.077592 0.095226 0.047614 0.35621-0.15342 0.41264-0.51844 0.1446-0.76004-0.57664-1.0951-0.77768l-0.008818-0.008817c-0.008817-0.008817-0.008817-0.019397 0-0.019397 0.058193-0.019397 0.095224-0.077592 0.095224-0.13402 0-0.086409-0.067009-0.15342-0.15342-0.15342-0.077592 0-0.13402 0.067009-0.1446 0.13402 0 0.019398-0.008818 0.019398-0.028216 0.019398-0.23101-0.028216-0.50963-0.038796-0.42322-0.46201 0-0.038796 0.047612-0.038796 0.058194 0 0.058192 0.17281 0.40383 0.25041 0.47084-0.30684v-3.2394c-0.25041 0.49905-0.51844 0.94167-0.77768 1.4319-0.058192 0.1058-0.11462 0.20104-0.15342 0.29802-0.19221 0.39325 0.038796 0.49023 0.17281 0.33681 0.047613-0.058193 0.038796-0.13402-0.008817-0.15342-0.028215-0.0088172-0.028215-0.038794 0.019399-0.06701 0.058193-0.038796 0.17281-0.067011 0.25041 0.058193 0.019397 0.038796 0.038794 0.1252 0.028214 0.21161-0.019397 0.1834-0.25041 0.31742-0.43204 0.32623-0.27862 0.0088171-0.53784-0.23101-0.44262-0.69126 0-0.038796 0.019397-0.077592 0.028215-0.1252-0.028215-0.07759-0.06701-0.15342-0.096989-0.23983-0.17281-0.41264-0.34563-0.79707-0.50963-1.2009-0.008818 1.0475-0.008818 2.095 0 3.1336 0.038796 0.63483 0.41264 0.54842 0.47084 0.37561 0.008818-0.047611 0.058193-0.038794 0.058193 0 0.086409 0.41264-0.19221 0.42322-0.42322 0.46201-0.019397 0-0.028214-0.008818-0.028214-0.019397 0-0.077592-0.06701-0.13402-0.1446-0.13402-0.086407 0-0.1446 0.067011-0.1446 0.1446 0 0.06701 0.028216 0.11462 0.086409 0.1446 0.008817 0 0.008817 0.008818 0 0.019397l-0.008817 0.008818c-0.33681 0.20102-0.57664 0.91346-1.0951 0.77767-0.20104-0.058193-0.23101-0.31742-0.15342-0.42322 0.086407-0.1252 0.19221-0.095226 0.25922-0.06701 0.038794 0.028215 0.038794 0.047612 0.008817 0.06701-0.086409 0.038796-0.067012 0.19221 0.086406 0.19221 0.33682-0.008817 0.46201-0.48142 0.48142-0.76004 0.067012-0.93285 0.019398-1.9998 0.019398-2.922-0.058193 0.0088172-0.13402 0.019399-0.21162 0-0.067009-0.019397-0.13402-0.086406-0.058193-0.11463 0.27862-0.07759 0.2698-0.36503 0.2698-0.59604-0.00529-0.33329-0.00529-0.68774-0.00529-0.91875z"/>
  <path class="st3" d="m20.693 7.0646c0-0.091698-0.028214-0.1975-0.14107-0.15519-0.021162 0.0070543-0.028215 0-0.028215-0.02116v-0.0070543l0.37385-0.16929 0.070536-0.028216 0.28215-0.12697v0.014108c0 0.02116-0.014109 0.035269-0.028216 0.042321-0.11286 0.063484-0.14107 0.15513-0.14107 0.28215 0 0.26804-0.007053 0.6895-0.007053 1.0915 0.51492-0.070537 0.7812-0.31742 0.87995-0.61191 0.19045-0.54842-0.29626-0.91521-0.80941-0.93638-0.6895-0.021162-1.3737 0.50786-1.1338 1.1338 0.028216 0.070538 0.077591 0.12697 0.16223 0.1058 0.035269-0.0070543 0.05643-0.049376 0.042323-0.077592-0.007054-0.028215 0.007053-0.035269 0.042321-0.021162 0.049377 0.021162 0.11992 0.070537 0.1058 0.16929-0.007053 0.035269-0.035269 0.07759-0.077591 0.098751-0.14813 0.070538-0.31036-0.056429-0.37385-0.21161-0.098751-0.26099 0.05643-0.61191-0.24688-0.95049h0.007055c0.014107-0.014108 0.028214-0.014108 0.049375 0 0.049376 0.082828 0.098752 0.082828 0.12697 0.014107 0.45849-0.44439 1.7599-0.70361 2.2748-0.14107 0.16929 0.2098 0.25393 0.43028 0.25393 0.68245 0.007054 0.39501-0.21162 0.70361-0.52903 0.90111 0.37385 0.11286 0.65424 0.34563 0.83057 0.64012 0.14107 0.23277 0.21162 0.50786 0.21866 0.7812 0.007054 0.2751-0.05643 0.55548-0.1834 0.80236-0.2751 0.52903-0.85878 0.90817-1.7176 0.85878-0.28215-0.014107-0.56254-0.12697-0.7671-0.32447-0.63307-0.5837-0.59075-1.6329 0.23277-1.9644 0.07759-0.035269 0.15518-0.05643 0.23277-0.070537 0-0.23983 0.042322-0.7953-0.25393-0.887-0.05643-0.014107-0.007054-0.063484 0.042323-0.077592 0.084644-0.021162 0.15518-0.014107 0.21162 0.021161v-0.85703zm0.31036 3.2394c-0.74593-0.035269-0.56254-0.78825-0.26804-0.7953 0.042321 0 0.070537 0.014107 0.049376 0.05643-0.19045 0.36679 0.063482 0.50786 0.33152 0.46555 0.61897-0.1058 0.66128-0.90111-0.063482-1.0069-0.16929-0.028215-0.33858 0-0.49376 0.070538 0.070536 0.014107 0.12697 0.049375 0.16929 0.13402 0.014107 0.035269 0.007054 0.098752-0.035269 0.063484-0.098752-0.070538-0.26099-0.042323-0.395 0.028215-0.23983 0.12697-0.33858 0.43733-0.32447 0.6895 0.035269-0.049378 0.098751-0.084646 0.1834-0.091699 0.042321 0 0.091698 0.028214 0.049377 0.056429-0.19045 0.11991-0.11286 0.53432 0.014106 0.6895 0.23983 0.31036 0.61897 0.47259 0.99986 0.40912 0.68244-0.11286 1.2962-0.76004 1.2679-1.5007-0.007053-0.20456-0.056428-0.40912-0.16223-0.57664-0.25393-0.43028-0.7812-0.57664-1.2538-0.50786v0.3809c1.0299 0.18163 0.79707 1.469-0.068773 1.4355z"/>
 </g>
</svg>
