<?xml version="1.0" encoding="UTF-8" standalone="no"?>
<svg
   xmlns:dc="http://purl.org/dc/elements/1.1/"
   xmlns:cc="http://creativecommons.org/ns#"
   xmlns:rdf="http://www.w3.org/1999/02/22-rdf-syntax-ns#"
   xmlns:svg="http://www.w3.org/2000/svg"
   xmlns="http://www.w3.org/2000/svg"
   xmlns:sodipodi="http://sodipodi.sourceforge.net/DTD/sodipodi-0.dtd"
   xmlns:inkscape="http://www.inkscape.org/namespaces/inkscape"
   width="80"
   height="80"
   viewBox="0 0 21.166665 21.166666"
   version="1.1"
   id="svg8"
   inkscape:version="1.0.2 (e86c870879, 2021-01-15)"
   sodipodi:docname="cmb.svg">
  <defs
     id="defs2" />
  <sodipodi:namedview
     id="base"
     pagecolor="#ffffff"
     bordercolor="#666666"
     borderopacity="1.0"
     inkscape:pageopacity="0.0"
     inkscape:pageshadow="2"
     inkscape:zoom="7.9195959"
     inkscape:cx="26.938477"
     inkscape:cy="22.800044"
     inkscape:document-units="mm"
     inkscape:current-layer="layer1"
     inkscape:document-rotation="0"
     showgrid="false"
     fit-margin-top="0"
     fit-margin-left="0"
     fit-margin-right="0"
     fit-margin-bottom="0"
     inkscape:window-width="1920"
     inkscape:window-height="1136"
     inkscape:window-x="0"
     inkscape:window-y="27"
     inkscape:window-maximized="1"
     units="px" />
  <metadata
     id="metadata5">
    <rdf:RDF>
      <cc:Work
         rdf:about="">
        <dc:format>image/svg+xml</dc:format>
        <dc:type
           rdf:resource="http://purl.org/dc/dcmitype/StillImage" />
        <dc:title></dc:title>
      </cc:Work>
    </rdf:RDF>
  </metadata>
  <g
     inkscape:label="Layer 1"
     inkscape:groupmode="layer"
     id="layer1"
     transform="translate(-19.430474,-64.33073)">
    <path
       d="m 34.196668,80.677514 c -0.599414,0.401656 -1.159736,0.74434 -1.691553,1.032433 -0.531816,0.288091 -1.035129,0.521594 -1.520524,0.704889 -0.485396,0.183299 -0.952872,0.316386 -1.413021,0.403649 -0.460149,0.08727 -0.912965,0.128695 -1.369042,0.128695 -0.514714,0 -0.982193,-0.09563 -1.393882,-0.276935 -0.411691,-0.18131 -0.767593,-0.448278 -1.059155,-0.790962 -0.291563,-0.342682 -0.538508,-0.71587 0.01755,-1.470699 -0.753644,-0.388763 -0.947042,-0.814135 -0.926512,-1.414216 0.04533,-1.325361 0.23944,-2.650614 0.658868,-3.891446 0.419425,-1.240833 1.018839,-2.397986 1.738788,-3.389377 0.719948,-0.99139 1.560431,-1.817017 2.461997,-2.394796 0.901563,-0.577779 1.86421,-0.907712 2.828483,-0.907712 0.390923,0 0.732978,0.05899 1.028615,0.178915 0.295634,0.119929 0.544846,0.300844 0.750079,0.544707 0.205235,0.243862 0.36649,0.550683 0.486211,0.922455 0.119718,0.371771 0.197916,0.808492 0.236996,1.312157 l 0.482138,-0.401657 0.482136,-0.401658 0.482138,-0.401655 0.482138,-0.401657 c -0.02606,-0.204013 -0.05538,-0.382529 -0.08957,-0.541517 -0.03421,-0.158991 -0.0733,-0.298454 -0.118921,-0.42437 -0.04562,-0.125913 -0.09772,-0.238283 -0.158,-0.343082 -0.06028,-0.104802 -0.128679,-0.202026 -0.206873,-0.297655 -0.123793,-0.146632 -0.275275,-0.27893 -0.449153,-0.394884 -0.173883,-0.115959 -0.370155,-0.21558 -0.583532,-0.296859 -0.213382,-0.08129 -0.443858,-0.144242 -0.68615,-0.186891 -0.24229,-0.04263 -0.496389,-0.06494 -0.757005,-0.06494 -0.566838,0 -1.156477,0.08129 -1.757928,0.238286 -0.601451,0.157003 -1.214711,0.389701 -1.828785,0.692537 -1.685618,1.052713 -2.199963,0.790171 -2.199963,0.790171 0,0 0.02123,0.62542 -1.406291,1.823786 -0.678377,0.569431 -1.198828,1.294228 -1.693589,2.011869 -0.873841,1.517457 -1.813121,1.838988 -1.813121,1.838988 0,0 0.275255,0.885853 -0.235147,2.844615 -0.178777,0.822839 -0.27161,1.656436 -0.27161,2.485251 0,0.656676 0.09285,1.248003 0.270795,1.765614 0.177948,0.517612 0.44101,0.961505 0.781436,1.323314 0.340428,0.361811 0.758226,0.641535 1.245657,0.830809 0.487432,0.189284 1.044495,0.288093 1.663454,0.288093 0.566839,0 1.167881,-0.06375 1.786027,-0.185694 0.618144,-0.121913 1.501768,-0.34105 2.23331,-0.118966 0.07646,-0.45476 0.925829,-0.933785 1.543976,-1.266109 0.618145,-0.332322 1.219188,-0.711663 1.786025,-1.132447 l 0.04562,-0.191273 0.04559,-0.191272 0.04562,-0.191272 z"
       style="font-style:normal;font-variant:normal;font-weight:normal;font-stretch:normal;font-size:11.2889px;line-height:125%;font-family:Z003;-inkscape-font-specification:'Z003, Normal';font-variant-ligatures:normal;font-variant-caps:normal;font-variant-numeric:normal;font-variant-east-asian:normal;text-align:end;letter-spacing:0px;word-spacing:0px;writing-mode:lr-tb;text-anchor:end;fill:#e6e6e6;fill-opacity:1;stroke:none;stroke-width:0.264584px;stroke-linecap:butt;stroke-linejoin:miter;stroke-opacity:1"
       id="path851-3"
       sodipodi:nodetypes="csssssscsscssssscccccssscsssssccscccsssssscsccccc" />
    <path
       d="m 34.379178,79.912465 c -0.599414,0.401656 -1.159736,0.74434 -1.691553,1.032433 -0.531816,0.288091 -1.035129,0.521594 -1.520524,0.704889 -0.485396,0.183299 -0.952872,0.316386 -1.413021,0.403649 -0.460149,0.08727 -0.912965,0.128695 -1.369042,0.128695 -0.514714,0 -0.982193,-0.09563 -1.393882,-0.276935 -0.411691,-0.18131 -0.767593,-0.448278 -1.059155,-0.790962 -0.291563,-0.342682 -0.538508,-0.71587 0.01755,-1.470699 -0.753644,-0.388763 -0.947042,-0.814135 -0.926512,-1.414216 0.04533,-1.325361 0.23944,-2.650614 0.658868,-3.891446 0.419425,-1.240833 1.018839,-2.397986 1.738788,-3.389377 0.719948,-0.99139 1.560431,-1.817017 2.461997,-2.394796 0.901563,-0.577779 1.86421,-0.907712 2.828483,-0.907712 0.390923,0 0.732978,0.05899 1.028615,0.178915 0.295634,0.119929 0.544846,0.300844 0.750079,0.544707 0.205235,0.243862 0.36649,0.550683 0.486211,0.922455 0.119718,0.371771 0.197916,0.808492 0.236996,1.312157 l 0.482138,-0.401657 0.482136,-0.401658 0.482138,-0.401655 0.482138,-0.401657 c -0.02606,-0.204013 -0.05538,-0.382529 -0.08957,-0.541517 -0.03421,-0.158991 -0.0733,-0.298454 -0.118921,-0.42437 -0.04562,-0.125913 -0.09772,-0.238283 -0.158,-0.343082 -0.06028,-0.104802 -0.128679,-0.202026 -0.206873,-0.297655 -0.123793,-0.146632 -0.275275,-0.27893 -0.449153,-0.394884 -0.173883,-0.115959 -0.370155,-0.21558 -0.583532,-0.296859 -0.213382,-0.08129 -0.443858,-0.144242 -0.68615,-0.186891 -0.24229,-0.04263 -0.496389,-0.06494 -0.757005,-0.06494 -0.566838,0 -1.156477,0.08129 -1.757928,0.238286 -0.601451,0.157003 -1.214711,0.389701 -1.828785,0.692537 -1.685618,1.052713 -2.199963,0.790171 -2.199963,0.790171 0,0 0.02123,0.62542 -1.406291,1.823786 -0.678377,0.569431 -1.198828,1.294228 -1.693589,2.011869 -0.873841,1.517457 -1.813121,1.838988 -1.813121,1.838988 0,0 0.275255,0.885853 -0.235147,2.844615 -0.178777,0.822839 -0.27161,1.656436 -0.27161,2.485251 0,0.656676 0.09285,1.248003 0.270795,1.765614 0.177948,0.517612 0.44101,0.961505 0.781436,1.323314 0.340428,0.361811 0.758226,0.641535 1.245657,0.830809 0.487432,0.189284 1.044495,0.288093 1.663454,0.288093 0.566839,0 1.167881,-0.06375 1.786027,-0.185694 0.618144,-0.121913 1.501768,-0.34105 2.23331,-0.118966 0.07646,-0.45476 0.925829,-0.933785 1.543976,-1.266109 0.618145,-0.332322 1.219188,-0.711663 1.786025,-1.132447 l 0.04562,-0.191273 0.04559,-0.191272 0.04562,-0.191272 z"
       style="font-style:normal;font-variant:normal;font-weight:normal;font-stretch:normal;font-size:11.2889px;line-height:125%;font-family:Z003;-inkscape-font-specification:'Z003, Normal';font-variant-ligatures:normal;font-variant-caps:normal;font-variant-numeric:normal;font-variant-east-asian:normal;text-align:end;letter-spacing:0px;word-spacing:0px;writing-mode:lr-tb;text-anchor:end;fill:#000000;fill-opacity:1;stroke:none;stroke-width:0.264584px;stroke-linecap:butt;stroke-linejoin:miter;stroke-opacity:1"
       id="path851"
       sodipodi:nodetypes="csssssscsscssssscccccssscsssssccscccsssssscsccccc" />
  </g>
</svg>
